<svg
    xmlns="http://www.w3.org/2000/svg"
    width="16"
    height="16"
    viewBox="0 0 16 16"
    fill="none"
>
    <path
        fill-rule="evenodd"
        clip-rule="evenodd"
        d="M8 16C12.4183 16 16 12.4183 16 8C16 3.58172 12.4183 0 8 0C3.58172 0 0 3.58172 0 8C0 12.4183 3.58172 16 8 16ZM11.0828 4.91716C10.9266 4.76095 10.6734 4.76095 10.5172 4.91716L8 7.43431L5.48284 4.91716C5.32663 4.76095 5.07337 4.76095 4.91716 4.91716C4.76095 5.07337 4.76095 5.32663 4.91716 5.48284L7.43432 8L4.91716 10.5172C4.76095 10.6734 4.76095 10.9266 4.91716 11.0828C5.07337 11.2391 5.32663 11.2391 5.48284 11.0828L8 8.56569L10.5172 11.0828C10.6734 11.2391 10.9266 11.2391 11.0828 11.0828C11.2391 10.9266 11.2391 10.6734 11.0828 10.5172L8.56569 8L11.0828 5.48284C11.2391 5.32663 11.2391 5.07337 11.0828 4.91716Z"
        fill="#B70F17"
    />
</svg>