<svg width="24" height="24" viewBox="0 0 24 24" fill="none" xmlns="http://www.w3.org/2000/svg">
<path d="M12.1071 5.34972C13.4047 5.2915 14.409 4.18159 14.3502 2.87067C14.2914 1.55976 13.1918 0.544247 11.8941 0.602468C10.5964 0.660689 9.59211 1.77059 9.65093 3.08151C9.70974 4.39243 10.8094 5.40794 12.1071 5.34972Z" fill="black"/>
<path d="M17.5198 12.1199L15.8878 7.67993C15.5038 6.62393 14.4718 5.90393 13.3438 5.90393H10.6558C9.52781 5.90393 8.51981 6.59993 8.11181 7.67993L6.47981 12.1439C6.28781 12.6479 6.55181 13.2239 7.05581 13.3919C7.55981 13.5839 8.13581 13.3199 8.30381 12.8159L9.38381 9.86393V22.2239C9.38381 22.8239 9.81581 23.3519 10.4158 23.3999C11.0878 23.4719 11.6638 22.9439 11.6638 22.2719V14.9759C11.6638 14.7839 11.8078 14.6399 11.9998 14.6399C12.1918 14.6399 12.3358 14.7839 12.3358 14.9759V22.2239C12.3358 22.8239 12.7678 23.3519 13.3678 23.3999C14.0398 23.4719 14.6158 22.9439 14.6158 22.2719V9.86393L15.6958 12.8159C15.8398 13.1999 16.2238 13.4639 16.6078 13.4639C16.7758 13.4639 16.9678 13.4159 17.1358 13.3199C17.5198 13.0799 17.6878 12.5519 17.5198 12.1199Z" fill="black"/>
</svg>
