<svg width="16" height="16" viewBox="0 0 16 16" fill="none" xmlns="http://www.w3.org/2000/svg">
<mask id="mask0_3173_480117" style="mask-type:luminance" maskUnits="userSpaceOnUse" x="1" y="1" width="14" height="14">
<path d="M1.33398 1.33337H14.6673V14.6667H1.33398V1.33337Z" fill="white"/>
</mask>
<g mask="url(#mask0_3173_480117)">
<path d="M8.0013 11.33C8.88536 11.33 9.7332 10.9788 10.3583 10.3537C10.9834 9.72856 11.3346 8.88072 11.3346 7.99666C11.3346 7.11261 10.9834 6.26476 10.3583 5.63964C9.7332 5.01452 8.88536 4.66333 8.0013 4.66333C7.11725 4.66333 6.2694 5.01452 5.64428 5.63964C5.01916 6.26476 4.66797 7.11261 4.66797 7.99666C4.66797 8.88072 5.01916 9.72856 5.64428 10.3537C6.2694 10.9788 7.11725 11.33 8.0013 11.33Z" stroke="#757F90" stroke-miterlimit="10"/>
<path d="M3.00174 7.99807H1.89062M14.1128 7.99807H13.0017M8.00174 12.9981V14.1092M8.00174 1.88696V2.99807M4.46618 11.5336L3.68063 12.3192M12.3228 3.67696L11.5373 4.46252M4.46618 4.46252L3.68063 3.67696M12.3228 12.3192L11.5373 11.5336M11.3351 7.99807C11.3351 8.88213 10.9839 9.72998 10.3588 10.3551C9.73364 10.9802 8.88579 11.3314 8.00174 11.3314C7.11768 11.3314 6.26984 10.9802 5.64471 10.3551C5.01959 9.72998 4.6684 8.88213 4.6684 7.99807C4.6684 7.11402 5.01959 6.26617 5.64471 5.64105C6.26984 5.01593 7.11768 4.66474 8.00174 4.66474C8.88579 4.66474 9.73364 5.01593 10.3588 5.64105C10.9839 6.26617 11.3351 7.11402 11.3351 7.99807Z" stroke="#757F90" stroke-miterlimit="10" stroke-linecap="round"/>
</g>
</svg>
