<svg width="189" height="17" viewBox="0 0 189 17" fill="none" xmlns="http://www.w3.org/2000/svg">
<path d="M188.731 8.23824L182.342 5.17941C182.226 5.12357 182.077 5.07842 181.908 5.04735C181.739 5.01627 181.553 5.00009 181.365 5H178.841C178.58 5 178.435 5.11324 178.595 5.19118L184.216 7.88235H0.311631C0.140234 7.88235 0 7.93529 0 8V8.88235C0 8.94706 0.140234 9 0.311631 9H187.749C188.793 9 189.374 8.54706 188.731 8.23824Z" fill="#EFF1F4"/>
<path d="M100.658 8.66523C100.658 8.84287 100.623 9.01872 100.554 9.18234C100.485 9.34596 100.383 9.49403 100.256 9.61776C100.128 9.74149 99.9773 9.83836 99.8117 9.90263C99.6461 9.9669 99.4693 9.99726 99.2917 9.9919L96.1331 9.89923L93.8304 14.6612C93.6457 15.0439 93.2571 15.2879 92.8317 15.2879C92.7444 15.288 92.658 15.2695 92.5783 15.2337C92.4986 15.1979 92.4275 15.1456 92.3695 15.0803C92.3115 15.0149 92.2681 14.938 92.242 14.8546C92.216 14.7712 92.2079 14.6833 92.2184 14.5966L92.7937 9.80123L90.2837 9.7279L89.9571 10.6219C89.8966 10.7874 89.7867 10.9303 89.6423 11.0313C89.4979 11.1323 89.3259 11.1865 89.1497 11.1866C89.0708 11.1867 88.9926 11.1712 88.9196 11.141C88.8467 11.1108 88.7804 11.0665 88.7246 11.0106C88.6688 10.9547 88.6245 10.8884 88.5944 10.8154C88.5643 10.7424 88.5489 10.6642 88.5491 10.5852V9.60123L88.0091 9.48857C87.8199 9.44917 87.6502 9.34583 87.5283 9.19594C87.4064 9.04605 87.3398 8.85876 87.3398 8.66557C87.3398 8.47238 87.4064 8.28508 87.5283 8.13519C87.6502 7.9853 87.8199 7.88197 88.0091 7.84257L88.5491 7.73057V6.74523C88.5489 6.59892 88.6022 6.45759 88.699 6.34783C88.7957 6.23807 88.9292 6.16744 89.0744 6.14923L89.1497 6.14457C89.3258 6.14473 89.4975 6.1989 89.6417 6.29975C89.786 6.40061 89.8958 6.54331 89.9564 6.70857L90.2844 7.6019L92.7851 7.52857L92.2184 2.8059L92.2157 2.76923L92.2144 2.73257C92.2144 2.3919 92.4911 2.11523 92.8317 2.11523C93.2217 2.11523 93.5804 2.3199 93.7804 2.64857L93.8304 2.7419L96.0991 7.4319L99.2924 7.33857C99.4666 7.33342 99.6402 7.36265 99.8031 7.4246C99.9661 7.48656 100.115 7.58001 100.242 7.69963C100.369 7.81924 100.471 7.96268 100.542 8.12173C100.613 8.28078 100.653 8.45232 100.658 8.62657L100.658 8.66523Z" fill="#9CA9B9"/>
</svg>
