<svg width="12" height="12" viewBox="0 0 12 12" fill="none" xmlns="http://www.w3.org/2000/svg">
<g id="Icon">
<path id="Union" fill-rule="evenodd" clip-rule="evenodd" d="M10.3619 6.3692C10.4479 6.2704 10.5 6.14129 10.5 6.00001C10.5 5.99797 10.5 5.99593 10.5 5.99389C10.4985 5.85584 10.4473 5.72971 10.3634 5.63258L6.98958 1.69644C6.78741 1.46057 6.4323 1.43325 6.19643 1.63543C5.96056 1.8376 5.93324 2.19271 6.13542 2.42858L8.71451 5.43751L2.0625 5.43751C1.75184 5.43751 1.5 5.68935 1.5 6.00001C1.5 6.31067 1.75184 6.56251 2.0625 6.56251L8.71449 6.56251L6.13542 9.57142C5.93324 9.80729 5.96056 10.1624 6.19643 10.3646C6.4323 10.5667 6.78741 10.5394 6.98958 10.3036L10.3619 6.3692Z" fill="white"/>
</g>
</svg>
