<svg width="16" height="16" viewBox="0 0 16 16" fill="none" xmlns="http://www.w3.org/2000/svg">
<path fill-rule="evenodd" clip-rule="evenodd" d="M13.8159 8.49226C13.9306 8.36054 14 8.18839 14 8.00001C14 7.99729 14 7.99457 14 7.99185C13.998 7.80778 13.9297 7.63962 13.8179 7.51011L9.31944 2.26192C9.04988 1.94743 8.5764 1.911 8.26191 2.18057C7.94741 2.45014 7.91099 2.92361 8.18056 3.2381L11.6193 7.25002L2.75 7.25001C2.33579 7.25001 2 7.5858 2 8.00001C2 8.41423 2.33579 8.75001 2.75 8.75001L11.6193 8.75001L8.18056 12.7619C7.91099 13.0764 7.94741 13.5499 8.2619 13.8194C8.5764 14.089 9.04987 14.0526 9.31944 13.7381L13.8159 8.49226Z" fill="#181C21"/>
</svg>
