<svg width="24" height="24" viewBox="0 0 24 24" fill="none" xmlns="http://www.w3.org/2000/svg">
<path d="M14.8253 6.11578C14.8253 7.63537 13.598 8.86267 12.0784 8.86267C10.5588 8.86267 9.33154 7.63531 9.33154 6.11578C9.33154 4.5962 10.5589 3.3689 12.0784 3.3689C13.598 3.36883 14.8253 4.5962 14.8253 6.11578Z" fill="black"/>
<path d="M9.36963 9.17468H14.7855V14.2009H9.36963V9.17468Z" fill="black"/>
<path d="M12.3013 11.2574L16.275 7.46399L17.7009 8.95763L13.7272 12.751L12.3013 11.2574Z" fill="black"/>
<path d="M18.0002 8.22066C18.0002 8.78564 17.5326 9.25321 16.9676 9.25321C16.4026 9.25321 15.9351 8.78564 15.9351 8.22066C15.9351 7.65568 16.4026 7.18811 16.9676 7.18811C17.5326 7.18817 18.0002 7.65568 18.0002 8.22066Z" fill="black"/>
<path d="M10.2867 12.7732L6.31299 8.97985L7.7389 7.48621L11.7126 11.2796L10.2867 12.7732Z" fill="black"/>
<path d="M5.99902 8.25875C5.99902 8.82373 6.4666 9.2913 7.03157 9.2913C7.59655 9.2913 8.06412 8.82373 8.06412 8.25875C8.06412 7.69377 7.59655 7.2262 7.03157 7.2262C6.4666 7.2262 5.99902 7.6743 5.99902 8.25875Z" fill="black"/>
<path d="M9.56436 18.6629L7.61621 16.968L9.36954 14.9614L11.3372 16.6368L9.56436 18.6629Z" fill="black"/>
<path d="M9.93516 17.7474C9.93516 18.4681 9.35072 19.0526 8.62993 19.0526C7.90915 19.0526 7.32471 18.4681 7.32471 17.7474C7.32471 17.0266 7.90915 16.4421 8.62993 16.4421C9.35072 16.4616 9.93516 17.046 9.93516 17.7474Z" fill="black"/>
<path d="M9.22706 17.062L11.1677 18.6588L9.7566 20.3738L7.81592 18.777L9.22706 17.062Z" fill="black"/>
<path d="M11.5714 19.519C11.5714 20.1424 11.0649 20.6294 10.461 20.6294C9.83762 20.6294 9.35059 20.1229 9.35059 19.519C9.35059 18.8957 9.85709 18.4086 10.461 18.4086C11.0844 18.3892 11.5714 18.8957 11.5714 19.519Z" fill="black"/>
<path d="M14.6108 18.6629L16.5589 16.968L14.7666 14.9614L12.8574 16.6368L14.6108 18.6629Z" fill="black"/>
<path d="M14.2402 17.7474C14.2402 18.4681 14.8247 19.0526 15.5455 19.0526C16.2662 19.0526 16.8507 18.4681 16.8507 17.7474C16.8507 17.0266 16.2662 16.4421 15.5455 16.4421C14.8052 16.4616 14.2402 17.046 14.2402 17.7474Z" fill="black"/>
<path d="M16.3425 18.7723L14.4019 20.3691L12.9907 18.6541L14.9314 17.0573L16.3425 18.7723Z" fill="black"/>
<path d="M12.585 19.519C12.585 20.1424 13.0915 20.6294 13.6954 20.6294C14.3187 20.6294 14.8058 20.1229 14.8058 19.519C14.8058 18.8957 14.2993 18.4086 13.6954 18.4086C13.0915 18.3892 12.585 18.8957 12.585 19.519Z" fill="black"/>
<path d="M9.36963 14.1624H9.60337V15.2144H9.36963V14.1624Z" fill="black"/>
<path d="M10.4604 16.4215H13.3047V16.6553H10.4604V16.4215Z" fill="black"/>
<path d="M14.5522 14.1624H14.786V15.2144H14.5522V14.1624Z" fill="black"/>
</svg>
