<svg width="40" height="12" viewBox="0 0 40 12" fill="none" xmlns="http://www.w3.org/2000/svg">
<path d="M13.9453 4.51376C13.25 3.71759 11.9392 3.12307 11.2334 2.77539C9.48526 1.91441 7.66155 1.21612 5.7854 0.689349C5.29131 0.532521 4.77736 0.447057 4.25911 0.435547C2.88927 0.456407 1.63069 1.71499 0.869285 2.74758C0.330391 3.47422 -0.118109 4.45466 0.0279143 5.3899C0.333867 7.38207 2.22869 9.40901 3.74107 10.605C4.16518 10.9642 4.64876 11.2466 5.17001 11.4394C6.00791 11.7245 6.81451 11.4812 7.60373 11.1196C8.92819 10.5062 10.1854 9.75701 11.3551 8.88403C12.5025 8.01832 15.3708 6.17912 13.9453 4.51376Z" fill="url(#paint0_radial_695_9436)"/>
<path d="M12.5998 5.07004C12.5573 5.01213 12.5012 4.96556 12.4364 4.93445C12.3703 4.90316 12.2939 4.8962 12.2243 4.86839C12.1548 4.84058 12.1304 4.7328 12.0748 4.70846C12.0254 4.68404 11.9742 4.66312 11.9218 4.64588C11.8732 4.64588 11.8245 4.6285 11.7758 4.61807C11.6507 4.60068 11.3169 4.53462 11.1952 4.50333C11.1604 4.50333 11.1952 4.57982 11.1952 4.59373C11.2044 4.61281 11.218 4.6294 11.235 4.64211C11.2519 4.65482 11.2717 4.66326 11.2926 4.66674C11.346 4.66873 11.3973 4.68828 11.4386 4.72237C11.41 4.74054 11.3842 4.7628 11.3621 4.78843C11.3265 4.83536 11.2973 4.8868 11.2752 4.9414C11.1028 5.35053 10.8044 5.694 10.4234 5.92184C9.84971 6.24518 9.65153 5.99486 9.31081 5.45944C9.08478 5.09552 8.78516 4.78288 8.4312 4.54158C8.07557 4.31137 7.68935 4.13231 7.28387 4.00964C6.83537 3.87404 6.36254 3.85666 5.89318 3.72454C5.49683 3.60981 4.37732 3.39773 4.00531 2.36166C3.89456 2.70058 3.85865 3.05949 3.90007 3.41363C3.94149 3.76778 4.05924 4.10872 4.2452 4.41294C4.64698 5.08054 5.19205 5.65055 5.84102 6.08177L6.15045 6.32515C6.46336 6.57547 6.87362 6.8849 6.91534 7.31254C6.97792 7.9314 6.28257 8.08438 5.80626 8.12957C4.98163 8.16741 4.16585 7.94614 3.47336 7.49681L3.303 7.38903C2.93447 7.16304 2.55898 6.93358 2.20435 6.69368C2.19254 6.68694 2.17875 6.68447 2.16533 6.68671C2.15191 6.68895 2.13967 6.69575 2.13069 6.70597C2.1217 6.71618 2.11651 6.72918 2.11599 6.74278C2.11548 6.75638 2.11967 6.76973 2.12787 6.7806C2.86568 7.65305 3.79981 8.33815 4.85363 8.77972C5.67783 9.08962 6.57093 9.16895 7.43685 9.00919C8.29032 8.84093 9.08777 8.46074 9.75583 7.90359C9.85318 7.82362 9.95053 7.7367 10.0444 7.64631C10.3172 7.38515 10.5619 7.09617 10.7745 6.78408C11.1709 6.21041 11.5881 5.57069 12.2104 5.21954C12.2633 5.17547 12.3274 5.14694 12.3955 5.13712C12.4636 5.1273 12.5332 5.13657 12.5963 5.16391L12.6062 5.16769L12.6164 5.16507L12.6232 5.15704L12.6241 5.14653C12.6211 5.11968 12.6129 5.09369 12.5998 5.07004Z" fill="white"/>
<path d="M4.25911 4.41294C4.66089 5.08054 5.20596 5.65055 5.85493 6.08177L6.16436 6.32515C6.47727 6.57547 6.88752 6.8849 6.92924 7.31254C6.94187 7.41191 6.92903 7.51286 6.89193 7.60591C6.85483 7.69896 6.79469 7.78105 6.71716 7.84448C7.11699 7.49681 7.90273 6.59633 5.88274 5.37252C3.54638 3.95749 4.01921 2.36166 4.01921 2.36166C3.90846 2.70058 3.87256 3.05949 3.91398 3.41363C3.95539 3.76778 4.07314 4.10872 4.25911 4.41294Z" fill="url(#paint1_linear_695_9436)"/>
<path d="M20.8258 7.04135C20.8258 7.80971 20.2382 8.3347 19.3586 8.3347H17.3525V3.89143H19.3273C19.4886 3.87677 19.6512 3.89622 19.8045 3.94852C19.9577 4.00081 20.0983 4.08478 20.217 4.19496C20.3357 4.30514 20.4299 4.43906 20.4935 4.58803C20.557 4.737 20.5885 4.89767 20.5859 5.05961C20.585 5.24865 20.5328 5.43391 20.4349 5.59558C20.3369 5.75725 20.1968 5.88925 20.0296 5.97747C20.2603 6.04353 20.463 6.18329 20.6068 6.3754C20.7505 6.56751 20.8275 6.80141 20.8258 7.04135ZM19.0526 5.69933C19.4525 5.69933 19.7167 5.47682 19.7167 5.13958C19.7167 4.80233 19.4455 4.60764 19.0561 4.60764H18.2008V5.72019L19.0526 5.69933ZM19.2265 7.62892C19.6645 7.62892 19.9566 7.38207 19.9566 7.01702C19.9544 6.9276 19.9334 6.83964 19.8951 6.75882C19.8568 6.67799 19.802 6.6061 19.7342 6.54779C19.6663 6.48947 19.587 6.44602 19.5014 6.42025C19.4157 6.39447 19.3256 6.38695 19.2369 6.39816H18.1939V7.62892H19.2265Z" fill="#0061AF"/>
<path d="M22.0531 3.65153V8.34165H21.236V3.65153H22.0531Z" fill="#0061AF"/>
<path d="M25.575 8.34165H24.7893V7.94183C24.67 8.08968 24.5182 8.20802 24.3458 8.28762C24.1733 8.36722 23.9848 8.40594 23.7949 8.40076C23.6282 8.40754 23.4619 8.37906 23.3069 8.31716C23.152 8.25527 23.0118 8.16136 22.8957 8.04157C22.7795 7.92179 22.6899 7.77883 22.6328 7.62205C22.5756 7.46527 22.5523 7.29819 22.5641 7.13175V5.10133H23.3812V7.00659C23.3812 7.191 23.4544 7.36787 23.5848 7.49827C23.7152 7.62867 23.8921 7.70193 24.0765 7.70193C24.2609 7.70193 24.4378 7.62867 24.5682 7.49827C24.6986 7.36787 24.7719 7.191 24.7719 7.00659V5.10133H25.5889L25.575 8.34165Z" fill="#0061AF"/>
<path d="M29.1317 7.01006H26.7919C26.8579 7.48638 27.1082 7.75756 27.5672 7.75756C27.7179 7.75879 27.8669 7.72634 28.0035 7.66258C28.14 7.59881 28.2606 7.50536 28.3564 7.38903L28.9892 7.70889C28.8292 7.93193 28.6167 8.11208 28.3705 8.23337C28.1243 8.35466 27.8519 8.41335 27.5776 8.40424C27.3569 8.41638 27.1362 8.38175 26.9299 8.30261C26.7235 8.22347 26.5363 8.10161 26.3803 7.94502C26.2244 7.78842 26.1033 7.60064 26.0251 7.39397C25.9468 7.18731 25.9131 6.96643 25.9262 6.74583C25.9262 5.72367 26.5763 5.04223 27.5428 5.04223C27.7593 5.03047 27.9757 5.06473 28.178 5.14275C28.3802 5.22077 28.5636 5.34079 28.716 5.49487C28.8684 5.64896 28.9865 5.83361 29.0623 6.03666C29.1382 6.23971 29.1701 6.45653 29.156 6.67282C29.1556 6.78566 29.1475 6.89833 29.1317 7.01006ZM26.7919 6.45726H28.3042C28.2382 5.96009 27.9566 5.68195 27.5428 5.68195C27.1291 5.68195 26.8579 5.96009 26.7919 6.45726Z" fill="#0061AF"/>
<path d="M32.9248 6.7354C32.9385 6.94772 32.9088 7.16061 32.8375 7.36106C32.7661 7.5615 32.6546 7.74528 32.5098 7.90115C32.365 8.05703 32.1899 8.18174 31.9952 8.26764C31.8006 8.35354 31.5904 8.39884 31.3777 8.40076C31.1645 8.41229 30.952 8.36801 30.7611 8.27228C30.5703 8.17655 30.4077 8.03269 30.2895 7.85491L30.2721 8.34165H29.4863V3.65153H30.3034V5.57069C30.4215 5.39708 30.5825 5.2569 30.7707 5.16371C30.9589 5.07053 31.168 5.02748 31.3777 5.03875C32.2469 5.03875 32.9248 5.73062 32.9248 6.7354ZM32.08 6.7354C32.0921 6.61109 32.0781 6.48563 32.0389 6.36704C31.9997 6.24845 31.9362 6.13935 31.8524 6.04673C31.7686 5.95411 31.6664 5.88 31.5523 5.82916C31.4383 5.77832 31.3148 5.75186 31.1899 5.75148C31.0652 5.75078 30.9417 5.77642 30.8275 5.82673C30.7133 5.87703 30.611 5.95087 30.5274 6.04341C30.4437 6.13595 30.3805 6.24511 30.3419 6.36376C30.3033 6.4824 30.2902 6.60786 30.3034 6.73192C30.2898 6.85666 30.3027 6.98285 30.3412 7.10228C30.3797 7.22171 30.4429 7.3317 30.5266 7.42508C30.6104 7.51847 30.713 7.59316 30.8276 7.64429C30.9421 7.69542 31.0662 7.72184 31.1917 7.72184C31.3171 7.72184 31.4412 7.69542 31.5558 7.64429C31.6704 7.59316 31.7729 7.51847 31.8567 7.42508C31.9405 7.3317 32.0037 7.22171 32.0422 7.10228C32.0806 6.98285 32.0935 6.85666 32.08 6.73192V6.7354Z" fill="#0061AF"/>
<path d="M33.203 4.0896C33.201 4.02516 33.2123 3.961 33.2361 3.90108C33.2599 3.84115 33.2957 3.78673 33.3413 3.74114C33.3868 3.69555 33.4413 3.65977 33.5012 3.63599C33.5611 3.61221 33.6253 3.60093 33.6897 3.60286C33.7539 3.60088 33.8177 3.61217 33.8773 3.63602C33.9368 3.65987 33.9908 3.69577 34.0359 3.74147C34.0809 3.78717 34.1161 3.84168 34.139 3.90158C34.162 3.96149 34.1724 4.0255 34.1695 4.0896C34.1725 4.1534 34.1621 4.21711 34.139 4.27667C34.116 4.33622 34.0807 4.39031 34.0356 4.43547C33.9904 4.48063 33.9363 4.51587 33.8768 4.53893C33.8172 4.56199 33.7535 4.57236 33.6897 4.56939C33.6256 4.5723 33.5616 4.56193 33.5017 4.53893C33.4418 4.51594 33.3873 4.48082 33.3416 4.43578C33.2959 4.39073 33.26 4.33673 33.2361 4.27716C33.2123 4.21759 33.201 4.15374 33.203 4.0896ZM34.0965 8.34165H33.2725V5.10133H34.0861L34.0965 8.34165Z" fill="#0061AF"/>
<path d="M35.4037 5.53245C35.5515 5.36538 35.7354 5.2341 35.9414 5.14857C36.1474 5.06304 36.3701 5.02549 36.5928 5.03875L36.5372 5.78973C35.8661 5.78973 35.4211 6.11654 35.4211 6.60329V8.34165H34.5937V5.10133H35.3794L35.4037 5.53245Z" fill="#0061AF"/>
<path d="M39.9826 8.34165H39.1969V7.85491C39.0796 8.0337 38.9173 8.17834 38.7262 8.27419C38.5351 8.37005 38.322 8.41371 38.1087 8.40076C37.8957 8.39934 37.6854 8.35438 37.4905 8.26865C37.2956 8.18292 37.1203 8.05822 36.9754 7.90224C36.8305 7.74625 36.719 7.56227 36.6478 7.3616C36.5766 7.16094 36.5473 6.94784 36.5615 6.7354C36.5615 5.73062 37.236 5.03875 38.1087 5.03875C38.3184 5.02714 38.5276 5.07003 38.7159 5.16325C38.9041 5.25647 39.065 5.39684 39.183 5.57069V3.65153H40L39.9826 8.34165ZM39.1656 6.71802C39.1765 6.59499 39.1617 6.47104 39.1221 6.35406C39.0825 6.23707 39.019 6.1296 38.9356 6.0385C38.8522 5.94739 38.7507 5.87463 38.6377 5.82486C38.5247 5.77508 38.4025 5.74938 38.279 5.74938C38.1555 5.74938 38.0333 5.77508 37.9203 5.82486C37.8073 5.87463 37.7058 5.94739 37.6225 6.0385C37.5391 6.1296 37.4756 6.23707 37.436 6.35406C37.3964 6.47104 37.3815 6.59499 37.3924 6.71802C37.3815 6.84104 37.3964 6.96499 37.436 7.08198C37.4756 7.19897 37.5391 7.30643 37.6225 7.39754C37.7058 7.48865 37.8073 7.5614 37.9203 7.61118C38.0333 7.66095 38.1555 7.68666 38.279 7.68666C38.4025 7.68666 38.5247 7.66095 38.6377 7.61118C38.7507 7.5614 38.8522 7.48865 38.9356 7.39754C39.019 7.30643 39.0825 7.19897 39.1221 7.08198C39.1617 6.96499 39.1765 6.84104 39.1656 6.71802Z" fill="#0061AF"/>
<defs>
<radialGradient id="paint0_radial_695_9436" cx="0" cy="0" r="1" gradientUnits="userSpaceOnUse" gradientTransform="translate(-57.7287 1.59678) rotate(180) scale(49.6181 17.7807)">
<stop offset="0.11" stop-color="#0EBFD7"/>
<stop offset="0.22" stop-color="#0AA7CD"/>
<stop offset="0.47" stop-color="#0375B7"/>
<stop offset="0.6" stop-color="#0061AF"/>
</radialGradient>
<linearGradient id="paint1_linear_695_9436" x1="-0.0811739" y1="5.99647" x2="39.9989" y2="5.99647" gradientUnits="userSpaceOnUse">
<stop stop-color="white"/>
<stop offset="0.16" stop-color="#FCFDFE" stop-opacity="0.99"/>
<stop offset="0.29" stop-color="#F2F7FB" stop-opacity="0.98"/>
<stop offset="0.41" stop-color="#E1ECF6" stop-opacity="0.95"/>
<stop offset="0.52" stop-color="#C9DEEE" stop-opacity="0.92"/>
<stop offset="0.63" stop-color="#AACAE4" stop-opacity="0.87"/>
<stop offset="0.74" stop-color="#84B3D9" stop-opacity="0.81"/>
<stop offset="0.84" stop-color="#5897CA" stop-opacity="0.74"/>
<stop offset="0.94" stop-color="#2578BB" stop-opacity="0.66"/>
<stop offset="1" stop-color="#0061AF" stop-opacity="0.6"/>
</linearGradient>
</defs>
</svg>
