<svg width="32" height="32" viewBox="0 0 32 32" fill="none" xmlns="http://www.w3.org/2000/svg">
<rect width="32" height="32" rx="4" fill="white"/>
<path d="M11.3631 15.1949C10.8297 14.5842 9.8244 14.1282 9.28307 13.8616C7.9422 13.2012 6.54342 12.6656 5.1044 12.2616C4.72544 12.1413 4.33124 12.0757 3.93374 12.0669C2.88307 12.0829 1.91774 13.0482 1.33374 13.8402C0.920403 14.3976 0.576402 15.1496 0.688402 15.8669C0.923069 17.3949 2.3764 18.9496 3.5364 19.8669C3.86169 20.1424 4.2326 20.359 4.6324 20.5069C5.27507 20.7256 5.89374 20.5389 6.49907 20.2616C7.51493 19.7911 8.47921 19.2165 9.3764 18.5469C10.2564 17.8829 12.4564 16.4722 11.3631 15.1949Z" fill="url(#paint0_radial_292_62999)"/>
<path d="M10.3302 15.6213C10.2976 15.5769 10.2545 15.5411 10.2049 15.5173C10.1542 15.4933 10.0955 15.4879 10.0422 15.4666C9.98887 15.4453 9.9702 15.3626 9.92753 15.3439C9.8896 15.3252 9.85039 15.3092 9.8102 15.2959C9.77287 15.2959 9.73553 15.2826 9.6982 15.2746C9.6022 15.2613 9.3462 15.2106 9.25287 15.1866C9.2262 15.1866 9.25287 15.2453 9.25287 15.2559C9.25991 15.2706 9.27038 15.2833 9.28337 15.2931C9.29636 15.3028 9.31151 15.3093 9.32753 15.3119C9.36854 15.3135 9.40791 15.3285 9.43953 15.3546C9.41762 15.3686 9.39785 15.3856 9.38087 15.4053C9.35357 15.4413 9.33115 15.4807 9.3142 15.5226C9.18199 15.8364 8.95312 16.0999 8.66087 16.2746C8.22087 16.5226 8.06887 16.3306 7.80753 15.9199C7.63417 15.6408 7.40436 15.401 7.13287 15.2159C6.8601 15.0394 6.56387 14.902 6.25287 14.8079C5.90887 14.7039 5.5462 14.6906 5.1862 14.5893C4.8822 14.5013 4.02353 14.3386 3.7382 13.5439C3.65326 13.8039 3.62572 14.0792 3.65748 14.3508C3.68925 14.6224 3.77957 14.8839 3.9222 15.1173C4.23037 15.6293 4.64844 16.0665 5.1462 16.3973L5.38353 16.5839C5.62353 16.7759 5.9382 17.0133 5.9702 17.3413C6.0182 17.8159 5.48487 17.9333 5.11953 17.9679C4.48705 17.997 3.86134 17.8272 3.3302 17.4826L3.19953 17.3999C2.91687 17.2266 2.62887 17.0506 2.35687 16.8666C2.3478 16.8614 2.33723 16.8596 2.32694 16.8613C2.31664 16.863 2.30726 16.8682 2.30036 16.876C2.29347 16.8839 2.28949 16.8938 2.28909 16.9043C2.2887 16.9147 2.29192 16.9249 2.2982 16.9333C2.8641 17.6024 3.58058 18.1279 4.38887 18.4666C5.02103 18.7043 5.70604 18.7652 6.3702 18.6426C7.02481 18.5136 7.63646 18.2219 8.14887 17.7946C8.22353 17.7333 8.2982 17.6666 8.3702 17.5973C8.57942 17.397 8.76711 17.1753 8.9302 16.9359C9.2342 16.4959 9.5542 16.0053 10.0315 15.7359C10.0721 15.7021 10.1212 15.6803 10.1735 15.6727C10.2258 15.6652 10.2791 15.6723 10.3275 15.6933C10.3297 15.695 10.3323 15.696 10.3351 15.6962C10.3378 15.6963 10.3406 15.6956 10.3429 15.6942C10.3453 15.6927 10.3471 15.6906 10.3482 15.688C10.3492 15.6855 10.3495 15.6826 10.3489 15.6799C10.3466 15.6594 10.3402 15.6394 10.3302 15.6213Z" fill="white"/>
<path d="M3.93376 15.1173C4.24193 15.6293 4.66 16.0665 5.15776 16.3973L5.3951 16.5839C5.6351 16.7759 5.94976 17.0133 5.98176 17.3413C5.99145 17.4175 5.9816 17.4949 5.95314 17.5663C5.92469 17.6377 5.87856 17.7006 5.8191 17.7493C6.12576 17.4826 6.72843 16.7919 5.1791 15.8533C3.3871 14.7679 3.74976 13.5439 3.74976 13.5439C3.66482 13.8039 3.63728 14.0792 3.66905 14.3508C3.70082 14.6224 3.79113 14.8839 3.93376 15.1173Z" fill="url(#paint1_linear_292_62999)"/>
<path d="M16.6396 17.1335C16.6396 17.7228 16.1889 18.1255 15.5143 18.1255H13.9756V14.7175H15.4903C15.614 14.7063 15.7387 14.7212 15.8562 14.7613C15.9738 14.8014 16.0816 14.8658 16.1727 14.9503C16.2637 15.0348 16.3359 15.1375 16.3847 15.2518C16.4334 15.3661 16.4576 15.4893 16.4556 15.6135C16.4549 15.7585 16.4149 15.9006 16.3398 16.0246C16.2646 16.1486 16.1572 16.2498 16.0289 16.3175C16.2059 16.3682 16.3613 16.4754 16.4716 16.6227C16.5819 16.7701 16.6409 16.9495 16.6396 17.1335ZM15.2796 16.1042C15.5863 16.1042 15.7889 15.9335 15.7889 15.6748C15.7889 15.4162 15.5809 15.2668 15.2823 15.2668H14.6263V16.1202L15.2796 16.1042ZM15.4129 17.5842C15.7489 17.5842 15.9729 17.3948 15.9729 17.1148C15.9712 17.0463 15.9552 16.9788 15.9258 16.9168C15.8964 16.8548 15.8543 16.7997 15.8023 16.7549C15.7503 16.7102 15.6895 16.6769 15.6238 16.6571C15.5581 16.6373 15.489 16.6316 15.4209 16.6402H14.6209V17.5842H15.4129Z" fill="#0061AF"/>
<path d="M17.5817 14.5332V18.1305H16.9551V14.5332H17.5817Z" fill="#0061AF"/>
<path d="M20.2823 18.1308H19.6797V17.8242C19.5882 17.9376 19.4718 18.0283 19.3395 18.0894C19.2072 18.1504 19.0627 18.1801 18.917 18.1762C18.7891 18.1814 18.6616 18.1595 18.5427 18.1121C18.4239 18.0646 18.3164 17.9926 18.2273 17.9007C18.1382 17.8088 18.0695 17.6992 18.0257 17.5789C17.9818 17.4587 17.9639 17.3305 17.973 17.2028V15.6455H18.5997V17.1068C18.5997 17.2483 18.6559 17.3839 18.7559 17.484C18.8559 17.584 18.9916 17.6402 19.133 17.6402C19.2745 17.6402 19.4101 17.584 19.5101 17.484C19.6102 17.3839 19.6663 17.2483 19.6663 17.1068V15.6455H20.293L20.2823 18.1308Z" fill="#0061AF"/>
<path d="M23.0106 17.1092H21.2159C21.2666 17.4745 21.4586 17.6825 21.8106 17.6825C21.9262 17.6835 22.0405 17.6586 22.1452 17.6097C22.25 17.5608 22.3424 17.4891 22.4159 17.3999L22.9012 17.6452C22.7786 17.8163 22.6156 17.9545 22.4267 18.0475C22.2379 18.1405 22.029 18.1855 21.8186 18.1785C21.6493 18.1879 21.48 18.1613 21.3218 18.1006C21.1635 18.0399 21.0199 17.9464 20.9003 17.8263C20.7807 17.7062 20.6878 17.5622 20.6278 17.4037C20.5677 17.2452 20.5419 17.0757 20.5519 16.9065C20.5519 16.1225 21.0506 15.5999 21.7919 15.5999C21.9579 15.5909 22.1239 15.6171 22.279 15.677C22.4342 15.7368 22.5748 15.8289 22.6917 15.9471C22.8087 16.0652 22.8992 16.2069 22.9574 16.3626C23.0155 16.5183 23.04 16.6846 23.0292 16.8505C23.0289 16.9371 23.0227 17.0235 23.0106 17.1092ZM21.2159 16.6852H22.3759C22.3252 16.3039 22.1092 16.0905 21.7919 16.0905C21.4746 16.0905 21.2666 16.3039 21.2159 16.6852Z" fill="#0061AF"/>
<path d="M25.9196 16.8985C25.9301 17.0614 25.9073 17.2247 25.8525 17.3784C25.7978 17.5322 25.7123 17.6731 25.6012 17.7927C25.4901 17.9122 25.3558 18.0079 25.2065 18.0738C25.0572 18.1397 24.8961 18.1744 24.7329 18.1759C24.5694 18.1847 24.4064 18.1508 24.26 18.0773C24.1136 18.0039 23.9889 17.8936 23.8982 17.7572L23.8849 18.1305H23.2822V14.5332H23.9089V16.0052C23.9995 15.872 24.123 15.7645 24.2673 15.693C24.4117 15.6216 24.572 15.5886 24.7329 15.5972C25.3996 15.5972 25.9196 16.1279 25.9196 16.8985ZM25.2716 16.8985C25.2808 16.8032 25.2701 16.707 25.2401 16.616C25.21 16.525 25.1613 16.4414 25.097 16.3703C25.0328 16.2993 24.9544 16.2424 24.8669 16.2035C24.7794 16.1645 24.6847 16.1442 24.5889 16.1439C24.4932 16.1433 24.3985 16.163 24.3109 16.2016C24.2233 16.2402 24.1449 16.2968 24.0807 16.3678C24.0165 16.4388 23.968 16.5225 23.9384 16.6135C23.9088 16.7045 23.8988 16.8007 23.9089 16.8959C23.8985 16.9915 23.9084 17.0883 23.9379 17.1799C23.9674 17.2715 24.0159 17.3559 24.0802 17.4275C24.1444 17.4992 24.2231 17.5564 24.3109 17.5957C24.3988 17.6349 24.494 17.6551 24.5902 17.6551C24.6865 17.6551 24.7816 17.6349 24.8695 17.5957C24.9574 17.5564 25.036 17.4992 25.1003 17.4275C25.1646 17.3559 25.213 17.2715 25.2426 17.1799C25.2721 17.0883 25.2819 16.9915 25.2716 16.8959V16.8985Z" fill="#0061AF"/>
<path d="M26.133 14.8691C26.1315 14.8197 26.1402 14.7705 26.1584 14.7245C26.1766 14.6785 26.2041 14.6368 26.239 14.6018C26.274 14.5669 26.3158 14.5394 26.3617 14.5212C26.4077 14.5029 26.4569 14.4943 26.5063 14.4958C26.5555 14.4943 26.6045 14.5029 26.6502 14.5212C26.6959 14.5395 26.7373 14.567 26.7718 14.6021C26.8064 14.6371 26.8333 14.679 26.851 14.7249C26.8686 14.7708 26.8765 14.8199 26.8743 14.8691C26.8766 14.918 26.8686 14.9669 26.8509 15.0126C26.8333 15.0583 26.8062 15.0998 26.7716 15.1344C26.737 15.169 26.6955 15.1961 26.6498 15.2137C26.6041 15.2314 26.5552 15.2394 26.5063 15.2371C26.4572 15.2393 26.4081 15.2314 26.3621 15.2137C26.3162 15.1961 26.2743 15.1692 26.2393 15.1346C26.2042 15.1001 26.1767 15.0587 26.1584 15.013C26.1401 14.9673 26.1315 14.9183 26.133 14.8691ZM26.8183 18.1304H26.1863V15.6451H26.8103L26.8183 18.1304Z" fill="#0061AF"/>
<path d="M27.8215 15.9759C27.9349 15.8477 28.0759 15.747 28.2339 15.6814C28.3919 15.6158 28.5627 15.587 28.7335 15.5972L28.6909 16.1732C28.1762 16.1732 27.8349 16.4239 27.8349 16.7972V18.1305H27.2002V15.6452H27.8029L27.8215 15.9759Z" fill="#0061AF"/>
<path d="M31.3337 18.1305H30.731V17.7572C30.6411 17.8943 30.5166 18.0053 30.37 18.0788C30.2234 18.1523 30.0601 18.1858 29.8964 18.1759C29.7331 18.1748 29.5717 18.1403 29.4222 18.0745C29.2728 18.0088 29.1383 17.9131 29.0272 17.7935C28.916 17.6739 28.8305 17.5327 28.7759 17.3788C28.7213 17.2249 28.6988 17.0615 28.7097 16.8985C28.7097 16.1279 29.227 15.5972 29.8964 15.5972C30.0573 15.5883 30.2177 15.6212 30.3621 15.6927C30.5065 15.7642 30.6299 15.8719 30.7204 16.0052V14.5332H31.347L31.3337 18.1305ZM30.707 16.8852C30.7154 16.7908 30.704 16.6958 30.6737 16.606C30.6433 16.5163 30.5946 16.4339 30.5306 16.364C30.4667 16.2941 30.3889 16.2383 30.3022 16.2001C30.2155 16.162 30.1218 16.1423 30.027 16.1423C29.9323 16.1423 29.8386 16.162 29.7519 16.2001C29.6652 16.2383 29.5874 16.2941 29.5235 16.364C29.4595 16.4339 29.4108 16.5163 29.3804 16.606C29.35 16.6958 29.3387 16.7908 29.347 16.8852C29.3387 16.9796 29.35 17.0746 29.3804 17.1644C29.4108 17.2541 29.4595 17.3365 29.5235 17.4064C29.5874 17.4763 29.6652 17.5321 29.7519 17.5703C29.8386 17.6084 29.9323 17.6282 30.027 17.6282C30.1218 17.6282 30.2155 17.6084 30.3022 17.5703C30.3889 17.5321 30.4667 17.4763 30.5306 17.4064C30.5946 17.3365 30.6433 17.2541 30.6737 17.1644C30.704 17.0746 30.7154 16.9796 30.707 16.8852Z" fill="#0061AF"/>
<defs>
<radialGradient id="paint0_radial_292_62999" cx="0" cy="0" r="1" gradientUnits="userSpaceOnUse" gradientTransform="translate(-15.2001 12.9576) rotate(180) scale(13.6379)">
<stop offset="0.11" stop-color="#0EBFD7"/>
<stop offset="0.22" stop-color="#0AA7CD"/>
<stop offset="0.47" stop-color="#0375B7"/>
<stop offset="0.6" stop-color="#0061AF"/>
</radialGradient>
<linearGradient id="paint1_linear_292_62999" x1="3.6511" y1="15.6453" x2="6.1951" y2="15.6453" gradientUnits="userSpaceOnUse">
<stop stop-color="white"/>
<stop offset="0.16" stop-color="#FCFDFE" stop-opacity="0.99"/>
<stop offset="0.29" stop-color="#F2F7FB" stop-opacity="0.98"/>
<stop offset="0.41" stop-color="#E1ECF6" stop-opacity="0.95"/>
<stop offset="0.52" stop-color="#C9DEEE" stop-opacity="0.92"/>
<stop offset="0.63" stop-color="#AACAE4" stop-opacity="0.87"/>
<stop offset="0.74" stop-color="#84B3D9" stop-opacity="0.81"/>
<stop offset="0.84" stop-color="#5897CA" stop-opacity="0.74"/>
<stop offset="0.94" stop-color="#2578BB" stop-opacity="0.66"/>
<stop offset="1" stop-color="#0061AF" stop-opacity="0.6"/>
</linearGradient>
</defs>
</svg>
