<svg width="20" height="20" viewBox="0 0 20 20" fill="none" xmlns="http://www.w3.org/2000/svg">
<path fill-rule="evenodd" clip-rule="evenodd" d="M10 20C14.9706 20 20 16 20 10C20 4 14.9706 0 10 0C5.02944 0 0 4 0 10C0 16 5.02944 20 10 20ZM14.2364 5.7636C13.8849 5.41213 13.3151 5.41213 12.9636 5.7636L10 8.72721L7.0364 5.7636C6.68492 5.41213 6.11508 5.41213 5.7636 5.7636C5.41213 6.11508 5.41213 6.68492 5.7636 7.0364L8.72721 10L5.7636 12.9636C5.41213 13.3151 5.41213 13.8849 5.7636 14.2364C6.11508 14.5879 6.68492 14.5879 7.0364 14.2364L10 11.2728L12.9636 14.2364C13.3151 14.5879 13.8849 14.5879 14.2364 14.2364C14.5879 13.8849 14.5879 13.3151 14.2364 12.9636L11.2728 10L14.2364 7.0364C14.5879 6.68492 14.5879 6.11508 14.2364 5.7636Z" fill="#181C21"/>
</svg>
