<svg width="21" height="22" viewBox="0 0 21 22" fill="none" xmlns="http://www.w3.org/2000/svg">
<g clip-path="url(#clip0_282_40228)">
<path d="M10.781 15.6264C10.4963 14.8654 9.94498 14.0594 9.21958 13.5L6.63867 17.7531C6.63867 17.7531 10.3156 18.8595 12.623 18.9169C11.87 17.9639 11.1713 16.7106 10.781 15.6264Z" fill="white"/>
<path d="M11.315 12.8429C11.5167 13.6176 12.4876 13.6911 13.2256 13.5947C12.953 13.0348 12.7504 12.6661 12.7504 12.6661L10.4785 11.4252L9.6084 12.8589C10.1289 13.2351 10.8622 13.3738 11.315 12.8429Z" fill="url(#paint0_linear_282_40228)"/>
<path opacity="0.25" d="M11.3147 12.8429C10.8619 13.3738 10.1285 13.2351 9.60806 12.8589L9.21875 13.5C9.94415 14.059 10.4954 14.8649 10.7802 15.6264C11.1704 16.7111 11.7082 17.9584 12.4606 18.9114C12.9223 18.9738 13.6715 19.051 13.9782 18.9867C15.4883 18.6726 14.0421 15.2746 13.2248 13.5947C12.4868 13.6906 11.5163 13.6176 11.3142 12.8429H11.3147Z" fill="url(#paint1_linear_282_40228)"/>
<path d="M5.65989 10.244C5.65989 10.244 3.82492 14.081 2.63086 16.0016C2.74009 16.1536 2.98516 16.3345 3.30818 16.521C4.1134 15.264 5.84661 12.5342 6.56921 10.7115C6.23965 10.5604 5.93017 10.4038 5.65943 10.244H5.65989Z" fill="url(#paint2_linear_282_40228)"/>
<path d="M6.56962 10.7115C5.84656 12.5342 4.11335 15.264 3.30859 16.521C3.64282 16.7134 4.0606 16.9123 4.49845 17.0918C5.29947 15.8422 7.07189 13.0555 7.79263 11.218C7.37625 11.0605 6.95893 10.8901 6.56962 10.7115Z" fill="url(#paint3_linear_282_40228)"/>
<path d="M9.33228 11.7545C8.50372 13.7132 6.67341 16.5444 5.99609 17.6012C6.48203 17.7265 6.88767 17.7807 7.09633 17.7183C7.09633 17.7183 9.68191 15.3113 10.8592 12.2119C10.8592 12.2119 10.2108 12.0374 9.33228 11.7545Z" fill="url(#paint4_linear_282_40228)"/>
<path d="M7.79222 11.2176C7.07149 13.055 5.2986 15.8418 4.49805 17.0914C5.00405 17.2994 5.5362 17.4822 5.99599 17.6007C6.67284 16.544 8.50361 13.7127 9.33218 11.754C8.86351 11.6029 8.32903 11.4206 7.79222 11.2171V11.2176Z" fill="url(#paint5_linear_282_40228)"/>
<path opacity="0.2" d="M5.10054 11.3898C5.10054 11.3898 5.50432 11.6052 6.1625 11.2796C6.1625 11.2796 6.10555 11.7889 6.6545 11.9969C7.20345 12.205 7.57129 11.7407 7.57129 11.7407C7.57129 11.7407 7.39951 12.233 8.0983 12.4452C8.79709 12.6573 9.32597 12.3189 9.32597 12.3189C9.32597 12.3189 9.21954 12.7294 9.88986 13.0068C9.88986 13.0068 6.64797 16.0048 6.25399 16.1481C5.86002 16.2918 6.9962 17.3403 6.91778 17.7812C6.91778 17.7812 7.14184 17.7697 8.12304 16.6248C9.10424 15.4799 10.2824 13.7908 10.7282 12.5595C10.4015 12.4778 8.3261 11.6116 7.71833 11.3508C7.11056 11.0899 5.58928 10.2559 5.58928 10.2559L5.09961 11.3903L5.10054 11.3898Z" fill="#992F13"/>
<path d="M10.8309 12.373C10.8309 12.373 8.29576 15.8165 6.35156 16.3267C6.35156 16.3267 7.12691 16.9789 7.0961 17.7201C7.0961 17.7201 9.5127 15.7012 10.8305 12.3726L10.8309 12.373Z" fill="#07245C"/>
<path d="M11.3604 6.38492C11.3338 6.3693 11.3068 6.35461 11.2811 6.33853C9.03626 8.49149 5.4004 9.77922 5.10352 9.88209C5.37752 10.1237 5.79204 10.4208 6.41614 10.751C6.43061 10.7386 6.43902 10.7312 6.43902 10.7312C6.43902 10.7312 6.43341 10.7404 6.42501 10.756C6.43201 10.7597 6.43948 10.7634 6.44648 10.7671C7.13127 10.2394 9.32194 8.50389 11.36 6.38537L11.3604 6.38492Z" fill="url(#paint6_linear_282_40228)"/>
<path d="M6.42581 10.7556C6.41974 10.7666 6.41274 10.7813 6.40527 10.7992C6.41834 10.7891 6.43328 10.7781 6.44729 10.7666C6.44028 10.7629 6.43281 10.7593 6.42581 10.7556Z" fill="#F2E4D0"/>
<path d="M5.08271 9.88943C5.08271 9.88943 4.64719 10.4355 5.26476 10.846C5.80998 11.2079 6.30758 10.8424 6.41681 10.751C5.7927 10.4208 5.37819 10.1236 5.10418 9.88208C5.09158 9.88621 5.08271 9.88943 5.08271 9.88943Z" fill="white"/>
<path d="M7.7725 11.3292C8.36673 10.6752 9.88801 8.92499 11.5045 6.45975C11.455 6.43632 11.4074 6.41106 11.3607 6.38489C9.32272 8.5034 7.13205 10.2389 6.44727 10.7666C6.8011 10.9521 7.22121 11.1482 7.71882 11.3507C7.75849 11.3154 7.77997 11.2892 7.77997 11.2892C7.77997 11.2892 7.77623 11.3044 7.7725 11.3292Z" fill="url(#paint7_linear_282_40228)"/>
<path d="M6.40453 10.7992C6.34665 10.9356 6.27383 11.2493 6.68414 11.4715C7.22469 11.7113 7.58272 11.472 7.71809 11.3508C7.22049 11.1487 6.80038 10.9526 6.44654 10.7666C6.43207 10.7776 6.4176 10.7891 6.40453 10.7992Z" fill="white"/>
<path d="M11.3669 12.4654L12.3882 6.70547C12.1815 6.6793 11.9798 6.63613 11.7903 6.57367C10.7643 9.44214 9.85728 11.2272 9.45117 11.9685C9.46658 11.9574 9.47498 11.9506 9.47498 11.9506C9.47358 11.9597 9.47311 11.9689 9.47218 11.9776C10.0221 12.1517 10.6336 12.3276 11.3127 12.5026C11.3464 12.4801 11.3669 12.4654 11.3669 12.4654Z" fill="url(#paint8_linear_282_40228)"/>
<path d="M9.47212 11.9776C9.42824 12.3469 9.82315 12.6472 10.0603 12.7565C10.5336 12.9747 11.1334 12.621 11.3127 12.5026C10.6335 12.3276 10.022 12.1517 9.47212 11.9776Z" fill="white"/>
<path d="M8.31599 12.1117C8.85794 12.3533 9.33407 12.052 9.44797 11.9698C8.80846 11.7668 8.25204 11.5657 7.76797 11.3705C7.75724 11.5276 7.79785 11.8803 8.31599 12.1113V12.1117Z" fill="white"/>
<path d="M11.79 6.57367C11.691 6.54106 11.5958 6.50295 11.5048 6.45978C9.88874 8.92502 8.36699 10.6752 7.77276 11.3292C7.77089 11.3407 7.76949 11.3549 7.76855 11.3705C8.25262 11.5657 8.80857 11.7664 9.44855 11.9698C9.44948 11.9694 9.45042 11.9685 9.45135 11.968C9.85746 11.2272 10.764 9.44214 11.7905 6.57321L11.79 6.57367Z" fill="url(#paint9_linear_282_40228)"/>
<path d="M17.5011 12.2757C17.5011 12.2757 17.9072 16.4971 18.3702 18.702C18.2153 18.809 17.9221 18.8971 17.5538 18.9651C17.2289 17.5143 16.5376 14.3685 16.4844 12.4126C16.8461 12.3804 17.1916 12.3359 17.5011 12.2757Z" fill="url(#paint10_linear_282_40228)"/>
<path d="M16.4834 12.4126C16.5366 14.3685 17.228 17.5144 17.5529 18.9651C17.172 19.0349 16.7108 19.0827 16.237 19.1061C15.9135 17.6636 15.2039 14.4507 15.1582 12.4819C15.6045 12.4723 16.0559 12.4511 16.4834 12.413V12.4126Z" fill="url(#paint11_linear_282_40228)"/>
<path d="M13.5253 12.4741C13.6312 14.593 14.379 17.8666 14.6526 19.0868C14.1522 19.0427 13.7521 18.9587 13.5776 18.8305C13.5776 18.8305 11.9727 15.7044 11.9316 12.396C11.9316 12.396 12.6015 12.4479 13.5257 12.4741H13.5253Z" fill="url(#paint12_linear_282_40228)"/>
<path d="M15.1592 12.4819C15.2049 14.4512 15.9144 17.6636 16.2379 19.1061C15.6904 19.1332 15.1265 19.1281 14.6527 19.0864C14.3792 17.8661 13.6314 14.5926 13.5254 12.4736C14.0188 12.4874 14.5841 12.4943 15.1592 12.4814V12.4819Z" fill="url(#paint13_linear_282_40228)"/>
<path opacity="0.2" d="M12.0437 13.6034C12.0437 13.6034 12.9833 13.8564 13.4651 13.3659C13.4651 13.3659 14.4393 14.1664 15.209 13.3136C15.209 13.3136 15.8565 14.1209 16.7331 13.2098C16.7331 13.2098 17.1527 13.7535 17.6181 13.4013L17.5631 12.3101L11.9316 12.396L12.0441 13.6034H12.0437Z" fill="#992F13"/>
<path opacity="0.45" d="M14.1328 18.1196C14.4432 17.8868 14.7564 17.7692 14.7564 17.7692C13.6385 17.0069 12.7277 14.8934 12.2549 13.6039C12.506 15.2429 13.1002 16.8282 14.1328 18.1196Z" fill="url(#paint14_radial_282_40228)"/>
<path d="M12.2552 13.6043C12.0288 12.9861 11.9023 12.5572 11.9023 12.5572C11.9976 16.1278 13.5767 18.8328 13.5767 18.8328C13.6729 18.5306 13.9021 18.2932 14.1332 18.1201C13.1006 16.8287 12.5064 15.2433 12.2552 13.6043Z" fill="#07245C"/>
<path d="M12.5409 6.73485C12.8905 6.79547 13.2387 6.80052 13.5552 6.72842C13.4226 6.45976 13.3045 6.18835 13.2061 5.91555C13.2061 5.91555 13.0679 5.13713 12.6697 5.11738C12.5474 5.08064 12.4237 5.12702 12.3117 5.20555C12.118 5.75711 12.2253 6.29811 12.5409 6.73485Z" fill="#07245C"/>
<path d="M12.3115 5.20557C12.0739 5.37273 11.8905 5.68961 11.8905 5.68961C11.7037 5.91373 11.4993 6.12957 11.2822 6.33807C11.5945 6.53647 11.982 6.65404 12.3885 6.70501C12.4394 6.71604 12.4903 6.72568 12.5412 6.73486C12.2256 6.29812 12.1183 5.75758 12.312 5.20557H12.3115Z" fill="#07245C"/>
<path d="M13.4639 6.74588C13.4942 6.74036 13.525 6.73531 13.5544 6.72842C14.9259 9.50183 17.904 11.9248 18.1477 12.12C17.8069 12.2559 17.3145 12.3974 16.6138 12.5003C16.6045 12.4837 16.5989 12.4741 16.5989 12.4741C16.5989 12.4741 16.6012 12.4846 16.6035 12.5021C16.5956 12.503 16.5877 12.5044 16.5793 12.5053C16.1167 11.7806 14.6523 9.41778 13.4639 6.74588Z" fill="url(#paint15_linear_282_40228)"/>
<path d="M16.6039 12.5021C16.6058 12.5145 16.6072 12.5306 16.6086 12.5499C16.5997 12.5361 16.5899 12.5205 16.5801 12.5053C16.588 12.5044 16.5964 12.503 16.6044 12.5021H16.6039Z" fill="#F2E4D0"/>
<path d="M18.1659 12.1343C18.1659 12.1343 18.3881 12.7933 17.6655 12.9738C17.0283 13.1327 16.6861 12.6229 16.6143 12.5007C17.3149 12.3979 17.8074 12.2564 18.1481 12.1205C18.1589 12.1287 18.1659 12.1347 18.1659 12.1347V12.1343Z" fill="white"/>
<path d="M15.1391 12.5935C14.8049 11.7802 13.9754 9.62629 13.3027 6.76838C13.3573 6.76287 13.411 6.75507 13.4638 6.74542C14.6522 9.41779 16.1166 11.7802 16.5792 12.5049C16.1824 12.5618 15.7198 12.6064 15.1816 12.6307C15.1564 12.5843 15.1452 12.5526 15.1452 12.5526C15.1452 12.5526 15.1438 12.5682 15.1386 12.5926L15.1391 12.5935Z" fill="url(#paint16_linear_282_40228)"/>
<path d="M16.6077 12.5499C16.6152 12.6977 16.5755 13.0165 16.1129 13.0895C15.5219 13.1349 15.2671 12.7905 15.1816 12.6311C15.7199 12.6068 16.1824 12.5618 16.5792 12.5053C16.589 12.5205 16.5988 12.5361 16.6077 12.5499Z" fill="white"/>
<path d="M11.3662 12.4654L12.3876 6.70547C12.5911 6.75002 12.7955 6.7762 12.9953 6.78079C12.9739 9.82194 13.2129 11.8036 13.3403 12.6358C13.3296 12.6201 13.3244 12.611 13.3244 12.611C13.323 12.6201 13.3197 12.6284 13.3174 12.6376C12.74 12.6183 12.1042 12.5802 11.405 12.5186C11.3807 12.4865 11.3667 12.4654 11.3667 12.4654H11.3662Z" fill="url(#paint17_linear_282_40228)"/>
<path d="M13.3168 12.6376C13.2309 12.9995 12.7561 13.151 12.4957 13.1744C11.9747 13.2222 11.5322 12.6895 11.4043 12.5182C12.1036 12.5797 12.7393 12.6178 13.3168 12.6371V12.6376Z" fill="white"/>
<path d="M14.358 13.1487C13.7647 13.1956 13.4207 12.7533 13.3418 12.6385C14.0135 12.6605 14.6063 12.6569 15.1287 12.6344C15.0848 12.7859 14.9252 13.1042 14.3585 13.1492L14.358 13.1487Z" fill="white"/>
<path d="M12.9954 6.78031C13.1 6.78261 13.2027 6.77848 13.3031 6.76837C13.9757 9.62628 14.8052 11.7802 15.1394 12.5935C15.1371 12.6045 15.1334 12.6187 15.1292 12.6339C14.6068 12.6564 14.014 12.6601 13.3423 12.638C13.3418 12.6371 13.3409 12.6362 13.3404 12.6353C13.213 11.8027 12.9744 9.821 12.9954 6.78031Z" fill="url(#paint18_linear_282_40228)"/>
<path opacity="0.2" d="M13.5543 6.72843C13.5543 6.72843 12.3075 6.82947 11.281 6.33853C11.281 6.33853 10.7816 6.79732 10.5188 6.99893C10.256 7.20054 12.3505 7.65015 13.0852 7.43935C13.8204 7.22856 13.741 7.08573 13.741 7.08573L13.5543 6.72843Z" fill="#992F13"/>
<path d="M12.4856 5.63724L12.5169 5.65377C12.5263 5.65883 12.5286 5.63219 12.5337 5.623C12.5398 5.5656 12.5599 5.51095 12.5925 5.46319C12.6252 5.41542 12.6691 5.37639 12.7209 5.34975L13.8706 4.72931C13.9803 4.67558 14.076 4.59796 14.1512 4.50244C14.2263 4.40691 14.2781 4.29624 14.3038 4.17867C14.3505 3.99543 14.3267 3.80162 14.2371 3.63492C14.1941 3.54445 14.14 3.45994 14.0924 3.37085L13.8576 2.95569L13.5378 2.3876C13.5378 2.3876 13.5275 2.36234 13.5065 2.37107C13.4855 2.37979 13.4949 2.39265 13.4897 2.40183C13.4837 2.45924 13.4636 2.51389 13.4309 2.56165C13.3982 2.60942 13.3544 2.64845 13.3025 2.67509L13.1746 2.74581C12.8773 2.90425 12.5907 3.0728 12.2821 3.2294C12.1869 3.27441 12.0963 3.32814 12.0114 3.3906C11.9166 3.46545 11.8405 3.56052 11.7892 3.6689C11.7621 3.71942 11.7434 3.77361 11.7327 3.82918C11.6846 4.01747 11.7103 4.21633 11.8037 4.38717C11.8886 4.54744 11.9782 4.7068 12.0679 4.8657L12.2551 5.19177L12.4856 5.63678V5.63724Z" fill="url(#paint19_linear_282_40228)"/>
</g>
<defs>
<linearGradient id="paint0_linear_282_40228" x1="9.6084" y1="12.5269" x2="13.2256" y2="12.5269" gradientUnits="userSpaceOnUse">
<stop stop-color="#FA7C55"/>
<stop offset="0.2" stop-color="#F75C4A"/>
<stop offset="0.65" stop-color="#F00B2E"/>
<stop offset="0.69" stop-color="#E5082A"/>
<stop offset="0.78" stop-color="#D20422"/>
<stop offset="0.87" stop-color="#C7011E"/>
<stop offset="0.97" stop-color="#C3001C"/>
</linearGradient>
<linearGradient id="paint1_linear_282_40228" x1="9.21875" y1="15.9267" x2="14.6378" y2="15.9267" gradientUnits="userSpaceOnUse">
<stop stop-color="#FA7C55"/>
<stop offset="0.2" stop-color="#F75C4A"/>
<stop offset="0.65" stop-color="#F00B2E"/>
<stop offset="0.69" stop-color="#E5082A"/>
<stop offset="0.78" stop-color="#D20422"/>
<stop offset="0.87" stop-color="#C7011E"/>
<stop offset="0.97" stop-color="#C3001C"/>
</linearGradient>
<linearGradient id="paint2_linear_282_40228" x1="2.63086" y1="13.3825" x2="6.56968" y2="13.3825" gradientUnits="userSpaceOnUse">
<stop stop-color="#07245C"/>
<stop offset="0.5" stop-color="#10429B"/>
<stop offset="1" stop-color="#07245C"/>
</linearGradient>
<linearGradient id="paint3_linear_282_40228" x1="3.30813" y1="13.9014" x2="7.79263" y2="13.9014" gradientUnits="userSpaceOnUse">
<stop stop-color="#FA7C55"/>
<stop offset="0.2" stop-color="#F75C4A"/>
<stop offset="0.65" stop-color="#F00B2E"/>
<stop offset="0.69" stop-color="#E5082A"/>
<stop offset="0.78" stop-color="#D20422"/>
<stop offset="0.87" stop-color="#C7011E"/>
<stop offset="0.97" stop-color="#C3001C"/>
</linearGradient>
<linearGradient id="paint4_linear_282_40228" x1="5.99609" y1="14.7492" x2="10.8587" y2="14.7492" gradientUnits="userSpaceOnUse">
<stop stop-color="#FA7C55"/>
<stop offset="0.2" stop-color="#F75C4A"/>
<stop offset="0.65" stop-color="#F00B2E"/>
<stop offset="0.69" stop-color="#E5082A"/>
<stop offset="0.78" stop-color="#D20422"/>
<stop offset="0.87" stop-color="#C7011E"/>
<stop offset="0.97" stop-color="#C3001C"/>
</linearGradient>
<linearGradient id="paint5_linear_282_40228" x1="4.49758" y1="14.4094" x2="9.33218" y2="14.4094" gradientUnits="userSpaceOnUse">
<stop stop-color="#07245C"/>
<stop offset="0.5" stop-color="#10429B"/>
<stop offset="1" stop-color="#07245C"/>
</linearGradient>
<linearGradient id="paint6_linear_282_40228" x1="5.10352" y1="8.55257" x2="11.3604" y2="8.55257" gradientUnits="userSpaceOnUse">
<stop stop-color="#FA7C55"/>
<stop offset="0.2" stop-color="#F75C4A"/>
<stop offset="0.65" stop-color="#F00B2E"/>
<stop offset="0.69" stop-color="#E5082A"/>
<stop offset="0.78" stop-color="#D20422"/>
<stop offset="0.87" stop-color="#C7011E"/>
<stop offset="0.97" stop-color="#C3001C"/>
</linearGradient>
<linearGradient id="paint7_linear_282_40228" x1="6.44727" y1="8.86759" x2="11.5041" y2="8.86759" gradientUnits="userSpaceOnUse">
<stop stop-color="#07245C"/>
<stop offset="0.5" stop-color="#10429B"/>
<stop offset="1" stop-color="#07245C"/>
</linearGradient>
<linearGradient id="paint8_linear_282_40228" x1="9.45117" y1="9.53812" x2="12.3878" y2="9.53812" gradientUnits="userSpaceOnUse">
<stop stop-color="#07245C"/>
<stop offset="0.5" stop-color="#10429B"/>
<stop offset="1" stop-color="#07245C"/>
</linearGradient>
<linearGradient id="paint9_linear_282_40228" x1="7.76855" y1="9.21481" x2="11.79" y2="9.21481" gradientUnits="userSpaceOnUse">
<stop stop-color="#FA7C55"/>
<stop offset="0.2" stop-color="#F75C4A"/>
<stop offset="0.65" stop-color="#F00B2E"/>
<stop offset="0.69" stop-color="#E5082A"/>
<stop offset="0.78" stop-color="#D20422"/>
<stop offset="0.87" stop-color="#C7011E"/>
<stop offset="0.97" stop-color="#C3001C"/>
</linearGradient>
<linearGradient id="paint10_linear_282_40228" x1="16.4839" y1="15.6204" x2="18.3698" y2="15.6204" gradientUnits="userSpaceOnUse">
<stop stop-color="#FA7C55"/>
<stop offset="0.2" stop-color="#F75C4A"/>
<stop offset="0.65" stop-color="#F00B2E"/>
<stop offset="0.69" stop-color="#E5082A"/>
<stop offset="0.78" stop-color="#D20422"/>
<stop offset="0.87" stop-color="#C7011E"/>
<stop offset="0.97" stop-color="#C3001C"/>
</linearGradient>
<linearGradient id="paint11_linear_282_40228" x1="15.1587" y1="15.7596" x2="17.5533" y2="15.7596" gradientUnits="userSpaceOnUse">
<stop stop-color="#07245C"/>
<stop offset="0.5" stop-color="#10429B"/>
<stop offset="1" stop-color="#07245C"/>
</linearGradient>
<linearGradient id="paint12_linear_282_40228" x1="11.9312" y1="15.7412" x2="14.6526" y2="15.7412" gradientUnits="userSpaceOnUse">
<stop stop-color="#07245C"/>
<stop offset="0.5" stop-color="#10429B"/>
<stop offset="1" stop-color="#07245C"/>
</linearGradient>
<linearGradient id="paint13_linear_282_40228" x1="13.5254" y1="15.7986" x2="16.2379" y2="15.7986" gradientUnits="userSpaceOnUse">
<stop stop-color="#FA7C55"/>
<stop offset="0.2" stop-color="#F75C4A"/>
<stop offset="0.65" stop-color="#F00B2E"/>
<stop offset="0.69" stop-color="#E5082A"/>
<stop offset="0.78" stop-color="#D20422"/>
<stop offset="0.87" stop-color="#C7011E"/>
<stop offset="0.97" stop-color="#C3001C"/>
</linearGradient>
<radialGradient id="paint14_radial_282_40228" cx="0" cy="0" r="1" gradientUnits="userSpaceOnUse" gradientTransform="translate(13.5054 15.862) scale(1.84804 1.81816)">
<stop stop-color="white"/>
<stop offset="0.32" stop-color="white" stop-opacity="0.95"/>
<stop offset="0.44" stop-color="white" stop-opacity="0.89"/>
<stop offset="0.54" stop-color="white" stop-opacity="0.8"/>
<stop offset="0.64" stop-color="white" stop-opacity="0.69"/>
<stop offset="0.73" stop-color="white" stop-opacity="0.55"/>
<stop offset="0.82" stop-color="white" stop-opacity="0.39"/>
<stop offset="0.9" stop-color="white" stop-opacity="0.21"/>
<stop offset="0.98" stop-color="white" stop-opacity="0"/>
</radialGradient>
<linearGradient id="paint15_linear_282_40228" x1="13.4639" y1="9.61664" x2="18.1477" y2="9.61664" gradientUnits="userSpaceOnUse">
<stop stop-color="#07245C"/>
<stop offset="0.5" stop-color="#10429B"/>
<stop offset="1" stop-color="#07245C"/>
</linearGradient>
<linearGradient id="paint16_linear_282_40228" x1="13.3032" y1="9.68875" x2="16.5796" y2="9.68875" gradientUnits="userSpaceOnUse">
<stop stop-color="#FA7C55"/>
<stop offset="0.2" stop-color="#F75C4A"/>
<stop offset="0.65" stop-color="#F00B2E"/>
<stop offset="0.69" stop-color="#E5082A"/>
<stop offset="0.78" stop-color="#D20422"/>
<stop offset="0.87" stop-color="#C7011E"/>
<stop offset="0.97" stop-color="#C3001C"/>
</linearGradient>
<linearGradient id="paint17_linear_282_40228" x1="11.3662" y1="9.6713" x2="13.3398" y2="9.6713" gradientUnits="userSpaceOnUse">
<stop stop-color="#FA7C55"/>
<stop offset="0.2" stop-color="#F75C4A"/>
<stop offset="0.65" stop-color="#F00B2E"/>
<stop offset="0.69" stop-color="#E5082A"/>
<stop offset="0.78" stop-color="#D20422"/>
<stop offset="0.87" stop-color="#C7011E"/>
<stop offset="0.97" stop-color="#C3001C"/>
</linearGradient>
<linearGradient id="paint18_linear_282_40228" x1="12.9945" y1="9.71078" x2="15.1394" y2="9.71078" gradientUnits="userSpaceOnUse">
<stop stop-color="#07245C"/>
<stop offset="0.5" stop-color="#10429B"/>
<stop offset="1" stop-color="#07245C"/>
</linearGradient>
<linearGradient id="paint19_linear_282_40228" x1="11.7089" y1="4.01196" x2="14.3272" y2="4.01196" gradientUnits="userSpaceOnUse">
<stop stop-color="#FA7C55"/>
<stop offset="0.2" stop-color="#F75C4A"/>
<stop offset="0.65" stop-color="#F00B2E"/>
<stop offset="0.69" stop-color="#E5082A"/>
<stop offset="0.78" stop-color="#D20422"/>
<stop offset="0.87" stop-color="#C7011E"/>
<stop offset="0.97" stop-color="#C3001C"/>
</linearGradient>
<clipPath id="clip0_282_40228">
<rect width="15.7385" height="16.7538" fill="white" transform="translate(2.63086 2.36923)"/>
</clipPath>
</defs>
</svg>
