<svg width="24" height="24" viewBox="0 0 24 24" fill="none" xmlns="http://www.w3.org/2000/svg">
<path fill-rule="evenodd" clip-rule="evenodd" d="M12 22C16.9698 22 22 18 22 12C22 6 16.9698 2 12 2C7.0302 2 2 6 2 12C2 18 7.0302 22 12 22ZM17.1773 9.9364C17.5288 9.58492 17.5288 9.01508 17.1773 8.6636C16.8258 8.31213 16.256 8.31213 15.9045 8.6636L10.6909 13.8772L8.1364 11.3227C7.78492 10.9712 7.21508 10.9712 6.8636 11.3227C6.51213 11.6742 6.51213 12.244 6.8636 12.5955L10.0545 15.7864C10.406 16.1379 10.9758 16.1379 11.3273 15.7864L17.1773 9.9364Z" fill="#008E53"/>
</svg>
