<svg width="24" height="24" viewBox="0 0 24 24" fill="none" xmlns="http://www.w3.org/2000/svg">
<path d="M9.375 5.53125C9.375 4.13326 10.5502 3 12 3C13.4498 3 14.625 4.13326 14.625 5.53125C14.625 6.9292 13.4498 8.0625 12 8.0625C10.5502 8.0625 9.375 6.9292 9.375 5.53125ZM18.6583 5.57952C18.2027 5.14017 17.464 5.14017 17.0084 5.57952L13.8501 8.625H10.1499L6.9916 5.57952C6.53602 5.14017 5.7973 5.14017 5.34172 5.57952C4.88609 6.01887 4.88609 6.73117 5.34172 7.17052L8.79166 10.4972V19.875C8.79166 20.4963 9.314 21 9.95833 21H10.5417C11.186 21 11.7083 20.4963 11.7083 19.875V15.9375H12.2917V19.875C12.2917 20.4963 12.814 21 13.4583 21H14.0417C14.686 21 15.2083 20.4963 15.2083 19.875V10.4972L18.6583 7.17048C19.1139 6.73113 19.1139 6.01887 18.6583 5.57952Z" fill="black"/>
</svg>
