<svg width="83" height="114" viewBox="0 0 83 114" fill="none" xmlns="http://www.w3.org/2000/svg">
<path d="M77.8425 37.1769L77.844 37.1792C82.8784 45.8773 81.9465 53.7846 79.7549 59.5407C78.6563 62.4261 77.2407 64.7692 76.0993 66.3908C75.529 67.2009 75.0286 67.829 74.6726 68.2525C74.4947 68.4643 74.3529 68.6247 74.2568 68.7311C74.2088 68.7843 74.1721 68.824 74.1481 68.8497L74.1216 68.8779L74.1157 68.8841L74.1148 68.885L74.1146 68.8852L74.1145 68.8853L74.0943 68.9063L74.0758 68.9293L74.5844 69.3375C74.0758 68.9293 74.0757 68.9294 74.0755 68.9297L74.0747 68.9307L74.0715 68.9347L74.0587 68.9507L74.0079 69.0139L73.8097 69.2608L73.0549 70.2011C72.4032 71.0128 71.4691 72.176 70.3394 73.582C68.0801 76.394 65.0387 80.177 61.9103 84.0616C55.6527 91.8318 49.0621 99.9887 47.6702 101.612C46.1198 103.365 45.6791 106.055 45.6008 108.215C45.5609 109.316 45.6141 110.324 45.6838 111.078C45.7187 111.455 45.7579 111.771 45.7923 112.005C45.8225 112.21 45.8569 112.413 45.8909 112.517C45.9273 112.627 45.9489 112.711 45.9574 112.777C45.9346 112.767 45.9127 112.756 45.8929 112.745C45.8802 112.738 45.8694 112.732 45.8608 112.727L45.8084 112.683L45.5617 112.481L44.6189 111.706C43.8033 111.035 42.63 110.071 41.1995 108.896C38.3384 106.545 34.4484 103.351 30.3326 99.9774C22.1034 93.2314 12.9657 85.7602 9.34858 82.874C6.06898 80.2498 1.9267 74.0053 1.02078 67.4683C0.308077 62.0379 0.62002 57.746 2.03356 53.7951C3.44997 49.8362 5.99216 46.1638 9.83319 42.0029L9.84938 41.9854L9.86425 41.9667L9.35398 41.5606C9.86425 41.9667 9.86432 41.9666 9.86448 41.9664L9.86516 41.9656L9.86789 41.9622L9.87876 41.9485L9.92177 41.8945L10.09 41.6832L10.7319 40.8772C11.2868 40.1806 12.0838 39.1804 13.0522 37.9661C14.9889 35.5374 17.6109 32.2523 20.3522 28.8264C25.8389 21.9695 31.7918 14.5632 33.6937 12.3185C35.7249 9.92121 36.3206 7.19758 36.4151 5.09995C36.4624 4.04977 36.3847 3.14743 36.2949 2.50553C36.25 2.18415 36.2018 1.92683 36.1642 1.74746C36.1454 1.65774 36.1292 1.58741 36.1174 1.53821C36.1152 1.52919 36.1132 1.52087 36.1113 1.51328C36.0698 1.05609 36.1026 0.853452 36.1288 0.768309C36.1411 0.728498 36.1479 0.712957 36.1922 0.665504C36.2188 0.689009 36.2483 0.714109 36.2725 0.734718L36.2828 0.743469C36.3461 0.797435 36.4361 0.873629 36.5507 0.970281C36.7802 1.16377 37.1108 1.44149 37.5292 1.7922C38.366 2.49373 39.5553 3.48856 40.9915 4.68834C43.864 7.08797 47.7251 10.3081 51.7313 13.6429C59.7379 20.3076 68.3347 27.4389 70.7693 29.3854C73.0463 31.2357 74.8201 33.1911 76.0249 34.6851C76.6269 35.4316 77.0854 36.0612 77.3922 36.5021C77.5456 36.7225 77.6609 36.8957 77.7372 37.0126C77.7754 37.0711 77.8037 37.1155 77.8222 37.1447L77.8425 37.1769ZM36.1365 0.652996C36.1365 0.652985 36.1369 0.652923 36.1375 0.652836L36.1365 0.652996Z" fill="white" fill-opacity="0.2" stroke="#EFF1F4" stroke-width="1.30435"/>
</svg>
