<svg width="300" height="301" viewBox="0 0 300 301" fill="none" xmlns="http://www.w3.org/2000/svg">
<circle cx="150" cy="150.043" r="150" fill="#DAE0E9"/>
<circle cx="150" cy="150.043" r="136.957" fill="white"/>
<line x1="150.652" y1="43.0869" x2="150.652" y2="58.7391" stroke="#FF0025" stroke-width="1.30435"/>
<line x1="150.652" y1="241.348" x2="150.652" y2="257" stroke="#757F90" stroke-width="1.30435"/>
<line x1="122.948" y1="46.5622" x2="126.999" y2="61.681" stroke="#DAE0E9" stroke-width="1.30435"/>
<line x1="174.262" y1="238.067" x2="178.313" y2="253.186" stroke="#DAE0E9" stroke-width="1.30435"/>
<line x1="97.0873" y1="57.0894" x2="104.913" y2="70.6446" stroke="#DAE0E9" stroke-width="1.30435"/>
<line x1="196.217" y1="228.788" x2="204.043" y2="242.343" stroke="#DAE0E9" stroke-width="1.30435"/>
<line x1="226.091" y1="74.8752" x2="215.023" y2="85.943" stroke="#757F90" stroke-width="1.30435"/>
<line x1="85.8987" y1="215.067" x2="74.8309" y2="226.135" stroke="#757F90" stroke-width="1.30435"/>
<line x1="204.043" y1="57.7431" x2="196.217" y2="71.2983" stroke="#DAE0E9" stroke-width="1.30435"/>
<line x1="104.913" y1="229.442" x2="97.0873" y2="242.997" stroke="#DAE0E9" stroke-width="1.30435"/>
<line x1="178.313" y1="46.9012" x2="174.261" y2="62.0201" stroke="#DAE0E9" stroke-width="1.30435"/>
<line x1="126.999" y1="238.406" x2="122.948" y2="253.525" stroke="#DAE0E9" stroke-width="1.30435"/>
<line x1="74.8323" y1="73.9529" x2="85.9" y2="85.0207" stroke="#757F90" stroke-width="1.30435"/>
<line x1="215.025" y1="214.145" x2="226.092" y2="225.213" stroke="#757F90" stroke-width="1.30435"/>
<line x1="57.7001" y1="96.0001" x2="71.2553" y2="103.826" stroke="#DAE0E9" stroke-width="1.30435"/>
<line x1="229.4" y1="195.131" x2="242.955" y2="202.957" stroke="#DAE0E9" stroke-width="1.30435"/>
<line x1="46.8582" y1="121.73" x2="61.9771" y2="125.781" stroke="#DAE0E9" stroke-width="1.30435"/>
<line x1="238.363" y1="173.044" x2="253.482" y2="177.095" stroke="#DAE0E9" stroke-width="1.30435"/>
<line x1="43.0439" y1="149.391" x2="58.6961" y2="149.391" stroke="#757F90" stroke-width="1.30435"/>
<line x1="241.305" y1="149.391" x2="256.957" y2="149.391" stroke="#757F90" stroke-width="1.30435"/>
<line x1="46.5207" y1="177.097" x2="61.6395" y2="173.046" stroke="#DAE0E9" stroke-width="1.30435"/>
<line x1="238.026" y1="125.782" x2="253.144" y2="121.731" stroke="#DAE0E9" stroke-width="1.30435"/>
<line x1="57.0479" y1="202.957" x2="70.6031" y2="195.131" stroke="#DAE0E9" stroke-width="1.30435"/>
<line x1="228.748" y1="103.826" x2="242.303" y2="96.0002" stroke="#DAE0E9" stroke-width="1.30435"/>
<path d="M146.18 70.0348H146.133L146.212 67.687H146.509C148.215 67.687 149.671 68.047 150.97 70.567L152.05 72.68C152.41 73.3844 152.895 74.4174 153.099 75.0748C152.989 74.0574 152.989 73.6661 152.989 72.9461V67.7965C153.193 67.6713 153.521 67.5931 153.897 67.5931C154.867 67.5931 155.431 68.0939 155.431 69.0174V78.9565H152.566L149.608 73.0087C148.434 70.6452 147.73 70.0348 146.18 70.0348ZM146.133 77.6261V70.6765H146.306C147.558 70.6765 148.356 71.8192 148.575 72.68V78.847C148.372 78.9722 148.043 79.0505 147.667 79.0505C146.697 79.0505 146.133 78.5496 146.133 77.6261Z" fill="#FF0025"/>
<path d="M154.429 223.275C154.429 223.838 153.99 224.261 153.145 224.433C152.738 223.416 151.643 222.868 150.469 222.868C149.185 222.868 148.544 223.369 148.544 224.245C148.544 225.372 149.514 225.544 150.75 225.826C153.302 226.405 154.178 227.61 154.178 229.285C154.178 231.304 152.519 232.556 150.015 232.556C147.761 232.556 146.258 231.57 146.258 230.271C146.258 229.708 146.697 229.27 147.526 229.097C147.839 230.146 148.95 230.678 150.015 230.678C151.11 230.678 151.643 230.146 151.643 229.489C151.643 228.612 151.142 228.33 149.264 227.908C146.493 227.297 145.977 225.983 145.977 224.464C145.977 222.367 147.808 220.974 150.469 220.974C152.91 220.974 154.429 221.976 154.429 223.275Z" fill="#757F90"/>
<path d="M229.68 151.397V148.69H227.536C227.457 147.657 227.019 146.717 226.44 146.185H236.27V154.168H235.612C234.689 154.168 234.266 153.698 234.266 152.697V148.69H231.652V152.837H231.01C230.134 152.837 229.68 152.352 229.68 151.397ZM225 146.185H225.689C226.581 146.968 227.003 147.923 227.003 149.159V152.963C227.003 153.777 226.597 154.246 225.877 154.246H225V146.185Z" fill="#757F90"/>
<path d="M66.6842 157.223C66.4337 156.925 66.2929 156.503 66.2929 156.017C66.2929 155.141 66.8876 154.515 67.9363 154.311L75.2772 152.871L68.3276 151.369C68.3902 150.633 72.1155 150.179 72.7415 150.304L77.6094 151.275V153.122C77.6094 154.186 77.1711 154.703 76.232 154.937C73.352 155.673 70.3781 156.393 66.6842 157.223ZM67.6702 151.228L66.7155 151.024C66.6842 150.649 66.6529 150.336 66.6529 150.007C66.6529 149.068 66.9815 148.457 68.6407 148.144L75.2772 146.861L67.9363 145.389C66.9033 145.186 66.2929 144.56 66.2929 143.621C66.2929 143.151 66.4337 142.76 66.6842 142.509C72.3659 143.809 74.9955 144.45 77.6094 145.155V147.143C77.6094 148.113 77.1711 148.629 76.232 148.802L69.9242 149.929C68.4372 150.195 67.8268 150.586 67.6702 151.228Z" fill="#757F90"/>
<path d="M147.3 29.4042C147.3 27.9086 147.544 26.7434 148.031 25.9086C148.518 25.0651 149.37 24.6434 150.587 24.6434C151.796 24.6434 152.644 25.0651 153.131 25.9086C153.618 26.7434 153.861 27.9086 153.861 29.4042C153.861 30.926 153.618 32.1086 153.131 32.9521C152.644 33.7955 151.796 34.2173 150.587 34.2173C149.37 34.2173 148.518 33.7955 148.031 32.9521C147.544 32.1086 147.3 30.926 147.3 29.4042ZM152.687 29.4042C152.687 28.6477 152.635 28.0086 152.531 27.4868C152.435 26.9564 152.231 26.5303 151.918 26.2086C151.613 25.8868 151.17 25.726 150.587 25.726C149.996 25.726 149.544 25.8868 149.231 26.2086C148.927 26.5303 148.722 26.9564 148.618 27.4868C148.522 28.0086 148.474 28.6477 148.474 29.4042C148.474 30.1868 148.522 30.8434 148.618 31.3738C148.722 31.9042 148.927 32.3303 149.231 32.6521C149.544 32.9738 149.996 33.1347 150.587 33.1347C151.17 33.1347 151.613 32.9738 151.918 32.6521C152.231 32.3303 152.435 31.9042 152.531 31.3738C152.635 30.8434 152.687 30.1868 152.687 29.4042Z" fill="#757F90"/>
<path d="M268.357 143.545C267.861 143.632 267.478 143.832 267.209 144.145C266.939 144.466 266.804 144.897 266.804 145.436C266.804 146.158 267.087 146.688 267.652 147.027C268.217 147.375 269.17 147.54 270.509 147.523C270.117 147.34 269.809 147.036 269.583 146.61C269.365 146.184 269.257 145.71 269.257 145.188C269.257 144.606 269.374 144.084 269.609 143.623C269.852 143.171 270.204 142.814 270.665 142.553C271.126 142.293 271.683 142.162 272.335 142.162C273.265 142.162 274.013 142.432 274.578 142.971C275.152 143.51 275.439 144.275 275.439 145.266C275.439 146.484 275.044 147.336 274.252 147.823C273.461 148.319 272.283 148.566 270.717 148.566C269.622 148.566 268.717 148.466 268.004 148.266C267.291 148.075 266.748 147.745 266.374 147.275C266 146.814 265.813 146.18 265.813 145.371C265.813 144.484 266.052 143.793 266.531 143.297C267.009 142.801 267.617 142.519 268.357 142.449V143.545ZM270.261 145.384C270.261 145.966 270.439 146.445 270.796 146.819C271.161 147.193 271.652 147.38 272.27 147.38C272.922 147.38 273.448 147.197 273.848 146.832C274.248 146.466 274.448 145.953 274.448 145.293C274.448 144.684 274.257 144.197 273.874 143.832C273.491 143.475 272.987 143.297 272.361 143.297C271.726 143.297 271.217 143.475 270.835 143.832C270.452 144.188 270.261 144.706 270.261 145.384ZM270.639 150.235C272.135 150.235 273.3 150.478 274.135 150.965C274.978 151.452 275.4 152.304 275.4 153.521C275.4 154.73 274.978 155.578 274.135 156.065C273.3 156.552 272.135 156.795 270.639 156.795C269.117 156.795 267.935 156.552 267.091 156.065C266.248 155.578 265.826 154.73 265.826 153.521C265.826 152.304 266.248 151.452 267.091 150.965C267.935 150.478 269.117 150.235 270.639 150.235ZM270.639 155.621C271.396 155.621 272.035 155.569 272.557 155.465C273.087 155.369 273.513 155.165 273.835 154.852C274.157 154.548 274.317 154.104 274.317 153.521C274.317 152.93 274.157 152.478 273.835 152.165C273.513 151.861 273.087 151.656 272.557 151.552C272.035 151.456 271.396 151.408 270.639 151.408C269.857 151.408 269.2 151.456 268.67 151.552C268.139 151.656 267.713 151.861 267.391 152.165C267.07 152.478 266.909 152.93 266.909 153.521C266.909 154.104 267.07 154.548 267.391 154.852C267.713 155.165 268.139 155.369 268.67 155.465C269.2 155.569 269.857 155.621 270.639 155.621Z" fill="#757F90"/>
<path d="M159.738 274.217V275.3H157.286V265.87H158.486V274.217H159.738ZM153.526 270.774C154.013 270.965 154.386 271.244 154.647 271.609C154.908 271.974 155.039 272.417 155.039 272.939C155.039 273.409 154.921 273.83 154.686 274.204C154.452 274.587 154.104 274.887 153.643 275.104C153.173 275.33 152.608 275.444 151.947 275.444C151.286 275.444 150.726 275.33 150.265 275.104C149.795 274.887 149.443 274.587 149.208 274.204C148.965 273.83 148.843 273.409 148.843 272.939C148.843 272.435 148.978 271.991 149.247 271.609C149.517 271.235 149.886 270.957 150.356 270.774C149.817 270.609 149.391 270.317 149.078 269.9C148.756 269.491 148.595 268.996 148.595 268.413C148.595 267.848 148.734 267.352 149.013 266.926C149.291 266.509 149.686 266.183 150.2 265.948C150.704 265.722 151.286 265.609 151.947 265.609C152.608 265.609 153.191 265.722 153.695 265.948C154.191 266.183 154.578 266.509 154.856 266.926C155.134 267.352 155.273 267.848 155.273 268.413C155.273 268.996 155.117 269.496 154.804 269.913C154.491 270.33 154.065 270.617 153.526 270.774ZM149.991 272.796C149.991 273.326 150.165 273.735 150.513 274.022C150.86 274.309 151.339 274.452 151.947 274.452C152.547 274.452 153.021 274.309 153.369 274.022C153.717 273.735 153.891 273.322 153.891 272.783C153.891 272.296 153.713 271.904 153.356 271.609C152.991 271.313 152.521 271.165 151.947 271.165C151.365 271.165 150.895 271.313 150.539 271.609C150.173 271.913 149.991 272.309 149.991 272.796ZM151.947 270.252C152.591 270.252 153.117 270.1 153.526 269.796C153.934 269.5 154.139 269.052 154.139 268.452C154.139 267.896 153.943 267.448 153.552 267.109C153.152 266.77 152.617 266.6 151.947 266.6C151.278 266.6 150.747 266.77 150.356 267.109C149.965 267.448 149.769 267.896 149.769 268.452C149.769 269.035 149.969 269.478 150.369 269.783C150.769 270.096 151.295 270.252 151.947 270.252ZM147.019 270.683C147.019 272.178 146.775 273.344 146.288 274.178C145.801 275.022 144.949 275.444 143.732 275.444C142.523 275.444 141.675 275.022 141.188 274.178C140.701 273.344 140.458 272.178 140.458 270.683C140.458 269.161 140.701 267.978 141.188 267.135C141.675 266.291 142.523 265.87 143.732 265.87C144.949 265.87 145.801 266.291 146.288 267.135C146.775 267.978 147.019 269.161 147.019 270.683ZM141.632 270.683C141.632 271.439 141.684 272.078 141.788 272.6C141.884 273.13 142.088 273.557 142.401 273.878C142.706 274.2 143.149 274.361 143.732 274.361C144.323 274.361 144.775 274.2 145.088 273.878C145.393 273.557 145.597 273.13 145.701 272.6C145.797 272.078 145.845 271.439 145.845 270.683C145.845 269.9 145.797 269.244 145.701 268.713C145.597 268.183 145.393 267.757 145.088 267.435C144.775 267.113 144.323 266.952 143.732 266.952C143.149 266.952 142.706 267.113 142.401 267.435C142.088 267.757 141.884 268.183 141.788 268.713C141.684 269.244 141.632 269.9 141.632 270.683Z" fill="#757F90"/>
<path d="M33.2226 158.415C32.3357 157.311 31.6096 156.446 31.0444 155.82C30.4705 155.194 29.8748 154.667 29.2574 154.241C28.6313 153.807 28.0183 153.589 27.4183 153.589C26.8531 153.589 26.4096 153.728 26.0878 154.007C25.7574 154.276 25.5922 154.715 25.5922 155.324C25.5922 155.915 25.7792 156.376 26.1531 156.707C26.5183 157.028 27.0096 157.202 27.627 157.228V158.376C26.6531 158.341 25.9009 158.046 25.3705 157.489C24.84 156.933 24.5748 156.215 24.5748 155.337C24.5748 154.441 24.8226 153.733 25.3183 153.211C25.8139 152.681 26.4965 152.415 27.3661 152.415C28.0878 152.415 28.7922 152.633 29.4792 153.067C30.1574 153.494 30.7574 153.981 31.2792 154.528C31.7922 155.076 32.3922 155.776 33.0792 156.628V152.141H34.0705V158.415H33.2226ZM25.6705 144.965L34.1748 148.591V149.791L25.7878 146.113V151.148H24.7705V144.965H25.6705ZM29.3618 143.649C27.8661 143.649 26.7009 143.405 25.8661 142.918C25.0226 142.431 24.6009 141.579 24.6009 140.362C24.6009 139.153 25.0226 138.305 25.8661 137.818C26.7009 137.331 27.8661 137.088 29.3618 137.088C30.8835 137.088 32.0661 137.331 32.9096 137.818C33.7531 138.305 34.1748 139.153 34.1748 140.362C34.1748 141.579 33.7531 142.431 32.9096 142.918C32.0661 143.405 30.8835 143.649 29.3618 143.649ZM29.3618 138.262C28.6052 138.262 27.9661 138.314 27.4444 138.418C26.9139 138.514 26.4878 138.718 26.1661 139.031C25.8444 139.336 25.6835 139.779 25.6835 140.362C25.6835 140.953 25.8444 141.405 26.1661 141.718C26.4878 142.023 26.9139 142.227 27.4444 142.331C27.9661 142.427 28.6052 142.475 29.3618 142.475C30.1444 142.475 30.8009 142.427 31.3313 142.331C31.8618 142.227 32.2878 142.023 32.6096 141.718C32.9313 141.405 33.0922 140.953 33.0922 140.362C33.0922 139.779 32.9313 139.336 32.6096 139.031C32.2878 138.718 31.8618 138.514 31.3313 138.418C30.8009 138.314 30.1444 138.262 29.3618 138.262Z" fill="#757F90"/>
</svg>
