<svg width="300" height="314" viewBox="0 0 300 314" fill="none" xmlns="http://www.w3.org/2000/svg">
<circle cx="150" cy="163.084" r="150" fill="#DAE0E9"/>
<path d="M150 0.0400391L156.522 13.0835H143.479L150 0.0400391Z" fill="#008E53"/>
<circle cx="150" cy="163.083" r="136.957" fill="white"/>
<line x1="150.652" y1="56.127" x2="150.652" y2="71.7791" stroke="#FF0025" stroke-width="1.30435"/>
<line x1="150.652" y1="254.388" x2="150.652" y2="270.04" stroke="#757F90" stroke-width="1.30435"/>
<line x1="122.948" y1="59.6027" x2="126.999" y2="74.7215" stroke="#DAE0E9" stroke-width="1.30435"/>
<line x1="174.262" y1="251.108" x2="178.313" y2="266.226" stroke="#DAE0E9" stroke-width="1.30435"/>
<line x1="97.0873" y1="70.13" x2="104.913" y2="83.6852" stroke="#DAE0E9" stroke-width="1.30435"/>
<line x1="196.217" y1="241.828" x2="204.043" y2="255.383" stroke="#DAE0E9" stroke-width="1.30435"/>
<line x1="226.091" y1="87.9153" x2="215.023" y2="98.983" stroke="#757F90" stroke-width="1.30435"/>
<line x1="85.8987" y1="228.108" x2="74.8309" y2="239.175" stroke="#757F90" stroke-width="1.30435"/>
<line x1="204.043" y1="70.7831" x2="196.217" y2="84.3383" stroke="#DAE0E9" stroke-width="1.30435"/>
<line x1="104.913" y1="242.481" x2="97.0873" y2="256.037" stroke="#DAE0E9" stroke-width="1.30435"/>
<line x1="178.313" y1="59.9413" x2="174.261" y2="75.0601" stroke="#DAE0E9" stroke-width="1.30435"/>
<line x1="126.999" y1="251.446" x2="122.948" y2="266.565" stroke="#DAE0E9" stroke-width="1.30435"/>
<line x1="74.8323" y1="86.9929" x2="85.9" y2="98.0607" stroke="#757F90" stroke-width="1.30435"/>
<line x1="215.025" y1="227.185" x2="226.092" y2="238.253" stroke="#757F90" stroke-width="1.30435"/>
<line x1="57.7001" y1="109.041" x2="71.2553" y2="116.867" stroke="#DAE0E9" stroke-width="1.30435"/>
<line x1="229.4" y1="208.171" x2="242.955" y2="215.997" stroke="#DAE0E9" stroke-width="1.30435"/>
<line x1="46.8582" y1="134.77" x2="61.9771" y2="138.822" stroke="#DAE0E9" stroke-width="1.30435"/>
<line x1="238.363" y1="186.085" x2="253.482" y2="190.136" stroke="#DAE0E9" stroke-width="1.30435"/>
<line x1="43.0439" y1="162.431" x2="58.6961" y2="162.431" stroke="#757F90" stroke-width="1.30435"/>
<line x1="241.305" y1="162.431" x2="256.957" y2="162.431" stroke="#757F90" stroke-width="1.30435"/>
<line x1="46.5207" y1="190.137" x2="61.6395" y2="186.086" stroke="#DAE0E9" stroke-width="1.30435"/>
<line x1="238.026" y1="138.822" x2="253.144" y2="134.771" stroke="#DAE0E9" stroke-width="1.30435"/>
<line x1="57.0479" y1="215.997" x2="70.6031" y2="208.171" stroke="#DAE0E9" stroke-width="1.30435"/>
<line x1="228.748" y1="116.867" x2="242.303" y2="109.041" stroke="#DAE0E9" stroke-width="1.30435"/>
<path d="M146.18 83.0744H146.133L146.212 80.7265H146.509C148.215 80.7265 149.671 81.0865 150.97 83.6065L152.05 85.7196C152.41 86.4239 152.895 87.457 153.099 88.1144C152.989 87.097 152.989 86.7057 152.989 85.9857V80.8361C153.193 80.7109 153.521 80.6326 153.897 80.6326C154.867 80.6326 155.431 81.1335 155.431 82.057V91.9961H152.566L149.608 86.0483C148.434 83.6848 147.73 83.0744 146.18 83.0744ZM146.133 90.6657V83.7161H146.306C147.558 83.7161 148.356 84.8587 148.575 85.7196V91.8865C148.372 92.0117 148.043 92.09 147.667 92.09C146.697 92.09 146.133 91.5891 146.133 90.6657Z" fill="#FF0025"/>
<path d="M154.429 236.315C154.429 236.879 153.99 237.301 153.145 237.474C152.738 236.456 151.643 235.908 150.469 235.908C149.185 235.908 148.544 236.409 148.544 237.286C148.544 238.413 149.514 238.585 150.75 238.867C153.302 239.446 154.178 240.651 154.178 242.326C154.178 244.345 152.519 245.597 150.015 245.597C147.761 245.597 146.258 244.611 146.258 243.312C146.258 242.748 146.697 242.31 147.526 242.138C147.839 243.187 148.95 243.719 150.015 243.719C151.11 243.719 151.643 243.187 151.643 242.529C151.643 241.653 151.142 241.371 149.264 240.948C146.493 240.338 145.977 239.023 145.977 237.505C145.977 235.407 147.808 234.014 150.469 234.014C152.91 234.014 154.429 235.016 154.429 236.315Z" fill="#757F90"/>
<path d="M229.68 164.437V161.73H227.536C227.457 160.697 227.019 159.757 226.44 159.225H236.27V167.208H235.612C234.689 167.208 234.266 166.738 234.266 165.737V161.73H231.652V165.877H231.01C230.134 165.877 229.68 165.392 229.68 164.437ZM225 159.225H225.689C226.581 160.008 227.003 160.963 227.003 162.199V166.003C227.003 166.817 226.597 167.286 225.877 167.286H225V159.225Z" fill="#757F90"/>
<path d="M66.6842 170.262C66.4337 169.965 66.2929 169.542 66.2929 169.057C66.2929 168.18 66.8876 167.554 67.9363 167.351L75.2772 165.911L68.3276 164.408C68.3902 163.673 72.1155 163.219 72.7415 163.344L77.6094 164.314V166.161C77.6094 167.226 77.1711 167.742 76.232 167.977C73.352 168.713 70.3781 169.433 66.6842 170.262ZM67.6702 164.267L66.7155 164.064C66.6842 163.688 66.6529 163.375 66.6529 163.046C66.6529 162.107 66.9815 161.497 68.6407 161.184L75.2772 159.9L67.9363 158.429C66.9033 158.226 66.2929 157.599 66.2929 156.66C66.2929 156.191 66.4337 155.799 66.6842 155.549C72.3659 156.848 74.9955 157.49 77.6094 158.194V160.182C77.6094 161.153 77.1711 161.669 76.232 161.841L69.9242 162.968C68.4372 163.234 67.8268 163.626 67.6702 164.267Z" fill="#757F90"/>
<path d="M147.3 42.4448C147.3 40.9491 147.544 39.7839 148.031 38.9491C148.518 38.1056 149.37 37.6839 150.587 37.6839C151.796 37.6839 152.644 38.1056 153.131 38.9491C153.618 39.7839 153.861 40.9491 153.861 42.4448C153.861 43.9665 153.618 45.1491 153.131 45.9926C152.644 46.8361 151.796 47.2578 150.587 47.2578C149.37 47.2578 148.518 46.8361 148.031 45.9926C147.544 45.1491 147.3 43.9665 147.3 42.4448ZM152.687 42.4448C152.687 41.6882 152.635 41.0491 152.531 40.5274C152.435 39.9969 152.231 39.5709 151.918 39.2491C151.613 38.9274 151.17 38.7665 150.587 38.7665C149.996 38.7665 149.544 38.9274 149.231 39.2491C148.927 39.5709 148.722 39.9969 148.618 40.5274C148.522 41.0491 148.474 41.6882 148.474 42.4448C148.474 43.2274 148.522 43.8839 148.618 44.4143C148.722 44.9448 148.927 45.3709 149.231 45.6926C149.544 46.0143 149.996 46.1752 150.587 46.1752C151.17 46.1752 151.613 46.0143 151.918 45.6926C152.231 45.3709 152.435 44.9448 152.531 44.4143C152.635 43.8839 152.687 43.2274 152.687 42.4448Z" fill="#757F90"/>
<path d="M268.357 156.585C267.861 156.672 267.478 156.872 267.209 157.185C266.939 157.507 266.804 157.937 266.804 158.476C266.804 159.198 267.087 159.728 267.652 160.067C268.217 160.415 269.17 160.58 270.509 160.563C270.117 160.38 269.809 160.076 269.583 159.65C269.365 159.224 269.257 158.75 269.257 158.228C269.257 157.646 269.374 157.124 269.609 156.663C269.852 156.211 270.204 155.854 270.665 155.593C271.126 155.333 271.683 155.202 272.335 155.202C273.265 155.202 274.013 155.472 274.578 156.011C275.152 156.55 275.439 157.315 275.439 158.307C275.439 159.524 275.044 160.376 274.252 160.863C273.461 161.359 272.283 161.607 270.717 161.607C269.622 161.607 268.717 161.507 268.004 161.307C267.291 161.115 266.748 160.785 266.374 160.315C266 159.854 265.813 159.22 265.813 158.411C265.813 157.524 266.052 156.833 266.531 156.337C267.009 155.841 267.617 155.559 268.357 155.489V156.585ZM270.261 158.424C270.261 159.007 270.439 159.485 270.796 159.859C271.161 160.233 271.652 160.42 272.27 160.42C272.922 160.42 273.448 160.237 273.848 159.872C274.248 159.507 274.448 158.993 274.448 158.333C274.448 157.724 274.257 157.237 273.874 156.872C273.491 156.515 272.987 156.337 272.361 156.337C271.726 156.337 271.217 156.515 270.835 156.872C270.452 157.228 270.261 157.746 270.261 158.424ZM270.639 163.275C272.135 163.275 273.3 163.518 274.135 164.005C274.978 164.492 275.4 165.344 275.4 166.562C275.4 167.77 274.978 168.618 274.135 169.105C273.3 169.592 272.135 169.835 270.639 169.835C269.117 169.835 267.935 169.592 267.091 169.105C266.248 168.618 265.826 167.77 265.826 166.562C265.826 165.344 266.248 164.492 267.091 164.005C267.935 163.518 269.117 163.275 270.639 163.275ZM270.639 168.662C271.396 168.662 272.035 168.609 272.557 168.505C273.087 168.409 273.513 168.205 273.835 167.892C274.157 167.588 274.317 167.144 274.317 166.562C274.317 165.97 274.157 165.518 273.835 165.205C273.513 164.901 273.087 164.696 272.557 164.592C272.035 164.496 271.396 164.448 270.639 164.448C269.857 164.448 269.2 164.496 268.67 164.592C268.139 164.696 267.713 164.901 267.391 165.205C267.07 165.518 266.909 165.97 266.909 166.562C266.909 167.144 267.07 167.588 267.391 167.892C267.713 168.205 268.139 168.409 268.67 168.505C269.2 168.609 269.857 168.662 270.639 168.662Z" fill="#757F90"/>
<path d="M159.738 287.257V288.34H157.286V278.909H158.486V287.257H159.738ZM153.526 283.814C154.013 284.005 154.386 284.283 154.647 284.648C154.908 285.014 155.039 285.457 155.039 285.979C155.039 286.448 154.921 286.87 154.686 287.244C154.452 287.627 154.104 287.927 153.643 288.144C153.173 288.37 152.608 288.483 151.947 288.483C151.286 288.483 150.726 288.37 150.265 288.144C149.795 287.927 149.443 287.627 149.208 287.244C148.965 286.87 148.843 286.448 148.843 285.979C148.843 285.474 148.978 285.031 149.247 284.648C149.517 284.274 149.886 283.996 150.356 283.814C149.817 283.648 149.391 283.357 149.078 282.94C148.756 282.531 148.595 282.035 148.595 281.453C148.595 280.887 148.734 280.392 149.013 279.966C149.291 279.548 149.686 279.222 150.2 278.987C150.704 278.761 151.286 278.648 151.947 278.648C152.608 278.648 153.191 278.761 153.695 278.987C154.191 279.222 154.578 279.548 154.856 279.966C155.134 280.392 155.273 280.887 155.273 281.453C155.273 282.035 155.117 282.535 154.804 282.953C154.491 283.37 154.065 283.657 153.526 283.814ZM149.991 285.835C149.991 286.366 150.165 286.774 150.513 287.061C150.86 287.348 151.339 287.492 151.947 287.492C152.547 287.492 153.021 287.348 153.369 287.061C153.717 286.774 153.891 286.361 153.891 285.822C153.891 285.335 153.713 284.944 153.356 284.648C152.991 284.353 152.521 284.205 151.947 284.205C151.365 284.205 150.895 284.353 150.539 284.648C150.173 284.953 149.991 285.348 149.991 285.835ZM151.947 283.292C152.591 283.292 153.117 283.14 153.526 282.835C153.934 282.54 154.139 282.092 154.139 281.492C154.139 280.935 153.943 280.487 153.552 280.148C153.152 279.809 152.617 279.64 151.947 279.64C151.278 279.64 150.747 279.809 150.356 280.148C149.965 280.487 149.769 280.935 149.769 281.492C149.769 282.074 149.969 282.518 150.369 282.822C150.769 283.135 151.295 283.292 151.947 283.292ZM147.019 283.722C147.019 285.218 146.775 286.383 146.288 287.218C145.801 288.061 144.949 288.483 143.732 288.483C142.523 288.483 141.675 288.061 141.188 287.218C140.701 286.383 140.458 285.218 140.458 283.722C140.458 282.2 140.701 281.018 141.188 280.174C141.675 279.331 142.523 278.909 143.732 278.909C144.949 278.909 145.801 279.331 146.288 280.174C146.775 281.018 147.019 282.2 147.019 283.722ZM141.632 283.722C141.632 284.479 141.684 285.118 141.788 285.64C141.884 286.17 142.088 286.596 142.401 286.918C142.706 287.24 143.149 287.4 143.732 287.4C144.323 287.4 144.775 287.24 145.088 286.918C145.393 286.596 145.597 286.17 145.701 285.64C145.797 285.118 145.845 284.479 145.845 283.722C145.845 282.94 145.797 282.283 145.701 281.753C145.597 281.222 145.393 280.796 145.088 280.474C144.775 280.153 144.323 279.992 143.732 279.992C143.149 279.992 142.706 280.153 142.401 280.474C142.088 280.796 141.884 281.222 141.788 281.753C141.684 282.283 141.632 282.94 141.632 283.722Z" fill="#757F90"/>
<path d="M33.2226 171.455C32.3357 170.351 31.6096 169.486 31.0444 168.86C30.4705 168.234 29.8748 167.707 29.2574 167.281C28.6313 166.847 28.0183 166.629 27.4183 166.629C26.8531 166.629 26.4096 166.768 26.0878 167.047C25.7574 167.316 25.5922 167.755 25.5922 168.364C25.5922 168.955 25.7792 169.416 26.1531 169.747C26.5183 170.068 27.0096 170.242 27.627 170.268V171.416C26.6531 171.381 25.9009 171.086 25.3705 170.529C24.84 169.973 24.5748 169.255 24.5748 168.377C24.5748 167.481 24.8226 166.773 25.3183 166.251C25.8139 165.721 26.4965 165.455 27.3661 165.455C28.0878 165.455 28.7922 165.673 29.4792 166.107C30.1574 166.534 30.7574 167.021 31.2792 167.568C31.7922 168.116 32.3922 168.816 33.0792 169.668V165.181H34.0705V171.455H33.2226ZM25.6705 158.005L34.1748 161.631V162.831L25.7878 159.153V164.188H24.7705V158.005H25.6705ZM29.3618 156.689C27.8661 156.689 26.7009 156.445 25.8661 155.958C25.0226 155.471 24.6009 154.619 24.6009 153.402C24.6009 152.193 25.0226 151.345 25.8661 150.858C26.7009 150.371 27.8661 150.128 29.3618 150.128C30.8835 150.128 32.0661 150.371 32.9096 150.858C33.7531 151.345 34.1748 152.193 34.1748 153.402C34.1748 154.619 33.7531 155.471 32.9096 155.958C32.0661 156.445 30.8835 156.689 29.3618 156.689ZM29.3618 151.302C28.6052 151.302 27.9661 151.354 27.4444 151.458C26.9139 151.554 26.4878 151.758 26.1661 152.071C25.8444 152.376 25.6835 152.819 25.6835 153.402C25.6835 153.993 25.8444 154.445 26.1661 154.758C26.4878 155.063 26.9139 155.267 27.4444 155.371C27.9661 155.467 28.6052 155.515 29.3618 155.515C30.1444 155.515 30.8009 155.467 31.3313 155.371C31.8618 155.267 32.2878 155.063 32.6096 154.758C32.9313 154.445 33.0922 153.993 33.0922 153.402C33.0922 152.819 32.9313 152.376 32.6096 152.071C32.2878 151.758 31.8618 151.554 31.3313 151.458C30.8009 151.354 30.1444 151.302 29.3618 151.302Z" fill="#757F90"/>
<path d="M186.843 144.217L186.844 144.219C191.878 152.917 190.946 160.825 188.755 166.581C187.656 169.466 186.241 171.809 185.099 173.431C184.529 174.241 184.029 174.869 183.673 175.293C183.495 175.504 183.353 175.665 183.257 175.771C183.209 175.824 183.172 175.864 183.148 175.89L183.122 175.918L183.116 175.924L183.115 175.925L183.115 175.925L183.115 175.925L183.094 175.946L183.076 175.969L183.584 176.378C183.076 175.969 183.076 175.969 183.076 175.97L183.075 175.971L183.071 175.975L183.059 175.991L183.008 176.054L182.81 176.301L182.055 177.241C181.403 178.053 180.469 179.216 179.339 180.622C177.08 183.434 174.039 187.217 170.91 191.102C164.653 198.872 158.062 207.029 156.67 208.653C155.12 210.406 154.679 213.095 154.601 215.255C154.561 216.356 154.614 217.364 154.684 218.118C154.719 218.495 154.758 218.811 154.792 219.045C154.822 219.251 154.857 219.453 154.891 219.557C154.927 219.667 154.949 219.751 154.957 219.817C154.935 219.807 154.913 219.796 154.893 219.785C154.88 219.778 154.869 219.772 154.861 219.767L154.808 219.723L154.562 219.521L153.619 218.746C152.803 218.075 151.63 217.111 150.199 215.936C147.338 213.585 143.448 210.391 139.333 207.017C131.103 200.271 121.966 192.8 118.349 189.914C115.069 187.29 110.927 181.045 110.021 174.508C109.308 169.078 109.62 164.786 111.034 160.835C112.45 156.876 114.992 153.204 118.833 149.043L118.849 149.025L118.864 149.007L118.354 148.601C118.864 149.007 118.864 149.007 118.864 149.006L118.865 149.006L118.868 149.002L118.879 148.989L118.922 148.935L119.09 148.723L119.732 147.917C120.287 147.221 121.084 146.22 122.052 145.006C123.989 142.577 126.611 139.292 129.352 135.866C134.839 129.009 140.792 121.603 142.694 119.359C144.725 116.961 145.321 114.238 145.415 112.14C145.462 111.09 145.385 110.187 145.295 109.546C145.25 109.224 145.202 108.967 145.164 108.787C145.145 108.698 145.129 108.627 145.117 108.578C145.115 108.569 145.113 108.561 145.111 108.553C145.07 108.096 145.103 107.893 145.129 107.808C145.141 107.769 145.148 107.753 145.192 107.706C145.219 107.729 145.248 107.754 145.272 107.775L145.283 107.784C145.346 107.837 145.436 107.914 145.551 108.01C145.78 108.204 146.111 108.482 146.529 108.832C147.366 109.534 148.555 110.529 149.991 111.728C152.864 114.128 156.725 117.348 160.731 120.683C168.738 127.348 177.335 134.479 179.769 136.425C182.046 138.276 183.82 140.231 185.025 141.725C185.627 142.472 186.085 143.101 186.392 143.542C186.546 143.763 186.661 143.936 186.737 144.053C186.775 144.111 186.804 144.156 186.822 144.185L186.843 144.217ZM145.137 107.693C145.137 107.693 145.137 107.693 145.138 107.693L145.137 107.693Z" fill="white" fill-opacity="0.2" stroke="#EFF1F4" stroke-width="1.30435"/>
</svg>
