<svg width="375" height="4" viewBox="0 0 375 4" fill="none" xmlns="http://www.w3.org/2000/svg">
<path d="M-6.5 0H11L8.5 4H-9L-6.5 0Z" fill="#CCE1EF"/>
<path d="M15.5 0H33L30.5 4H13L15.5 0Z" fill="#F8D2D6"/>
<path d="M37.5 0H55L52.5 4H35L37.5 0Z" fill="#CCE1EF"/>
<path d="M59.5 0H77L74.5 4H57L59.5 0Z" fill="#F8D2D6"/>
<path d="M81.5 0H99L96.5 4H79L81.5 0Z" fill="#CCE1EF"/>
<path d="M103.5 0H121L118.5 4H101L103.5 0Z" fill="#F8D2D6"/>
<path d="M125.5 0H143L140.5 4H123L125.5 0Z" fill="#CCE1EF"/>
<path d="M147.5 0H165L162.5 4H145L147.5 0Z" fill="#F8D2D6"/>
<path d="M169.5 0H187L184.5 4H167L169.5 0Z" fill="#CCE1EF"/>
<path d="M191.5 0H209L206.5 4H189L191.5 0Z" fill="#F8D2D6"/>
<path d="M213.5 0H231L228.5 4H211L213.5 0Z" fill="#CCE1EF"/>
<path d="M235.5 0H253L250.5 4H233L235.5 0Z" fill="#F8D2D6"/>
<path d="M257.5 0H275L272.5 4H255L257.5 0Z" fill="#CCE1EF"/>
<path d="M279.5 0H297L294.5 4H277L279.5 0Z" fill="#F8D2D6"/>
<path d="M301.5 0H319L316.5 4H299L301.5 0Z" fill="#CCE1EF"/>
<path d="M323.5 0H341L338.5 4H321L323.5 0Z" fill="#F8D2D6"/>
<path d="M345.5 0H363L360.5 4H343L345.5 0Z" fill="#CCE1EF"/>
<path d="M367.5 0H385L382.5 4H365L367.5 0Z" fill="#F8D2D6"/>
</svg>
