<svg width="25" height="24" viewBox="0 0 25 24" fill="none" xmlns="http://www.w3.org/2000/svg">
<g id="morning-png">
<g id="Group 1321316308">
<path id="Vector 5627" d="M11.0917 6L11.3987 6.39468C11.5909 6.24514 11.6475 5.97882 11.5325 5.76407C11.4176 5.54932 11.1647 5.44863 10.9336 5.52566L11.0917 6ZM19.0917 14.5L19.5002 14.7883C19.6362 14.5956 19.6191 14.3341 19.459 14.1608C19.299 13.9875 19.0396 13.9496 18.8367 14.0699L19.0917 14.5ZM7.09051 16.5L6.70874 16.8229L6.71576 16.8312L6.72315 16.8392L7.09051 16.5ZM10.7847 5.60532C8.24905 7.57747 8.46382 11.1451 10.1864 13.5232C11.0613 14.7312 12.3497 15.6842 13.9385 16.0286C15.533 16.3742 17.3798 16.096 19.3467 14.9301L18.8367 14.0699C17.0531 15.1272 15.4621 15.3356 14.1503 15.0513C12.8327 14.7656 11.7462 13.972 10.9962 12.9366C9.46898 10.8281 9.43424 7.92253 11.3987 6.39468L10.7847 5.60532ZM19.0917 14.5C18.6832 14.2117 18.6833 14.2115 18.6834 14.2114C18.6834 14.2114 18.6834 14.2114 18.6834 14.2114C18.6834 14.2114 18.6833 14.2116 18.6831 14.2119C18.6827 14.2124 18.6819 14.2135 18.6808 14.2151C18.6785 14.2183 18.6748 14.2234 18.6697 14.2304C18.6596 14.2444 18.6438 14.2659 18.6226 14.2943C18.5801 14.351 18.516 14.4348 18.4317 14.5402C18.263 14.7511 18.0141 15.0472 17.6968 15.3834C17.0595 16.0586 16.1591 16.8818 15.0897 17.5056C14.0201 18.1295 12.8106 18.5374 11.539 18.4314C10.2787 18.3264 8.88914 17.711 7.45788 16.1608L6.72315 16.8392C8.29252 18.539 9.90341 19.2986 11.456 19.428C12.9972 19.5564 14.4129 19.058 15.5935 18.3694C16.7742 17.6807 17.7488 16.7852 18.4241 16.0698C18.763 15.7106 19.0298 15.3935 19.2126 15.1649C19.3041 15.0505 19.3748 14.9581 19.4231 14.8935C19.4473 14.8612 19.466 14.8358 19.4789 14.818C19.4853 14.8091 19.4903 14.8021 19.4939 14.7972C19.4957 14.7947 19.4971 14.7927 19.4981 14.7912C19.4987 14.7905 19.4991 14.7899 19.4994 14.7894C19.4996 14.7892 19.4998 14.7889 19.4999 14.7888C19.5 14.7885 19.5002 14.7883 19.0917 14.5ZM7.47228 16.1771C6.41981 14.9327 5.94985 12.9784 6.45137 11.0966C6.94625 9.23975 8.39776 7.42504 11.2498 6.47434L10.9336 5.52566C7.78575 6.57496 6.07277 8.63406 5.4851 10.8391C4.90405 13.0193 5.43344 15.315 6.70874 16.8229L7.47228 16.1771Z" fill="white"/>
<path id="Vector 5628" d="M14.0918 10L14.5918 8.5L15.0918 10L16.5918 10.5L15.0918 11.5L14.5918 12.5L14.0918 11.5L12.5918 10.5L14.0918 10Z" stroke="white" stroke-linejoin="round"/>
</g>
</g>
</svg>
