<svg width="20" height="20" viewBox="0 0 20 20" fill="none" xmlns="http://www.w3.org/2000/svg">
<g id="duration">
<path id="Subtract" fill-rule="evenodd" clip-rule="evenodd" d="M2.50008 1.66797C2.03984 1.66797 1.66675 2.04106 1.66675 2.5013C1.66675 2.96154 2.03984 3.33464 2.50008 3.33464L4.16675 3.33464V5.0013C4.16675 5.85402 4.34971 6.664 4.67853 7.39413C4.87573 7.4811 5.10677 7.55862 5.3649 7.62538C5.89967 7.76368 6.4846 7.83956 6.98691 7.87915C6.6517 7.52827 6.37715 7.11893 6.18012 6.66797H13.82C13.1771 8.13956 11.7087 9.16797 10.0001 9.16797C9.90338 9.16797 9.80746 9.16468 9.7124 9.15819V9.16797H7.91675C7.45914 9.16797 6.60762 9.13482 5.73623 8.9822C6.10513 9.37716 6.52826 9.72082 6.99376 10.0013C5.29973 11.0221 4.16675 12.8794 4.16675 15.0013L4.16675 16.668H2.50008C2.03984 16.668 1.66675 17.0411 1.66675 17.5013C1.66675 17.9615 2.03984 18.3346 2.50008 18.3346L17.5001 18.3346C17.9603 18.3346 18.3334 17.9615 18.3334 17.5013C18.3334 17.0411 17.9603 16.668 17.5001 16.668H15.8334V15.0013C15.8334 12.8794 14.7004 11.0221 13.0064 10.0013C14.7004 8.98056 15.8334 7.12324 15.8334 5.0013V3.33464L17.5001 3.33464C17.9603 3.33464 18.3334 2.96154 18.3334 2.5013C18.3334 2.04107 17.9603 1.66797 17.5001 1.66797H2.50008ZM14.1667 15.0013V16.668L5.83341 16.668V15.0013C5.83341 12.7001 7.6989 10.8346 10.0001 10.8346C12.3013 10.8346 14.1667 12.7001 14.1667 15.0013ZM14.1667 3.33464H5.83342V5.0013H14.1667V3.33464Z" fill="#181C21"/>
</g>
</svg>
