<svg width="128" height="128" viewBox="0 0 128 128" fill="none" xmlns="http://www.w3.org/2000/svg">
<g clip-path="url(#clip0_13_142862)">
<path d="M76.7601 87.3404C76.6838 87.3502 76.6065 87.3502 76.5301 87.3404L58.6501 82.0004C58.4583 82.0906 58.24 82.1068 58.037 82.0459C57.834 81.985 57.6606 81.8513 57.5501 81.6704L24.6601 71.9404C24.5782 72.2674 24.5378 72.6034 24.5401 72.9404L25.6701 109.33C25.6909 110.172 25.9765 110.985 26.4864 111.655C26.9963 112.325 27.7045 112.817 28.5101 113.06L76.5101 127.8C76.9897 127.961 77.4953 128.029 78.0001 128L77.1201 91.0004C77.1174 90.7793 77.202 90.5661 77.3555 90.407C77.509 90.2479 77.7191 90.1557 77.9401 90.1504C78.1581 90.1526 78.3671 90.2374 78.5249 90.3878C78.6827 90.5382 78.7775 90.7428 78.7901 90.9604L79.6501 127.5C80.1093 127.249 80.5138 126.909 80.8401 126.5L101.6 101.03C102.185 100.313 102.503 99.4157 102.5 98.4904V82.4904L76.9101 87.3304L76.7601 87.3404Z" fill="url(#paint0_linear_13_142862)"/>
<path d="M57.6904 42.14L38.5604 22.6C38.2419 22.2799 37.8245 22.077 37.376 22.0244C36.9275 21.9717 36.4744 22.0724 36.0904 22.31L1.29045 44.15C1.04005 44.3095 0.828317 44.5229 0.670623 44.7744C0.512928 45.026 0.413228 45.3096 0.378758 45.6045C0.344288 45.8994 0.375913 46.1983 0.471339 46.4794C0.566764 46.7606 0.723595 47.017 0.930448 47.23L23.9304 70.43C23.9304 70.43 23.9304 70.43 23.9804 70.38L57.6904 42.14Z" fill="url(#paint1_linear_13_142862)"/>
<path d="M102.471 80.8204V57.5604C102.469 57.0712 102.377 56.5865 102.201 56.1304L78.8105 85.2804L102.471 80.8204Z" fill="url(#paint2_linear_13_142862)"/>
<path d="M125.401 49.7001L103.271 54.3001C103.299 54.4174 103.301 54.5397 103.275 54.6575C103.249 54.7754 103.196 54.8858 103.121 54.9801L102.201 56.1301L78.8105 85.2801L102.471 80.8201L107.211 79.9301C107.315 79.909 107.423 79.9087 107.528 79.9293C107.632 79.9499 107.732 79.9909 107.821 80.0501L126.701 51.6301C126.838 51.4225 126.911 51.1788 126.909 50.9298C126.908 50.6809 126.834 50.4379 126.694 50.2314C126.555 50.0249 126.358 49.8643 126.128 49.7697C125.898 49.6752 125.645 49.6509 125.401 49.7001Z" fill="url(#paint3_linear_13_142862)"/>
<path d="M57.4402 79.92V44.52L26.2002 70.66L57.4402 79.92Z" fill="#0B1C3F"/>
<path d="M59.1006 80.4103L76.4606 85.5503L101.021 54.9403L59.1006 43.8203V80.4103Z" fill="#0B1C3F"/>
<path d="M66.0605 74.3605C65.7953 74.3605 65.541 74.2551 65.3534 74.0676C65.1659 73.88 65.0605 73.6257 65.0605 73.3605V59.7104C65.0605 59.4452 65.1659 59.1909 65.3534 59.0033C65.541 58.8158 65.7953 58.7104 66.0605 58.7104C66.3258 58.7104 66.5801 58.8158 66.7677 59.0033C66.9552 59.1909 67.0605 59.4452 67.0605 59.7104V73.3605C67.0605 73.6257 66.9552 73.88 66.7677 74.0676C66.5801 74.2551 66.3258 74.3605 66.0605 74.3605Z" fill="white"/>
<path d="M71 74.3601C70.7348 74.3601 70.4804 74.2547 70.2929 74.0672C70.1054 73.8796 70 73.6253 70 73.3601V64.5801C70 64.3149 70.1054 64.0605 70.2929 63.873C70.4804 63.6854 70.7348 63.5801 71 63.5801C71.2652 63.5801 71.5196 63.6854 71.7071 63.873C71.8946 64.0605 72 64.3149 72 64.5801V73.3601C72 73.6253 71.8946 73.8796 71.7071 74.0672C71.5196 74.2547 71.2652 74.3601 71 74.3601Z" fill="white"/>
<path d="M78.4605 41.1602C78.228 41.1653 78.0009 41.0893 77.8184 40.9451C77.6359 40.8009 77.5093 40.5976 77.4605 40.3702C77.4605 40.2702 75.4605 30.4902 87.3005 27.0802C89.4694 26.3466 91.8148 26.3186 94.0005 27.0002C98.0705 24.7702 100.641 25.6402 104.471 26.9402C105.961 27.4402 109.681 28.2902 112.101 25.3202C112.272 25.1294 112.51 25.0118 112.766 24.9918C113.022 24.9718 113.276 25.051 113.475 25.2128C113.674 25.3747 113.803 25.6069 113.836 25.8614C113.869 26.1159 113.802 26.3732 113.651 26.5802C111.391 29.3502 107.811 30.1702 103.831 28.8302C100.521 27.7102 98.7205 27.1002 96.1205 28.1802C96.3388 28.3643 96.5458 28.5613 96.7405 28.7702C97.5267 29.6172 98.0648 30.6641 98.2958 31.7965C98.5269 32.9288 98.442 34.1028 98.0505 35.1902C97.7337 36.0745 97.1694 36.8491 96.4248 37.4218C95.6801 37.9945 94.7866 38.341 93.8505 38.4202C93.0677 38.5362 92.2682 38.447 91.5302 38.1613C90.7922 37.8756 90.1411 37.4031 89.6405 36.7902C89.1452 36.0923 88.8373 35.279 88.7462 34.428C88.6552 33.5771 88.7841 32.717 89.1205 31.9302C89.6648 30.5997 90.5473 29.4346 91.6805 28.5502C90.3891 28.4891 89.0968 28.6515 87.8605 29.0302C77.8605 31.9302 79.3505 39.6502 79.4205 40.0302C79.4742 40.2872 79.4245 40.5551 79.2823 40.7759C79.1401 40.9967 78.9168 41.1527 78.6605 41.2102L78.4605 41.1602ZM94.1505 29.2102C92.764 29.9775 91.66 31.1692 91.0005 32.6102C90.7843 33.0773 90.6919 33.5921 90.7322 34.1053C90.7724 34.6184 90.9441 35.1125 91.2305 35.5402C91.5253 35.8832 91.9046 36.1431 92.331 36.2939C92.7573 36.4448 93.2157 36.4814 93.6605 36.4002C94.2253 36.3581 94.7655 36.1521 95.2149 35.8075C95.6643 35.4629 96.0033 34.9946 96.1905 34.4602C96.4489 33.7176 96.5007 32.9189 96.3404 32.1492C96.1802 31.3795 95.8138 30.6678 95.2805 30.0902C94.9522 29.7395 94.5709 29.4426 94.1505 29.2102Z" fill="#0B1C3F"/>
<path d="M74.3104 121.83L73.9904 113.83C73.9917 113.654 73.9344 113.483 73.8276 113.344C73.7207 113.204 73.5704 113.104 73.4005 113.06L60.9404 109.23C60.8218 109.199 60.6977 109.196 60.5777 109.221C60.4577 109.246 60.345 109.298 60.2484 109.374C60.1518 109.449 60.0737 109.546 60.0204 109.656C59.967 109.766 59.9396 109.887 59.9404 110.01L60.4404 117.91C60.4403 118.084 60.4968 118.253 60.6014 118.392C60.7061 118.531 60.8532 118.632 61.0204 118.68L73.3005 122.6C73.4189 122.632 73.5433 122.637 73.6638 122.613C73.7843 122.59 73.8978 122.539 73.9955 122.464C74.0931 122.39 74.1723 122.294 74.227 122.184C74.2816 122.074 74.3101 121.953 74.3104 121.83Z" fill="white"/>
<path d="M73.5204 123.18C73.3955 123.178 73.2714 123.161 73.1504 123.13L60.8604 119.22C60.5757 119.141 60.3246 118.971 60.1443 118.736C59.9641 118.502 59.8645 118.216 59.8604 117.92L59.3704 110.05C59.3664 109.839 59.4113 109.63 59.5015 109.439C59.5917 109.249 59.7248 109.081 59.8904 108.95C60.0513 108.822 60.2401 108.733 60.4417 108.692C60.6432 108.65 60.8517 108.656 61.0504 108.71L73.5304 112.54C73.8166 112.617 74.0697 112.786 74.2504 113.021C74.4311 113.256 74.5295 113.544 74.5304 113.84L74.8504 121.84C74.8504 122.048 74.8015 122.254 74.7077 122.44C74.6139 122.625 74.4778 122.787 74.3104 122.91C74.085 123.087 73.8066 123.182 73.5204 123.18ZM60.7404 109.77C60.6946 109.758 60.6461 109.758 60.6004 109.77C60.5687 109.793 60.5431 109.823 60.5256 109.858C60.5082 109.893 60.4995 109.931 60.5004 109.97L61.0004 117.84C60.9976 117.897 61.0137 117.954 61.0463 118.001C61.0788 118.048 61.1259 118.083 61.1804 118.1L73.4704 122.02C73.5 122.035 73.5325 122.042 73.5654 122.042C73.5982 122.042 73.6307 122.035 73.6604 122.02C73.6899 122 73.7143 121.973 73.7316 121.942C73.749 121.911 73.7588 121.876 73.7604 121.84L73.4404 113.84C73.4431 113.783 73.427 113.727 73.3944 113.68C73.3619 113.633 73.3148 113.598 73.2604 113.58L60.7804 109.74L60.7404 109.77Z" fill="#0B1C3F"/>
<path d="M45.09 113.85C45.0103 113.86 44.9297 113.86 44.85 113.85L30 109.24C29.8956 109.208 29.7985 109.156 29.7144 109.086C29.6303 109.016 29.5607 108.931 29.5096 108.834C29.4585 108.738 29.427 108.632 29.4167 108.523C29.4065 108.414 29.4178 108.305 29.45 108.2C29.4822 108.096 29.5346 107.999 29.6043 107.915C29.6739 107.83 29.7595 107.761 29.8561 107.71C30.0511 107.607 30.2791 107.585 30.49 107.65L45.37 112.23C45.5579 112.291 45.7181 112.416 45.8218 112.584C45.9254 112.752 45.9659 112.952 45.9358 113.147C45.9056 113.342 45.807 113.52 45.6575 113.649C45.508 113.778 45.3174 113.849 45.12 113.85H45.09Z" fill="#0B1C3F"/>
<path d="M42.46 109C42.3773 109.015 42.2927 109.015 42.21 109L30 105.23C29.7891 105.165 29.6127 105.019 29.5096 104.824C29.4064 104.629 29.385 104.401 29.45 104.19C29.515 103.98 29.661 103.803 29.8561 103.7C30.0511 103.597 30.2791 103.575 30.49 103.64L42.7 107.4C42.8953 107.454 43.0642 107.578 43.1749 107.747C43.2856 107.917 43.3304 108.121 43.3008 108.322C43.2713 108.522 43.1696 108.705 43.0147 108.835C42.8598 108.966 42.6625 109.035 42.46 109.03V109Z" fill="#0B1C3F"/>
<path d="M42.4607 104.87C42.3776 104.88 42.2937 104.88 42.2107 104.87L30.0007 101.07C29.7999 101.003 29.6317 100.863 29.5298 100.678C29.4278 100.492 29.3995 100.275 29.4507 100.07C29.5154 99.8679 29.6551 99.6982 29.8411 99.5959C30.0271 99.4936 30.2453 99.4665 30.4507 99.52L42.6907 103.28C42.886 103.334 43.0549 103.457 43.1656 103.627C43.2762 103.796 43.321 104.001 43.2915 104.201C43.262 104.402 43.1602 104.584 43.0054 104.715C42.8505 104.845 42.6532 104.915 42.4507 104.91L42.4607 104.87Z" fill="#0B1C3F"/>
<path d="M116.08 19.01L114.65 18.9L112.44 14.71L112.15 11.96L113.88 11.02L116.12 12.55L116.66 15.01L116.08 19.01Z" fill="white"/>
<path d="M116.651 22.0002L115.711 21.5302C113.001 20.1502 110.811 15.1202 111.161 12.3802C111.169 11.8247 111.364 11.2881 111.714 10.8565C112.064 10.4249 112.549 10.1234 113.091 10.0002C113.64 9.83357 114.223 9.8171 114.781 9.95252C115.338 10.0879 115.85 10.3703 116.261 10.7702C118.681 13.2502 117.091 20.1902 116.901 20.9702L116.651 22.0002ZM114.061 11.5602C113.856 11.5621 113.651 11.5855 113.451 11.6302C113.291 11.6302 112.921 11.7502 112.811 12.6302C112.571 14.5602 113.961 17.8102 115.541 19.3802C116.021 16.7402 116.221 13.1602 115.071 11.9902C114.946 11.8461 114.79 11.7312 114.616 11.6534C114.441 11.5757 114.252 11.5371 114.061 11.5402V11.5602Z" fill="#0B1C3F"/>
<path d="M115.39 19.4701C115.39 19.4701 109.02 9.89014 106.16 14.7701C104.58 17.4701 112.16 20.6601 115.39 19.4701Z" fill="white"/>
<path d="M113.701 20.5603C110.861 20.5603 107.291 19.0703 105.871 17.3803C105.48 16.9964 105.227 16.4949 105.149 15.9529C105.072 15.411 105.174 14.8585 105.441 14.3803C105.692 13.8659 106.078 13.4284 106.556 13.1135C107.034 12.7986 107.589 12.618 108.161 12.5903H108.251C111.691 12.5903 115.641 18.3803 116.081 19.0503L116.661 19.9203L115.661 20.2903C115.027 20.4904 114.365 20.5817 113.701 20.5603ZM108.251 14.2203C107.911 14.2203 107.411 14.3403 106.911 15.2203C106.831 15.3603 106.641 15.6903 107.191 16.3403C108.441 17.8403 111.751 19.0103 114.001 18.9203C112.351 16.7703 109.891 14.2203 108.251 14.2203Z" fill="#0B1C3F"/>
<path d="M116.47 21.9803C117.216 21.9803 117.82 21.3759 117.82 20.6303C117.82 19.8847 117.216 19.2803 116.47 19.2803C115.725 19.2803 115.12 19.8847 115.12 20.6303C115.12 21.3759 115.725 21.9803 116.47 21.9803Z" fill="#0A1C40"/>
<path d="M116.47 23.0004C116.098 22.9986 115.732 22.9095 115.4 22.7404C114.85 22.4527 114.436 21.9589 114.248 21.3667C114.061 20.7746 114.115 20.1324 114.4 19.5804C114.54 19.3058 114.733 19.0617 114.968 18.8625C115.204 18.6634 115.476 18.5131 115.77 18.4204C116.362 18.2305 117.005 18.2808 117.56 18.5604C118.109 18.85 118.521 19.344 118.708 19.9353C118.895 20.5267 118.842 21.168 118.56 21.7204C118.275 22.2756 117.783 22.696 117.19 22.8904C116.957 22.9611 116.714 22.9981 116.47 23.0004ZM116.47 20.3004H116.36C116.317 20.3141 116.277 20.3362 116.243 20.3653C116.209 20.3945 116.181 20.4302 116.16 20.4704C116.118 20.5542 116.109 20.6513 116.137 20.7409C116.165 20.8306 116.227 20.9058 116.31 20.9504C116.397 20.9844 116.493 20.9844 116.58 20.9504C116.668 20.9185 116.739 20.854 116.78 20.7704C116.822 20.6881 116.83 20.5925 116.802 20.5045C116.774 20.4164 116.712 20.3431 116.63 20.3004C116.579 20.281 116.524 20.2742 116.47 20.2804V20.3004Z" fill="#0B1C3F"/>
</g>
<defs>
<linearGradient id="paint0_linear_13_142862" x1="24.5401" y1="99.9704" x2="102.47" y2="99.9704" gradientUnits="userSpaceOnUse">
<stop stop-color="#FAA22E"/>
<stop offset="0.02" stop-color="#F9982E"/>
<stop offset="0.09" stop-color="#F5732E"/>
<stop offset="0.17" stop-color="#F2552E"/>
<stop offset="0.25" stop-color="#F03D2E"/>
<stop offset="0.34" stop-color="#EE2C2E"/>
<stop offset="0.43" stop-color="#ED222E"/>
<stop offset="0.55" stop-color="#ED1F2E"/>
<stop offset="0.81" stop-color="#B92028"/>
</linearGradient>
<linearGradient id="paint1_linear_13_142862" x1="0.360448" y1="46.22" x2="58.2704" y2="46.22" gradientUnits="userSpaceOnUse">
<stop stop-color="#FAA22E"/>
<stop offset="0.02" stop-color="#F9982E"/>
<stop offset="0.09" stop-color="#F5732E"/>
<stop offset="0.17" stop-color="#F2552E"/>
<stop offset="0.25" stop-color="#F03D2E"/>
<stop offset="0.34" stop-color="#EE2C2E"/>
<stop offset="0.43" stop-color="#ED222E"/>
<stop offset="0.55" stop-color="#ED1F2E"/>
<stop offset="0.81" stop-color="#B92028"/>
</linearGradient>
<linearGradient id="paint2_linear_13_142862" x1="24.5405" y1="70.7004" x2="102.471" y2="70.7004" gradientUnits="userSpaceOnUse">
<stop stop-color="#FAA22E"/>
<stop offset="0.02" stop-color="#F9982E"/>
<stop offset="0.09" stop-color="#F5732E"/>
<stop offset="0.17" stop-color="#F2552E"/>
<stop offset="0.25" stop-color="#F03D2E"/>
<stop offset="0.34" stop-color="#EE2C2E"/>
<stop offset="0.43" stop-color="#ED222E"/>
<stop offset="0.55" stop-color="#ED1F2E"/>
<stop offset="0.81" stop-color="#B92028"/>
</linearGradient>
<linearGradient id="paint3_linear_13_142862" x1="74.6305" y1="67.4801" x2="176.621" y2="67.4801" gradientUnits="userSpaceOnUse">
<stop stop-color="#FAA22E"/>
<stop offset="0.02" stop-color="#F9982E"/>
<stop offset="0.09" stop-color="#F5732E"/>
<stop offset="0.17" stop-color="#F2552E"/>
<stop offset="0.25" stop-color="#F03D2E"/>
<stop offset="0.34" stop-color="#EE2C2E"/>
<stop offset="0.43" stop-color="#ED222E"/>
<stop offset="0.55" stop-color="#ED1F2E"/>
<stop offset="0.81" stop-color="#B92028"/>
</linearGradient>
<clipPath id="clip0_13_142862">
<rect width="128" height="128" fill="white"/>
</clipPath>
</defs>
</svg>
