<svg width="81" height="80" viewBox="0 0 81 80" fill="none" xmlns="http://www.w3.org/2000/svg">
<g clip-path="url(#clip0_2053_39277)">
<ellipse cx="40.5" cy="60" rx="40" ry="12" fill="#E1E7EF"/>
<g filter="url(#filter0_iii_2053_39277)">
<path fill-rule="evenodd" clip-rule="evenodd" d="M64.5 58.5586V38.775C64.5 37.4099 63.1626 36.4459 61.8675 36.8776L41.1325 43.7893C40.7219 43.9261 40.2781 43.9261 39.8675 43.7893L19.1325 36.8776C17.8374 36.4459 16.5 37.4099 16.5 38.775V58.5586C16.5 59.4195 17.0509 60.1837 17.8675 60.456L39.8676 67.7892C40.2781 67.9261 40.7219 67.9261 41.1324 67.7892L63.1324 60.456C63.9491 60.1837 64.5 59.4195 64.5 58.5586Z" fill="#C8D6E5"/>
<path d="M64.5 36V59.2792C64.5 59.7097 64.2246 60.0918 63.8162 60.2279L40.7632 67.9123C40.6337 67.9554 40.5 67.859 40.5 67.7225V44L64.5 36Z" fill="#E1E7EF"/>
</g>
<path d="M16.5 36L9.37071 41.7034C8.13303 42.6936 8.48398 44.6613 9.98765 45.1625L29.4678 51.6558C30.1114 51.8704 30.8199 51.744 31.3496 51.3202L40.5 44L16.5 36Z" fill="#C8D6E5"/>
<path d="M64.5 36L72.5286 34.6619C73.5571 34.4905 73.6696 33.0565 72.6804 32.7268L52.9712 26.1572C52.6618 26.054 52.3318 26.0281 52.01 26.0818L40.5 28L64.5 36Z" fill="#E1E7EF"/>
<path d="M64.5 36L40.5 43.9999L40.5 28L64.5 36Z" fill="#C8D6E5"/>
<path d="M16.5 36L40.5 44L40.5 28L16.5 36Z" fill="#9EACC0"/>
<path d="M64.5 36L71.6293 41.7034C72.867 42.6936 72.516 44.6613 71.0123 45.1625L51.5322 51.6558C50.8886 51.8704 50.1801 51.744 49.6504 51.3202L40.5 44L64.5 36Z" fill="#E1E7EF"/>
<path d="M16.5 36L8.47141 34.6619C7.44291 34.4905 7.33041 33.0565 8.31958 32.7268L28.0288 26.1572C28.3382 26.054 28.6682 26.0281 28.99 26.0818L40.5 28L16.5 36Z" fill="#C8D6E5"/>
<path fill-rule="evenodd" clip-rule="evenodd" d="M38.3581 14.7441C38.4994 14.5069 38.8063 14.4292 39.0435 14.5706C39.3684 14.7642 39.6978 14.957 40.0297 15.1499C40.2684 15.2886 40.3495 15.5947 40.2107 15.8334C40.0719 16.0722 39.7659 16.1532 39.5272 16.0145C39.1936 15.8206 38.8608 15.6258 38.5316 15.4296C38.2944 15.2882 38.2167 14.9813 38.3581 14.7441ZM41.3354 16.4829C41.4753 16.2449 41.7818 16.1653 42.0198 16.3052C42.695 16.702 43.3621 17.1046 43.999 17.517C44.2308 17.6671 44.297 17.9767 44.1469 18.2085C43.9967 18.4403 43.6872 18.5065 43.4554 18.3564C42.8358 17.9551 42.1827 17.5608 41.5131 17.1673C41.2751 17.0274 41.1955 16.721 41.3354 16.4829ZM45.2087 18.9569C45.3813 18.7414 45.6959 18.7065 45.9115 18.8791C46.565 19.4021 47.1542 19.9542 47.6384 20.5449C47.8134 20.7584 47.7822 21.0735 47.5686 21.2485C47.3551 21.4236 47.04 21.3924 46.865 21.1788C46.4375 20.6573 45.9035 20.1535 45.2866 19.6598C45.071 19.4872 45.0362 19.1725 45.2087 18.9569ZM48.21 22.3831C48.476 22.3089 48.7517 22.4645 48.8258 22.7305C48.9394 23.1382 49 23.5612 49 24.0001C49 24.3939 48.9281 24.7726 48.7964 25.1357C48.7022 25.3953 48.4155 25.5295 48.1559 25.4353C47.8963 25.3412 47.7622 25.0544 47.8563 24.7948C47.9512 24.5331 48 24.2696 48 24.0001C48 23.6545 47.9525 23.3217 47.8625 22.9989C47.7884 22.7329 47.9439 22.4572 48.21 22.3831ZM47.587 26.2269C47.7847 26.4198 47.7886 26.7363 47.5957 26.934C47.148 27.3928 46.6132 27.8313 46.0242 28.2563C45.8002 28.4179 45.4877 28.3673 45.3261 28.1433C45.1646 27.9194 45.2152 27.6069 45.4391 27.4453C45.9992 27.0413 46.4853 26.6401 46.88 26.2356C47.0728 26.038 47.3894 26.0341 47.587 26.2269ZM44.5107 28.6743C44.6552 28.9097 44.5815 29.2176 44.3462 29.3621C43.7987 29.6982 43.2248 30.0336 42.6401 30.3706C42.4009 30.5086 42.0951 30.4264 41.9572 30.1872C41.8193 29.9479 41.9014 29.6422 42.1407 29.5043C42.7229 29.1687 43.2874 28.8387 43.823 28.5098C44.0583 28.3654 44.3662 28.439 44.5107 28.6743ZM41.1147 30.669C41.253 30.908 41.1715 31.2139 40.9325 31.3522C40.3674 31.6794 39.8035 32.0114 39.2509 32.3517C39.0157 32.4965 38.7077 32.4233 38.5629 32.1881C38.4181 31.953 38.4914 31.645 38.7265 31.5002C39.29 31.1532 39.8626 30.8162 40.4314 30.4868C40.6704 30.3485 40.9763 30.43 41.1147 30.669ZM37.7478 32.7155C37.9053 32.9423 37.8492 33.2538 37.6224 33.4113C37.0812 33.7872 36.5669 34.1738 36.091 34.5743C35.8798 34.7522 35.5644 34.7251 35.3865 34.5138C35.2087 34.3026 35.2358 33.9871 35.447 33.8093C35.9514 33.3847 36.4913 32.9794 37.0519 32.59C37.2787 32.4325 37.5903 32.4887 37.7478 32.7155ZM34.685 35.1841C34.8923 35.3665 34.9125 35.6824 34.7301 35.8897C34.3037 36.3743 33.9446 36.8766 33.6663 37.4007C33.5367 37.6446 33.234 37.7373 32.9901 37.6078C32.7463 37.4783 32.6536 37.1756 32.7831 36.9317C33.1042 36.3271 33.511 35.7613 33.9794 35.2291C34.1618 35.0218 34.4777 35.0016 34.685 35.1841ZM32.6668 38.525C32.939 38.5715 33.122 38.8298 33.0755 39.102C33.026 39.3925 33 39.6916 33 40.0001C33 40.2762 32.7761 40.5001 32.5 40.5001C32.2239 40.5001 32 40.2762 32 40.0001C32 39.6351 32.0307 39.2798 32.0898 38.9338C32.1363 38.6616 32.3946 38.4786 32.6668 38.525Z" fill="#2C2C2C" fill-opacity="0.7"/>
<rect x="34.0981" y="12.5059" width="2" height="4" rx="1" transform="rotate(-13.1281 34.0981 12.5059)" fill="#2C2C2C" fill-opacity="0.7"/>
<rect x="34.5522" y="14.4541" width="2" height="4" rx="1" transform="rotate(-103.128 34.5522 14.4541)" fill="#2C2C2C" fill-opacity="0.7"/>
</g>
<defs>
<filter id="filter0_iii_2053_39277" x="15.5" y="34" width="50" height="39.9229" filterUnits="userSpaceOnUse" color-interpolation-filters="sRGB">
<feFlood flood-opacity="0" result="BackgroundImageFix"/>
<feBlend mode="normal" in="SourceGraphic" in2="BackgroundImageFix" result="shape"/>
<feColorMatrix in="SourceAlpha" type="matrix" values="0 0 0 0 0 0 0 0 0 0 0 0 0 0 0 0 0 0 127 0" result="hardAlpha"/>
<feOffset dx="-1" dy="2"/>
<feGaussianBlur stdDeviation="2"/>
<feComposite in2="hardAlpha" operator="arithmetic" k2="-1" k3="1"/>
<feColorMatrix type="matrix" values="0 0 0 0 1 0 0 0 0 1 0 0 0 0 1 0 0 0 0.24 0"/>
<feBlend mode="normal" in2="shape" result="effect1_innerShadow_2053_39277"/>
<feColorMatrix in="SourceAlpha" type="matrix" values="0 0 0 0 0 0 0 0 0 0 0 0 0 0 0 0 0 0 127 0" result="hardAlpha"/>
<feOffset dx="1" dy="-2"/>
<feGaussianBlur stdDeviation="2"/>
<feComposite in2="hardAlpha" operator="arithmetic" k2="-1" k3="1"/>
<feColorMatrix type="matrix" values="0 0 0 0 0 0 0 0 0 0 0 0 0 0 0 0 0 0 0.08 0"/>
<feBlend mode="normal" in2="effect1_innerShadow_2053_39277" result="effect2_innerShadow_2053_39277"/>
<feColorMatrix in="SourceAlpha" type="matrix" values="0 0 0 0 0 0 0 0 0 0 0 0 0 0 0 0 0 0 127 0" result="hardAlpha"/>
<feOffset dx="-1" dy="6"/>
<feGaussianBlur stdDeviation="32"/>
<feComposite in2="hardAlpha" operator="arithmetic" k2="-1" k3="1"/>
<feColorMatrix type="matrix" values="0 0 0 0 0 0 0 0 0 0 0 0 0 0 0 0 0 0 0.08 0"/>
<feBlend mode="normal" in2="effect2_innerShadow_2053_39277" result="effect3_innerShadow_2053_39277"/>
</filter>
<clipPath id="clip0_2053_39277">
<rect width="80" height="80" fill="white" transform="translate(0.5)"/>
</clipPath>
</defs>
</svg>
