<svg width="17" height="16" viewBox="0 0 17 16" fill="none" xmlns="http://www.w3.org/2000/svg">
<g id="Icon">
<path id="Union" fill-rule="evenodd" clip-rule="evenodd" d="M12.25 2H4.75C3.50708 2 2.5 3.00708 2.5 4.25V11.75C2.5 12.9929 3.50708 14 4.75 14H12.25C13.4929 14 14.5 12.9929 14.5 11.75V5.41179C14.4262 5.16355 14.1812 4.95365 13.6152 4.8139C13.4706 4.77819 13.3197 4.75113 13.1667 4.73064V8.12379L11.7886 6.85233C11.3191 6.38358 10.8014 6.28983 10.0879 6.85233C9.58412 7.24948 9.38949 7.4632 9.18111 7.69201L9.18111 7.69201L9.1811 7.69202C9.09435 7.78729 9.00521 7.88517 8.89038 7.99999C8.87228 8.0181 8.83776 8.04944 8.79423 8.08897C8.62382 8.24371 8.31525 8.52391 8.3125 8.62625L7.10108 7.41483C6.6316 6.94608 5.87061 6.94608 5.4004 7.41483L3.83333 9L3.79701 4.25C3.79701 3.83546 4.33546 3.33333 4.75 3.33333H11.8781H11.8841H12.25C12.2629 3.33333 12.2757 3.33436 12.2885 3.33632C12.7643 3.34519 13.3715 3.38035 13.9348 3.51944C14.093 3.55851 14.2596 3.60901 14.4258 3.67451C14.1716 2.71052 13.294 2 12.25 2ZM12.1667 12.6667L9.28101 9.56249L10.9375 8.12379L13.1667 10.3333V11.75C13.1667 11.9154 12.9973 12.0747 12.8593 12.2045L12.8593 12.2045C12.8311 12.2311 12.8041 12.2564 12.7803 12.2803C12.7564 12.3042 12.7311 12.3311 12.7045 12.3593L12.7045 12.3593C12.5747 12.4973 12.4154 12.6667 12.25 12.6667H12.1667ZM3.83333 11.75V11L6.25 8.68629L10.1667 12.6667H4.75C4.33546 12.6667 3.83333 12.1645 3.83333 11.75ZM9.16667 5.66667C9.16667 7 7.16667 7 7.16667 5.66667C7.16667 4.33333 9.16667 4.33333 9.16667 5.66667Z" fill="white"/>
</g>
</svg>
