<svg width="141" height="141" viewBox="0 0 141 141" fill="none" xmlns="http://www.w3.org/2000/svg">
<path d="M102.544 36.7008C102.325 36.7008 102.106 36.5913 101.996 36.3723C101.996 36.2629 99.4785 28.3807 106.485 22.1406C108.784 20.17 110.973 19.5132 112.944 20.17C113.272 20.2795 113.601 20.389 113.82 20.6079C115.134 18.6374 116.666 16.7763 118.527 15.5721C120.717 14.1489 122.797 13.8204 124.986 14.4773C125.534 14.6962 126.191 14.9152 126.738 15.2436C128.489 13.1636 131.007 11.6309 134.511 10.6457C134.839 10.5362 135.058 10.7551 135.167 11.0836C135.277 11.412 135.058 11.6309 134.73 11.7404C131.445 12.6162 129.037 13.9299 127.504 15.9005C130.022 18.09 131.445 21.8121 130.679 24.8774C129.694 28.5996 127.833 28.7091 127.066 28.5996C125.205 28.2712 123.782 25.6438 124.001 22.7974C124.22 20.0605 124.767 17.871 125.972 16.1194C125.534 15.791 125.096 15.6815 124.548 15.4626C122.687 14.9152 120.826 15.2436 118.965 16.4479C117.214 17.5426 115.79 19.2942 114.586 21.1553C116.995 23.1258 118.199 26.848 118.418 28.2712C118.746 30.2417 118.418 32.9786 116.885 34.7302C116.119 35.606 115.024 36.1534 113.82 36.1534C113.053 36.1534 112.397 35.9344 111.959 35.2776C110.098 33.1976 110.754 28.1617 110.754 27.9427C110.973 26.0817 111.849 23.6732 113.053 21.4837C112.835 21.3742 112.616 21.2648 112.397 21.1553C110.754 20.6079 108.893 21.1553 107.032 22.9069C100.464 28.7091 102.763 35.7155 102.763 36.0439C102.872 36.3723 102.653 36.5913 102.434 36.7008C102.653 36.7008 102.653 36.7008 102.544 36.7008ZM114.258 22.1406C113.163 24.2206 112.397 26.4101 112.178 28.1617C111.959 30.0228 111.959 33.307 113.053 34.6207C113.382 34.9492 113.71 35.0586 114.148 35.0586C115.024 35.0586 115.79 34.7302 116.338 33.9639C117.542 32.5407 117.87 30.1323 117.542 28.3806C117.432 26.848 116.228 23.7827 114.258 22.1406ZM127.066 16.7763C125.972 18.4184 125.424 20.389 125.315 22.9069C125.205 25.4248 126.3 27.3954 127.504 27.6143C128.489 27.7238 129.365 26.629 129.913 24.6585C130.57 21.9216 129.256 18.6374 127.066 16.7763Z" fill="#0A1C40"/>
<path d="M119.732 105.886L114.805 87.3849L74.7374 73.2626L56.0171 110.046L101.778 119.79L124.877 128.329C127.285 129.204 130.022 128.548 131.664 126.577C136.043 121.432 142.94 110.046 136.7 93.0777C136.043 91.3261 134.62 90.0123 132.978 89.465C126.519 87.166 110.098 80.488 109.441 71.2921C108.784 62.8625 106.595 54.214 102.216 46.9886C97.6177 39.5443 89.5165 33.3042 81.7438 29.582C81.7438 29.582 75.8321 30.1294 77.9121 37.6832C79.9922 45.237 86.4512 46.3317 86.9986 52.7908C87.5459 59.2498 80.5395 74.2479 90.6113 89.3555C100.683 104.463 109.332 96.5809 109.332 96.5809" fill="#F9B08D"/>
<path d="M48.7919 93.7337C45.6171 92.42 30.619 86.5083 27.1158 87.822C22.9558 89.3547 22.8463 94.6095 26.6779 96.799C37.1876 102.93 61.6005 111.25 61.6005 111.25" fill="#F9B08D"/>
<path d="M98.8216 58.1567C98.8216 58.1567 75.5034 49.6176 66.5264 42.9396C58.2063 36.6996 45.0693 40.3122 34.7786 39.9838C27.9912 39.8743 20.9848 38.6701 14.3068 40.3122C11.5699 40.9691 8.06668 42.2828 7.19087 45.3481C5.87717 50.165 11.5699 52.464 15.1826 53.8872C22.9553 56.9525 47.2588 64.2873 47.2588 64.2873C41.5661 62.6452 35.7639 61.1125 29.9617 59.7988C24.7069 58.5946 18.9047 57.6093 13.212 57.0619C6.75297 56.5146 1.16974 61.0031 3.68767 66.6958C5.65822 71.2937 15.0731 73.9211 19.2331 74.6875C26.2396 76.1106 40.0334 80.2707 47.1493 81.037C48.682 83.336 27.4438 75.8917 19.2331 74.6875C9.2709 73.2643 5.22032 79.1759 10.8036 84.1023C13.5404 86.5108 18.0289 87.6055 21.4227 88.7003C27.1154 90.6708 33.027 92.2035 38.8292 93.6267L94.2237 106.983" fill="#F9B08D"/>
<path d="M20.8755 69.6531C20.7661 69.6531 20.7661 69.6531 20.6566 69.6531C20.3282 69.5436 20.2187 69.2152 20.3282 68.8868C21.3134 66.5878 21.8608 61.9898 21.8608 61.9898C21.8608 61.6614 22.1892 61.4424 22.5177 61.5519C22.8461 61.5519 23.065 61.8803 22.9556 62.2088C22.9556 62.4277 22.4082 66.9162 21.3134 69.4341C21.204 69.5436 20.985 69.6531 20.8755 69.6531Z" fill="#D47C54"/>
<path d="M24.1592 93.6271C23.9402 93.6271 23.7212 93.4082 23.6118 93.1892C23.6118 93.0797 23.0644 90.8902 24.4876 89.1386C25.5823 87.7154 27.5529 87.0586 30.2898 87.0586C37.8436 87.0586 43.6457 90.6713 43.8647 90.7808C44.0836 90.8902 44.1931 91.3281 44.0836 91.5471C43.9742 91.766 43.5363 91.8755 43.3173 91.766C43.2078 91.766 37.5151 88.2628 30.2898 88.1533H30.1803C27.8813 88.1533 26.2392 88.7007 25.3634 89.7955C24.2686 91.1092 24.7065 92.8608 24.7065 92.8608C24.816 93.1892 24.5971 93.4082 24.2686 93.5176C24.2686 93.6271 24.1592 93.6271 24.1592 93.6271Z" fill="#D47C54"/>
<path d="M80.7577 28.9297C80.7577 28.9297 78.4587 30.6813 81.9619 33.9655C85.4651 37.2498 85.6841 35.9361 86.122 35.6077C86.5599 35.2793 87.8736 33.3087 87.8736 33.3087C87.8736 33.3087 82.9472 29.3676 80.7577 28.9297Z" fill="#FDD3BF"/>
<path d="M95.0995 95.2723C94.9901 95.2723 94.8806 95.2723 94.7711 95.1628C78.7877 83.011 86.3415 54.657 86.451 54.3285C86.5605 54.0001 86.7794 53.8906 87.1078 53.8906C87.4363 54.0001 87.5457 54.2191 87.4363 54.5475C87.3268 54.8759 79.992 82.4637 95.428 94.1775C95.6469 94.3965 95.7564 94.7249 95.5374 94.9438C95.428 95.1628 95.209 95.2723 95.0995 95.2723Z" fill="#D47C54"/>
<path d="M86.7795 55.8593C86.6701 55.8593 86.5606 55.8593 86.5606 55.7498C86.3416 55.6403 86.2322 55.3119 86.3416 54.9835C86.4511 54.7645 88.4217 50.7139 82.51 45.7876C82.291 45.5686 82.291 45.2402 82.4005 45.0212C82.6195 44.8023 82.9479 44.8023 83.1668 44.9118C89.8448 50.3855 87.3269 55.3119 87.2174 55.5308C87.108 55.7498 86.889 55.8593 86.7795 55.8593Z" fill="#D47C54"/>
<path d="M7.84737 46.8813L45.7258 31.4453C47.4774 31.0074 49.3385 31.5548 50.5427 32.8685L107.032 94.0652C109.331 96.5831 108.455 100.743 105.171 101.947L63.0229 118.259C60.9428 119.026 55.1407 119.354 52.0754 114.975L5.11048 54.6541C2.92098 51.8077 4.34416 47.7571 7.84737 46.8813Z" fill="#010101"/>
<path d="M108.346 91.7638V98.0039L4.0166 50.6012L4.12608 42.5" fill="#010101"/>
<path d="M7.84737 36.8072L45.7258 25.5313C47.4774 25.0934 49.3385 25.6408 50.5427 26.9545L107.032 88.1511C109.331 90.669 108.455 94.8291 105.171 96.0333L63.7892 111.688C60.3955 113.002 56.4544 111.907 54.2649 108.951L5.11048 44.4705C2.92098 41.7336 4.34416 37.5735 7.84737 36.8072Z" fill="#0B1C3F"/>
<path d="M15.511 40.0963L44.8503 31.3383C46.164 31.0099 47.5872 31.4478 48.5725 32.433L99.1501 87.718C101.011 89.6886 100.245 92.8634 97.7269 93.8486L65.7601 105.891C63.1327 106.876 60.0674 106 58.4253 103.811L13.431 46.008C11.7888 43.8185 12.8836 40.6437 15.511 40.0963Z" fill="#EB2230"/>
<path d="M75.8319 74.2503C75.6129 74.2503 75.394 74.2503 75.0656 74.1409L34.3408 63.0839C32.9176 62.646 32.0418 61.2228 32.3702 59.6901C32.6986 58.1575 34.2313 57.3911 35.7639 57.7196L76.4887 68.7766C77.9119 69.2145 78.7877 70.6377 78.4593 72.1703C78.1309 73.484 77.0361 74.2503 75.8319 74.2503Z" fill="white"/>
<path d="M56.5645 91.9876C55.0319 91.9876 53.8276 90.7834 53.8276 89.2507V52.7955C53.8276 51.2628 55.0319 50.0586 56.5645 50.0586C58.0972 50.0586 59.3014 51.2628 59.3014 52.7955V89.3602C59.3014 90.7834 57.9877 91.9876 56.5645 91.9876Z" fill="white"/>
</svg>
