<svg width="89" height="88" viewBox="0 0 89 88" fill="none" xmlns="http://www.w3.org/2000/svg">
    <path
        d="M64.3664 22.6187C64.2289 22.6187 64.0914 22.5499 64.0226 22.4124C64.0226 22.3437 62.4414 17.3937 66.8414 13.4749C68.2851 12.2374 69.6601 11.8249 70.8976 12.2374C71.1039 12.3062 71.3101 12.3749 71.4476 12.5124C72.2726 11.2749 73.2351 10.1062 74.4039 9.34992C75.7789 8.45617 77.0851 8.24992 78.4601 8.66242C78.8039 8.79992 79.2164 8.93741 79.5601 9.14367C80.6601 7.83741 82.2414 6.87492 84.4414 6.25617C84.6476 6.18742 84.7851 6.32491 84.8539 6.53116C84.9226 6.73741 84.7851 6.87492 84.5789 6.94367C82.5164 7.49367 81.0039 8.31866 80.0414 9.55616C81.6226 10.9312 82.5164 13.2687 82.0351 15.1937C81.4164 17.5312 80.2476 17.5999 79.7664 17.5312C78.5976 17.3249 77.7039 15.6749 77.8414 13.8874C77.9789 12.1687 78.3226 10.7937 79.0789 9.69367C78.8039 9.48742 78.5289 9.41866 78.1851 9.28116C77.0164 8.93741 75.8476 9.14366 74.6789 9.89991C73.5789 10.5874 72.6851 11.6874 71.9289 12.8562C73.4414 14.0937 74.1976 16.4312 74.3351 17.3249C74.5414 18.5624 74.3351 20.2812 73.3726 21.3812C72.8914 21.9312 72.2039 22.2749 71.4476 22.2749C70.9664 22.2749 70.5539 22.1374 70.2789 21.7249C69.1101 20.4187 69.5226 17.2562 69.5226 17.1187C69.6601 15.9499 70.2101 14.4374 70.9664 13.0624C70.8289 12.9937 70.6914 12.9249 70.5539 12.8562C69.5226 12.5124 68.3539 12.8562 67.1851 13.9562C63.0601 17.5999 64.5039 21.9999 64.5039 22.2062C64.5726 22.4124 64.4351 22.5499 64.2976 22.6187C64.4351 22.6187 64.4351 22.6187 64.3664 22.6187ZM71.7226 13.4749C71.0351 14.7812 70.5539 16.1562 70.4164 17.2562C70.2789 18.4249 70.2789 20.4874 70.9664 21.3124C71.1726 21.5187 71.3789 21.5874 71.6539 21.5874C72.2039 21.5874 72.6851 21.3812 73.0289 20.8999C73.7851 20.0062 73.9914 18.4937 73.7851 17.3937C73.7164 16.4312 72.9601 14.5062 71.7226 13.4749ZM79.7664 10.1062C79.0789 11.1374 78.7351 12.3749 78.6664 13.9562C78.5976 15.5374 79.2851 16.7749 80.0414 16.9124C80.6601 16.9812 81.2101 16.2937 81.5539 15.0562C81.9664 13.3374 81.1414 11.2749 79.7664 10.1062Z"
        fill="#0A1C40" />
    <path
        d="M75.1609 66.0686L72.0672 54.4499L46.9047 45.5812L35.1484 68.6812L63.8859 74.7999L78.3922 80.1624C79.9047 80.7124 81.6234 80.2999 82.6547 79.0624C85.4047 75.8312 89.7359 68.6812 85.8172 58.0249C85.4047 56.9249 84.5109 56.0999 83.4797 55.7561C79.4234 54.3124 69.1109 50.1187 68.6984 44.3437C68.2859 39.0499 66.9109 33.6187 64.1609 29.0812C61.2734 24.4062 56.1859 20.4874 51.3047 18.1499C51.3047 18.1499 47.5922 18.4937 48.8984 23.2374C50.2047 27.9812 54.2609 28.6687 54.6047 32.7249C54.9484 36.7812 50.5484 46.1999 56.8734 55.6874C63.1984 65.1749 68.6297 60.2249 68.6297 60.2249"
        fill="#F9B08D" />
    <path
        d="M30.6108 58.4373C28.617 57.6123 19.1983 53.8998 16.9983 54.7248C14.3858 55.6873 14.3171 58.9873 16.7233 60.3623C23.3233 64.2123 38.6546 69.4373 38.6546 69.4373"
        fill="#F9B08D" />
    <path
        d="M62.0299 36.0936C62.0299 36.0936 47.3861 30.7311 41.7486 26.5373C36.5236 22.6186 28.2736 24.8873 21.8111 24.6811C17.5486 24.6123 13.1486 23.8561 8.95488 24.8873C7.23613 25.2998 5.03613 26.1248 4.48613 28.0498C3.66113 31.0748 7.23613 32.5186 9.50488 33.4123C14.3861 35.3373 29.6486 39.9436 29.6486 39.9436C26.0736 38.9123 22.4299 37.9498 18.7861 37.1248C15.4861 36.3686 11.8424 35.7498 8.26738 35.4061C4.21113 35.0623 0.704884 37.8811 2.28613 41.4561C3.52363 44.3436 9.43613 45.9936 12.0486 46.4748C16.4486 47.3686 25.1111 49.9811 29.5799 50.4623C30.5424 51.9061 17.2049 47.2311 12.0486 46.4748C5.79238 45.5811 3.24863 49.2936 6.75488 52.3873C8.47363 53.8998 11.2924 54.5873 13.4236 55.2748C16.9986 56.5123 20.7111 57.4748 24.3549 58.3686L59.1424 66.7561"
        fill="#F9B08D" />
    <path
        d="M13.0805 43.3124C13.0117 43.3124 13.0117 43.3124 12.943 43.3124C12.7367 43.2437 12.668 43.0374 12.7367 42.8312C13.3555 41.3874 13.6992 38.4999 13.6992 38.4999C13.6992 38.2937 13.9055 38.1562 14.1117 38.2249C14.318 38.2249 14.4555 38.4312 14.3867 38.6374C14.3867 38.7749 14.043 41.5937 13.3555 43.1749C13.2867 43.2437 13.1492 43.3124 13.0805 43.3124Z"
        fill="#D47C54" />
    <path
        d="M15.1431 58.3687C15.0056 58.3687 14.8681 58.2312 14.7994 58.0937C14.7994 58.0249 14.4556 56.6499 15.3494 55.5499C16.0369 54.6562 17.2744 54.2437 18.9931 54.2437C23.7369 54.2437 27.3806 56.5124 27.5181 56.5812C27.6556 56.6499 27.7244 56.9249 27.6556 57.0624C27.5869 57.1999 27.3119 57.2686 27.1744 57.1999C27.1056 57.1999 23.5306 54.9999 18.9931 54.9312H18.9244C17.4806 54.9312 16.4494 55.2749 15.8994 55.9624C15.2119 56.7874 15.4869 57.8874 15.4869 57.8874C15.5556 58.0936 15.4181 58.2312 15.2119 58.2999C15.2119 58.3687 15.1431 58.3687 15.1431 58.3687Z"
        fill="#D47C54" />
    <path
        d="M50.6877 17.7373C50.6877 17.7373 49.244 18.8373 51.444 20.8998C53.644 22.9623 53.7815 22.1373 54.0565 21.9311C54.3315 21.7248 55.1565 20.4873 55.1565 20.4873C55.1565 20.4873 52.0627 18.0123 50.6877 17.7373Z"
        fill="#FDD3BF" />
    <path
        d="M59.6928 59.4001C59.6241 59.4001 59.5553 59.4001 59.4866 59.3314C49.4491 51.7001 54.1928 33.8938 54.2616 33.6876C54.3303 33.4813 54.4678 33.4126 54.6741 33.4126C54.8803 33.4813 54.9491 33.6188 54.8803 33.8251C54.8116 34.0313 50.2053 51.3563 59.8991 58.7126C60.0366 58.8501 60.1053 59.0563 59.9678 59.1938C59.8991 59.3313 59.7616 59.4001 59.6928 59.4001Z"
        fill="#D47C54" />
    <path
        d="M54.467 34.6501C54.3983 34.6501 54.3295 34.6501 54.3295 34.5814C54.192 34.5126 54.1233 34.3064 54.192 34.1001C54.2608 33.9626 55.4983 31.4189 51.7858 28.3251C51.6483 28.1876 51.6483 27.9814 51.717 27.8439C51.8545 27.7064 52.0608 27.7064 52.1983 27.7751C56.392 31.2126 54.8108 34.3064 54.742 34.4439C54.6733 34.5814 54.5358 34.6501 54.467 34.6501Z"
        fill="#D47C54" />
    <path
        d="M4.89694 29.0126L28.6844 19.3188C29.7844 19.0438 30.9532 19.3876 31.7094 20.2126L67.1844 58.6438C68.6282 60.2251 68.0782 62.8376 66.0157 63.5938L39.5469 73.8376C38.2407 74.3188 34.5969 74.5251 32.6719 71.7751L3.17819 33.8938C1.80319 32.1063 2.69694 29.5626 4.89694 29.0126Z"
        fill="#010101" />
    <path d="M68.0109 57.1997V61.1185L2.49219 31.3497L2.56094 26.2622" fill="#010101" />
    <path
        d="M4.89694 22.6872L28.6844 15.6059C29.7844 15.3309 30.9532 15.6747 31.7094 16.4997L67.1844 54.9309C68.6282 56.5122 68.0782 59.1247 66.0157 59.8809L40.0282 69.7122C37.8969 70.5372 35.4219 69.8497 34.0469 67.9934L3.17819 27.4997C1.80319 25.7809 2.69694 23.1684 4.89694 22.6872Z"
        fill="#0B1C3F" />
    <path
        d="M9.71104 24.7498L28.136 19.2498C28.961 19.0436 29.8548 19.3186 30.4735 19.9373L62.236 54.6561C63.4048 55.8936 62.9235 57.8873 61.3423 58.5061L41.2673 66.0686C39.6173 66.6873 37.6923 66.1373 36.661 64.7623L8.40479 28.4623C7.37354 27.0873 8.06104 25.0936 9.71104 24.7498Z"
        fill="#EB2230" />
    <path
        d="M47.591 46.1999C47.4535 46.1999 47.316 46.1999 47.1097 46.1311L21.5347 39.1874C20.641 38.9124 20.091 38.0186 20.2972 37.0561C20.5035 36.0936 21.466 35.6124 22.4285 35.8186L48.0035 42.7624C48.8972 43.0374 49.4472 43.9311 49.241 44.8936C49.0347 45.7186 48.3472 46.1999 47.591 46.1999Z"
        fill="white" />
    <path
        d="M35.4922 57.3376C34.5297 57.3376 33.7734 56.5814 33.7734 55.6189V32.7251C33.7734 31.7626 34.5297 31.0063 35.4922 31.0063C36.4547 31.0063 37.2109 31.7626 37.2109 32.7251V55.6876C37.2109 56.5813 36.3859 57.3376 35.4922 57.3376Z"
        fill="white" />
</svg>
    