<svg width="24" height="24" viewBox="0 0 24 24" fill="none" xmlns="http://www.w3.org/2000/svg">
<path d="M18.5998 12.3071C18.5996 10.4415 17.9377 8.63254 16.7249 7.18301C15.5121 5.73349 13.8219 4.73138 11.9373 4.3444L12.1025 4.22591C11.0376 4.17548 9.97029 4.19924 8.90889 4.29701C6.98621 4.58493 5.22635 5.51023 3.92979 6.91493C2.63324 8.31963 1.88039 10.1166 1.7998 11.999C1.7998 12.0938 1.7998 12.1886 1.7998 12.2834C1.80096 14.378 2.63699 16.3913 4.13358 17.9035C5.63017 19.4157 7.67178 20.3101 9.83271 20.4002H11.9434V20.2936C13.831 19.9046 15.5229 18.8984 16.735 17.4442C17.9471 15.9899 18.6055 14.176 18.5998 12.3071Z" fill="#AD2015"/>
<path d="M12.3002 20.4002C16.7737 20.4002 20.4002 16.7737 20.4002 12.3002C20.4002 7.82669 16.7737 4.2002 12.3002 4.2002C7.82669 4.2002 4.2002 7.82669 4.2002 12.3002C4.2002 16.7737 7.82669 20.4002 12.3002 20.4002Z" fill="url(#paint0_linear_292_61173)"/>
<g clip-path="url(#clip0_292_61173)">
<path d="M4.2002 12.3065C4.2002 12.6577 4.2255 12.9995 4.26979 13.338C4.66206 12.5407 5.19035 11.7908 5.85151 11.1263C6.63921 10.3416 7.55345 9.73098 8.54993 9.31648C8.35063 10.0664 8.24308 10.8447 8.24308 11.6421C8.24308 13.8126 9.01496 15.8661 10.4227 17.4893C10.4005 17.7614 10.3879 18.0335 10.3879 18.3088C10.3879 18.9542 10.4512 19.5902 10.5682 20.2104C10.7643 20.2547 10.9636 20.2895 11.1661 20.3179C11.0237 19.6661 10.9478 18.9922 10.9478 18.3088C10.9478 18.2233 10.951 18.1379 10.9541 18.0556C11.938 19.0112 13.1021 19.7104 14.3675 20.1313C14.6965 20.0458 15.0128 19.9382 15.3229 19.8117C13.7949 19.4668 12.3904 18.7011 11.2547 17.5652C11.1693 17.4798 11.0839 17.3912 11.0016 17.2994C11.2262 15.1795 12.1626 13.2146 13.6905 11.6864C14.4181 10.9586 15.2469 10.367 16.1422 9.92082C16.6895 10.2594 17.202 10.6612 17.667 11.1295C18.8058 12.2686 19.5461 13.6576 19.8877 15.1225C20.0079 14.7998 20.106 14.4676 20.1851 14.129C19.758 12.8887 19.0557 11.7212 18.0656 10.734C17.6575 10.3258 17.2178 9.96512 16.7496 9.64555C17.6733 9.26586 18.6603 9.03805 19.6758 8.96844C19.5935 8.78492 19.5049 8.60141 19.4069 8.42422C18.2744 8.52547 17.183 8.81656 16.1675 9.28168C14.8389 8.52231 13.3267 8.11414 11.7545 8.11414C10.9605 8.11414 10.1854 8.21855 9.43886 8.41789C9.85327 7.42121 10.4638 6.50363 11.2515 5.71578C11.8431 5.1241 12.5042 4.63367 13.2223 4.25082C12.925 4.21918 12.615 4.2002 12.2986 4.2002C12.2733 4.2002 12.248 4.20336 12.2227 4.20336C11.7387 4.52926 11.2831 4.90262 10.8592 5.32344C9.90705 6.27582 9.19844 7.40223 8.75872 8.63305C7.52814 9.07285 6.40195 9.7816 5.45292 10.7308C4.96575 11.2181 4.55134 11.7465 4.2002 12.3065ZM9.20476 9.07918C10.0209 8.81973 10.8782 8.68051 11.7608 8.68051C13.1053 8.68051 14.396 8.99691 15.5601 9.59176C14.7376 10.0411 13.9752 10.6106 13.2951 11.2909C11.802 12.7843 10.8434 14.6701 10.5144 16.7172C9.40723 15.2649 8.80301 13.5025 8.80301 11.6452C8.80617 10.7593 8.94536 9.89867 9.20476 9.07918Z" fill="white"/>
<path d="M16.1647 10.5881C16.7098 10.5881 17.1517 10.1462 17.1517 9.60096C17.1517 9.05575 16.7098 8.61377 16.1647 8.61377C15.6196 8.61377 15.1777 9.05575 15.1777 9.60096C15.1777 10.1462 15.6196 10.5881 16.1647 10.5881Z" fill="#0F3E92"/>
<path d="M11.6976 17.3973C11.6976 17.9416 11.2547 18.3845 10.7106 18.3845C10.1665 18.3845 9.72363 17.9416 9.72363 17.3973C9.72363 16.8531 10.1634 16.4102 10.7106 16.4102C11.2579 16.4133 11.6976 16.8531 11.6976 17.3973Z" fill="#0F3E92"/>
<path d="M9.97008 8.8573C9.97008 9.40152 9.5272 9.84449 8.98309 9.84449C8.43898 9.84449 7.99609 9.40152 7.99609 8.8573C7.99609 8.31309 8.43898 7.87012 8.98309 7.87012C9.5272 7.87012 9.97008 8.30992 9.97008 8.8573Z" fill="#0F3E92"/>
</g>
<path d="M9.725 11.2166C10.2196 11.755 10.6722 12.3089 11.1804 12.8473C11.251 12.9241 11.3783 12.986 11.5056 13.0014C11.8451 13.0782 12.0145 13.1091 12.3539 13.1555C12.8059 13.2477 13.3148 13.2019 13.7674 12.9711C16.7494 11.479 19.7458 9.98619 22.7277 8.49405C22.8124 8.44764 22.8972 8.40183 22.9819 8.35542C23.3071 8.171 23.4339 7.8634 23.3918 7.44754C23.3071 7.09355 23.095 6.81691 22.7277 6.72469C21.9784 6.54026 21.1869 6.54026 20.4803 6.86331C19.7736 7.18636 19.0669 7.54035 18.3603 7.90922C18.1908 8.00144 17.993 8.04785 17.823 8.00144C16.6779 7.73966 15.5335 7.47848 14.3463 7.23217C14.2053 7.20124 14.05 7.18577 13.8943 7.20124C13.838 7.20124 13.7669 7.2167 13.7106 7.23217C13.4138 7.32439 13.1733 7.50882 12.8908 7.66291C12.6224 7.84734 12.5513 7.83188 12.594 8.00144C12.6366 8.09366 12.7634 8.27809 12.8908 8.3245C13.5833 8.67789 14.3326 9.04736 15.0392 9.35494C15.1239 9.40134 15.2087 9.44715 15.336 9.49356C15.124 9.63218 13.7532 10.3092 13.1312 10.6168C12.3397 11.0166 12.2971 10.9399 11.7177 10.709C10.8557 10.3086 9.80959 10.6781 9.80959 10.6781C9.56966 10.8471 9.52715 10.9857 9.725 11.2166Z" fill="#0F3E92"/>
<path d="M20.1499 8.3086C20.3306 8.30584 20.4749 8.15601 20.4721 7.97395C20.4694 7.7919 20.3206 7.64654 20.1398 7.6493C19.959 7.65206 19.8148 7.80188 19.8175 7.98394C19.8203 8.166 19.9691 8.31135 20.1499 8.3086Z" fill="white"/>
<path d="M21.1264 7.96338C21.3072 7.96062 21.4515 7.8108 21.4487 7.62874C21.4459 7.44668 21.2971 7.30133 21.1164 7.30409C20.9356 7.30685 20.7913 7.45667 20.7941 7.63873C20.7969 7.82079 20.9457 7.96614 21.1264 7.96338Z" fill="white"/>
<defs>
<linearGradient id="paint0_linear_292_61173" x1="16.5002" y1="9.6002" x2="-1.4998" y2="22.2002" gradientUnits="userSpaceOnUse">
<stop stop-color="#FA7C55"/>
<stop offset="0.15" stop-color="#F75A49"/>
<stop offset="0.43" stop-color="#F22136"/>
<stop offset="0.56" stop-color="#F00B2E"/>
<stop offset="0.97" stop-color="#C3001C"/>
</linearGradient>
<clipPath id="clip0_292_61173">
<rect width="16.2" height="16.2" fill="white" transform="translate(4.2002 4.2002)"/>
</clipPath>
</defs>
</svg>
