<svg width="25" height="24" viewBox="0 0 25 24" fill="none" xmlns="http://www.w3.org/2000/svg">
<path d="M22.4905 11.9461C22.4907 12.2126 22.4373 12.4763 22.3335 12.7218C22.2298 12.9672 22.0778 13.1893 21.8866 13.3749C21.6954 13.5605 21.4689 13.7058 21.2205 13.8022C20.9721 13.8986 20.7069 13.9441 20.4405 13.9361L15.7025 13.7971L12.2485 20.9401C11.9715 21.5141 11.3885 21.8801 10.7505 21.8801C10.6195 21.8802 10.4899 21.8525 10.3704 21.7988C10.2509 21.7451 10.1441 21.6666 10.0572 21.5686C9.97021 21.4706 9.90505 21.3553 9.86598 21.2302C9.82691 21.1051 9.81483 20.9732 9.83054 20.8431L10.6935 13.6501L6.92854 13.5401L6.43854 14.8811C6.34777 15.1293 6.18294 15.3437 5.96634 15.4952C5.74975 15.6467 5.49185 15.728 5.22754 15.7281C5.10909 15.7282 4.99179 15.705 4.88235 15.6597C4.77291 15.6144 4.67349 15.5479 4.58979 15.4641C4.50608 15.3803 4.43974 15.2808 4.39457 15.1714C4.34939 15.0619 4.32627 14.9445 4.32654 14.8261V13.3501L3.51654 13.1811C3.23284 13.122 2.97816 12.967 2.79533 12.7422C2.6125 12.5173 2.5127 12.2364 2.5127 11.9466C2.5127 11.6568 2.6125 11.3759 2.79533 11.151C2.97816 10.9262 3.23284 10.7712 3.51654 10.7121L4.32654 10.5441V9.06609C4.32629 8.84662 4.40625 8.63463 4.55137 8.46999C4.69649 8.30535 4.89677 8.19941 5.11454 8.17209L5.22754 8.16509C5.49156 8.16534 5.74915 8.24659 5.96553 8.39787C6.18191 8.54916 6.34666 8.7632 6.43754 9.01109L6.92954 10.3511L10.6805 10.2411L9.83054 3.15709L9.82654 3.10209L9.82454 3.04709C9.82454 2.53609 10.2395 2.12109 10.7505 2.12109C11.3355 2.12109 11.8735 2.42809 12.1735 2.92109L12.2485 3.06109L15.6515 10.0961L20.4415 9.95609C20.7029 9.94837 20.9632 9.99222 21.2076 10.0851C21.452 10.1781 21.6757 10.3183 21.8659 10.4977C22.0561 10.6771 22.2091 10.8923 22.3161 11.1308C22.4231 11.3694 22.482 11.6267 22.4895 11.8881L22.4905 11.9461Z" fill="#9CA9B9"/>
</svg>
