<svg width="32" height="32" viewBox="0 0 32 32" fill="none" xmlns="http://www.w3.org/2000/svg">
<g id="fluent:airplane-24-filled">
<path id="Vector" d="M29.3207 15.9281C29.3209 16.2834 29.2497 16.6351 29.1114 16.9623C28.9731 17.2896 28.7704 17.5857 28.5155 17.8332C28.2606 18.0806 27.9586 18.2744 27.6274 18.4029C27.2961 18.5315 26.9425 18.5922 26.5874 18.5815L20.2701 18.3961L15.6647 27.9201C15.2954 28.6855 14.518 29.1735 13.6674 29.1735C13.4927 29.1736 13.3199 29.1366 13.1606 29.065C13.0012 28.9935 12.8588 28.8889 12.7429 28.7582C12.6269 28.6275 12.5401 28.4737 12.488 28.3069C12.4359 28.1402 12.4198 27.9642 12.4407 27.7908L13.5914 18.2001L8.57138 18.0535L7.91805 19.8415C7.79702 20.1724 7.57725 20.4583 7.28846 20.6603C6.99967 20.8622 6.6558 20.9706 6.30338 20.9708C6.14546 20.971 5.98905 20.94 5.84314 20.8796C5.69722 20.8192 5.56465 20.7306 5.45305 20.6188C5.34144 20.5071 5.25299 20.3745 5.19275 20.2285C5.13252 20.0825 5.1017 19.926 5.10205 19.7681V17.8001L4.02205 17.5748C3.64379 17.496 3.30421 17.2893 3.06044 16.9895C2.81667 16.6898 2.68359 16.3152 2.68359 15.9288C2.68359 15.5424 2.81667 15.1678 3.06044 14.868C3.30421 14.5683 3.64379 14.3616 4.02205 14.2828L5.10205 14.0588V12.0881C5.10172 11.7955 5.20834 11.5128 5.40183 11.2933C5.59533 11.0738 5.86236 10.9325 6.15272 10.8961L6.30338 10.8868C6.65541 10.8871 6.99887 10.9954 7.28738 11.1972C7.57589 11.3989 7.79555 11.6843 7.91672 12.0148L8.57272 13.8015L13.574 13.6548L12.4407 4.20946L12.4354 4.13612L12.4327 4.06279C12.4327 3.38146 12.986 2.82812 13.6674 2.82812C14.4474 2.82812 15.1647 3.23746 15.5647 3.89479L15.6647 4.08146L20.202 13.4615L26.5887 13.2748C26.9372 13.2645 27.2843 13.323 27.6102 13.4469C27.936 13.5708 28.2343 13.7577 28.4879 13.9969C28.7415 14.2361 28.9454 14.523 29.0881 14.8411C29.2308 15.1592 29.3094 15.5023 29.3194 15.8508L29.3207 15.9281Z" fill="white"/>
</g>
</svg>
