<svg width="124" height="100" viewBox="0 0 124 100" fill="none" xmlns="http://www.w3.org/2000/svg">
<g id="Layer 6">
<path id="Vector" d="M53.4516 91.4803C78.0835 91.4803 98.0516 71.5122 98.0516 46.8803C98.0516 22.2484 78.0835 2.28027 53.4516 2.28027C28.8197 2.28027 8.85156 22.2484 8.85156 46.8803C8.85156 71.5122 28.8197 91.4803 53.4516 91.4803Z" fill="#0A1B3F"/>
<path id="Vector_2" d="M72.3908 37.5901L72.6608 34.5901C72.6561 34.5704 72.6561 34.5498 72.6608 34.5301C72.7208 34.2101 73.2208 31.3101 71.5208 29.9901C70.6215 29.2671 69.665 28.6183 68.6608 28.0501C68.5784 28.0161 68.4899 27.9991 68.4008 28.0001L64.0008 27.6201L61.1808 27.3601C61.058 27.351 60.935 27.3739 60.8237 27.4266C60.7125 27.4794 60.6169 27.5601 60.5463 27.661C60.4757 27.7618 60.4326 27.8793 60.4211 28.0019C60.4096 28.1245 60.4302 28.2479 60.4808 28.3601L61.8308 31.0001C61.8771 31.0894 61.9419 31.1678 62.0208 31.2301L64.3708 33.1101C64.4537 33.175 64.5498 33.2209 64.6524 33.2446C64.755 33.2683 64.8615 33.2693 64.9645 33.2473C65.0675 33.2254 65.1644 33.1811 65.2484 33.1177C65.3324 33.0543 65.4015 32.9732 65.4508 32.8801L66.0008 31.7701C66.0542 31.6652 66.1329 31.5752 66.2298 31.5083C66.3267 31.4413 66.4386 31.3995 66.5557 31.3866C66.6727 31.3737 66.7911 31.3902 66.9003 31.4344C67.0094 31.4787 67.1058 31.5493 67.1808 31.6401L69.0008 33.7201C69.088 33.8179 69.1456 33.9384 69.1669 34.0677C69.1881 34.197 69.1721 34.3296 69.1208 34.4501L68.0008 37.0001C67.9539 37.1039 67.9327 37.2173 67.9389 37.331C67.9451 37.4447 67.9785 37.5552 68.0363 37.6532C68.0942 37.7512 68.1747 37.8339 68.2712 37.8943C68.3677 37.9547 68.4773 37.991 68.5908 38.0001L71.5908 38.2801C71.6893 38.2912 71.7891 38.2818 71.8839 38.2525C71.9787 38.2232 72.0664 38.1746 72.1415 38.1098C72.2166 38.0451 72.2775 37.9655 72.3204 37.876C72.3633 37.7866 72.3873 37.6892 72.3908 37.5901Z" fill="#637BA5"/>
<path id="Vector_3" d="M57.1898 39.3101C57.4898 39.2001 57.5398 38.0801 57.5298 37.1801C57.5293 37.0448 57.4972 36.9114 57.4361 36.7906C57.375 36.6699 57.2866 36.565 57.1778 36.4844C57.0691 36.4038 56.943 36.3497 56.8097 36.3264C56.6764 36.3031 56.5395 36.3112 56.4098 36.3501L53.7898 37.1001C53.6597 37.1475 53.5201 37.1632 53.3827 37.1458C53.2453 37.1284 53.114 37.0784 52.9998 37.0001L49.7198 34.6001V35.1701C49.7079 35.2702 49.681 35.368 49.6398 35.4601L48.2098 38.4601C48.0698 38.7101 46.7598 41.1101 46.5998 41.5501C46.4398 41.9901 44.9998 42.7201 44.4798 43.0001C44.3557 43.0584 44.2488 43.148 44.1698 43.2601L41.9998 46.1201C41.9109 46.2406 41.7924 46.3362 41.6558 46.3975C41.5191 46.4588 41.369 46.4838 41.2198 46.4701L39.9998 46.3601C39.8035 46.339 39.6058 46.3861 39.4401 46.4936C39.2744 46.601 39.1507 46.7622 39.0898 46.9501L38.3298 49.1601C38.2758 49.3241 38.2707 49.5004 38.3151 49.6673C38.3594 49.8342 38.4514 49.9846 38.5798 50.1001L40.6798 52.0001L40.7598 52.0901C41.0698 52.4501 43.0398 54.7801 43.2598 54.4401C43.4798 54.1001 46.8398 53.8801 47.2598 53.8501H47.3298L51.3898 53.2401C51.5103 53.2217 51.6255 53.1781 51.728 53.1123C51.8306 53.0465 51.9182 52.9599 51.9851 52.858C52.052 52.7562 52.0968 52.6415 52.1166 52.5213C52.1364 52.401 52.1306 52.278 52.0998 52.1601L51.9698 51.6101C51.9149 51.4445 51.9149 51.2657 51.9698 51.1001L53.4498 46.9701C53.4704 46.9108 53.4972 46.8538 53.5298 46.8001L54.1498 45.8001C54.2143 45.6987 54.2573 45.5852 54.2762 45.4665C54.2952 45.3478 54.2896 45.2265 54.2598 45.1101L53.8498 43.5801C53.8186 43.4385 53.8186 43.2917 53.8498 43.1501L54.1098 42.0001C54.1508 41.8205 54.2491 41.659 54.3898 41.5401C55.2657 40.7273 56.2017 39.9818 57.1898 39.3101Z" fill="#637BA5"/>
<path id="Vector_4" d="M14.1521 34.6501L17.6921 38.0001L17.8021 38.0801L21.8921 40.8801C22.0396 40.9802 22.2138 41.0338 22.3921 41.0338C22.5704 41.0338 22.7446 40.9802 22.8921 40.8801L24.3421 39.7501C24.4665 39.655 24.614 39.5948 24.7693 39.5757C24.9247 39.5566 25.0824 39.5793 25.2261 39.6415C25.3697 39.7036 25.4942 39.803 25.5867 39.9293C25.6792 40.0556 25.7363 40.2043 25.7521 40.3601L26.1521 44.2201C26.1633 44.3805 26.2225 44.5338 26.3221 44.6601L28.9221 48.0001C28.9944 48.0962 29.086 48.1762 29.1911 48.2348C29.2961 48.2933 29.4123 48.3292 29.5321 48.3401L30.8821 48.4601C31.0359 48.4728 31.1902 48.445 31.3298 48.3793C31.4694 48.3136 31.5893 48.2124 31.6774 48.0858C31.7655 47.9592 31.8188 47.8116 31.8319 47.6579C31.845 47.5042 31.8175 47.3498 31.7521 47.2101L28.6921 40.8801C28.6695 40.8357 28.6527 40.7887 28.6421 40.7401L27.8721 38.0801C27.8198 37.898 27.8276 37.7038 27.8944 37.5265C27.9612 37.3492 28.0835 37.1982 28.243 37.0959C28.4026 36.9937 28.5909 36.9457 28.7799 36.959C28.9689 36.9724 29.1485 37.0464 29.2921 37.1701L31.3921 39.0001C31.4984 39.0936 31.6259 39.1598 31.7636 39.1929C31.9012 39.2261 32.0449 39.2251 32.1821 39.1901C34.071 38.6913 35.9334 38.0972 37.7621 37.4101C40.9521 36.2101 39.5621 35.5901 38.1121 33.5601C36.6621 31.5301 39.7421 30.8901 42.3121 29.8801C44.8821 28.8701 45.1321 28.8801 49.3121 28.0301C53.4921 27.1801 53.7021 25.2101 54.4421 25.2701C55.4522 24.9956 56.4019 24.5343 57.2421 23.9101C57.3485 23.8445 57.4395 23.7568 57.509 23.653C57.5784 23.5491 57.6247 23.4315 57.6446 23.3081C57.6645 23.1848 57.6576 23.0586 57.6244 22.9381C57.5912 22.8177 57.5325 22.7058 57.4521 22.6101L53.8321 18.2701L51.0021 14.8801C50.8899 14.7433 50.8215 14.5759 50.8059 14.3997C50.7903 14.2235 50.8281 14.0466 50.9145 13.8922C51.0008 13.7379 51.1317 13.6131 51.2901 13.5342C51.4484 13.4553 51.6269 13.426 51.8021 13.4501C53.9721 13.7701 57.1721 14.2701 58.8021 14.7301C59.9228 15.0573 60.9761 15.5823 61.9121 16.2801C62.0369 16.3711 62.1836 16.4274 62.3373 16.443C62.4909 16.4586 62.646 16.433 62.7865 16.3689C62.927 16.3047 63.0479 16.2043 63.1367 16.078C63.2256 15.9517 63.2792 15.804 63.2921 15.6501L63.4921 13.4701C63.5071 13.3076 63.4756 13.1443 63.4012 12.9991C63.3268 12.8539 63.2127 12.7328 63.0721 12.6501L59.8721 10.6501C59.7065 10.5447 59.5808 10.387 59.515 10.202C59.4493 10.0171 59.4473 9.8154 59.5094 9.62916C59.5715 9.44292 59.6941 9.28278 59.8576 9.17422C60.0212 9.06566 60.2164 9.01492 60.4121 9.03006C60.9574 9.07966 61.4987 9.16653 62.0321 9.29006C63.1021 9.56006 64.8221 6.64006 65.6521 5.06006C65.7139 4.94531 65.7492 4.81814 65.7552 4.68794C65.7613 4.55774 65.738 4.42784 65.6872 4.30784C65.6363 4.18784 65.5591 4.08081 65.4613 3.99465C65.3635 3.90849 65.2476 3.84541 65.1221 3.81006C53.9901 0.789244 42.1206 2.19974 32.0066 7.74531C21.8925 13.2909 14.321 22.54 10.8821 33.5501C10.8674 33.6596 10.8674 33.7706 10.8821 33.8801L10.9521 34.8801C10.9662 35.0627 11.0369 35.2363 11.1543 35.3769C11.2718 35.5174 11.4302 35.6178 11.6074 35.664C11.7846 35.7102 11.9718 35.7 12.143 35.6348C12.3141 35.5695 12.4606 35.4525 12.5621 35.3001L12.8721 34.8301C12.9392 34.7278 13.0274 34.641 13.1308 34.5755C13.2341 34.51 13.3502 34.4673 13.4714 34.4503C13.5925 34.4332 13.7159 34.4422 13.8333 34.4767C13.9507 34.5111 14.0594 34.5703 14.1521 34.6501Z" fill="#637BA5"/>
<path id="Vector_5" d="M59.7694 45.7299C60.4994 45.7299 61.4494 45.9999 61.7694 45.9199C62.7872 45.5114 63.8333 45.1771 64.8994 44.9199C65.1894 44.9199 65.2594 44.3199 65.2494 43.6899C65.2485 43.558 65.2109 43.429 65.1408 43.3174C65.0707 43.2057 64.9708 43.1157 64.8525 43.0576C64.7341 42.9995 64.6019 42.9754 64.4707 42.9882C64.3394 43.001 64.2143 43.05 64.1094 43.1299C63.9801 43.2306 63.843 43.3209 63.6994 43.3999C63.3194 43.6099 61.3694 43.6699 60.9694 43.9999C60.5694 44.3299 58.9694 43.9999 58.0694 43.7899C57.9282 43.7633 57.7823 43.7796 57.6504 43.8366C57.5186 43.8936 57.4068 43.9888 57.3294 44.1099L56.9494 44.6999C56.8864 44.7956 56.8485 44.9057 56.8394 45.0199L56.6394 47.2599L56.5294 48.4699C56.5188 48.5455 56.4987 48.6194 56.4694 48.6899L55.5994 50.6899C55.5294 50.8631 55.5294 51.0567 55.5994 51.2299L56.7394 54.2299C56.7486 54.2828 56.7486 54.337 56.7394 54.3899L56.9394 56.0699C56.9593 56.2308 57.0336 56.38 57.15 56.4928C57.2665 56.6056 57.418 56.6751 57.5794 56.6899L58.1694 56.7499C58.3468 56.7655 58.5236 56.7149 58.6658 56.6078C58.808 56.5007 58.9055 56.3447 58.9394 56.1699L59.2394 54.5799C59.2645 54.4747 59.2645 54.3651 59.2394 54.2599L58.7694 52.4699C58.7367 52.3388 58.7421 52.201 58.785 52.0729C58.8279 51.9447 58.9064 51.8315 59.0114 51.7464C59.1164 51.6613 59.2436 51.608 59.3778 51.5927C59.5121 51.5774 59.6479 51.6007 59.7694 51.6599C60.3114 52.5255 60.7415 53.4562 61.0494 54.4299C61.0874 54.5337 61.1494 54.6271 61.2304 54.7023C61.3114 54.7776 61.409 54.8326 61.5154 54.8628C61.6217 54.8931 61.7337 54.8977 61.8422 54.8763C61.9506 54.855 62.0525 54.8082 62.1394 54.7399L62.6594 54.3499C62.7483 54.2843 62.8202 54.1982 62.8689 54.099C62.9176 53.9998 62.9418 53.8904 62.9394 53.7799V51.9999C62.9383 51.8904 62.9114 51.7827 62.8611 51.6854C62.8107 51.5881 62.7382 51.504 62.6494 51.4399L61.1494 50.2999C61.0745 50.2431 61.0118 50.1719 60.965 50.0903C60.9182 50.0088 60.8883 49.9187 60.8772 49.8254C60.866 49.732 60.8737 49.6374 60.8998 49.5471C60.926 49.4569 60.9701 49.3728 61.0294 49.2999L61.6994 48.4999C61.7846 48.3935 61.8379 48.2651 61.853 48.1296C61.8681 47.9941 61.8444 47.8571 61.7847 47.7345C61.725 47.612 61.6317 47.5089 61.5157 47.4372C61.3997 47.3656 61.2657 47.3284 61.1294 47.3299C61.0256 47.335 60.924 47.3617 60.831 47.4082C60.7381 47.4546 60.6558 47.5199 60.5894 47.5999L59.7994 48.5999C59.7264 48.6951 59.6301 48.77 59.5197 48.8173C59.4094 48.8646 59.2888 48.8827 59.1694 48.8699L57.8694 48.7599C57.5094 48.7599 57.6794 46.7599 57.7194 46.4299C57.7594 46.0999 58.9994 45.7799 59.7694 45.7299Z" fill="#637BA5"/>
<path id="Vector_6" d="M95.0024 54.6302L95.5924 53.0902C95.6279 53.0037 95.6456 52.9109 95.6446 52.8174C95.6436 52.7239 95.6239 52.6316 95.5866 52.5458C95.5493 52.46 95.4952 52.3826 95.4275 52.3181C95.3598 52.2536 95.2799 52.2033 95.1924 52.1702L93.7924 51.6302C93.6715 51.5811 93.566 51.5004 93.4869 51.3967C93.4077 51.2929 93.3578 51.1698 93.3424 51.0402L93.1524 49.3002C93.1353 49.1215 93.0492 48.9565 92.9124 48.8402C91.6173 47.7512 90.379 46.5964 89.2024 45.3802C88.9224 44.9202 83.4224 44.7602 82.2024 44.7302C82.0485 44.7236 81.8969 44.7694 81.7724 44.8602L78.1524 47.4902C78.0141 47.5917 77.843 47.6381 77.6724 47.6202H77.1224C76.9727 47.607 76.8311 47.5467 76.7178 47.4478C76.6046 47.349 76.5257 47.2168 76.4924 47.0702L76.0024 44.8702C75.9815 44.7778 75.942 44.6906 75.8864 44.6138C75.8308 44.5371 75.7602 44.4725 75.6788 44.4239C75.5975 44.3752 75.5071 44.3436 75.4132 44.331C75.3192 44.3183 75.2237 44.3249 75.1324 44.3502L71.3824 45.3502C71.2569 45.3814 71.1424 45.4463 71.0511 45.5378C70.9597 45.6294 70.8952 45.7441 70.8643 45.8697C70.8334 45.9953 70.8374 46.1269 70.8758 46.2503C70.9143 46.3738 70.9857 46.4844 71.0824 46.5702L73.4524 48.7102C73.5426 48.7963 73.6111 48.9026 73.6524 49.0202C73.8024 49.4802 74.1824 50.6702 74.2524 51.0202C74.3224 51.3702 80.2524 50.4702 80.6224 50.5002C81.1388 50.7188 81.6259 51.001 82.0724 51.3402C82.1485 51.3956 82.2128 51.4656 82.2615 51.546C82.3103 51.6265 82.3426 51.7158 82.3566 51.8088C82.3706 51.9019 82.3659 51.9968 82.3428 52.088C82.3198 52.1792 82.2789 52.265 82.2224 52.3402L79.6824 55.5602C79.6015 55.6624 79.5502 55.7849 79.5342 55.9143C79.5183 56.0436 79.5383 56.1749 79.592 56.2937C79.6457 56.4125 79.731 56.5142 79.8387 56.5876C79.9464 56.6611 80.0722 56.7035 80.2024 56.7102L82.8524 56.8702L88.1424 57.2302C88.4524 57.2302 88.9424 56.5302 89.3624 55.8002C89.429 55.6808 89.5286 55.5831 89.6493 55.5189C89.77 55.4547 89.9067 55.4267 90.043 55.4384C90.1792 55.45 90.3092 55.5007 90.4173 55.5844C90.5254 55.6681 90.607 55.7812 90.6524 55.9102L91.1724 57.3602C91.202 57.4479 91.2493 57.5286 91.3112 57.5974C91.3731 57.6661 91.4483 57.7216 91.5324 57.7602C92.4624 58.2002 95.5324 59.6302 96.2124 59.6002L96.3524 59.1002C96.003 57.7513 95.5517 56.4308 95.0024 55.1502C94.9678 55.0679 94.9499 54.9795 94.9499 54.8902C94.9499 54.8009 94.9678 54.7125 95.0024 54.6302Z" fill="#637BA5"/>
<path id="Vector_7" d="M83.7517 73.7503L84.0017 70.4903C84.0114 70.424 84.0114 70.3566 84.0017 70.2903L82.4017 61.8003L82.1617 64.4403C82.1478 64.594 82.0849 64.7391 81.9823 64.8543C81.8796 64.9696 81.7427 65.0488 81.5917 65.0803C79.9017 65.4303 74.5317 66.5003 73.5117 66.1803C72.9117 66.0003 73.0017 65.0003 73.2417 64.0003C73.2725 63.8622 73.2619 63.718 73.2113 63.5859C73.1606 63.4537 73.0721 63.3394 72.9569 63.2573C72.8417 63.1751 72.7048 63.1287 72.5634 63.1239C72.4219 63.1191 72.2822 63.1561 72.1617 63.2303L68.3317 65.6403H68.2417L65.6317 66.8303C65.5437 66.8702 65.4482 66.8907 65.3517 66.8903L59.0717 67.0003C58.9404 67.0041 58.8126 67.0433 58.7017 67.1137C58.5908 67.1841 58.501 67.2831 58.4417 67.4003L55.7617 73.0003C55.7617 73.0003 53.6517 77.0003 53.0917 78.4503C53.0319 78.6116 53.0319 78.789 53.0917 78.9503L54.5817 82.9503C54.645 83.1172 54.768 83.2546 54.9269 83.3359C55.0858 83.4172 55.2693 83.4366 55.4417 83.3903C57.3457 82.8631 59.1427 82.0068 60.7517 80.8603C63.1717 79.0603 65.1617 81.8603 65.5117 82.4503C65.5466 82.5063 65.5735 82.5669 65.5917 82.6303L67.0717 87.4403C67.088 87.5424 67.1264 87.6397 67.1842 87.7254C67.2421 87.8111 67.3179 87.8831 67.4065 87.9364C67.4951 87.9898 67.5942 88.0231 67.697 88.0341C67.7998 88.0452 67.9038 88.0336 68.0017 88.0003L77.0817 84.7103C77.1328 84.6972 77.1805 84.6733 77.2217 84.6403C78.4517 83.8703 79.6317 83.0303 80.7817 82.1503C80.8899 82.0598 80.9726 81.9426 81.0217 81.8103L83.7217 73.9503C83.7396 73.8851 83.7497 73.8179 83.7517 73.7503Z" fill="#637BA5"/>
<path id="Vector_8" d="M24.471 53.5901C24.5086 53.6657 24.5556 53.7363 24.611 53.8001C25.201 54.4701 28.671 58.3901 29.391 59.0101C30.111 59.6301 34.531 61.3001 35.391 60.2801C35.6139 59.9484 35.7523 59.5673 35.7941 59.1699C35.8359 58.7725 35.7799 58.3709 35.631 58.0001C35.6092 57.8811 35.6092 57.7591 35.631 57.6401L35.851 55.2601C35.8661 55.0659 35.8163 54.8722 35.7096 54.7094C35.6028 54.5465 35.445 54.4237 35.261 54.3601L32.571 53.4201C32.4383 53.3719 32.3186 53.2935 32.2214 53.1911C32.1242 53.0887 32.0521 52.9651 32.011 52.8301L31.621 51.4501C31.5707 51.3145 31.4879 51.1934 31.3798 51.0975C31.2716 51.0016 31.1415 50.9338 31.001 50.9001L25.671 49.0001C25.5226 48.9505 25.391 48.8604 25.291 48.7401L23.461 46.5401C23.3305 46.3794 23.1453 46.2726 22.941 46.2401L16.191 45.0001C16.0736 44.9818 15.9536 44.9878 15.8386 45.0177C15.7236 45.0475 15.6159 45.1007 15.5222 45.1738C15.4285 45.2468 15.3508 45.3383 15.2938 45.4426C15.2369 45.5469 15.2019 45.6617 15.191 45.7801L15.141 46.3201C15.1217 46.5136 15.1685 46.7079 15.2738 46.8713C15.3792 47.0348 15.5368 47.1577 15.721 47.2201C17.371 47.8001 21.671 49.3201 22.141 49.4601C22.611 49.6001 24.171 52.9301 24.471 53.5901Z" fill="#637BA5"/>
<path id="Vector_9" d="M56.6002 61.7802L60.7302 61.0002C60.8934 60.9692 61.062 60.985 61.2166 61.0458C61.3712 61.1066 61.5054 61.2099 61.6037 61.3438C61.702 61.4777 61.7605 61.6367 61.7722 61.8024C61.784 61.9681 61.7486 62.1337 61.6702 62.2802C61.4261 62.7058 61.2251 63.1547 61.0702 63.6202C60.7502 64.6202 63.8702 62.1102 66.2902 60.0902C66.4444 59.9655 66.5513 59.7919 66.5933 59.5981C66.6354 59.4043 66.6099 59.202 66.5212 59.0246C66.4326 58.8473 66.286 58.7055 66.1057 58.6229C65.9255 58.5402 65.7224 58.5216 65.5302 58.5702L59.6602 59.9002C59.5258 59.9353 59.3846 59.9353 59.2502 59.9002L56.6302 59.2402C56.5312 59.2205 56.4292 59.2205 56.3302 59.2402C55.3302 59.3402 50.0802 59.8502 49.8802 59.7202C49.6802 59.5902 46.7002 59.4002 45.7902 59.3402C45.6216 59.3298 45.454 59.3717 45.3102 59.4602L43.0002 60.6802C42.8887 60.7435 42.7647 60.7817 42.6368 60.792C42.509 60.8024 42.3805 60.7847 42.2602 60.7402L39.2602 59.6502C39.1483 59.6008 39.0274 59.5754 38.9052 59.5754C38.7829 59.5754 38.662 59.6008 38.5502 59.6502L37.0002 60.5202C36.8599 60.5939 36.7424 60.7047 36.6604 60.8404C36.5785 60.9761 36.5352 61.1316 36.5352 61.2902C36.5352 61.4487 36.5785 61.6042 36.6604 61.7399C36.7424 61.8756 36.8599 61.9864 37.0002 62.0602L38.4502 62.8602C38.6419 62.9558 38.8592 62.9873 39.0702 62.9502L44.7202 61.6802C44.8326 61.6549 44.949 61.6525 45.0624 61.6732C45.1757 61.6938 45.2838 61.737 45.3802 61.8002L48.3102 63.6502C48.4444 63.7313 48.5983 63.7742 48.7552 63.7742C48.9121 63.7742 49.0659 63.7313 49.2002 63.6502L53.6502 61.1702C53.7595 61.111 53.88 61.0751 54.0039 61.0647C54.1278 61.0544 54.2525 61.0699 54.3702 61.1102L56.1302 61.7202C56.2772 61.7872 56.4411 61.8081 56.6002 61.7802Z" fill="#637BA5"/>
<path id="Vector_10" d="M56.4309 83.0001C52.9409 88.0001 43.3109 91.6201 32.0009 91.6201C17.7209 91.6201 6.14094 85.9101 6.14094 78.8701C6.14094 76.4401 7.53094 74.1701 9.92094 72.2401C9.95771 72.2164 9.98946 72.1858 10.0144 72.1499C10.0393 72.114 10.0569 72.0735 10.0662 72.0308C10.0755 71.9881 10.0763 71.9439 10.0685 71.9009C10.0607 71.8579 10.0446 71.8168 10.0209 71.7801C9.9973 71.7433 9.96665 71.7115 9.93074 71.6866C9.89483 71.6617 9.85436 71.6441 9.81165 71.6348C9.76893 71.6255 9.72481 71.6247 9.68179 71.6325C9.63877 71.6403 9.59771 71.6564 9.56094 71.6801C4.06094 74.6801 0.710938 78.6801 0.710938 83.0001C0.710938 92.3301 16.0409 99.8901 34.9509 99.8901C53.8609 99.8901 69.1609 92.3301 69.1609 83.0001H56.4309Z" fill="#F9A12D"/>
<path id="Vector_11" d="M122.572 94.2701L105.842 78.7201C105.956 78.5817 106.06 78.4346 106.152 78.2801L108.002 75.0001C108.34 74.3908 108.433 73.6756 108.262 73.0001C107.989 71.5045 107.169 70.164 105.962 69.2397C104.755 68.3155 103.247 67.8736 101.732 68.0001C101.27 68.0063 100.818 68.1286 100.416 68.3558C100.014 68.583 99.6753 68.9078 99.4319 69.3001L98.0619 71.4901L92.8819 66.6801L97.7719 60.3901C98.0095 60.0776 98.1764 59.7173 98.261 59.334C98.3456 58.9507 98.3459 58.5536 98.2619 58.1701H98.3419L98.2819 53.6801C98.4365 52.9847 98.3141 52.2564 97.9407 51.6497C97.5674 51.043 96.9724 50.6055 96.2819 50.4301L75.0019 44.1101C74.5252 43.9914 74.0253 44.0041 73.5552 44.1467C73.0851 44.2893 72.6624 44.5566 72.3319 44.9201L61.1219 57.0601L56.2019 57.5701L56.6619 56.7501C56.8239 56.4623 56.9164 56.1406 56.932 55.8108C56.9476 55.4809 56.886 55.1519 56.7519 54.8501C56.1219 53.4401 54.4819 51.2201 50.6119 51.9401C50.3237 52.0016 50.0513 52.1222 49.812 52.2943C49.5728 52.4664 49.3718 52.6863 49.2219 52.9401L45.5919 58.7201L20.1919 61.3801L19.0019 60.4901C18.921 60.4347 18.8267 60.402 18.7289 60.3953C18.631 60.3887 18.5332 60.4083 18.4454 60.4521C18.3577 60.496 18.2833 60.5625 18.23 60.6448C18.1766 60.7271 18.1462 60.8221 18.1419 60.9201L18.0019 64.6101C17.8618 64.6043 17.7238 64.6454 17.6097 64.7269C17.4955 64.8084 17.4119 64.9257 17.3719 65.0601C17.3257 65.2232 17.346 65.398 17.4285 65.5461C17.511 65.6942 17.6489 65.8036 17.8119 65.8501L45.4719 74.0001L40.7219 79.1401C40.4761 79.4092 40.2866 79.7248 40.1646 80.0683C40.0427 80.4118 39.9908 80.7762 40.0119 81.1401V81.1401V84.6401C40.0619 85.1391 40.2503 85.6143 40.556 86.0118C40.8617 86.4094 41.2725 86.7136 41.7419 86.8901L65.3719 96.0001C66.4636 96.3526 67.6368 96.3643 68.7353 96.0339C69.8339 95.7034 70.8059 95.0464 71.5219 94.1501L77.9219 85.9201L118.302 98.8401C118.365 98.8497 118.429 98.8497 118.492 98.8401C118.627 98.8405 118.759 98.7982 118.868 98.7192C118.978 98.6401 119.06 98.5285 119.102 98.4001C119.135 98.2905 119.138 98.1739 119.109 98.0629C119.081 97.9519 119.023 97.8507 118.942 97.7701L122.572 94.2701Z" stroke="white" stroke-width="2" stroke-linecap="round" stroke-linejoin="round"/>
<path id="Vector_12" d="M106.151 78.2803L108.001 75.0003C108.339 74.3909 108.432 73.6757 108.261 73.0003C107.988 71.5046 107.169 70.1641 105.961 69.2399C104.754 68.3156 103.246 67.8737 101.731 68.0003C101.27 68.0064 100.817 68.1288 100.415 68.356C100.013 68.5832 99.6748 68.9079 99.4314 69.3003L97.0714 73.0703C96.8704 73.3891 96.7366 73.7456 96.6781 74.1179C96.6196 74.4902 96.6377 74.8706 96.7313 75.2357C96.8249 75.6007 96.9921 75.9429 97.2225 76.2412C97.4529 76.5394 97.7418 76.7875 98.0714 76.9703L102.381 79.3603C103.025 79.7151 103.783 79.8007 104.489 79.5983C105.196 79.3959 105.793 78.922 106.151 78.2803Z" fill="#606060"/>
<path id="Vector_13" d="M54.8509 60.0001L56.6609 56.7602C56.8229 56.4723 56.9154 56.1507 56.931 55.8208C56.9466 55.4909 56.885 55.162 56.7509 54.8601C56.1209 53.4501 54.4809 51.2301 50.6109 51.9501C50.3227 52.0116 50.0503 52.1322 49.811 52.3043C49.5718 52.4764 49.3708 52.6964 49.2209 52.9501L44.7109 60.1401L52.7109 61.1401C53.1409 61.1875 53.5752 61.104 53.957 60.9006C54.3388 60.6972 54.6503 60.3834 54.8509 60.0001Z" fill="#606060"/>
<path id="Vector_14" d="M91.81 65.6802L122.57 94.2802L118.49 98.2302L76 84.6302L91.81 65.6802Z" fill="#E0E0E0"/>
<path id="Vector_15" d="M69.9222 56.1299L20.1922 61.3399L17.9922 65.2399L55.4622 75.8299L69.9222 56.1299Z" fill="#E0E0E0"/>
<path id="Vector_16" d="M18 65.2401L18.11 60.9201C18.1143 60.8221 18.1447 60.7271 18.198 60.6448C18.2514 60.5625 18.3258 60.496 18.4135 60.4521C18.5012 60.4082 18.5991 60.3886 18.6969 60.3953C18.7948 60.402 18.8891 60.4347 18.97 60.4901L20.2 61.3401L18 65.2401Z" fill="#606060"/>
<path id="Vector_17" d="M118.492 98.2299V92.9999C118.493 92.9052 118.518 92.8124 118.565 92.7303C118.613 92.6482 118.68 92.5797 118.762 92.5314C118.843 92.4832 118.936 92.4567 119.03 92.4547C119.125 92.4527 119.219 92.4752 119.302 92.5199L122.572 94.2899L118.492 98.2299Z" fill="#606060"/>
<path id="Vector_18" d="M24.9292 67.9202C25.0433 67.9191 25.1551 67.8881 25.2534 67.8302C25.3517 67.7723 25.433 67.6895 25.4892 67.5902L27.5692 63.8202L58.3992 62.8202C58.4892 62.8315 58.5807 62.8235 58.6675 62.7968C58.7542 62.7701 58.8343 62.7252 58.9024 62.6651C58.9705 62.6051 59.025 62.5312 59.0623 62.4485C59.0997 62.3657 59.119 62.2759 59.119 62.1852C59.119 62.0944 59.0997 62.0046 59.0623 61.9219C59.025 61.8391 58.9705 61.7653 58.9024 61.7052C58.8343 61.6452 58.7542 61.6003 58.6675 61.5735C58.5807 61.5468 58.4892 61.5388 58.3992 61.5502L27.2092 62.5502C27.0978 62.5516 26.9889 62.583 26.8939 62.6411C26.7989 62.6991 26.7212 62.7817 26.6692 62.8802L24.3692 67.0002C24.3284 67.0737 24.3026 67.1545 24.2931 67.2381C24.2837 67.3216 24.2907 67.4062 24.314 67.4869C24.3372 67.5677 24.3761 67.6432 24.4284 67.7089C24.4808 67.7747 24.5456 67.8295 24.6192 67.8702C24.7175 67.9098 24.8234 67.9268 24.9292 67.9202Z" fill="#606060"/>
<path id="Vector_19" d="M106.893 95.15C106.999 95.1508 107.103 95.1246 107.196 95.0739C107.288 95.0231 107.367 94.9495 107.423 94.86L111.193 89.13C111.284 88.989 111.317 88.8177 111.283 88.6531C111.249 88.4884 111.152 88.3436 111.013 88.25L88.0028 72.85C87.9336 72.795 87.8537 72.755 87.7682 72.7324C87.6828 72.7098 87.5935 72.7052 87.5062 72.7188C87.4188 72.7325 87.3353 72.764 87.2607 72.8116C87.1862 72.8591 87.1223 72.9216 87.0731 72.995C87.0239 73.0685 86.9905 73.1513 86.9749 73.2383C86.9593 73.3254 86.9619 73.4147 86.9825 73.5006C87.0032 73.5866 87.0414 73.6673 87.0948 73.7378C87.1482 73.8082 87.2156 73.8669 87.2928 73.91L109.753 88.91L106.343 94.11C106.274 94.2054 106.232 94.3183 106.224 94.4359C106.216 94.5535 106.241 94.6711 106.296 94.7753C106.351 94.8795 106.434 94.9661 106.536 95.0253C106.638 95.0844 106.755 95.1138 106.873 95.11L106.893 95.15Z" fill="#606060"/>
<path id="Vector_20" d="M47.3419 74.54C47.4796 74.5391 47.6132 74.4939 47.7231 74.411C47.833 74.3281 47.9132 74.2121 47.9519 74.08C47.9764 73.9999 47.9847 73.9157 47.9762 73.8324C47.9678 73.7491 47.9428 73.6683 47.9028 73.5947C47.8627 73.5212 47.8084 73.4563 47.743 73.404C47.6776 73.3517 47.6025 73.3129 47.5219 73.29L18.1719 64.62C18.0076 64.5761 17.8326 64.5974 17.6836 64.6794C17.5345 64.7613 17.4229 64.8977 17.3719 65.06C17.3257 65.2231 17.346 65.3979 17.4285 65.546C17.511 65.6941 17.6489 65.8035 17.8119 65.85L47.1619 74.51C47.2199 74.5296 47.2807 74.5397 47.3419 74.54Z" fill="#606060"/>
<path id="Vector_21" d="M118.493 98.8601C118.641 98.8551 118.783 98.7987 118.894 98.7006C119.005 98.6026 119.079 98.4689 119.103 98.3224C119.126 98.176 119.098 98.0259 119.024 97.8978C118.949 97.7697 118.832 97.6715 118.693 97.6201L76.2026 84.0001C76.1225 83.9745 76.0381 83.9649 75.9543 83.9719C75.8705 83.9789 75.7889 84.0024 75.7141 84.0409C75.6394 84.0795 75.573 84.1323 75.5187 84.1965C75.4643 84.2607 75.4232 84.335 75.3976 84.4151C75.372 84.4952 75.3624 84.5796 75.3694 84.6634C75.3764 84.7472 75.3998 84.8288 75.4384 84.9036C75.4769 84.9783 75.5298 85.0448 75.594 85.0991C75.6582 85.1534 75.7325 85.1945 75.8126 85.2201L118.303 98.8101C118.363 98.8366 118.427 98.8535 118.493 98.8601Z" fill="#606060"/>
<path id="Vector_22" d="M96.2403 56.0001L75.0003 47.3901C74.5236 47.2715 74.0236 47.2841 73.5535 47.4267C73.0834 47.5693 72.6607 47.8366 72.3303 48.2001L40.7203 82.4301C40.419 82.7621 40.2031 83.1624 40.0912 83.5966C39.9793 84.0307 39.9749 84.4855 40.0783 84.9217C40.1817 85.358 40.3898 85.7624 40.6846 86.1002C40.9794 86.4379 41.352 86.6988 41.7703 86.8601L65.3703 96.0001C66.462 96.3526 67.6351 96.3644 68.7337 96.0339C69.8323 95.7034 70.8042 95.0464 71.5203 94.1501L97.7703 60.3901C98.0591 60.0269 98.2512 59.5965 98.3289 59.1391C98.4066 58.6816 98.3672 58.2119 98.2145 57.7737C98.0618 57.3355 97.8007 56.9431 97.4555 56.633C97.1103 56.3229 96.6923 56.1052 96.2403 56.0001Z" fill="black"/>
<path id="Vector_23" d="M40 81.1301V84.6301L98.34 58.1201L98.28 53.6301" fill="black"/>
<path id="Vector_24" d="M96.2403 50.3899L75.0003 44.1099C74.5236 43.9912 74.0236 44.0038 73.5535 44.1464C73.0834 44.2891 72.6607 44.5563 72.3303 44.9199L40.7203 79.1499C40.419 79.4818 40.2031 79.8822 40.0912 80.3163C39.9793 80.7504 39.9749 81.2053 40.0783 81.6415C40.1817 82.0777 40.3898 82.4822 40.6846 82.8199C40.9794 83.1576 41.352 83.4185 41.7703 83.5799L64.9103 92.3399C65.8452 92.691 66.8684 92.7319 67.8283 92.4563C68.7882 92.1808 69.634 91.6035 70.2403 90.8099L97.7703 54.7199C98.0452 54.3571 98.2257 53.9317 98.2957 53.4819C98.3657 53.0322 98.323 52.572 98.1713 52.1428C98.0197 51.7137 97.7639 51.3288 97.4268 51.0229C97.0898 50.7169 96.6821 50.4994 96.2403 50.3899Z" fill="#0A1B3F"/>
<path id="Vector_25" d="M91.9114 52.2199L75.5014 47.3699C75.133 47.2812 74.7477 47.2929 74.3854 47.4037C74.0231 47.5145 73.6971 47.7204 73.4414 47.9999L45.1314 78.9399C44.8962 79.195 44.7273 79.504 44.6394 79.8397C44.5515 80.1754 44.5474 80.5275 44.6274 80.8652C44.7074 81.2028 44.869 81.5157 45.0981 81.7763C45.3272 82.0369 45.6167 82.2373 45.9414 82.3599L63.8114 89.1199C64.5258 89.3997 65.3114 89.4418 66.0517 89.2401C66.792 89.0383 67.4476 88.6034 67.9214 87.9999L93.0914 55.5699C93.306 55.29 93.4475 54.9611 93.5029 54.6128C93.5583 54.2645 93.526 53.9079 93.4088 53.5752C93.2917 53.2426 93.0934 52.9444 92.8319 52.7078C92.5704 52.4711 92.254 52.3034 91.9114 52.2199Z" fill="#8BC53F"/>
<path id="Vector_26" d="M92.2597 90.4701C92.3666 90.4699 92.4718 90.4433 92.566 90.3927C92.6602 90.3422 92.7405 90.2691 92.7997 90.1801L98.7997 81.0801C98.8908 80.9364 98.922 80.7627 98.8865 80.5963C98.8509 80.4299 98.7516 80.2841 98.6097 80.1901C98.5397 80.1439 98.4612 80.1122 98.3788 80.0967C98.2964 80.0813 98.2117 80.0824 98.1298 80.1001C98.0478 80.1178 97.9702 80.1517 97.9015 80.1998C97.8328 80.2479 97.7744 80.3092 97.7297 80.3801L91.7297 89.4801C91.6604 89.5755 91.6192 89.6884 91.6109 89.806C91.6026 89.9237 91.6275 90.0413 91.6827 90.1455C91.7379 90.2496 91.8213 90.3362 91.9233 90.3954C92.0253 90.4546 92.1419 90.4839 92.2597 90.4801V90.4701Z" fill="#606060"/>
<path id="Vector_27" d="M37.1018 71.2801C37.1928 71.2797 37.2827 71.2599 37.3655 71.222C37.4483 71.184 37.522 71.1289 37.5818 71.0601L44.4618 63.2302C44.5738 63.1039 44.6314 62.9384 44.6221 62.7699C44.6127 62.6013 44.5371 62.4432 44.4118 62.3302C44.2815 62.2211 44.1142 62.1665 43.9447 62.1777C43.7752 62.1889 43.6166 62.265 43.5018 62.3901L36.6218 70.2202C36.5109 70.3477 36.455 70.5139 36.4663 70.6825C36.4775 70.8511 36.555 71.0084 36.6818 71.1202C36.7963 71.225 36.9465 71.2822 37.1018 71.2801Z" fill="#606060"/>
<path id="Vector_28" d="M66.5919 76C65.997 75.9951 65.4115 75.8513 64.8819 75.58C64.1576 75.1944 63.5528 74.6177 63.1332 73.9125C62.7136 73.2073 62.4953 72.4006 62.5019 71.58L62.3519 63.81C62.3466 63.5303 62.3965 63.2522 62.4987 62.9918C62.6008 62.7313 62.7533 62.4935 62.9474 62.292C63.1415 62.0905 63.3734 61.9292 63.6298 61.8173C63.8863 61.7055 64.1622 61.6452 64.4419 61.64C65.0037 61.6345 65.5453 61.849 65.9508 62.2378C66.3564 62.6265 66.5937 63.1585 66.6119 63.72L66.7619 71.39L77.8619 62.52C78.0799 62.346 78.3301 62.2166 78.5981 62.1393C78.8661 62.062 79.1466 62.0382 79.4238 62.0693C79.701 62.1004 79.9694 62.1858 80.2135 62.3206C80.4577 62.4554 80.6729 62.637 80.8469 62.855C81.021 63.073 81.1503 63.3231 81.2276 63.5911C81.305 63.8591 81.3288 64.1397 81.2977 64.4169C81.2666 64.6941 81.1812 64.9624 81.0463 65.2066C80.9115 65.4508 80.7299 65.666 80.5119 65.84L68.6819 75.3C68.0792 75.753 67.3459 75.9986 66.5919 76Z" fill="white"/>
<path id="Vector_29" d="M103.64 22.74C103.71 22.79 103.77 22.86 103.86 22.8C103.95 22.74 103.93 22.65 103.86 22.56C103.754 22.2035 103.74 21.8259 103.818 21.4623C103.897 21.0987 104.066 20.7609 104.31 20.48C106.06 18.32 107.83 16.16 109.59 14C110.097 13.421 110.469 12.7369 110.68 11.9969C110.891 11.2568 110.935 10.4793 110.81 9.72005C110.638 8.50133 110.03 7.38607 109.1 6.58005C108.61 6.15005 108.1 5.76005 107.59 5.35005L105.19 3.40005L102 0.730049C101.93 0.680049 101.86 0.60005 101.77 0.67005C101.68 0.74005 101.71 0.820049 101.77 0.900049C101.869 1.26115 101.879 1.64099 101.799 2.00682C101.719 2.37266 101.551 2.71352 101.31 3.00005C101.12 3.24005 100.92 3.48005 100.72 3.71005L96.6001 8.77005C96.1441 9.26864 95.7388 9.81131 95.3901 10.39C95.0069 11.0768 94.791 11.8442 94.7601 12.63C94.7102 12.9984 94.7102 13.3717 94.7601 13.74C94.9455 14.9822 95.5742 16.1154 96.5301 16.93C97.4301 17.7001 98.3501 18.4401 99.2701 19.18L101.17 20.71L103.64 22.74Z" fill="#F9A12D"/>
<path id="Vector_30" d="M111.79 35.8601C111.79 35.8601 111.87 35.9301 111.92 35.8601C111.97 35.7901 111.92 35.7701 111.92 35.7201C111.857 35.5065 111.847 35.2805 111.893 35.0624C111.938 34.8443 112.037 34.6408 112.18 34.4701L115.34 30.6001C115.644 30.2544 115.867 29.8453 115.994 29.4024C116.12 28.9596 116.146 28.4942 116.07 28.0401C115.97 27.3175 115.615 26.6543 115.07 26.1701C114.78 25.9201 114.47 25.6801 114.17 25.4301L112.73 24.2701L110.78 22.6801C110.78 22.6801 110.7 22.6001 110.64 22.6801C110.58 22.7601 110.64 22.7701 110.64 22.8201C110.699 23.0348 110.705 23.2606 110.658 23.4782C110.611 23.6959 110.512 23.899 110.37 24.0701L110.02 24.5001L107.56 27.5001C107.286 27.8104 107.042 28.1451 106.83 28.5001C106.604 28.9156 106.478 29.3776 106.46 29.8501C106.425 30.0687 106.425 30.2915 106.46 30.5101C106.569 31.2546 106.946 31.9337 107.52 32.4201L109.16 33.7601L110.29 34.6701L111.79 35.8601Z" fill="#F9A12D"/>
</g>
</svg>
