<svg width="20" height="20" viewBox="0 0 20 20" fill="none" xmlns="http://www.w3.org/2000/svg">
<g id="System / ico_gift">
<path id="Union" fill-rule="evenodd" clip-rule="evenodd" d="M10 3.37543C10.5294 2.8352 11.2672 2.5 12.0833 2.5H12.5C13.8807 2.5 15 3.61929 15 5C15 5.2922 14.9499 5.57268 14.8577 5.83333H16.6667C17.1269 5.83333 17.5 6.20643 17.5 6.66667V10.8333C17.5 11.2936 17.1269 11.6667 16.6667 11.6667H15.8333V16.6667C15.8333 17.1269 15.4602 17.5 15 17.5H5C4.53976 17.5 4.16667 17.1269 4.16667 16.6667V15.5846C4.23349 15.6064 4.30006 15.6266 4.36621 15.6454C4.39152 15.6526 4.41584 15.6595 4.43926 15.6662C4.7638 15.7584 4.91297 15.8008 5.06506 15.8199C5.19443 15.8361 5.32591 15.8354 5.56922 15.8342C5.64523 15.8338 5.73215 15.8333 5.83333 15.8333H14.1667V11.6667H10.8333V13.3333C10.8333 13.7936 10.4602 14.1667 10 14.1667C9.53976 14.1667 9.16667 13.7936 9.16667 13.3333V11.6667H5.83333V14.2026C5.52283 14.1884 5.1716 14.1415 4.82131 14.0421C4.59189 13.977 4.37156 13.8921 4.16667 13.7841V11.6667H3.33333C2.8731 11.6667 2.5 11.2936 2.5 10.8333V6.66667C2.5 6.20643 2.8731 5.83333 3.33333 5.83333H5.14225C5.05013 5.57268 5 5.2922 5 5C5 3.61929 6.11929 2.5 7.5 2.5H7.91667C8.73279 2.5 9.47062 2.8352 10 3.37543ZM10.8333 10H15.8333V7.5H12.5H10.8333V10ZM9.16667 7.5H7.5H4.16667V10H9.16667V7.5ZM10.8333 5.41667V5.83333H12.5C12.9602 5.83333 13.3333 5.46024 13.3333 5C13.3333 4.53976 12.9602 4.16667 12.5 4.16667H12.0833C11.393 4.16667 10.8333 4.72631 10.8333 5.41667ZM7.5 5.83333H9.16667V5.41667C9.16667 4.72631 8.60702 4.16667 7.91667 4.16667H7.5C7.03976 4.16667 6.66667 4.53976 6.66667 5C6.66667 5.46024 7.03976 5.83333 7.5 5.83333Z" fill="#181C21"/>
</g>
</svg>
