<svg width="40" height="40" viewBox="0 0 40 40" fill="none" xmlns="http://www.w3.org/2000/svg">
<g id="_icon">
<circle id="Ellipse 4103" cx="20" cy="20" r="20" fill="#050A22" fill-opacity="0.7"/>
<g id="medium / gift_box_pulsa">
<g id="Layer 14">
<path id="Vector" d="M27.2997 14.9912L21.4815 13.7418L21.6641 13.7088C22.542 13.4983 23.3866 13.1679 24.1744 12.7269C25.132 12.1295 25.9626 11.6115 25.899 10.5291C25.8646 10.1535 25.7194 9.79657 25.4817 9.5037C25.2441 9.21083 24.9247 8.9952 24.5643 8.88421C23.9034 8.69983 23.1987 8.75376 22.5736 9.03658C21.8616 9.33203 21.2279 9.78896 20.7227 10.3713C20.2175 10.9536 19.8546 11.6454 19.6626 12.392C19.2203 11.7609 18.6379 11.2407 17.961 10.8722C17.2841 10.5037 16.5311 10.297 15.761 10.2681C15.0863 10.2271 14.4182 10.4212 13.8704 10.8173C13.5666 11.0433 13.3392 11.3568 13.2187 11.7157C13.0981 12.0746 13.0902 12.4618 13.196 12.8253C13.4772 13.859 14.4548 14.0501 15.5444 14.287C16.4368 14.4233 17.3435 14.437 18.2396 14.3279L18.4313 14.2932L13.4187 17.5004L13.8679 18.2114L20.0026 14.2732L27.1187 15.8161L27.2997 14.9912ZM18.179 13.4712C17.3598 13.577 16.5298 13.5683 15.713 13.4455C14.5777 13.2169 14.1288 13.0811 13.9724 12.5813C13.9221 12.3818 13.932 12.1719 14.0011 11.9781C14.0702 11.7843 14.1952 11.6153 14.3603 11.4926C14.5923 11.3195 14.8631 11.2058 15.1492 11.1614C15.3457 11.1289 15.5444 11.1119 15.7436 11.1106C16.4858 11.1448 17.2056 11.3759 17.829 11.7804C18.4523 12.1848 18.9568 12.7479 19.2905 13.4117C18.9427 13.418 18.5617 13.4492 18.179 13.4712ZM22.88 9.79224C23.0638 9.72388 23.2529 9.67077 23.4454 9.63344C23.7289 9.57482 24.0224 9.58652 24.3003 9.66751C24.498 9.72463 24.6742 9.83911 24.8068 9.99647C24.9393 10.1538 25.0221 10.347 25.0448 10.5514C25.0733 11.0744 24.7095 11.3571 23.7261 11.9687C23.0036 12.369 22.2293 12.6676 21.4251 12.8561C21.0416 12.9255 20.6911 13.0737 20.354 13.1912C20.4408 12.4558 20.7206 11.7565 21.1651 11.1644C21.6097 10.5722 22.203 10.1082 22.8849 9.81963L22.88 9.79224Z" fill="#AD2015"/>
<path id="Vector_2" d="M20.0316 30.8542L13.1976 31.9607C12.6303 32.021 12.0623 31.8537 11.6182 31.4955C11.1742 31.1373 10.8905 30.6175 10.8294 30.0503L17.6726 28.9423C17.7334 29.508 18.0157 30.0267 18.4577 30.3849C18.8997 30.7432 19.4656 30.9119 20.0316 30.8542Z" fill="#AD2015"/>
<path id="Vector_3" d="M16.2831 20.4692L9.45825 21.5742L10.8303 30.0481L17.6551 28.9431L16.2831 20.4692Z" fill="#AD2015"/>
<path id="Vector_4" d="M14.9706 17.3559L8.14575 18.4609L8.67082 21.7039L15.4957 20.5989L14.9706 17.3559Z" fill="#AD2015"/>
<path id="Vector_5" d="M14.969 17.3446L8.14416 18.4496C8.01319 17.8304 8.13267 17.1846 8.47649 16.6533C8.82031 16.122 9.36049 15.7484 9.97895 15.6142L16.8038 14.5092C16.1854 14.6434 15.6452 15.017 15.3014 15.5483C14.9576 16.0796 14.8381 16.7254 14.969 17.3446Z" fill="#AD2015"/>
<g id="Vector_6">
<path d="M28.0998 12.6802C28.729 12.6124 29.3595 12.7965 29.8534 13.1921C30.3473 13.5878 30.6644 14.1629 30.7355 14.7918L31.2606 18.0347L30.4728 18.1623L31.8462 26.6453C31.9673 27.2028 31.8621 27.7856 31.5538 28.2656C31.2455 28.7456 30.7592 29.0836 30.2019 29.2054L20.0333 30.8518C19.4672 30.9095 18.9014 30.7408 18.4593 30.3825C18.0173 30.0243 17.7351 29.5056 17.6743 28.9399L16.3023 20.466L15.5144 20.5936L14.9879 17.3415C14.8542 16.7212 14.9722 16.0732 15.3159 15.5398C15.6597 15.0065 16.2011 14.6314 16.8212 14.4969L28.0998 12.6802Z" fill="url(#paint0_linear_2742_168313)"/>
<path d="M28.0998 12.6802C28.729 12.6124 29.3595 12.7965 29.8534 13.1921C30.3473 13.5878 30.6644 14.1629 30.7355 14.7918L31.2606 18.0347L30.4728 18.1623L31.8462 26.6453C31.9673 27.2028 31.8621 27.7856 31.5538 28.2656C31.2455 28.7456 30.7592 29.0836 30.2019 29.2054L20.0333 30.8518C19.4672 30.9095 18.9014 30.7408 18.4593 30.3825C18.0173 30.0243 17.7351 29.5056 17.6743 28.9399L16.3023 20.466L15.5144 20.5936L14.9879 17.3415C14.8542 16.7212 14.9722 16.0732 15.3159 15.5398C15.6597 15.0065 16.2011 14.6314 16.8212 14.4969L28.0998 12.6802Z" fill="url(#paint1_linear_2742_168313)"/>
</g>
<g id="Vector_7">
<path d="M24.3437 13.2917L21.0549 13.8242L23.7159 30.2589L27.0046 29.7264L24.3437 13.2917Z" fill="url(#paint2_linear_2742_168313)"/>
<path d="M24.3437 13.2917L21.0549 13.8242L23.7159 30.2589L27.0046 29.7264L24.3437 13.2917Z" fill="url(#paint3_linear_2742_168313)"/>
</g>
<path id="Vector_8" d="M24.8289 13.2126L20.5691 13.9023L21.4946 19.6188L25.7545 18.9291L24.8289 13.2126Z" fill="url(#paint4_linear_2742_168313)"/>
<path id="Vector_9" d="M15.9878 31.4903L14.2045 31.8062C14.0881 31.8327 13.9675 31.8351 13.8501 31.8132C13.7328 31.7912 13.6212 31.7454 13.5222 31.6786C13.4233 31.6118 13.3391 31.5254 13.2749 31.4247C13.2107 31.324 13.1678 31.2113 13.149 31.0934L11.0903 18.378L13.0018 18.0414L15.0561 30.7292C15.1067 30.9406 15.2253 31.1295 15.3936 31.2669C15.5619 31.4044 15.7706 31.4829 15.9878 31.4903Z" fill="url(#paint5_linear_2742_168313)"/>
<path id="Vector_10" d="M13.4775 20.9398L11.086 21.3005L10.4711 17.6262C10.2596 16.3506 10.3802 15.8964 10.9193 15.4518L13.4726 15.0474C13.0039 15.4618 12.6033 15.8694 12.8518 17.2293L13.4775 20.9398Z" fill="url(#paint6_linear_2742_168313)"/>
<path id="Rectangle 5754" d="M16.3058 20.4554L25.7484 18.924L26.1357 19.7329L16.4404 21.2937L16.3058 20.4554Z" fill="url(#paint7_linear_2742_168313)" fill-opacity="0.48"/>
</g>
<path id="Vector_11" d="M8.79672 12.6648C8.79672 12.6648 8.8213 12.6894 8.83973 12.6801C8.85816 12.6709 8.83973 12.6494 8.83973 12.6341C8.82145 12.566 8.8203 12.4945 8.83638 12.4259C8.85246 12.3573 8.88527 12.2937 8.93189 12.2408L9.93335 11.0121C10.0288 10.9019 10.0991 10.7723 10.1394 10.6323C10.1797 10.4922 10.1891 10.3451 10.1668 10.2011C10.1323 9.97013 10.0169 9.75894 9.84119 9.60511C9.74903 9.52524 9.65073 9.45151 9.5555 9.37164C9.40497 9.24876 9.2483 9.12896 9.10085 9.00301C8.89195 8.83712 8.68613 8.66816 8.48645 8.4992C8.48645 8.4992 8.46188 8.47463 8.44345 8.4992C8.42501 8.52378 8.44345 8.52685 8.44345 8.54221C8.4628 8.61024 8.46508 8.682 8.45008 8.75113C8.43507 8.82025 8.40325 8.88461 8.35743 8.93849L8.24684 9.06444C7.98572 9.37164 7.72461 9.70034 7.46656 10.0198C7.3794 10.114 7.30219 10.217 7.23617 10.327C7.16263 10.4577 7.12155 10.6042 7.11636 10.754C7.10867 10.8224 7.10867 10.8915 7.11636 10.9598C7.14992 11.1991 7.27017 11.4178 7.45428 11.5742C7.6263 11.7186 7.79833 11.8599 7.97344 11.9982L8.33286 12.29L8.79672 12.6648Z" fill="#FAA22E"/>
<path id="Vector_12" d="M11.5963 8.31081C11.5963 8.31081 11.5963 8.31081 11.6201 8.31081C11.6438 8.31081 11.6201 8.31081 11.6201 8.28706C11.6097 8.24919 11.6086 8.20936 11.6169 8.17097C11.6251 8.13257 11.6425 8.09674 11.6676 8.0665L12.2207 7.38785C12.2725 7.32842 12.3111 7.25866 12.3339 7.1832C12.3567 7.10774 12.3632 7.02829 12.353 6.95011C12.3367 6.81878 12.2727 6.69801 12.1732 6.61079L12.0137 6.48184L11.7626 6.27825L11.4233 6C11.4233 6 11.4063 6 11.3961 6C11.386 6 11.3961 6 11.3961 6.02375C11.4078 6.06151 11.4095 6.10162 11.4012 6.14024C11.3929 6.17886 11.3748 6.21469 11.3486 6.24432L11.2842 6.33933L10.86 6.84832C10.8141 6.90176 10.7721 6.95846 10.7345 7.01798C10.693 7.09036 10.6708 7.17213 10.67 7.25551C10.6634 7.29368 10.6634 7.3327 10.67 7.37088C10.6918 7.49889 10.7593 7.61464 10.86 7.69663C10.955 7.77807 11.05 7.85612 11.1484 7.93077L11.3452 8.09364L11.5963 8.31081Z" fill="#FAA22E"/>
<path id="Vector_13" d="M11.5503 14.3114C11.5503 14.3114 11.5503 14.3114 11.5681 14.3114C11.5859 14.3114 11.5681 14.2965 11.5681 14.2876C11.5576 14.2551 11.5559 14.2204 11.5632 14.1871C11.5705 14.1537 11.5865 14.1229 11.6096 14.0977L12.0933 13.5043C12.1393 13.4511 12.173 13.3885 12.1919 13.3208C12.2109 13.2531 12.2147 13.182 12.2031 13.1127C12.1894 13.0107 12.1412 12.9165 12.0666 12.8456C12.0221 12.8041 11.9746 12.7685 11.9301 12.7329L11.7105 12.5549L11.4138 12.3086C11.4138 12.3086 11.4138 12.3086 11.393 12.3086C11.3723 12.3086 11.393 12.3234 11.393 12.3294C11.4021 12.3625 11.4031 12.3973 11.3959 12.4309C11.3886 12.4644 11.3734 12.4958 11.3515 12.5222L11.2981 12.5875L10.9005 13.0326C10.8581 13.0781 10.8203 13.1278 10.7878 13.1809C10.7543 13.2442 10.7351 13.3141 10.7314 13.3856C10.7269 13.4191 10.7269 13.453 10.7314 13.4865C10.7472 13.6022 10.8053 13.7079 10.8946 13.7832L11.1438 13.988L11.3189 14.1274L11.5503 14.3114Z" fill="#FAA22E"/>
</g>
</g>
<defs>
<linearGradient id="paint0_linear_2742_168313" x1="15.8996" y1="23.0883" x2="31.6655" y2="20.5357" gradientUnits="userSpaceOnUse">
<stop stop-color="#004FAC"/>
<stop offset="0.46" stop-color="#004EAA"/>
<stop offset="0.62" stop-color="#014AA3"/>
<stop offset="0.74" stop-color="#024498"/>
<stop offset="0.83" stop-color="#033B87"/>
<stop offset="0.91" stop-color="#052F71"/>
<stop offset="0.97" stop-color="#07245C"/>
</linearGradient>
<linearGradient id="paint1_linear_2742_168313" x1="15.8996" y1="23.0883" x2="31.6655" y2="20.5357" gradientUnits="userSpaceOnUse">
<stop stop-color="#FA7C55"/>
<stop offset="0.15" stop-color="#F75A49"/>
<stop offset="0.43" stop-color="#F22136"/>
<stop offset="0.56" stop-color="#F00B2E"/>
<stop offset="0.97" stop-color="#C3001C"/>
</linearGradient>
<linearGradient id="paint2_linear_2742_168313" x1="21.3122" y1="30.1672" x2="27.1868" y2="12.8119" gradientUnits="userSpaceOnUse">
<stop stop-color="#FA7C55"/>
<stop offset="0.15" stop-color="#F75A49"/>
<stop offset="0.43" stop-color="#F22136"/>
<stop offset="0.56" stop-color="#F00B2E"/>
<stop offset="0.97" stop-color="#C3001C"/>
</linearGradient>
<linearGradient id="paint3_linear_2742_168313" x1="18.5921" y1="34.2262" x2="24.6927" y2="1.87754" gradientUnits="userSpaceOnUse">
<stop stop-color="#F89476"/>
<stop offset="0.09" stop-color="#FF9479"/>
<stop offset="0.369429" stop-color="#F75A49"/>
<stop offset="0.459017" stop-color="#F3323B"/>
<stop offset="0.627087" stop-color="#F00B2E"/>
<stop offset="0.97" stop-color="#C3001C"/>
</linearGradient>
<linearGradient id="paint4_linear_2742_168313" x1="23.7549" y1="20.1083" x2="22.4529" y2="11.8892" gradientUnits="userSpaceOnUse">
<stop stop-color="#FA7C55"/>
<stop offset="0.213095" stop-color="#F97352"/>
<stop offset="0.3833" stop-color="#F75A49"/>
<stop offset="0.706434" stop-color="#F00B2E"/>
<stop offset="0.779382" stop-color="#F3323B"/>
<stop offset="0.97" stop-color="#C3001C"/>
</linearGradient>
<linearGradient id="paint5_linear_2742_168313" x1="15.0619" y1="32.0268" x2="9.87672" y2="6.32629" gradientUnits="userSpaceOnUse">
<stop stop-color="#FA7C55"/>
<stop offset="0.15" stop-color="#F75A49"/>
<stop offset="0.43" stop-color="#F22136"/>
<stop offset="0.56" stop-color="#F00B2E"/>
<stop offset="0.97" stop-color="#C3001C"/>
</linearGradient>
<linearGradient id="paint6_linear_2742_168313" x1="13.0533" y1="21.8375" x2="11.5463" y2="12.53" gradientUnits="userSpaceOnUse">
<stop stop-color="#FA7C55"/>
<stop offset="0.09" stop-color="#F97352"/>
<stop offset="0.23" stop-color="#F75A49"/>
<stop offset="0.41" stop-color="#F3323B"/>
<stop offset="0.56" stop-color="#F00B2E"/>
<stop offset="0.97" stop-color="#C3001C"/>
</linearGradient>
<linearGradient id="paint7_linear_2742_168313" x1="21.047" y1="19.5919" x2="21.1992" y2="20.5322" gradientUnits="userSpaceOnUse">
<stop stop-color="#DF0728"/>
<stop offset="1" stop-color="#DF0728" stop-opacity="0"/>
</linearGradient>
</defs>
</svg>
