<svg width="16" height="16" viewBox="0 0 16 16" fill="none" xmlns="http://www.w3.org/2000/svg">
<g clip-path="url(#clip0_663_24397)">
<path d="M7.99967 10.6668C9.47243 10.6668 10.6663 9.47292 10.6663 8.00016C10.6663 6.5274 9.47243 5.3335 7.99967 5.3335C6.52691 5.3335 5.33301 6.5274 5.33301 8.00016C5.33301 9.47292 6.52691 10.6668 7.99967 10.6668Z" fill="#00AA13"/>
<path d="M7.63631 1.00008C6.09952 1.0162 4.61476 1.57503 3.43064 2.58299C2.24652 3.59095 1.43493 4.98684 1.13176 6.53696C0.828584 8.08707 1.05224 9.69729 1.76527 11.098C2.4783 12.4987 3.63742 13.6049 5.04854 14.2313C5.22253 14.307 5.41091 14.3414 5.59961 14.3317C5.7883 14.3221 5.97245 14.2688 6.13831 14.1757C6.30417 14.0826 6.44746 13.9522 6.55749 13.7942C6.66751 13.6362 6.74143 13.4547 6.77372 13.2631C6.82289 12.9758 6.77601 12.6798 6.64073 12.4234C6.50544 12.1671 6.28973 11.9654 6.02876 11.8513C5.11051 11.4912 4.34597 10.808 3.87086 9.92305C3.39575 9.03806 3.2408 8.0085 3.43352 7.01712C3.62624 6.02574 4.15416 5.13669 4.92356 4.50778C5.69297 3.87887 6.65409 3.55078 7.63631 3.58177C8.59313 3.59939 9.51534 3.95302 10.25 4.58401C10.9846 5.215 11.4874 6.08542 11.6751 7.05087C11.8628 8.01631 11.724 9.01875 11.2818 9.89189C10.8396 10.765 10.1205 11.4564 9.24386 11.8513C8.98658 11.9746 8.77757 12.1841 8.65096 12.4455C8.52435 12.7069 8.48763 13.0047 8.54679 13.2903C8.60596 13.5759 8.75751 13.8325 8.9767 14.018C9.19589 14.2036 9.46976 14.3072 9.75357 14.3119C9.91642 14.3025 10.0761 14.2614 10.2241 14.1909C11.6503 13.5816 12.8266 12.4817 13.5521 11.0791C14.2775 9.67653 14.5071 8.05829 14.2016 6.50088C13.896 4.94347 13.0744 3.54353 11.8769 2.54024C10.6795 1.53694 9.18058 0.992554 7.63631 1.00008Z" fill="#00AA13"/>
</g>
<defs>
<clipPath id="clip0_663_24397">
<rect width="16" height="16" rx="4" fill="white"/>
</clipPath>
</defs>
</svg>
