<svg width="32" height="32" viewBox="0 0 32 32" fill="none" xmlns="http://www.w3.org/2000/svg">
<rect width="32" height="32" rx="4" fill="white"/>
<path d="M16.0001 19.7648C18.0792 19.7648 19.7648 18.0792 19.7648 16.0001C19.7648 13.9209 18.0792 12.2354 16.0001 12.2354C13.9209 12.2354 12.2354 13.9209 12.2354 16.0001C12.2354 18.0792 13.9209 19.7648 16.0001 19.7648Z" fill="#00AA13"/>
<path d="M15.9578 6.58849C13.7882 6.61125 11.6921 7.40018 10.0204 8.82318C8.34866 10.2462 7.20288 12.2169 6.77488 14.4053C6.34687 16.5937 6.66261 18.8669 7.66924 20.8444C8.67588 22.8218 10.3123 24.3835 12.3045 25.2678C12.5501 25.3748 12.816 25.4233 13.0824 25.4097C13.3488 25.3961 13.6088 25.3208 13.843 25.1894C14.0771 25.058 14.2794 24.8739 14.4347 24.6508C14.5901 24.4277 14.6944 24.1714 14.74 23.901C14.8094 23.4954 14.7432 23.0776 14.5522 22.7156C14.3613 22.3536 14.0567 22.0689 13.6883 21.9078C12.3919 21.3995 11.3126 20.435 10.6418 19.1856C9.9711 17.9362 9.75235 16.4827 10.0244 15.0831C10.2965 13.6835 11.0418 12.4284 12.128 11.5405C13.2142 10.6527 14.5711 10.1895 15.9578 10.2332C17.3086 10.2581 18.6105 10.7574 19.6476 11.6482C20.6847 12.539 21.3946 13.7678 21.6596 15.1308C21.9245 16.4938 21.7286 17.909 21.1043 19.1416C20.48 20.3743 19.4649 21.3503 18.2273 21.9078C17.864 22.082 17.569 22.3777 17.3902 22.7467C17.2115 23.1157 17.1596 23.5362 17.2432 23.9394C17.3267 24.3427 17.5406 24.7048 17.8501 24.9668C18.1595 25.2288 18.5462 25.375 18.9468 25.3817C19.1768 25.3684 19.4021 25.3104 19.6111 25.2109C21.6246 24.3507 23.2853 22.7979 24.3094 20.8177C25.3336 18.8376 25.6577 16.553 25.2264 14.3543C24.795 12.1556 23.635 10.1792 21.9445 8.76283C20.254 7.34642 18.1379 6.57787 15.9578 6.58849Z" fill="#00AA13"/>
</svg>
