<svg width="40" height="40" viewBox="0 0 40 40" fill="none" xmlns="http://www.w3.org/2000/svg">
<path d="M16.1587 31.6901V21.1101H7.63869V31.6901C7.60051 32.3915 7.84239 33.0794 8.31118 33.6026C8.77996 34.1258 9.43729 34.4414 10.1387 34.4801H18.6687C18.3205 34.4622 17.9793 34.3758 17.6646 34.2258C17.3499 34.0758 17.0679 33.8651 16.8347 33.606C16.6016 33.3468 16.4218 33.0442 16.3058 32.7154C16.1898 32.3866 16.1398 32.0382 16.1587 31.6901Z" fill="url(#paint0_linear_3173_480980)"/>
<path d="M33.8582 21.1101V31.6901C33.8964 32.3915 33.6545 33.0794 33.1857 33.6026C32.7169 34.1258 32.0596 34.4414 31.3582 34.4801H18.6682C18.32 34.4622 17.9788 34.3758 17.6641 34.2258C17.3494 34.0758 17.0674 33.8651 16.8342 33.606C16.601 33.3468 16.4213 33.0442 16.3053 32.7154C16.1893 32.3866 16.1393 32.0382 16.1582 31.6901V21.1101H33.8582Z" fill="url(#paint1_linear_3173_480980)"/>
<path d="M27.3695 21.1101H23.2695V34.4801H27.3695V21.1101Z" fill="#C16F16"/>
<path d="M14.28 34.4801H11.57C11.3186 34.5009 11.0686 34.4259 10.8702 34.2701C10.6717 34.1143 10.5395 33.8893 10.5 33.6401V21.1101H13.3V33.6101C13.3454 33.8425 13.4659 34.0535 13.643 34.2107C13.82 34.3679 14.0439 34.4626 14.28 34.4801Z" fill="#C16F16"/>
<path d="M7.59961 29.4501L16.1596 21.1101L7.73961 21.2601L7.59961 29.4501Z" fill="url(#paint2_linear_3173_480980)"/>
<path d="M21.2291 14.6601L13.8591 15.4001L14.0591 15.2601C15.0196 14.6767 15.8975 13.967 16.6691 13.1501C17.5691 12.0801 18.3491 11.1501 17.8691 9.90011C17.6866 9.46892 17.38 9.10177 16.9883 8.84535C16.5965 8.58892 16.1373 8.45483 15.6691 8.46011C14.8148 8.4939 13.9986 8.82253 13.3591 9.39011C12.6379 10.0022 12.0658 10.7706 11.6864 11.637C11.3069 12.5035 11.13 13.445 11.1691 14.3901C10.4066 13.8156 9.52087 13.4261 8.58198 13.2526C7.64309 13.079 6.67671 13.1261 5.75914 13.3901C4.92623 13.6109 4.19721 14.117 3.69914 14.8201C3.43818 15.209 3.29883 15.6668 3.29883 16.1351C3.29883 16.6035 3.43818 17.0612 3.69914 17.4501C4.46914 18.5601 5.69914 18.4501 7.06914 18.2801C8.17859 18.0899 9.25797 17.7537 10.2791 17.2801L10.4991 17.1901L5.73914 22.9001L6.54914 23.5801L12.3291 16.5801L21.3291 15.6801L21.2291 14.6601ZM9.83914 16.3201C8.90591 16.7488 7.92103 17.0547 6.90914 17.2301C5.47914 17.3801 4.90914 17.3901 4.52914 16.8501C4.38811 16.6383 4.31286 16.3896 4.31286 16.1351C4.31286 15.8807 4.38811 15.6319 4.52914 15.4201C4.74169 15.1276 5.01888 14.888 5.33914 14.7201C5.5578 14.6111 5.78528 14.5208 6.01914 14.4501C6.91129 14.2071 7.85203 14.206 8.74479 14.4467C9.63754 14.6875 10.4501 15.1615 11.0991 15.8201C10.7291 16.0001 10.2891 16.1401 9.83914 16.3201ZM13.9991 10.2101C14.188 10.053 14.3924 9.91561 14.6091 9.80011C14.9155 9.62727 15.2578 9.52799 15.6091 9.51011C15.8641 9.50563 16.1148 9.57624 16.3299 9.71315C16.5451 9.85006 16.7152 10.0472 16.8191 10.2801C17.0591 10.8901 16.7291 11.3701 15.8191 12.4701C15.1108 13.2129 14.3071 13.8585 13.4291 14.3901C13.0291 14.6601 12.6391 14.9201 12.2891 15.1901C12.1073 14.283 12.1698 13.3438 12.4702 12.4687C12.7707 11.5937 13.2984 10.8142 13.9991 10.2101Z" fill="#C16F16"/>
<path d="M8.05912 20.83C7.8118 20.2017 7.81264 19.5029 8.06148 18.8753C8.31031 18.2476 8.78851 17.7381 9.39912 17.45L2.39912 20.77C1.79014 21.0599 1.31347 21.5696 1.06489 22.1966C0.816316 22.8236 0.814253 23.5215 1.05912 24.15L2.29912 27.15L9.29912 23.83L8.05912 20.83Z" fill="url(#paint3_linear_3173_480980)"/>
<path d="M10.0985 23.44L9.28853 23.82L8.05853 20.82C7.81415 20.193 7.81653 19.4966 8.06519 18.8713C8.31384 18.2459 8.7903 17.7381 9.39853 17.45L20.9385 12C21.227 11.8528 21.543 11.7671 21.8663 11.7483C22.1897 11.7295 22.5134 11.7781 22.817 11.8909C23.1206 12.0037 23.3975 12.1783 23.6301 12.4036C23.8628 12.629 24.0461 12.9002 24.1685 13.2L25.4085 16.2L24.5985 16.58" fill="url(#paint4_linear_3173_480980)"/>
<path d="M19.7783 18.84L15.4283 20.91L13.2383 15.62L17.5983 13.55L19.7783 18.84Z" fill="#C16F16"/>
<path d="M7.75864 24.5502L4.78864 26.0002L3.55864 23.0002C3.01864 21.8602 2.90864 21.0002 3.38864 20.3402L6.38864 18.9202C5.96864 19.4902 5.95864 20.3302 6.55864 21.5902L7.75864 24.5502Z" fill="#C16F16"/>
<path d="M32.6988 12.59C32.7079 12.5953 32.7183 12.598 32.7288 12.598C32.7394 12.598 32.7497 12.5953 32.7588 12.59C32.7588 12.59 32.7588 12.59 32.7588 12.53C32.7344 12.4441 32.7316 12.3534 32.7508 12.2661C32.77 12.1789 32.8105 12.0977 32.8688 12.03C33.2888 11.5 33.7188 11.03 34.1488 10.46C34.2651 10.3233 34.351 10.1635 34.401 9.99109C34.451 9.81872 34.4639 9.63771 34.4388 9.46C34.4008 9.14937 34.2429 8.86588 33.9988 8.67C33.8788 8.56 33.7588 8.47 33.6288 8.37L33.0488 7.9L32.2588 7.25C32.2588 7.25 32.2588 7.25 32.1988 7.25C32.2241 7.33747 32.2273 7.42986 32.2081 7.51887C32.1889 7.60789 32.1479 7.69074 32.0888 7.76C32.0679 7.8431 32.0377 7.9236 31.9988 8L30.9988 9.2C30.8934 9.32328 30.7965 9.45358 30.7088 9.59C30.6153 9.75916 30.5606 9.94705 30.5488 10.14C30.5436 10.2266 30.5436 10.3134 30.5488 10.4C30.595 10.7051 30.7516 10.9827 30.9888 11.18L31.6488 11.72L32.1088 12.09L32.6988 12.59Z" fill="url(#paint5_linear_3173_480980)"/>
<path d="M34.7589 14.2801C34.7439 14.229 34.7416 14.175 34.752 14.1228C34.7625 14.0705 34.7854 14.0216 34.8189 13.9801L35.5789 13.0501C35.7077 12.9038 35.7763 12.7141 35.7707 12.5192C35.7652 12.3244 35.6859 12.1388 35.5489 12.0001L35.3289 11.8301L34.9989 11.5201L34.5289 11.1401C34.5438 11.1913 34.5462 11.2453 34.5357 11.2975C34.5253 11.3498 34.5024 11.3987 34.4689 11.4401L34.3789 11.5401L33.7889 12.2701C33.7243 12.3407 33.6674 12.4177 33.6189 12.5001C33.5636 12.598 33.5327 12.7078 33.5289 12.8201C33.5242 12.8734 33.5242 12.9269 33.5289 12.9801C33.5548 13.1555 33.6437 13.3155 33.7789 13.4301L34.1689 13.7601L34.4389 13.9701L34.7589 14.2801Z" fill="url(#paint6_linear_3173_480980)"/>
<path d="M32.5387 18.32C32.9387 17.79 33.5387 17.13 34.2187 17.12C34.4823 17.105 34.7411 17.1949 34.9387 17.37C35.0387 17.45 35.2887 18.04 34.9887 17.98C34.8687 17.98 34.9187 17.72 34.9387 17.66C35.0095 17.5071 35.1118 17.3708 35.2387 17.26C35.6619 16.8603 36.2183 16.6319 36.8003 16.6189C37.3822 16.606 37.9483 16.8095 38.3887 17.19C38.7887 17.53 39.3887 16.95 38.9687 16.61C38.5858 16.2707 38.1276 16.0275 37.632 15.9005C37.1364 15.7736 36.6176 15.7665 36.1187 15.88C35.2587 16.08 34.1187 16.82 34.1187 17.83C34.1121 18.0585 34.1839 18.2823 34.3222 18.4642C34.4604 18.6462 34.6569 18.7753 34.8787 18.83C35.0943 18.8428 35.3083 18.7853 35.4885 18.6664C35.6688 18.5474 35.8057 18.3733 35.8787 18.17C36.1887 17.22 35.2987 16.46 34.4487 16.37C33.9074 16.3778 33.3778 16.5291 32.914 16.8084C32.4502 17.0877 32.0688 17.4851 31.8087 17.96C31.4887 18.38 32.2087 18.79 32.5187 18.37L32.5387 18.32Z" fill="url(#paint7_linear_3173_480980)"/>
<path d="M27.9994 16.5401C28.9065 15.3326 29.3692 13.8491 29.3094 12.3401C29.2594 11.0401 28.8094 9.16006 27.5494 8.51006C27.2885 8.35692 26.9864 8.28918 26.6851 8.31632C26.3839 8.34346 26.0987 8.46413 25.8694 8.66142C25.6402 8.85871 25.4783 9.12275 25.4066 9.41658C25.3349 9.71041 25.3568 10.0193 25.4694 10.3001C26.0194 11.6701 27.8894 11.3901 28.5794 10.3001C29.6694 8.60006 28.2294 6.80006 27.0794 5.62006C26.7094 5.24006 26.0794 5.82006 26.4994 6.20006C27.3594 7.08006 28.6994 8.49006 27.9094 9.82006C27.5994 10.3401 26.6894 10.7101 26.2794 10.0701C25.8694 9.43006 26.6094 8.91006 27.1994 9.24006C27.7109 9.6302 28.0657 10.1908 28.1994 10.8201C28.3887 11.4043 28.48 12.016 28.4694 12.6301C28.4601 13.8869 28.0385 15.106 27.2694 16.1001C26.9494 16.5201 27.6694 16.9301 27.9794 16.5201L27.9994 16.5401Z" fill="url(#paint8_linear_3173_480980)"/>
<defs>
<linearGradient id="paint0_linear_3173_480980" x1="13.0587" y1="34.5801" x2="13.2287" y2="22.2401" gradientUnits="userSpaceOnUse">
<stop offset="0.45" stop-color="#F49C2D"/>
<stop offset="0.6" stop-color="#DE8923"/>
<stop offset="0.8" stop-color="#C9761A"/>
<stop offset="0.93" stop-color="#C16F16"/>
<stop offset="1" stop-color="#CC6615"/>
</linearGradient>
<linearGradient id="paint1_linear_3173_480980" x1="25.0082" y1="21.0001" x2="25.0082" y2="34.1001" gradientUnits="userSpaceOnUse">
<stop stop-color="#FFD09C"/>
<stop offset="0.51" stop-color="#F49C2D"/>
<stop offset="0.97" stop-color="#C16F16"/>
</linearGradient>
<linearGradient id="paint2_linear_3173_480980" x1="12.9496" y1="28.2001" x2="10.3496" y2="21.1101" gradientUnits="userSpaceOnUse">
<stop stop-color="#F49C2D" stop-opacity="0"/>
<stop offset="0.13" stop-color="#DF8624" stop-opacity="0.25"/>
<stop offset="0.33" stop-color="#C36A17" stop-opacity="0.57"/>
<stop offset="0.5" stop-color="#AF550E" stop-opacity="0.8"/>
<stop offset="0.64" stop-color="#A34909" stop-opacity="0.95"/>
<stop offset="0.73" stop-color="#9E4407"/>
</linearGradient>
<linearGradient id="paint3_linear_3173_480980" x1="2.28448" y1="20.1465" x2="9.05041" y2="24.2248" gradientUnits="userSpaceOnUse">
<stop offset="0.47" stop-color="#F49C2D"/>
<stop offset="0.97" stop-color="#C16F16"/>
</linearGradient>
<linearGradient id="paint4_linear_3173_480980" x1="23.5039" y1="10.6474" x2="10.3423" y2="23.7078" gradientUnits="userSpaceOnUse">
<stop stop-color="#FFD09C"/>
<stop offset="0.04" stop-color="#FCC17C"/>
<stop offset="0.08" stop-color="#F9B460"/>
<stop offset="0.13" stop-color="#F7A949"/>
<stop offset="0.18" stop-color="#F5A239"/>
<stop offset="0.24" stop-color="#F49D30"/>
<stop offset="0.32" stop-color="#F49C2D"/>
<stop offset="0.52" stop-color="#F1992C"/>
<stop offset="0.67" stop-color="#E79027"/>
<stop offset="0.82" stop-color="#D5811F"/>
<stop offset="0.94" stop-color="#C16F16"/>
</linearGradient>
<linearGradient id="paint5_linear_3173_480980" x1="30.5288" y1="9.92" x2="34.4688" y2="9.92" gradientUnits="userSpaceOnUse">
<stop stop-color="#FA7C55"/>
<stop offset="0.15" stop-color="#F75A49"/>
<stop offset="0.43" stop-color="#F22136"/>
<stop offset="0.56" stop-color="#F00B2E"/>
<stop offset="0.97" stop-color="#C3001C"/>
</linearGradient>
<linearGradient id="paint6_linear_3173_480980" x1="33.4789" y1="12.7101" x2="35.7989" y2="12.7101" gradientUnits="userSpaceOnUse">
<stop stop-color="#FA7C55"/>
<stop offset="0.15" stop-color="#F75A49"/>
<stop offset="0.43" stop-color="#F22136"/>
<stop offset="0.56" stop-color="#F00B2E"/>
<stop offset="0.97" stop-color="#C3001C"/>
</linearGradient>
<linearGradient id="paint7_linear_3173_480980" x1="31.7687" y1="17.3" x2="39.0887" y2="17.3" gradientUnits="userSpaceOnUse">
<stop stop-color="#FA7C55"/>
<stop offset="0.15" stop-color="#F75A49"/>
<stop offset="0.43" stop-color="#F22136"/>
<stop offset="0.56" stop-color="#F00B2E"/>
<stop offset="0.97" stop-color="#C3001C"/>
</linearGradient>
<linearGradient id="paint8_linear_3173_480980" x1="25.2994" y1="11.1101" x2="29.2694" y2="11.1101" gradientUnits="userSpaceOnUse">
<stop stop-color="#FA7C55"/>
<stop offset="0.15" stop-color="#F75A49"/>
<stop offset="0.43" stop-color="#F22136"/>
<stop offset="0.56" stop-color="#F00B2E"/>
<stop offset="0.97" stop-color="#C3001C"/>
</linearGradient>
</defs>
</svg>
