<svg width="43" height="82" viewBox="0 0 43 82" fill="none" xmlns="http://www.w3.org/2000/svg">
<path d="M23.9756 54.9568C23.9756 53.394 24.868 51.8953 26.4564 50.7903C28.0449 49.6853 30.1993 49.0645 32.4458 49.0645C34.6922 49.0645 36.8467 49.6853 38.4351 50.7903C40.0236 51.8953 40.916 53.394 40.916 54.9568L23.9756 54.9568Z" fill="url(#paint0_linear_2244_61112)"/>
<path d="M23.9756 75.5801C23.9756 77.1428 24.868 78.6416 26.4564 79.7466C28.0449 80.8516 30.1993 81.4724 32.4458 81.4724C34.6922 81.4724 36.8467 80.8516 38.4351 79.7466C40.0236 78.6416 40.916 77.1428 40.916 75.5801L23.9756 75.5801Z" fill="url(#paint1_linear_2244_61112)"/>
<rect x="40.5469" y="72.6328" width="16.2039" height="14.7308" transform="rotate(180 40.5469 72.6328)" fill="url(#paint2_linear_2244_61112)"/>
<rect x="38.3379" y="71.1602" width="2.94617" height="11.7847" rx="1.47308" transform="rotate(180 38.3379 71.1602)" fill="#AA569E"/>
<rect x="33.918" y="71.1602" width="2.94617" height="11.7847" rx="1.47308" transform="rotate(180 33.918 71.1602)" fill="#AA569E"/>
<rect x="29.5" y="71.1602" width="2.94617" height="11.7847" rx="1.47308" transform="rotate(180 29.5 71.1602)" fill="#AA569E"/>
<rect width="19.8866" height="2.94617" rx="1.47308" transform="matrix(-1 0 0 1 42.3887 54.957)" fill="#F7BD1F"/>
<rect x="42.3887" y="75.5801" width="19.8866" height="2.94617" rx="1.47308" transform="rotate(180 42.3887 75.5801)" fill="#EE7C0A"/>
<rect x="33.6367" y="48.7539" width="2.50019" height="48.7537" transform="rotate(180 33.6367 48.7539)" fill="#EE7C0A"/>
<path d="M1.40938 27.7996C1.40938 26.9509 1.89402 26.137 2.75668 25.5369C3.61935 24.9368 4.78938 24.5996 6.00937 24.5996C7.22937 24.5996 8.3994 24.9368 9.26207 25.5369C10.1247 26.137 10.6094 26.9509 10.6094 27.7996L1.40938 27.7996Z" fill="url(#paint3_linear_2244_61112)"/>
<path d="M1.40938 39C1.40938 39.8487 1.89402 40.6626 2.75668 41.2627C3.61935 41.8629 4.78938 42.2 6.00937 42.2C7.22937 42.2 8.3994 41.8629 9.26207 41.2627C10.1247 40.6626 10.6094 39.8487 10.6094 39L1.40938 39Z" fill="url(#paint4_linear_2244_61112)"/>
<rect x="10.4102" y="37.4004" width="8.8" height="8" transform="rotate(180 10.4102 37.4004)" fill="url(#paint5_linear_2244_61112)"/>
<rect x="9.21094" y="36.5996" width="1.6" height="6.4" rx="0.8" transform="rotate(180 9.21094 36.5996)" fill="#AA569E"/>
<rect x="6.81055" y="36.5996" width="1.6" height="6.4" rx="0.8" transform="rotate(180 6.81055 36.5996)" fill="#AA569E"/>
<rect x="4.41016" y="36.5996" width="1.6" height="6.4" rx="0.8" transform="rotate(180 4.41016 36.5996)" fill="#AA569E"/>
<rect width="10.8" height="1.6" rx="0.8" transform="matrix(-1 0 0 1 11.4102 27.8008)" fill="#F7BD1F"/>
<rect x="11.4102" y="39" width="10.8" height="1.6" rx="0.8" transform="rotate(180 11.4102 39)" fill="#EE7C0A"/>
<rect x="6.41016" y="25" width="1" height="25" transform="rotate(180 6.41016 25)" fill="#EE7C0A"/>
<defs>
<linearGradient id="paint0_linear_2244_61112" x1="32.4458" y1="49.0645" x2="27.8821" y2="55.6248" gradientUnits="userSpaceOnUse">
<stop stop-color="#F7BD1F"/>
<stop offset="1" stop-color="#EE7C0A"/>
</linearGradient>
<linearGradient id="paint1_linear_2244_61112" x1="25.4486" y1="72.5058" x2="25.4486" y2="81.4724" gradientUnits="userSpaceOnUse">
<stop stop-color="#F7BD1F"/>
<stop offset="1" stop-color="#EE7C0A"/>
</linearGradient>
<linearGradient id="paint2_linear_2244_61112" x1="55.3417" y1="83.841" x2="55.3417" y2="72.6328" gradientUnits="userSpaceOnUse">
<stop stop-color="#F7BD1F"/>
<stop offset="1" stop-color="#EE7C0A"/>
</linearGradient>
<linearGradient id="paint3_linear_2244_61112" x1="6.00938" y1="24.5996" x2="3.5309" y2="28.1624" gradientUnits="userSpaceOnUse">
<stop stop-color="#F7BD1F"/>
<stop offset="1" stop-color="#EE7C0A"/>
</linearGradient>
<linearGradient id="paint4_linear_2244_61112" x1="2.20938" y1="37.3304" x2="2.20938" y2="42.2" gradientUnits="userSpaceOnUse">
<stop stop-color="#F7BD1F"/>
<stop offset="1" stop-color="#EE7C0A"/>
</linearGradient>
<linearGradient id="paint5_linear_2244_61112" x1="18.4449" y1="43.4873" x2="18.4449" y2="37.4004" gradientUnits="userSpaceOnUse">
<stop stop-color="#F7BD1F"/>
<stop offset="1" stop-color="#EE7C0A"/>
</linearGradient>
</defs>
</svg>
