<svg width="43" height="82" viewBox="0 0 43 82" fill="none" xmlns="http://www.w3.org/2000/svg">
<path d="M19.0225 54.9568C19.0225 53.394 18.1301 51.8953 16.5416 50.7903C14.9531 49.6853 12.7987 49.0645 10.5523 49.0645C8.30581 49.0645 6.15138 49.6853 4.5629 50.7903C2.97443 51.8953 2.08203 53.394 2.08203 54.9568L19.0225 54.9568Z" fill="url(#paint0_linear_2244_61133)"/>
<path d="M19.0225 75.5801C19.0225 77.1428 18.1301 78.6416 16.5416 79.7466C14.9531 80.8516 12.7987 81.4724 10.5523 81.4724C8.30581 81.4724 6.15138 80.8516 4.5629 79.7466C2.97443 78.6416 2.08203 77.1428 2.08203 75.5801L19.0225 75.5801Z" fill="url(#paint1_linear_2244_61133)"/>
<rect width="16.2039" height="14.7308" transform="matrix(1 0 0 -1 2.45117 72.6328)" fill="url(#paint2_linear_2244_61133)"/>
<rect width="2.94617" height="11.7847" rx="1.47308" transform="matrix(1 0 0 -1 4.66016 71.1602)" fill="#AA569E"/>
<rect width="2.94617" height="11.7847" rx="1.47308" transform="matrix(1 0 0 -1 9.08008 71.1602)" fill="#AA569E"/>
<rect width="2.94617" height="11.7847" rx="1.47308" transform="matrix(1 0 0 -1 13.498 71.1602)" fill="#AA569E"/>
<rect x="0.609375" y="54.957" width="19.8866" height="2.94617" rx="1.47308" fill="#F7BD1F"/>
<rect width="19.8866" height="2.94617" rx="1.47308" transform="matrix(1 0 0 -1 0.609375 75.5801)" fill="#EE7C0A"/>
<rect width="2.50019" height="48.7537" transform="matrix(1 0 0 -1 9.36133 48.7539)" fill="#EE7C0A"/>
<path d="M41.5887 27.7996C41.5887 26.9509 41.104 26.137 40.2414 25.5369C39.3787 24.9368 38.2087 24.5996 36.9887 24.5996C35.7687 24.5996 34.5986 24.9368 33.736 25.5369C32.8733 26.137 32.3887 26.9509 32.3887 27.7996L41.5887 27.7996Z" fill="url(#paint3_linear_2244_61133)"/>
<path d="M41.5887 39C41.5887 39.8487 41.104 40.6626 40.2414 41.2627C39.3787 41.8629 38.2087 42.2 36.9887 42.2C35.7687 42.2 34.5986 41.8629 33.736 41.2627C32.8733 40.6626 32.3887 39.8487 32.3887 39L41.5887 39Z" fill="url(#paint4_linear_2244_61133)"/>
<rect width="8.8" height="8" transform="matrix(1 0 0 -1 32.5879 37.4004)" fill="url(#paint5_linear_2244_61133)"/>
<rect width="1.6" height="6.4" rx="0.8" transform="matrix(1 0 0 -1 33.7871 36.5996)" fill="#AA569E"/>
<rect width="1.6" height="6.4" rx="0.8" transform="matrix(1 0 0 -1 36.1875 36.5996)" fill="#AA569E"/>
<rect width="1.6" height="6.4" rx="0.8" transform="matrix(1 0 0 -1 38.5879 36.5996)" fill="#AA569E"/>
<rect x="31.5879" y="27.8008" width="10.8" height="1.6" rx="0.8" fill="#F7BD1F"/>
<rect width="10.8" height="1.6" rx="0.8" transform="matrix(1 0 0 -1 31.5879 39)" fill="#EE7C0A"/>
<rect width="1" height="25" transform="matrix(1 0 0 -1 36.5879 25)" fill="#EE7C0A"/>
<defs>
<linearGradient id="paint0_linear_2244_61133" x1="10.5523" y1="49.0645" x2="15.116" y2="55.6248" gradientUnits="userSpaceOnUse">
<stop stop-color="#F7BD1F"/>
<stop offset="1" stop-color="#EE7C0A"/>
</linearGradient>
<linearGradient id="paint1_linear_2244_61133" x1="17.5494" y1="72.5058" x2="17.5494" y2="81.4724" gradientUnits="userSpaceOnUse">
<stop stop-color="#F7BD1F"/>
<stop offset="1" stop-color="#EE7C0A"/>
</linearGradient>
<linearGradient id="paint2_linear_2244_61133" x1="14.7949" y1="11.2082" x2="14.7949" y2="0" gradientUnits="userSpaceOnUse">
<stop stop-color="#F7BD1F"/>
<stop offset="1" stop-color="#EE7C0A"/>
</linearGradient>
<linearGradient id="paint3_linear_2244_61133" x1="36.9887" y1="24.5996" x2="39.4671" y2="28.1624" gradientUnits="userSpaceOnUse">
<stop stop-color="#F7BD1F"/>
<stop offset="1" stop-color="#EE7C0A"/>
</linearGradient>
<linearGradient id="paint4_linear_2244_61133" x1="40.7887" y1="37.3304" x2="40.7887" y2="42.2" gradientUnits="userSpaceOnUse">
<stop stop-color="#F7BD1F"/>
<stop offset="1" stop-color="#EE7C0A"/>
</linearGradient>
<linearGradient id="paint5_linear_2244_61133" x1="8.03478" y1="6.08696" x2="8.03478" y2="0" gradientUnits="userSpaceOnUse">
<stop stop-color="#F7BD1F"/>
<stop offset="1" stop-color="#EE7C0A"/>
</linearGradient>
</defs>
</svg>
