<svg width="25" height="24" viewBox="0 0 25 24" fill="none" xmlns="http://www.w3.org/2000/svg">
<g clip-path="url(#clip0_282_40148)">
<path d="M20.6292 6.29829H15.5557V20.2507H19.6292C20.1815 20.2507 20.6292 19.803 20.6292 19.2507V6.29829Z" fill="url(#paint0_linear_282_40148)"/>
<path d="M20.6591 6.29829L15.5552 6.29829V5.49632L20.6591 5.49632C20.8096 5.49632 20.9316 5.61279 20.9316 5.75628V6.03785C20.9316 6.18134 20.8096 6.2978 20.6591 6.2978V6.29829Z" fill="url(#paint1_linear_282_40148)"/>
<path d="M20.1176 5.49609L15.5592 5.49609V4.24449H19.7802C19.9667 4.24449 20.1182 4.38896 20.1182 4.56685V5.49609H20.1176Z" fill="url(#paint2_linear_282_40148)"/>
<path d="M16.4572 7.22514H16.3189C16.1671 7.22514 16.0439 7.34826 16.0439 7.50014V9.52363C16.0439 9.67551 16.1671 9.79863 16.3189 9.79863H16.4572C16.609 9.79863 16.7322 9.67551 16.7322 9.52363V7.50014C16.7322 7.34827 16.609 7.22514 16.4572 7.22514Z" fill="white"/>
<path d="M16.4572 10.728H16.3189C16.1671 10.728 16.0439 10.8511 16.0439 11.003V13.0265C16.0439 13.1783 16.1671 13.3015 16.3189 13.3015H16.4572C16.609 13.3015 16.7322 13.1783 16.7322 13.0265V11.003C16.7322 10.8511 16.609 10.728 16.4572 10.728Z" fill="white"/>
<path d="M16.4572 14.2383H16.3189C16.1671 14.2383 16.0439 14.3614 16.0439 14.5133V16.5368C16.0439 16.6886 16.1671 16.8118 16.3189 16.8118H16.4572C16.609 16.8118 16.7322 16.6886 16.7322 16.5368V14.5133C16.7322 14.3614 16.609 14.2383 16.4572 14.2383Z" fill="white"/>
<path d="M17.5929 7.22514H17.4547C17.3028 7.22514 17.1797 7.34826 17.1797 7.50014V9.52363C17.1797 9.67551 17.3028 9.79863 17.4547 9.79863H17.5929C17.7448 9.79863 17.8679 9.67551 17.8679 9.52363V7.50014C17.8679 7.34827 17.7448 7.22514 17.5929 7.22514Z" fill="white"/>
<path d="M17.5929 10.728H17.4547C17.3028 10.728 17.1797 10.8511 17.1797 11.003V13.0265C17.1797 13.1783 17.3028 13.3015 17.4547 13.3015H17.5929C17.7448 13.3015 17.8679 13.1783 17.8679 13.0265V11.003C17.8679 10.8511 17.7448 10.728 17.5929 10.728Z" fill="white"/>
<path d="M17.5929 14.2383H17.4547C17.3028 14.2383 17.1797 14.3614 17.1797 14.5133V16.5368C17.1797 16.6886 17.3028 16.8118 17.4547 16.8118H17.5929C17.7448 16.8118 17.8679 16.6886 17.8679 16.5368V14.5133C17.8679 14.3614 17.7448 14.2383 17.5929 14.2383Z" fill="white"/>
<path d="M18.7326 7.22514H18.5943C18.4425 7.22514 18.3193 7.34826 18.3193 7.50014V9.52363C18.3193 9.67551 18.4425 9.79863 18.5943 9.79863H18.7326C18.8844 9.79863 19.0076 9.67551 19.0076 9.52363V7.50014C19.0076 7.34827 18.8844 7.22514 18.7326 7.22514Z" fill="white"/>
<path d="M18.7326 10.728H18.5943C18.4425 10.728 18.3193 10.8511 18.3193 11.003V13.0265C18.3193 13.1783 18.4425 13.3015 18.5943 13.3015H18.7326C18.8844 13.3015 19.0076 13.1783 19.0076 13.0265V11.003C19.0076 10.8511 18.8844 10.728 18.7326 10.728Z" fill="white"/>
<path d="M19.8663 7.22514H19.7281C19.5762 7.22514 19.4531 7.34826 19.4531 7.50014V9.52363C19.4531 9.67551 19.5762 9.79863 19.7281 9.79863H19.8663C20.0182 9.79863 20.1413 9.67551 20.1413 9.52363V7.50014C20.1413 7.34827 20.0182 7.22514 19.8663 7.22514Z" fill="white"/>
<path d="M19.8663 10.728H19.7281C19.5762 10.728 19.4531 10.8511 19.4531 11.003V13.0265C19.4531 13.1783 19.5762 13.3015 19.7281 13.3015H19.8663C20.0182 13.3015 20.1413 13.1783 20.1413 13.0265V11.003C20.1413 10.8511 20.0182 10.728 19.8663 10.728Z" fill="white"/>
<path d="M15.5596 6.29829H5.16016V19.2507C5.16016 19.803 5.60787 20.2507 6.16016 20.2507H15.5596V6.29829Z" fill="url(#paint3_linear_282_40148)"/>
<path d="M6.05223 4.24588H15.5605V5.49749H5.65918V4.62033C5.65918 4.41345 5.83535 4.24539 6.05223 4.24539V4.24588Z" fill="url(#paint4_linear_282_40148)"/>
<path d="M5.10631 5.49609H15.5573V6.29807H5.10631C4.9631 6.29807 4.84668 6.18701 4.84668 6.0504V5.74425C4.84668 5.60764 4.9631 5.49658 5.10631 5.49658V5.49609Z" fill="url(#paint5_linear_282_40148)"/>
<path d="M11.934 10.9091H6.48398C6.33211 10.9091 6.20898 11.0322 6.20898 11.1841V12.8159C6.20898 12.9678 6.33211 13.0909 6.48398 13.0909H11.934C12.0859 13.0909 12.209 12.9678 12.209 12.8159V11.1841C12.209 11.0322 12.0859 10.9091 11.934 10.9091Z" fill="white"/>
<path d="M7.28978 14.2383H6.42832C6.27644 14.2383 6.15332 14.3614 6.15332 14.5133V16.5368C6.15332 16.6886 6.27644 16.8118 6.42832 16.8118H7.28978C7.44166 16.8118 7.56478 16.6886 7.56478 16.5368V14.5133C7.56478 14.3614 7.44166 14.2383 7.28978 14.2383Z" fill="white"/>
<path d="M9.62279 14.2383H8.76133C8.60945 14.2383 8.48633 14.3614 8.48633 14.5133V16.5368C8.48633 16.6886 8.60945 16.8118 8.76133 16.8118H9.62279C9.77467 16.8118 9.89779 16.6886 9.89779 16.5368V14.5133C9.89779 14.3614 9.77467 14.2383 9.62279 14.2383Z" fill="white"/>
<path d="M11.9538 14.2383H11.0924C10.9405 14.2383 10.8174 14.3614 10.8174 14.5133V16.5368C10.8174 16.6886 10.9405 16.8118 11.0924 16.8118H11.9538C12.1057 16.8118 12.2288 16.6886 12.2288 16.5368V14.5133C12.2288 14.3614 12.1057 14.2383 11.9538 14.2383Z" fill="white"/>
<path d="M14.2869 10.728H13.4254C13.2735 10.728 13.1504 10.8511 13.1504 11.003V13.0265C13.1504 13.1783 13.2735 13.3015 13.4254 13.3015H14.2869C14.4387 13.3015 14.5619 13.1783 14.5619 13.0265V11.003C14.5619 10.8511 14.4387 10.728 14.2869 10.728Z" fill="white"/>
<path d="M14.2869 14.2383H13.4254C13.2735 14.2383 13.1504 14.3614 13.1504 14.5133V16.5368C13.1504 16.6886 13.2735 16.8118 13.4254 16.8118H14.2869C14.4387 16.8118 14.5619 16.6886 14.5619 16.5368V14.5133C14.5619 14.3614 14.4387 14.2383 14.2869 14.2383Z" fill="white"/>
<path d="M11.9558 17.6005H8.76133C8.60945 17.6005 8.48633 17.7236 8.48633 17.8755V20.2487H12.2308V17.8755C12.2308 17.7236 12.1077 17.6005 11.9558 17.6005Z" fill="url(#paint6_linear_282_40148)"/>
</g>
<defs>
<linearGradient id="paint0_linear_282_40148" x1="15.5557" y1="13.2743" x2="20.6292" y2="13.2743" gradientUnits="userSpaceOnUse">
<stop stop-color="#FA7C55"/>
<stop offset="0.2" stop-color="#F75C4A"/>
<stop offset="0.65" stop-color="#F00B2E"/>
<stop offset="0.69" stop-color="#E5082A"/>
<stop offset="0.78" stop-color="#D20422"/>
<stop offset="0.87" stop-color="#C7011E"/>
<stop offset="0.97" stop-color="#C3001C"/>
</linearGradient>
<linearGradient id="paint1_linear_282_40148" x1="15.5552" y1="5.89731" x2="20.9322" y2="5.89731" gradientUnits="userSpaceOnUse">
<stop stop-color="#07245C"/>
<stop offset="1" stop-color="#185EC4"/>
</linearGradient>
<linearGradient id="paint2_linear_282_40148" x1="4.57868" y1="4.87005" x2="20.1176" y2="4.87005" gradientUnits="userSpaceOnUse">
<stop stop-color="#FA7C55"/>
<stop offset="0.2" stop-color="#F75C4A"/>
<stop offset="0.65" stop-color="#F00B2E"/>
<stop offset="0.69" stop-color="#E5082A"/>
<stop offset="0.78" stop-color="#D20422"/>
<stop offset="0.87" stop-color="#C7011E"/>
<stop offset="0.97" stop-color="#C3001C"/>
</linearGradient>
<linearGradient id="paint3_linear_282_40148" x1="5.16016" y1="13.2743" x2="15.5591" y2="13.2743" gradientUnits="userSpaceOnUse">
<stop stop-color="#C9021F"/>
<stop offset="1" stop-color="#FA7954"/>
</linearGradient>
<linearGradient id="paint4_linear_282_40148" x1="5.65918" y1="4.87144" x2="15.5605" y2="4.87144" gradientUnits="userSpaceOnUse">
<stop stop-color="#07245C"/>
<stop offset="1" stop-color="#185EC4"/>
</linearGradient>
<linearGradient id="paint5_linear_282_40148" x1="4.84668" y1="5.89708" x2="15.5573" y2="5.89708" gradientUnits="userSpaceOnUse">
<stop stop-color="#FA7C55"/>
<stop offset="0.2" stop-color="#F75C4A"/>
<stop offset="0.65" stop-color="#F00B2E"/>
<stop offset="0.69" stop-color="#E5082A"/>
<stop offset="0.78" stop-color="#D20422"/>
<stop offset="0.87" stop-color="#C7011E"/>
<stop offset="0.97" stop-color="#C3001C"/>
</linearGradient>
<linearGradient id="paint6_linear_282_40148" x1="8.48633" y1="18.9243" x2="12.2308" y2="18.9243" gradientUnits="userSpaceOnUse">
<stop stop-color="#082761"/>
<stop offset="0.97" stop-color="#175ABD"/>
</linearGradient>
<clipPath id="clip0_282_40148">
<rect width="16.5517" height="16" fill="white" transform="translate(4.47852 4.24965)"/>
</clipPath>
</defs>
</svg>
