<svg width="25" height="24" viewBox="0 0 25 24" fill="none" xmlns="http://www.w3.org/2000/svg">
<path fill-rule="evenodd" clip-rule="evenodd" d="M6.92214 9.75H7.1V13.8C7.1 13.8451 7.10031 13.8941 7.10064 13.9463C7.10337 14.3801 7.10753 15.0403 6.94833 15.6088C6.89979 15.7822 6.8332 15.9591 6.74015 16.1256C6.86535 16.1712 6.99303 16.2129 7.12297 16.2507C8.07767 16.5278 8.9 15.6941 8.9 14.7V9.3C8.9 8.45625 8.30761 7.72807 7.5447 7.69654C8.32486 5.98762 10.0487 4.8 12.05 4.8H12.95C14.9513 4.8 16.6751 5.98762 17.4553 7.69654C16.6924 7.72807 16.1 8.45625 16.1 9.3L16.1 14.7C16.1 15.3661 16.4692 15.9602 17 16.1963V16.5C17 16.9971 16.5971 17.4 16.1 17.4H15.6502C15.2397 16.8535 14.5861 16.5 13.85 16.5H11.15C9.90736 16.5 8.9 17.5074 8.9 18.75C8.9 19.9926 9.90736 21 11.15 21H13.85C14.9385 21 15.8465 20.227 16.055 19.2H16.1C17.5912 19.2 18.8 17.9912 18.8 16.5V15.898C20.4141 15.1199 21.5 13.6656 21.5 12C21.5 10.6265 20.7615 9.39666 19.5974 8.57125C19.0399 5.40531 16.2758 3 12.95 3H12.05C8.72418 3 5.96014 5.40531 5.40257 8.57125C4.23846 9.39666 3.5 10.6265 3.5 12C3.5 13.5657 4.45954 14.9446 5.91532 15.7507C5.9814 15.6518 6.03739 15.5243 6.08167 15.3662C6.20415 14.9287 6.20213 14.4029 6.2004 13.9527C6.2002 13.9007 6.2 13.8497 6.2 13.8V13.7743C5.59942 13.2562 5.3 12.6005 5.3 12C5.3 11.194 5.83932 10.2888 6.92214 9.75ZM13.85 18.3C14.0985 18.3 14.3 18.5015 14.3 18.75C14.3 18.9985 14.0985 19.2 13.85 19.2H11.15C10.9015 19.2 10.7 18.9985 10.7 18.75C10.7 18.5015 10.9015 18.3 11.15 18.3H13.85ZM17.9 14.333L17.9 9.75H18.0779C19.1607 10.2888 19.7 11.194 19.7 12C19.7 12.849 19.1016 13.808 17.9 14.333ZM7.1 14.6992C7.0991 14.7036 7.1 14.7033 7.1 14.6992V14.6992Z" fill="#757F90"/>
</svg>
