<svg width="101" height="100" viewBox="0 0 101 100" fill="none" xmlns="http://www.w3.org/2000/svg">
<path d="M55.3028 91.0304C53.6595 92.5925 51.6719 92.3895 49.5199 91.499L46.875 58.9598L52.65 58.4912L55.3028 91.0304Z" fill="url(#paint0_linear_3116_116381)"/>
<path d="M43.5336 8.69824L40.9121 11.3226L77.0726 62.1544L79.6784 59.5378L43.5336 8.69824Z" fill="#AD2015"/>
<path d="M40.1452 12.4012L16.4738 62.2644C16.2022 62.8346 16.0859 63.4661 16.1366 64.0953C16.1873 64.7246 16.4032 65.3295 16.7626 65.8489C17.122 66.3684 17.6122 66.7842 18.1838 67.0544C18.7554 67.3247 19.3883 67.4398 20.0186 67.3882L75.124 62.9205C75.7537 62.8692 76.3588 62.6534 76.8784 62.2948C77.398 61.9361 77.814 61.4473 78.0844 60.8774C78.3548 60.3075 78.4702 59.6766 78.4189 59.0481C78.3677 58.4196 78.1516 57.8156 77.7924 57.2969L46.4054 11.8935C46.0485 11.3635 45.5566 10.938 44.9802 10.6608C44.4039 10.3836 43.7639 10.2648 43.1262 10.3165C42.4886 10.3682 41.8762 10.5886 41.3523 10.955C40.8283 11.3215 40.4116 11.8207 40.1452 12.4012Z" fill="#C6710C"/>
<path d="M42.6493 9.87028L19.0171 59.7413C18.745 60.3121 18.6287 60.9444 18.6797 61.5744C18.7307 62.2044 18.9473 62.8098 19.3077 63.3295C19.668 63.8493 20.1594 64.2649 20.7321 64.5345C21.3049 64.8041 21.9387 64.9182 22.5698 64.8651L77.6282 60.4208C78.2587 60.3693 78.8645 60.1532 79.3849 59.7942C79.9053 59.4351 80.322 58.9458 80.5931 58.3753C80.8642 57.8048 80.9803 57.1732 80.9296 56.5438C80.8789 55.9144 80.6633 55.3093 80.3044 54.7894L48.8704 9.3704C48.5119 8.84973 48.0222 8.43261 47.4506 8.16113C46.8791 7.88965 46.2459 7.77339 45.615 7.82409C44.9841 7.87478 44.3777 8.09064 43.857 8.44989C43.3363 8.80913 42.9198 9.29907 42.6493 9.87028Z" fill="#F9A12D"/>
<path d="M74.2001 58.3125L25.574 62.2178C25.0279 62.2602 24.4802 62.1588 23.9857 61.9238C23.4912 61.6888 23.0671 61.3283 22.7558 60.8785C22.4445 60.4286 22.2569 59.9051 22.2118 59.3603C22.1667 58.8154 22.2656 58.2683 22.4987 57.7735L43.3921 13.7761C43.6345 13.2926 43.9984 12.8801 44.4483 12.579C44.8983 12.278 45.4188 12.0986 45.959 12.0584C46.4992 12.0183 47.0405 12.1188 47.5302 12.35C48.0198 12.5813 48.4409 12.9354 48.7524 13.3778L76.5164 53.4308C76.8273 53.8837 77.0132 54.4104 77.0553 54.9578C77.0974 55.5052 76.9943 56.054 76.7563 56.549C76.5182 57.0439 76.1538 57.4675 75.6995 57.7771C75.2453 58.0867 74.7173 58.2714 74.1688 58.3125H74.2001ZM44.8398 14.4791L23.915 58.4843C23.7979 58.7337 23.7489 59.0096 23.7731 59.2841C23.7972 59.5585 23.8936 59.8216 24.0525 60.0469C24.2114 60.2721 24.4272 60.4514 24.6779 60.5665C24.9286 60.6817 25.2054 60.7286 25.4801 60.7025L74.1062 56.7972C74.3778 56.7725 74.6382 56.6774 74.8617 56.5213C75.0851 56.3652 75.2638 56.1536 75.38 55.9073C75.4963 55.6611 75.546 55.3888 75.5244 55.1174C75.5027 54.8461 75.4104 54.5851 75.2565 54.3603L47.4925 14.2604C47.3358 14.0372 47.1234 13.8588 46.8763 13.7429C46.6291 13.627 46.3559 13.5776 46.0838 13.5998C45.8116 13.6219 45.55 13.7147 45.3249 13.8689C45.0998 14.0232 44.9191 14.2335 44.8006 14.4791H44.8398Z" fill="url(#paint1_linear_3116_116381)"/>
<path d="M47.54 54.8447C46.8925 54.2139 46.4955 53.3707 46.4222 52.4706C46.3488 51.5705 46.6041 50.6743 47.1409 49.9474C47.432 49.6069 47.7913 49.331 48.1956 49.1373C48.5999 48.9436 49.0403 48.8364 49.4885 48.8227C49.9203 48.7762 50.357 48.8219 50.7698 48.9565C51.1826 49.0912 51.562 49.3118 51.883 49.6037C52.5419 50.2104 52.933 51.053 52.9707 51.9469C53.0849 52.8457 52.8373 53.753 52.2821 54.4698C52.0061 54.7996 51.6649 55.069 51.2798 55.2611C50.8947 55.4533 50.474 55.5641 50.0441 55.5867C49.598 55.6433 49.1449 55.6065 48.7138 55.4787C48.2827 55.351 47.8829 55.1351 47.54 54.8447ZM46.8436 41.6759L44.5586 24.016C45.298 23.604 46.123 23.3688 46.9688 23.3287C47.3876 23.2731 47.8135 23.307 48.2183 23.4282C48.623 23.5494 48.9973 23.7551 49.3163 24.0316C49.6546 24.3739 49.9183 24.7824 50.0907 25.2314C50.263 25.6804 50.3404 26.1601 50.318 26.6404L50.9518 44.3628C50.8213 44.5415 50.6495 44.6862 50.451 44.7845C50.275 44.8874 50.0812 44.9562 49.8798 44.9876C48.1269 45.1282 47.1253 44.0191 46.8436 41.6759Z" fill="black"/>
<path d="M57.1967 51.4849C57.6678 51.4849 58.0497 51.1038 58.0497 50.6336C58.0497 50.1634 57.6678 49.7822 57.1967 49.7822C56.7256 49.7822 56.3438 50.1634 56.3438 50.6336C56.3438 51.1038 56.7256 51.4849 57.1967 51.4849Z" fill="#C6710C"/>
<path d="M41.6459 53.1881C42.117 53.1881 42.4989 52.8069 42.4989 52.3367C42.4989 51.8665 42.117 51.4854 41.6459 51.4854C41.1748 51.4854 40.793 51.8665 40.793 52.3367C40.793 52.8069 41.1748 53.1881 41.6459 53.1881Z" fill="#C6710C"/>
<path d="M40.2944 36.5514C40.7654 36.5514 41.1473 36.1702 41.1473 35.7C41.1473 35.2298 40.7654 34.8486 40.2944 34.8486C39.8233 34.8486 39.4414 35.2298 39.4414 35.7C39.4414 36.1702 39.8233 36.5514 40.2944 36.5514Z" fill="#C6710C"/>
<path d="M55.8354 34.8414C56.3065 34.8414 56.6883 34.4602 56.6883 33.99C56.6883 33.5198 56.3065 33.1387 55.8354 33.1387C55.3643 33.1387 54.9824 33.5198 54.9824 33.99C54.9824 34.4602 55.3643 34.8414 55.8354 34.8414Z" fill="#C6710C"/>
<path d="M70.5293 29.8503L80.9604 20.3525L83.3079 25.5857L70.5293 29.8503Z" fill="#F9A12D"/>
<path d="M69.7715 32.5684H84.8742L83.3092 38.153L69.7715 32.5684Z" fill="#F9A12D"/>
<path d="M68.4727 28.0457L76.2744 16.4234L69.0204 14.7676L68.4727 28.0457Z" fill="#F9A12D"/>
<defs>
<linearGradient id="paint0_linear_3116_116381" x1="52.5483" y1="93.7563" x2="49.9755" y2="60.5993" gradientUnits="userSpaceOnUse">
<stop stop-color="#606060"/>
<stop offset="0.3" stop-color="#5D5D5D"/>
<stop offset="0.52" stop-color="#545454"/>
<stop offset="0.71" stop-color="#454544"/>
<stop offset="0.89" stop-color="#2F2F2D"/>
<stop offset="1" stop-color="#1D1D1B"/>
</linearGradient>
<linearGradient id="paint1_linear_3116_116381" x1="22.1935" y1="37.1456" x2="77.072" y2="37.1456" gradientUnits="userSpaceOnUse">
<stop stop-color="#F39B2D"/>
<stop offset="0.01" stop-color="#F3972D"/>
<stop offset="0.08" stop-color="#EF722D"/>
<stop offset="0.16" stop-color="#EC542E"/>
<stop offset="0.24" stop-color="#E93C2E"/>
<stop offset="0.33" stop-color="#E72B2E"/>
<stop offset="0.43" stop-color="#E6212E"/>
<stop offset="0.55" stop-color="#E61E2E"/>
<stop offset="0.81" stop-color="#B22027"/>
</linearGradient>
</defs>
</svg>
