<svg width="24" height="24" viewBox="0 0 24 24" fill="none" xmlns="http://www.w3.org/2000/svg">
<path fill-rule="evenodd" clip-rule="evenodd" d="M7 4C7 3.44772 7.44772 3 8 3H16C16.5523 3 17 3.44772 17 4C17 4.55228 16.5523 5 16 5H8C7.44772 5 7 4.55228 7 4ZM10 10C9.44772 10 9 10.4477 9 11V16C9 16.5523 9.44772 17 10 17C10.5523 17 11 16.5523 11 16V11C11 10.4477 10.5523 10 10 10ZM14 10C13.4477 10 13 10.4477 13 11V16C13 16.5523 13.4477 17 14 17C14.5523 17 15 16.5523 15 16V11C15 10.4477 14.5523 10 14 10ZM4 6C3.44772 6 3 6.44772 3 7C3 7.55228 3.44772 8 4 8H5V16C5 16.2543 5.07581 16.3966 5.1733 16.5025C5.29031 16.6296 5.4936 16.7589 5.80909 16.8615C6.17134 16.9792 6.595 17.0338 7 17.0461V8H17V18C17 18.5523 16.5523 19 16 19H8.05965C7.30783 19.0864 6.18387 19.0862 5.19091 18.7635C5.15713 18.7526 5.12322 18.7411 5.08924 18.7292C5.41497 20.0337 6.59464 21 8 21H16C17.6569 21 19 19.6569 19 18V8H20C20.5523 8 21 7.55228 21 7C21 6.44772 20.5523 6 20 6H19H5H4Z" fill="#181C21"/>
</svg>
