<svg width="24" height="24" viewBox="0 0 24 24" fill="none" xmlns="http://www.w3.org/2000/svg">
<path fill-rule="evenodd" clip-rule="evenodd" d="M2 7C2 5.34315 3.34315 4 5 4H9.53518L12.2019 8L10.2377 10.9463L12.2377 13.4463L10.2377 16.4463L13.0806 20H5C3.34315 20 2 18.6569 2 17V7ZM5 6C4.44772 6 4 6.44772 4 7V17C4 17.5523 4.44772 18 5 18H8.91937L7.76234 16.5537L9.76234 13.5537L7.76234 11.0537L9.79815 8L8.46482 6H5Z" fill="#757F90"/>
<path fill-rule="evenodd" clip-rule="evenodd" d="M19.0004 4H11.1318L13.7985 8L11.7627 11.0537L13.7627 13.5537L11.7627 16.5537L14.5197 20H19.0004C20.6572 20 22.0004 18.6569 22.0004 17V8.19572C21.7365 7.9803 21.3867 7.78154 20.9884 7.60866C20.6649 7.46822 20.3259 7.35183 20.0004 7.25975V17C20.0004 17.5523 19.5526 18 19.0004 18H15.481L14.238 16.4463L16.238 13.4463L14.238 10.9463L16.2022 8L14.8689 6H18.5H19.0004C19.7677 6 20.6993 6.39301 21.3866 6.69134C21.5949 6.78176 21.802 6.88274 22.0003 6.99482C21.9976 5.34035 20.6555 4 19.0004 4Z" fill="#757F90"/>
</svg>
