<svg width="17" height="16" viewBox="0 0 17 16" fill="none" xmlns="http://www.w3.org/2000/svg">
<path d="M5.16797 2.66668C4.79978 2.66668 4.5013 2.96515 4.5013 3.33334L4.5013 12C3.76492 12 3.16797 11.4031 3.16797 10.6667V2.66668C3.16797 1.9303 3.76492 1.33334 4.5013 1.33334H9.83463C10.571 1.33334 11.168 1.9303 11.168 2.66668H5.16797Z" fill="white"/>
<path d="M12.5013 6.00001C12.5013 5.63182 12.2028 5.33334 11.8346 5.33334H7.83464C7.46645 5.33334 7.16797 5.63182 7.16797 6.00001V12.3333C6.90962 12.3099 6.65873 12.262 6.44154 12.1642C6.25722 12.0813 6.11828 11.9704 6.02065 11.8183C5.92248 11.6654 5.83464 11.4218 5.83464 11.0222L5.83464 5.33334C5.83464 4.59696 6.43159 4.00001 7.16797 4.00001H12.5013C13.2377 4.00001 13.8346 4.59696 13.8346 5.33334V13.3333C13.8346 14.0697 13.2377 14.6667 12.5013 14.6667H7.16797C6.43159 14.6667 5.83464 14.0697 5.83464 13.3333V12.9968C5.85452 13.0064 5.87444 13.0156 5.89439 13.0246C6.58209 13.3341 7.36965 13.3336 7.79922 13.3334L11.8346 13.3333C12.2028 13.3333 12.5013 13.0349 12.5013 12.6667V6.00001Z" fill="white"/>
</svg>
