<svg width="24" height="24" viewBox="0 0 24 24" fill="none" xmlns="http://www.w3.org/2000/svg">
<path fill-rule="evenodd" clip-rule="evenodd" d="M12.0017 2C12.554 2 13.0017 2.44772 13.0017 3V4.07088C16.3941 4.55607 19.0018 7.4735 19.0018 11C19.0018 11.7507 19.0815 13.0386 19.2426 14.2143C19.3231 14.8023 19.4206 15.3361 19.5306 15.7486C19.5857 15.9552 19.6387 16.1116 19.6856 16.2203C19.7104 16.2777 19.7276 16.3079 19.7341 16.319C19.9998 16.6047 20.0758 17.0202 19.9257 17.3827C19.7709 17.7564 19.4063 18 19.0018 18H15.9972C15.9508 19.0224 15.5496 20.0032 14.8526 20.7467C14.1082 21.5407 13.0842 22 12.0017 22C10.9193 22 9.8953 21.5407 9.15088 20.7467C8.45384 20.0032 8.05267 19.0224 8.00627 18H5.00183C4.51137 18 4.0933 17.6443 4.01474 17.1602C3.94184 16.7109 4.15018 16.394 4.4017 16C4.47587 15.8838 4.81546 15.3961 4.81546 15.3961C5.4292 15.7602 6.10856 15.9761 6.73052 15.9981L6.73008 16H17.532C17.4226 15.5355 17.3332 15.0121 17.2611 14.4857C17.0888 13.2281 17.0018 11.8493 17.0018 11C17.0018 8.23858 14.7632 6 12.0018 6C9.2404 6 7.00183 8.23858 7.00183 11C7.00183 11.1479 7.00412 11.331 7.00675 11.5403C7.0165 12.3174 7.03816 13.7963 6.95609 14.8324C6.95587 14.8353 6.95564 14.8381 6.95541 14.841H6.84246C6.37999 14.841 5.71314 14.6099 5.15944 14.1427C5.10499 14.0968 5.05234 14.0492 5.00171 14C5.03056 13.2783 5.01441 12.2172 5.00721 11.626C5.0044 11.3952 5.00183 11.184 5.00183 11C5.00183 7.47356 7.60949 4.55617 11.0017 4.0709V3C11.0017 2.44772 11.4494 2 12.0017 2ZM13.9935 18C13.9496 18.5278 13.7337 19.0159 13.3935 19.3788C13.0127 19.785 12.5106 20 12.0017 20C11.4929 20 10.9907 19.785 10.61 19.3788C10.2697 19.0159 10.0539 18.5278 10.01 18H13.9935Z" fill="#B90024"/>
<path fill-rule="evenodd" clip-rule="evenodd" d="M12.0017 2C12.554 2 13.0017 2.44772 13.0017 3V4.07088C16.3941 4.55607 19.0018 7.4735 19.0018 11C19.0018 11.7507 19.0815 13.0386 19.2426 14.2143C19.3231 14.8023 19.4206 15.3361 19.5306 15.7486C19.5857 15.9552 19.6387 16.1116 19.6856 16.2203C19.7104 16.2777 19.7276 16.3079 19.7341 16.319C19.9998 16.6047 20.0758 17.0202 19.9257 17.3827C19.7709 17.7564 19.4063 18 19.0018 18H15.9972C15.9508 19.0224 15.5496 20.0032 14.8526 20.7467C14.1082 21.5407 13.0842 22 12.0017 22C10.9193 22 9.8953 21.5407 9.15088 20.7467C8.45384 20.0032 8.05267 19.0224 8.00627 18H5.00183C4.51137 18 4.0933 17.6443 4.01474 17.1602C3.94184 16.7109 4.15018 16.394 4.4017 16C4.47587 15.8838 4.81546 15.3961 4.81546 15.3961C5.4292 15.7602 6.10856 15.9761 6.73052 15.9981L6.73008 16H17.532C17.4226 15.5355 17.3332 15.0121 17.2611 14.4857C17.0888 13.2281 17.0018 11.8493 17.0018 11C17.0018 8.23858 14.7632 6 12.0018 6C9.2404 6 7.00183 8.23858 7.00183 11C7.00183 11.1479 7.00412 11.331 7.00675 11.5403C7.0165 12.3174 7.03816 13.7963 6.95609 14.8324C6.95587 14.8353 6.95564 14.8381 6.95541 14.841H6.84246C6.37999 14.841 5.71314 14.6099 5.15944 14.1427C5.10499 14.0968 5.05234 14.0492 5.00171 14C5.03056 13.2783 5.01441 12.2172 5.00721 11.626C5.0044 11.3952 5.00183 11.184 5.00183 11C5.00183 7.47356 7.60949 4.55617 11.0017 4.0709V3C11.0017 2.44772 11.4494 2 12.0017 2ZM13.9935 18C13.9496 18.5278 13.7337 19.0159 13.3935 19.3788C13.0127 19.785 12.5106 20 12.0017 20C11.4929 20 10.9907 19.785 10.61 19.3788C10.2697 19.0159 10.0539 18.5278 10.01 18H13.9935Z" fill="url(#paint0_linear_12961_88982)"/>
<defs>
<linearGradient id="paint0_linear_12961_88982" x1="5.49421" y1="21.3438" x2="33.5125" y2="15.8079" gradientUnits="userSpaceOnUse">
<stop offset="0.105709" stop-color="#ED0226"/>
<stop offset="1" stop-color="#FDA22B"/>
</linearGradient>
</defs>
</svg>
