<svg width="16" height="16" viewBox="0 0 16 16" fill="none" xmlns="http://www.w3.org/2000/svg">
<g id="System / ico_info">
<path id="Ellipse 1350 (Stroke)" fill-rule="evenodd" clip-rule="evenodd" d="M8.00004 2.81498C5.13634 2.81498 2.81486 5.13646 2.81486 8.00016C2.81486 10.8639 5.13634 13.1853 8.00004 13.1853C10.8637 13.1853 13.1852 10.8639 13.1852 8.00016C13.1852 5.13646 10.8637 2.81498 8.00004 2.81498ZM1.33337 8.00016C1.33337 4.31826 4.31814 1.3335 8.00004 1.3335C11.6819 1.3335 14.6667 4.31826 14.6667 8.00016C14.6667 11.6821 11.6819 14.6668 8.00004 14.6668C4.31814 14.6668 1.33337 11.6821 1.33337 8.00016Z" fill="white"/>
<path id="Ellipse 1351" d="M8.66671 5.33317C8.66671 5.70136 8.36823 5.99984 8.00004 5.99984C7.63185 5.99984 7.33337 5.70136 7.33337 5.33317C7.33337 4.96498 7.63185 4.6665 8.00004 4.6665C8.36823 4.6665 8.66671 4.96498 8.66671 5.33317Z" fill="white"/>
<path id="Union" fill-rule="evenodd" clip-rule="evenodd" d="M6.66663 7.33317C6.66663 6.96498 6.9651 6.6665 7.33329 6.6665H7.99996C8.36815 6.6665 8.66663 6.96498 8.66663 7.33317L8.66663 9.99984C9.03482 9.99984 9.33329 10.2983 9.33329 10.6665C9.33329 11.0347 9.03482 11.3332 8.66663 11.3332H7.99996C7.63177 11.3332 7.33329 11.0347 7.33329 10.6665V7.99984C6.9651 7.99984 6.66663 7.70136 6.66663 7.33317Z" fill="white"/>
</g>
</svg>
