<svg width="24" height="24" viewBox="0 0 24 24" fill="none" xmlns="http://www.w3.org/2000/svg">
<path fill-rule="evenodd" clip-rule="evenodd" d="M19.2 6.6C19.2 7.59411 18.3941 8.4 17.4 8.4C16.4059 8.4 15.6 7.59411 15.6 6.6C15.6 5.60589 16.4059 4.8 17.4 4.8C18.3941 4.8 19.2 5.60589 19.2 6.6ZM21 6.6C21 8.58822 19.3882 10.2 17.4 10.2C16.4012 10.2 15.4974 9.79323 14.8452 9.13631L10.1829 11.6468C10.1942 11.763 10.2 11.8808 10.2 12C10.2 12.1364 10.1924 12.271 10.1776 12.4034L14.4909 15.2789C15.1457 14.3824 16.2048 13.8 17.4 13.8C19.3882 13.8 21 15.4118 21 17.4C21 19.3882 19.3882 21 17.4 21C15.4118 21 13.8 19.3882 13.8 17.4C13.8 17.2636 13.8076 17.129 13.8224 16.9966L9.69178 14.2429C9.38175 13.7861 9.07115 13.3925 8.736 13.0808C8.58232 12.9378 8.42333 12.8118 8.25733 12.7035C8.34918 12.4874 8.4 12.2496 8.4 12C8.4 11.0059 7.59411 10.2 6.6 10.2C5.60589 10.2 4.8 11.0059 4.8 12C4.8 12.9941 5.60589 13.8 6.6 13.8C6.82306 13.8 7.03664 13.7594 7.23376 13.6853C7.43808 13.7656 7.62558 13.8916 7.8165 14.0692C8.06036 14.2961 8.30479 14.6025 8.57907 15.0077C8.01122 15.3821 7.33106 15.6 6.6 15.6C4.61177 15.6 3 13.9882 3 12C3 10.0118 4.61177 8.4 6.6 8.4C7.82266 8.4 8.90295 9.00951 9.55362 9.94126L13.9355 7.58178C13.8472 7.26968 13.8 6.94036 13.8 6.6C13.8 4.61177 15.4118 3 17.4 3C19.3882 3 21 4.61177 21 6.6ZM17.4 19.2C18.3941 19.2 19.2 18.3941 19.2 17.4C19.2 16.4059 18.3941 15.6 17.4 15.6C16.4059 15.6 15.6 16.4059 15.6 17.4C15.6 18.3941 16.4059 19.2 17.4 19.2Z" fill="#181C21"/>
</svg>
