<svg width="16" height="16" viewBox="0 0 16 16" fill="none" xmlns="http://www.w3.org/2000/svg">
<path d="M4.66732 11.333L6.80065 6.79967L11.334 4.66634L9.20065 9.19967L4.66732 11.333ZM8.00065 7.39967C7.84152 7.39967 7.68891 7.46289 7.57639 7.57541C7.46387 7.68793 7.40065 7.84054 7.40065 7.99967C7.40065 8.1588 7.46387 8.31142 7.57639 8.42394C7.68891 8.53646 7.84152 8.59967 8.00065 8.59967C8.15978 8.59967 8.31239 8.53646 8.42492 8.42394C8.53744 8.31142 8.60065 8.1588 8.60065 7.99967C8.60065 7.84054 8.53744 7.68793 8.42492 7.57541C8.31239 7.46289 8.15978 7.39967 8.00065 7.39967ZM8.00065 1.33301C8.87613 1.33301 9.74304 1.50545 10.5519 1.84048C11.3607 2.17551 12.0956 2.66657 12.7147 3.28563C13.3338 3.90469 13.8248 4.63961 14.1598 5.44845C14.4949 6.25729 14.6673 7.1242 14.6673 7.99967C14.6673 9.76779 13.9649 11.4635 12.7147 12.7137C11.4645 13.964 9.76876 14.6663 8.00065 14.6663C7.12517 14.6663 6.25827 14.4939 5.44943 14.1589C4.64059 13.8238 3.90566 13.3328 3.28661 12.7137C2.03636 11.4635 1.33398 9.76779 1.33398 7.99967C1.33398 6.23156 2.03636 4.53587 3.28661 3.28563C4.53685 2.03539 6.23254 1.33301 8.00065 1.33301ZM8.00065 2.66634C6.58616 2.66634 5.22961 3.22824 4.22941 4.22844C3.22922 5.22863 2.66732 6.58519 2.66732 7.99967C2.66732 9.41416 3.22922 10.7707 4.22941 11.7709C5.22961 12.7711 6.58616 13.333 8.00065 13.333C9.41514 13.333 10.7717 12.7711 11.7719 11.7709C12.7721 10.7707 13.334 9.41416 13.334 7.99967C13.334 6.58519 12.7721 5.22863 11.7719 4.22844C10.7717 3.22824 9.41514 2.66634 8.00065 2.66634Z" fill="white"/>
</svg>
