<svg width="24" height="24" viewBox="0 0 24 24" fill="none" xmlns="http://www.w3.org/2000/svg">
<path fill-rule="evenodd" clip-rule="evenodd" d="M12 22C16.9706 22 22 18 22 12C22 6 16.9706 2 12 2C7.02944 2 2 6 2 12C2 18 7.02944 22 12 22ZM16.2364 7.7636C15.8849 7.41213 15.3151 7.41213 14.9636 7.7636L12 10.7272L9.0364 7.7636C8.68492 7.41213 8.11508 7.41213 7.7636 7.7636C7.41213 8.11508 7.41213 8.68492 7.7636 9.0364L10.7272 12L7.7636 14.9636C7.41213 15.3151 7.41213 15.8849 7.7636 16.2364C8.11508 16.5879 8.68492 16.5879 9.0364 16.2364L12 13.2728L14.9636 16.2364C15.3151 16.5879 15.8849 16.5879 16.2364 16.2364C16.5879 15.8849 16.5879 15.3151 16.2364 14.9636L13.2728 12L16.2364 9.0364C16.5879 8.68492 16.5879 8.11508 16.2364 7.7636Z" fill="#B3BAC6"/>
</svg>
