<svg width="25" height="24" viewBox="0 0 25 24" fill="none" xmlns="http://www.w3.org/2000/svg">
<path fill-rule="evenodd" clip-rule="evenodd" d="M19.7 6.6C19.7 7.59411 18.8941 8.4 17.9 8.4C16.9059 8.4 16.1 7.59411 16.1 6.6C16.1 5.60589 16.9059 4.8 17.9 4.8C18.8941 4.8 19.7 5.60589 19.7 6.6ZM21.5 6.6C21.5 8.58822 19.8882 10.2 17.9 10.2C16.9012 10.2 15.9974 9.79323 15.3452 9.13631L10.6829 11.6468C10.6942 11.763 10.7 11.8808 10.7 12C10.7 12.1364 10.6924 12.271 10.6776 12.4034L14.9909 15.2789C15.6457 14.3824 16.7048 13.8 17.9 13.8C19.8882 13.8 21.5 15.4118 21.5 17.4C21.5 19.3882 19.8882 21 17.9 21C15.9118 21 14.3 19.3882 14.3 17.4C14.3 17.2636 14.3076 17.129 14.3224 16.9966L10.1918 14.2429C9.88175 13.7861 9.57115 13.3925 9.236 13.0808C9.08232 12.9378 8.92333 12.8118 8.75733 12.7035C8.84918 12.4874 8.9 12.2496 8.9 12C8.9 11.0059 8.09411 10.2 7.1 10.2C6.10589 10.2 5.3 11.0059 5.3 12C5.3 12.9941 6.10589 13.8 7.1 13.8C7.32306 13.8 7.53664 13.7594 7.73376 13.6853C7.93808 13.7656 8.12558 13.8916 8.3165 14.0692C8.56036 14.2961 8.80479 14.6025 9.07907 15.0077C8.51122 15.3821 7.83106 15.6 7.1 15.6C5.11177 15.6 3.5 13.9882 3.5 12C3.5 10.0118 5.11177 8.4 7.1 8.4C8.32266 8.4 9.40295 9.00951 10.0536 9.94126L14.4355 7.58178C14.3472 7.26968 14.3 6.94036 14.3 6.6C14.3 4.61177 15.9118 3 17.9 3C19.8882 3 21.5 4.61177 21.5 6.6ZM17.9 19.2C18.8941 19.2 19.7 18.3941 19.7 17.4C19.7 16.4059 18.8941 15.6 17.9 15.6C16.9059 15.6 16.1 16.4059 16.1 17.4C16.1 18.3941 16.9059 19.2 17.9 19.2Z" fill="#757F90"/>
</svg>
