<svg width="24" height="24" viewBox="0 0 24 24" fill="none" xmlns="http://www.w3.org/2000/svg">
<path fill-rule="evenodd" clip-rule="evenodd" d="M15 5.03347C15 3.31271 13.0223 2.37269 11.7196 3.47429L7.63795 6.92602L6 6.92602C4.34315 6.92602 3 8.28904 3 9.97041V11.8854C3.1194 12.3349 3.45873 12.6183 4.06496 12.8047C4.36778 12.8978 4.69019 12.9497 5 12.9786V9.97041C5 9.40995 5.44772 8.95561 6 8.95561L8.36205 8.95561L13 5.03347V18.9665L8.36205 15.0444H6.00274L5.99995 15.0444L5.97249 15.0444C5.47456 15.0445 4.45286 15.0447 3.48494 14.7471C3.34229 14.7032 3.19661 14.6513 3.05077 14.5903C3.31009 16.0038 4.5319 17.074 6 17.074H7.63795L11.7196 20.5257C13.0223 21.6273 15 20.6873 15 18.9665V5.03347ZM18.4454 8.16793C18.9049 7.86158 19.5258 7.98576 19.8322 8.44528L19.9832 8.67178C21.3268 10.6872 21.3268 13.3128 19.9832 15.3282L19.8322 15.5547C19.5258 16.0142 18.9049 16.1384 18.4454 15.832C17.9859 15.5257 17.8617 14.9048 18.1681 14.4453L18.3191 14.2188C19.2148 12.8752 19.2148 11.1248 18.3191 9.78118L18.1681 9.55468C17.8617 9.09516 17.9859 8.47429 18.4454 8.16793ZM17.8944 10.5528C17.6474 10.0588 17.0467 9.85856 16.5528 10.1055C16.0588 10.3525 15.8586 10.9532 16.1055 11.4472L16.1583 11.5528C16.2991 11.8343 16.2991 12.1657 16.1583 12.4472L16.1055 12.5528C15.8586 13.0467 16.0588 13.6474 16.5528 13.8944C17.0467 14.1414 17.6474 13.9412 17.8944 13.4472L17.9472 13.3416C18.3695 12.497 18.3695 11.5029 17.9472 10.6583L17.8944 10.5528Z" fill="#181C21"/>
</svg>
