<svg width="21" height="20" viewBox="0 0 21 20" fill="none" xmlns="http://www.w3.org/2000/svg">
<path d="M11.4375 3.4375C11.4375 2.91973 11.0178 2.5 10.5 2.5C9.98223 2.5 9.5625 2.91973 9.5625 3.4375L9.5625 9.0625H3.9375C3.41973 9.0625 3 9.48223 3 10C3 10.5178 3.41973 10.9375 3.9375 10.9375H9.5625L9.5625 16.5625C9.5625 17.0803 9.98223 17.5 10.5 17.5C11.0178 17.5 11.4375 17.0803 11.4375 16.5625V10.9375H17.0625C17.5803 10.9375 18 10.5178 18 10C18 9.48223 17.5803 9.0625 17.0625 9.0625H11.4375V3.4375Z" fill="#ED0226"/>
</svg>
    