<svg width="24" height="25" viewBox="0 0 24 25" fill="none" xmlns="http://www.w3.org/2000/svg">
<path d="M13.125 4.625C13.125 4.00368 12.6213 3.5 12 3.5C11.3787 3.5 10.875 4.00368 10.875 4.625L10.875 11.375H4.125C3.50368 11.375 3 11.8787 3 12.5C3 13.1213 3.50368 13.625 4.125 13.625H10.875L10.875 20.375C10.875 20.9963 11.3787 21.5 12 21.5C12.6213 21.5 13.125 20.9963 13.125 20.375V13.625H19.875C20.4963 13.625 21 13.1213 21 12.5C21 11.8787 20.4963 11.375 19.875 11.375H13.125V4.625Z" fill="#181C21"/>
</svg>
