<svg width="16" height="16" viewBox="0 0 16 16" fill="none" xmlns="http://www.w3.org/2000/svg">
<path d="M3.89809 1.3335C2.91627 1.3335 2.33066 2.52036 2.87527 3.40643L5.82283 8.20201V11.8439C5.89667 11.9867 5.96738 12.0545 6.01747 12.0874C6.08654 12.1329 6.17939 12.154 6.32769 12.1256C6.48316 12.0959 6.66336 12.0179 6.86448 11.9071C6.9321 11.8698 6.99345 11.834 7.05211 11.7988V8.20201C7.05211 7.93878 6.98027 7.68143 6.84565 7.46241L3.89809 2.66683L12.1021 2.66683L9.15451 7.46241C9.01989 7.68144 8.94805 7.93878 8.94805 8.20201V11.9071L7.46972 12.695C7.41075 12.73 7.3515 12.7642 7.29488 12.7955C7.22581 12.8335 7.1524 12.872 7.07554 12.9088L7.05211 12.9215V12.9199C6.87907 13.001 6.68935 13.0724 6.49306 13.1099C6.28388 13.1499 6.05268 13.1538 5.82283 13.0809V14.0002C5.82283 14.2312 5.93313 14.4458 6.11433 14.5673C6.29554 14.6887 6.52181 14.6998 6.71234 14.5964L8.83114 13.4474C9.2476 13.2215 10.1773 12.7598 10.1773 12.2548V8.20201L13.1249 3.40643C13.6695 2.52036 13.0839 1.3335 12.1021 1.3335H3.89809Z" fill="#181C21"/>
</svg>
