<svg width="24" height="24" viewBox="0 0 24 24" fill="none" xmlns="http://www.w3.org/2000/svg">
<path fill-rule="evenodd" clip-rule="evenodd" d="M17.625 3H6.375C4.51062 3 3 4.51062 3 6.375V17.625C3 19.4894 4.51062 21 6.375 21H17.625C19.4894 21 21 19.4894 21 17.625V8.11768C20.8894 7.74533 20.5218 7.43048 19.6728 7.22085C19.4558 7.16728 19.2295 7.1267 19 7.09596V12.1857L16.9329 10.2785C16.2287 9.57537 15.4522 9.43475 14.3819 10.2785C13.6262 10.8742 13.3342 11.1948 13.0217 11.538L13.0217 11.538L13.0217 11.538C12.8915 11.6809 12.7578 11.8278 12.5856 12C12.5584 12.0271 12.5066 12.0742 12.4413 12.1335C12.1857 12.3656 11.7229 12.7859 11.7188 12.9394L9.90162 11.1222C9.1974 10.4191 8.05592 10.4191 7.3506 11.1222L5 13.5L4.94551 6.375C4.94551 5.75318 5.75318 5 6.375 5H17.0671H17.0762H17.625C17.6443 5 17.6636 5.00154 17.6827 5.00447C18.3965 5.01778 19.3073 5.07053 20.1522 5.27916C20.3896 5.33777 20.6394 5.41352 20.8887 5.51176C20.5074 4.06578 19.191 3 17.625 3ZM17.5 19L13.1715 14.3437L15.6562 12.1857L19 15.5V17.625C19 17.8731 18.7459 18.112 18.539 18.3067L18.539 18.3067C18.4966 18.3466 18.4562 18.3846 18.4204 18.4204C18.3846 18.4562 18.3466 18.4966 18.3067 18.539L18.3067 18.539C18.112 18.746 17.8731 19 17.625 19H17.5ZM5 17.625V16.5L8.625 13.0294L14.5 19H6.375C5.75318 19 5 18.2468 5 17.625ZM13 8.5C13 10.5 10 10.5 10 8.5C10 6.5 13 6.5 13 8.5Z" fill="#B90024"/>
<path fill-rule="evenodd" clip-rule="evenodd" d="M17.625 3H6.375C4.51062 3 3 4.51062 3 6.375V17.625C3 19.4894 4.51062 21 6.375 21H17.625C19.4894 21 21 19.4894 21 17.625V8.11768C20.8894 7.74533 20.5218 7.43048 19.6728 7.22085C19.4558 7.16728 19.2295 7.1267 19 7.09596V12.1857L16.9329 10.2785C16.2287 9.57537 15.4522 9.43475 14.3819 10.2785C13.6262 10.8742 13.3342 11.1948 13.0217 11.538L13.0217 11.538L13.0217 11.538C12.8915 11.6809 12.7578 11.8278 12.5856 12C12.5584 12.0271 12.5066 12.0742 12.4413 12.1335C12.1857 12.3656 11.7229 12.7859 11.7188 12.9394L9.90162 11.1222C9.1974 10.4191 8.05592 10.4191 7.3506 11.1222L5 13.5L4.94551 6.375C4.94551 5.75318 5.75318 5 6.375 5H17.0671H17.0762H17.625C17.6443 5 17.6636 5.00154 17.6827 5.00447C18.3965 5.01778 19.3073 5.07053 20.1522 5.27916C20.3896 5.33777 20.6394 5.41352 20.8887 5.51176C20.5074 4.06578 19.191 3 17.625 3ZM17.5 19L13.1715 14.3437L15.6562 12.1857L19 15.5V17.625C19 17.8731 18.7459 18.112 18.539 18.3067L18.539 18.3067C18.4966 18.3466 18.4562 18.3846 18.4204 18.4204C18.3846 18.4562 18.3466 18.4966 18.3067 18.539L18.3067 18.539C18.112 18.746 17.8731 19 17.625 19H17.5ZM5 17.625V16.5L8.625 13.0294L14.5 19H6.375C5.75318 19 5 18.2468 5 17.625ZM13 8.5C13 10.5 10 10.5 10 8.5C10 6.5 13 6.5 13 8.5Z" fill="url(#paint0_linear_12961_104275)"/>
<defs>
<linearGradient id="paint0_linear_12961_104275" x1="4.68079" y1="20.4094" x2="35.5459" y2="12.7873" gradientUnits="userSpaceOnUse">
<stop offset="0.105709" stop-color="#ED0226"/>
<stop offset="1" stop-color="#FDA22B"/>
</linearGradient>
</defs>
</svg>
