<svg width="13" height="12" viewBox="0 0 13 12" fill="none" xmlns="http://www.w3.org/2000/svg">
<path fill-rule="evenodd" clip-rule="evenodd" d="M3.5007 6.49989L6.5007 2.49989V4.99989H9.54641L7.64983 7.7394C7.50067 7.99991 6.08226 9.90266 5.74579 10.0919C5.66413 10.1379 5.58246 10.1767 5.5007 10.2092V10.6798C5.5007 11.268 6.25919 11.5049 6.59401 11.0213L10.8032 4.94142C11.0787 4.54348 10.7938 3.99989 10.3098 3.99989H7.5007V1.29989C7.5007 0.723286 6.76666 0.478609 6.4207 0.939894L2.2207 6.53989C1.92404 6.93544 2.20627 7.49989 2.7007 7.49989H5.5007V9.49991C5.76252 9.2735 6.07457 8.88547 6.5007 8.21799V6.49989H3.5007Z" fill="white"/>
</svg>
