<svg width="24" height="24" viewBox="0 0 24 24" fill="none" xmlns="http://www.w3.org/2000/svg">
<path fill-rule="evenodd" clip-rule="evenodd" d="M11.9998 2C12.5521 2 12.9998 2.44772 12.9998 3V4.07088C16.3921 4.55607 18.9999 7.4735 18.9999 11C18.9999 11.7507 19.0796 13.0386 19.2406 14.2143C19.3212 14.8023 19.4186 15.3361 19.5286 15.7486C19.5837 15.9552 19.6368 16.1116 19.6837 16.2203C19.7085 16.2777 19.7256 16.3079 19.7322 16.319C19.9979 16.6047 20.0739 17.0202 19.9237 17.3827C19.769 17.7564 19.4043 18 18.9999 18H15.9952C15.9488 19.0224 15.5477 20.0032 14.8506 20.7467C14.1062 21.5407 13.0822 22 11.9998 22C10.9173 22 9.89335 21.5407 9.14892 20.7467C8.45189 20.0032 8.05072 19.0224 8.00432 18H4.99987C4.50942 18 4.09135 17.6443 4.01279 17.1602C3.93988 16.7109 4.14823 16.394 4.39975 16C4.47391 15.8838 4.81351 15.3961 4.81351 15.3961C5.42725 15.7602 6.10661 15.9761 6.72857 15.9981L6.72813 16H17.5301C17.4207 15.5355 17.3312 15.0121 17.2591 14.4857C17.0868 13.2281 16.9999 11.8493 16.9999 11C16.9999 8.23858 14.7613 6 11.9999 6C9.23845 6 6.99987 8.23858 6.99987 11C6.99987 11.1479 7.00217 11.331 7.00479 11.5403C7.01454 12.3174 7.03621 13.7963 6.95414 14.8324C6.95391 14.8353 6.95369 14.8381 6.95346 14.841H6.8405C6.37804 14.841 5.71118 14.6099 5.15749 14.1427C5.10303 14.0968 5.05039 14.0492 4.99976 14C5.02861 13.2783 5.01246 12.2172 5.00526 11.626C5.00245 11.3952 4.99987 11.184 4.99987 11C4.99987 7.47356 7.60753 4.55617 10.9998 4.0709V3C10.9998 2.44772 11.4475 2 11.9998 2ZM13.9915 18C13.9477 18.5278 13.7318 19.0159 13.3916 19.3788C13.0108 19.785 12.5086 20 11.9998 20C11.4909 20 10.9888 19.785 10.608 19.3788C10.2678 19.0159 10.0519 18.5278 10.0081 18H13.9915Z" fill="#181C21"/>
<path fill-rule="evenodd" clip-rule="evenodd" d="M8.94895 2.68356C9.1236 3.2075 8.84044 3.77382 8.3165 3.94847C6.32051 4.6138 5.2241 6.49056 4.94895 7.31601C4.77431 7.83995 4.20799 8.12311 3.68404 7.94847C3.1601 7.77382 2.87694 7.2075 3.05159 6.68356C3.4431 5.509 4.88003 2.98577 7.68404 2.0511C8.20799 1.87645 8.77431 2.15961 8.94895 2.68356Z" fill="#181C21"/>
<path fill-rule="evenodd" clip-rule="evenodd" d="M15.051 2.68356C14.8764 3.2075 15.1596 3.77382 15.6835 3.94847C17.6795 4.6138 18.7759 6.49056 19.051 7.31601C19.2257 7.83995 19.792 8.12311 20.316 7.94847C20.8399 7.77382 21.1231 7.2075 20.9484 6.68356C20.5569 5.509 19.12 2.98577 16.316 2.0511C15.792 1.87645 15.2257 2.15961 15.051 2.68356Z" fill="#181C21"/>
</svg>
