<svg width="16" height="16" viewBox="0 0 16 16" fill="none" xmlns="http://www.w3.org/2000/svg">
<path fill-rule="evenodd" clip-rule="evenodd" d="M7 4.00016C7 3.44788 7.44772 3.00016 8 3.00016C8.1841 3.00016 8.33333 2.85092 8.33333 2.66683C8.33333 2.48273 8.1841 2.3335 8 2.3335C7.07953 2.3335 6.33333 3.07969 6.33333 4.00016C6.33333 4.80648 6.90592 5.47907 7.66667 5.63349V6.68329C5.98223 6.85053 4.66667 8.27171 4.66667 10.0002H4.33333C3.78105 10.0002 3.33333 10.4479 3.33333 11.0002V11.5116C3.41636 11.5645 3.50536 11.6126 3.5993 11.6564C3.93332 11.8123 4.3136 11.9041 4.66667 11.9531V11.3335H11.3333V12.6668H4.66667C4.33333 12.6668 3.48845 12.3393 3.33333 12.268V12.6668H2.66667C2.29848 12.6668 2 12.9653 2 13.3335C2 13.7017 2.29848 14.0002 2.66667 14.0002H13.3333C13.7015 14.0002 14 13.7017 14 13.3335C14 12.9653 13.7015 12.6668 13.3333 12.6668H12.6667V11.0002C12.6667 10.4479 12.219 10.0002 11.6667 10.0002H11.3333C11.3333 8.27171 10.0178 6.85053 8.33333 6.68329V5.63345C8.69541 5.55988 9.01492 5.36893 9.24991 5.10268C9.37174 4.96466 9.3586 4.75401 9.22058 4.63219C9.08256 4.51037 8.87191 4.5235 8.75009 4.66153C8.56636 4.86968 8.29863 5.00016 8 5.00016C7.44772 5.00016 7 4.55245 7 4.00016ZM8 8.00016C6.89543 8.00016 6 8.89559 6 10.0002H10C10 8.89559 9.10457 8.00016 8 8.00016Z" fill="white"/>
</svg>
