<svg width="20" height="20" viewBox="0 0 20 20" fill="none" xmlns="http://www.w3.org/2000/svg">
<path fill-rule="evenodd" clip-rule="evenodd" d="M10.0001 1.6665C10.4604 1.6665 10.8335 2.0396 10.8335 2.49984V3.39223C13.6604 3.79656 15.8336 6.22775 15.8336 9.1665C15.8336 9.79209 15.9 10.8653 16.0342 11.8451C16.1013 12.3351 16.1825 12.7799 16.2742 13.1237C16.3201 13.2959 16.3643 13.4261 16.4034 13.5167C16.4241 13.5646 16.4384 13.5898 16.4438 13.599C16.6652 13.8371 16.7286 14.1834 16.6034 14.4854C16.4745 14.7968 16.1706 14.9998 15.8336 14.9998H13.3297C13.291 15.8519 12.9567 16.6692 12.3759 17.2887C11.7555 17.9505 10.9022 18.3332 10.0001 18.3332C9.0981 18.3332 8.24478 17.9505 7.62443 17.2887C7.04357 16.6692 6.70926 15.8519 6.67059 14.9998H4.16689C3.75817 14.9998 3.40978 14.7034 3.34431 14.3C3.28356 13.9256 3.45718 13.6615 3.66678 13.3332C3.72859 13.2364 4.01158 12.8299 4.01158 12.8299C4.52303 13.1333 5.08916 13.3133 5.60746 13.3316L5.6071 13.3332H14.6087C14.5176 12.9461 14.443 12.5099 14.3829 12.0713C14.2394 11.0233 14.1669 9.87425 14.1669 9.1665C14.1669 6.86532 12.3014 4.99984 10.0002 4.99984C7.69903 4.99984 5.83355 6.86532 5.83355 9.1665C5.83355 9.28976 5.83547 9.44234 5.83765 9.61671C5.84578 10.2644 5.86383 11.4968 5.79544 12.3602C5.79525 12.3626 5.79506 12.3649 5.79488 12.3673H5.70074C5.31536 12.3673 4.75964 12.1748 4.29823 11.7855C4.25285 11.7472 4.20899 11.7075 4.16679 11.6665C4.19083 11.0651 4.17737 10.1809 4.17137 9.68816C4.16903 9.49582 4.16689 9.3198 4.16689 9.1665C4.16689 6.2278 6.33994 3.79665 9.16681 3.39226V2.49984C9.16681 2.0396 9.53991 1.6665 10.0001 1.6665ZM11.6599 14.9998C11.6234 15.4397 11.4435 15.8464 11.16 16.1488C10.8426 16.4873 10.4242 16.6665 10.0001 16.6665C9.57611 16.6665 9.15765 16.4873 8.84032 16.1488C8.5568 15.8464 8.37691 15.4397 8.34038 14.9998H11.6599Z" fill="#181C21"/>
</svg>
