<svg width="20" height="20" viewBox="0 0 20 20" fill="none" xmlns="http://www.w3.org/2000/svg">
<path fill-rule="evenodd" clip-rule="evenodd" d="M4.16667 2.5C3.75 2.5 2.5 2.91667 2.5 4.16667C2.5 10.1911 8.33333 15.4167 11.8476 16.4022C12.5 16.25 12.9167 15.8333 13.3333 15.4167C8.6201 14.0786 4.9038 10.0846 4.27263 5.04821C4.21298 4.5722 4.5961 4.16667 5.07584 4.16667H7.5C7.96024 4.16667 8.33333 4.53977 8.33333 5.00001V6.66667L6.25 7.91667C5.99917 8.04362 5.83333 8.33333 5.87653 8.59816C5.86655 8.57265 5.88241 8.61441 5.87653 8.59816C5.94086 8.776 5.96032 8.81406 5.99917 8.89953C6.07689 9.07051 6.19567 9.30694 6.36876 9.59542C6.71523 10.1729 7.27777 10.9563 8.16074 11.8393C9.04372 12.7222 9.82713 13.2848 10.4046 13.6313C10.6931 13.8043 10.9295 13.9231 11.1005 14.0008C11.4016 14.1012 12.0058 13.8557 12.2303 13.6313C12.4547 13.4068 13.1417 11.3701 13.1417 11.3701L15.2635 12.0774C15.6038 12.1908 15.8333 12.5092 15.8333 12.8679V13.2575C15.8333 13.9206 15.9878 15.2622 15.4167 15.8333C15.0315 16.2185 14.0989 16.6592 13.3319 17.1348C14.3953 17.3742 14.5833 17.5 15.4167 17.5C15.8333 17.5 17.5 16.25 17.5 15.4167V11.6667C17.5 11.308 17.2705 10.9895 16.9302 10.8761L13.1802 9.6261C12.8807 9.52629 12.5506 9.60423 12.3274 9.82742L11.4892 12.3323C11.4205 12.2948 11.3445 12.2516 11.2621 12.2021C10.7979 11.9236 10.1229 11.4444 9.33926 10.6608C8.55557 9.87706 8.07644 9.20214 7.79791 8.73793C7.72355 8.61399 7.66337 8.50487 7.61543 8.41251L9.86004 7.54559C9.9513 7.4087 10 7.24786 10 7.08334V3.6682C10 3.20796 9.27291 2.50001 8.81268 2.50001L4.16667 2.5Z" fill="#181C21"/>
</svg>
