<svg width="20" height="20" viewBox="0 0 20 20" fill="none" xmlns="http://www.w3.org/2000/svg">
<path fill-rule="evenodd" clip-rule="evenodd" d="M16.6667 6.02093V14.9987H3.33341C2.89334 14.9987 2.28055 14.9106 1.66675 14.6183V14.9987C1.66675 15.9192 2.41294 16.6654 3.33342 16.6654H16.6667C17.5872 16.6654 18.3334 15.9192 18.3334 14.9987V4.9987C18.3334 4.07822 17.5872 3.33203 16.6667 3.33203H3.33341C2.41294 3.33203 1.66675 4.07822 1.66675 4.9987V12.531C1.82023 12.7357 1.99376 12.8837 2.16632 12.9936C2.57517 13.2537 3.03499 13.332 3.33341 13.332V6.02121L8.33902 10.4706C9.28623 11.3126 10.7136 11.3126 11.6608 10.4706L16.6667 6.02093ZM4.69176 4.9987L9.44629 9.22495C9.76203 9.50561 10.2378 9.50561 10.5536 9.22495L15.3081 4.9987H4.69176Z" fill="#181C21"/>
</svg>
