<svg width="20" height="20" viewBox="0 0 20 20" fill="none" xmlns="http://www.w3.org/2000/svg">
<path fill-rule="evenodd" clip-rule="evenodd" d="M10.0013 3.5186C6.42168 3.5186 3.51982 6.42046 3.51982 10.0001C3.51982 13.5797 6.42168 16.4816 10.0013 16.4816C13.5809 16.4816 16.4828 13.5797 16.4828 10.0001C16.4828 6.42046 13.5809 3.5186 10.0013 3.5186ZM1.66797 10.0001C1.66797 5.39771 5.39893 1.66675 10.0013 1.66675C14.6037 1.66675 18.3346 5.39771 18.3346 10.0001C18.3346 14.6025 14.6037 18.3334 10.0013 18.3334C5.39893 18.3334 1.66797 14.6025 1.66797 10.0001Z" fill="#0050AE"/>
<path d="M10.8346 6.66659C10.8346 7.12682 10.4615 7.49992 10.0013 7.49992C9.54106 7.49992 9.16797 7.12682 9.16797 6.66659C9.16797 6.20635 9.54106 5.83325 10.0013 5.83325C10.4615 5.83325 10.8346 6.20635 10.8346 6.66659Z" fill="#0050AE"/>
<path fill-rule="evenodd" clip-rule="evenodd" d="M8.33203 9.16659C8.33203 8.70635 8.70513 8.33325 9.16536 8.33325H9.9987C10.4589 8.33325 10.832 8.70635 10.832 9.16659L10.832 12.4999C11.2923 12.4999 11.6654 12.873 11.6654 13.3333C11.6654 13.7935 11.2923 14.1666 10.832 14.1666H9.9987C9.53846 14.1666 9.16536 13.7935 9.16536 13.3333V9.99992C8.70513 9.99992 8.33203 9.62682 8.33203 9.16659Z" fill="#0050AE"/>
</svg>
