<svg xmlns="http://www.w3.org/2000/svg" width="12" height="12" viewBox="0 0 12 12" fill="none">
    <path fill-rule="evenodd" clip-rule="evenodd"
        d="M5.5 2.5C3.84315 2.5 2.5 3.84315 2.5 5.5C2.5 6.93303 3.50477 8.13139 4.84824 8.429C4.39216 8.66599 3.92112 8.85386 3.47662 8.95124C2.29392 8.25635 1.5 6.97089 1.5 5.5C1.5 3.29086 3.29086 1.5 5.5 1.5C7.70914 1.5 9.5 3.29086 9.5 5.5C9.5 6.42435 9.18646 7.27547 8.65993 7.95281L10.182 9.47487C10.3773 9.67014 10.3773 9.98672 10.182 10.182C9.98673 10.3772 9.67015 10.3772 9.47489 10.182L7.95283 8.65992C7.27549 9.18646 6.42436 9.5 5.5 9.5C5.33085 9.5 5.16415 9.4895 5.00052 9.46912C5.17086 9.3892 5.33487 9.30498 5.49049 9.21958C6.33018 8.75877 7.04816 8.19409 7.34302 7.86729C8.04717 7.31831 8.5 6.46204 8.5 5.5C8.5 3.84315 7.15685 2.5 5.5 2.5Z"
        fill="white" />
</svg>