<svg width="20" height="20" viewBox="0 0 20 20" fill="none" xmlns="http://www.w3.org/2000/svg">
<path fill-rule="evenodd" clip-rule="evenodd" d="M14.6875 2.5H5.3125C3.75885 2.5 2.5 3.75885 2.5 5.3125V14.6875C2.5 16.2411 3.75885 17.5 5.3125 17.5H14.6875C16.2411 17.5 17.5 16.2411 17.5 14.6875V6.76474C17.4078 6.45444 17.1015 6.19206 16.394 6.01737C16.2132 5.97273 16.0246 5.93892 15.8333 5.9133V10.1547L14.1107 8.56541C13.5239 7.97948 12.8768 7.86229 11.9849 8.56541C11.3551 9.06185 11.1119 9.329 10.8514 9.61501L10.8514 9.61502L10.8514 9.61502C10.7429 9.73411 10.6315 9.85646 10.488 9.99999C10.4653 10.0226 10.4222 10.0618 10.3678 10.1112C10.1548 10.3046 9.76907 10.6549 9.76563 10.7828L8.25135 9.26854C7.6645 8.6826 6.71327 8.6826 6.1255 9.26854L4.16667 11.25L4.12126 5.3125C4.12126 4.79432 4.79432 4.16667 5.3125 4.16667H14.2226H14.2302H14.6875C14.7036 4.16667 14.7196 4.16795 14.7356 4.17039C15.3304 4.18148 16.0894 4.22544 16.7935 4.3993C16.9913 4.44814 17.1995 4.51127 17.4072 4.59314C17.0895 3.38815 15.9925 2.5 14.6875 2.5ZM14.5833 15.8333L10.9763 11.9531L13.0469 10.1547L15.8333 12.9167V14.6875C15.8333 14.8942 15.6216 15.0934 15.4491 15.2556L15.4491 15.2556C15.4138 15.2888 15.3802 15.3205 15.3503 15.3503C15.3205 15.3802 15.2888 15.4138 15.2556 15.4491L15.2556 15.4492C15.0933 15.6216 14.8942 15.8333 14.6875 15.8333H14.5833ZM4.16667 14.6875V13.75L7.1875 10.8579L12.0833 15.8333H5.3125C4.79432 15.8333 4.16667 15.2057 4.16667 14.6875ZM10.8333 7.08333C10.8333 8.75 8.33333 8.75 8.33333 7.08333C8.33333 5.41667 10.8333 5.41667 10.8333 7.08333Z" fill="#181C21"/>
</svg>
