<svg width="24" height="24" viewBox="0 0 24 24" fill="none" xmlns="http://www.w3.org/2000/svg">
<g id="System / ico_transaction in">
<path id="Subtract" fill-rule="evenodd" clip-rule="evenodd" d="M5 3C3.89543 3 3 3.89543 3 5V10C3 11.1046 3.89543 12 5 12H6V16.4256C6.56828 16.7239 7.2343 16.8877 8 16.958V8H16V19H9.01099C9.00733 19 9.00366 19.0001 9 19.0001C8.98559 19.0001 8.97117 19 8.95675 19H8C7.32134 18.9486 6.64566 18.8002 6 18.5882V19C6 20.1046 6.89543 21 8 21H16C17.1046 21 18 20.1046 18 19V12H19C20.1046 12 21 11.1046 21 10V5C21 3.89543 20.1046 3 19 3H5ZM18 10H19V5H5V10H6V8C6 6.89543 6.89543 6 8 6H16C17.1046 6 18 6.89543 18 8V10ZM11.693 10.2388C11.8736 10.0983 12.1264 10.0983 12.307 10.2388L14.5999 12.0222C15.0418 12.3659 15.1313 13.0159 14.7999 13.4741C14.4686 13.9323 13.8418 14.0251 13.4 13.6815L13 13.3704V19C12 19 12 19 11 19V13.3704L10.6 13.6815C10.1582 14.0251 9.53142 13.9323 9.20006 13.4741C8.86869 13.0159 8.95823 12.3659 9.40005 12.0222L11.693 10.2388Z" fill="#ED0226"/>
</g>
</svg>
