<svg width="21" height="20" viewBox="0 0 21 20" fill="none" xmlns="http://www.w3.org/2000/svg">
<path d="M20.2444 9.946C20.2446 10.2125 20.1912 10.4762 20.0874 10.7217C19.9837 10.9671 19.8317 11.1892 19.6405 11.3748C19.4493 11.5604 19.2228 11.7057 18.9744 11.8021C18.726 11.8985 18.4608 11.944 18.1944 11.936L13.4564 11.797L10.0024 18.94C9.72544 19.514 9.14244 19.88 8.50444 19.88C8.37341 19.8801 8.24385 19.8524 8.12433 19.7987C8.0048 19.745 7.89803 19.6666 7.81108 19.5685C7.72412 19.4705 7.65895 19.3552 7.61988 19.2301C7.58082 19.105 7.56874 18.9731 7.58444 18.843L8.44744 11.65L4.68244 11.54L4.19244 12.881C4.10167 13.1292 3.93684 13.3436 3.72025 13.4951C3.50366 13.6466 3.24576 13.7279 2.98144 13.728C2.863 13.7281 2.7457 13.7049 2.63626 13.6596C2.52682 13.6143 2.4274 13.5478 2.34369 13.464C2.25999 13.3802 2.19365 13.2808 2.14847 13.1713C2.1033 13.0618 2.08018 12.9444 2.08044 12.826V11.35L1.27044 11.181C0.986747 11.1219 0.732062 10.9669 0.549236 10.7421C0.36641 10.5172 0.266602 10.2363 0.266602 9.9465C0.266602 9.65672 0.36641 9.37577 0.549236 9.15094C0.732062 8.9261 0.986747 8.7711 1.27044 8.712L2.08044 8.544V7.066C2.0802 6.84653 2.16016 6.63454 2.30528 6.4699C2.4504 6.30525 2.65068 6.19931 2.86844 6.172L2.98144 6.165C3.24547 6.16524 3.50306 6.24649 3.71944 6.39778C3.93582 6.54907 4.10057 6.76311 4.19144 7.011L4.68344 8.351L8.43444 8.241L7.58444 1.157L7.58044 1.102L7.57844 1.047C7.57844 0.536002 7.99344 0.121002 8.50444 0.121002C9.08944 0.121002 9.62744 0.428002 9.92744 0.921002L10.0024 1.061L13.4054 8.096L18.1954 7.956C18.4568 7.94827 18.7171 7.99213 18.9615 8.08506C19.2059 8.17799 19.4296 8.31817 19.6198 8.49759C19.81 8.67702 19.963 8.89217 20.07 9.13074C20.177 9.36931 20.2359 9.62664 20.2434 9.888L20.2444 9.946Z" fill="#9CA9B9"/>
</svg>
