<svg width="12" height="12" viewBox="0 0 12 12" fill="none" xmlns="http://www.w3.org/2000/svg">
<g style="mix-blend-mode:plus-darker">
<path fill-rule="evenodd" clip-rule="evenodd" d="M2.99875 6.49989L5.99875 2.49989V4.99989H9.04446L7.14788 7.7394C6.99872 7.99991 5.58031 9.90266 5.24383 10.0919C5.16218 10.1379 5.08051 10.1767 4.99875 10.2092V10.6798C4.99875 11.268 5.75724 11.5049 6.09206 11.0213L10.3012 4.94142C10.5767 4.54348 10.2919 3.99989 9.80789 3.99989H6.99875V1.29989C6.99875 0.723286 6.26471 0.478609 5.91875 0.939894L1.71875 6.53989C1.42209 6.93544 1.70432 7.49989 2.19875 7.49989H4.99875V9.49991C5.26057 9.2735 5.57261 8.88547 5.99875 8.21799V6.49989H2.99875Z" fill="#757F90"/>
</g>
</svg>
