<svg width="12" height="12" viewBox="0 0 12 12" fill="none" xmlns="http://www.w3.org/2000/svg">
<path d="M6.5625 2.0625C6.5625 1.75184 6.31066 1.5 6 1.5C5.68934 1.5 5.4375 1.75184 5.4375 2.0625L5.4375 5.4375H2.0625C1.75184 5.4375 1.5 5.68934 1.5 6C1.5 6.31066 1.75184 6.5625 2.0625 6.5625H5.4375L5.4375 9.9375C5.4375 10.2482 5.68934 10.5 6 10.5C6.31066 10.5 6.5625 10.2482 6.5625 9.9375V6.5625H9.9375C10.2482 6.5625 10.5 6.31066 10.5 6C10.5 5.68934 10.2482 5.4375 9.9375 5.4375H6.5625V2.0625Z" fill="white"/>
</svg>
