<svg width="24" height="24" viewBox="0 0 24 24" fill="none" xmlns="http://www.w3.org/2000/svg">
<path fill-rule="evenodd" clip-rule="evenodd" d="M10.5 6C10.5 5.17157 11.1716 4.5 12 4.5C12.2761 4.5 12.5 4.27614 12.5 4C12.5 3.72386 12.2761 3.5 12 3.5C10.6193 3.5 9.5 4.61929 9.5 6C9.5 7.20948 10.3589 8.21836 11.5 8.44999V10.0247C8.97334 10.2755 7 12.4073 7 15H6.5C5.67157 15 5 15.6716 5 16.5V17.2672C5.12453 17.3465 5.25804 17.4187 5.39894 17.4844C5.89999 17.7182 6.4704 17.8559 7 17.9294V17H17V19H7C6.5 19 5.23268 18.5088 5 18.4017V19H4C3.44772 19 3 19.4477 3 20C3 20.5523 3.44772 21 4 21H20C20.5523 21 21 20.5523 21 20C21 19.4477 20.5523 19 20 19H19V16.5C19 15.6716 18.3284 15 17.5 15H17C17 12.4073 15.0267 10.2755 12.5 10.0247V8.44993C13.0431 8.33958 13.5224 8.05315 13.8749 7.65378C14.0576 7.44674 14.0379 7.13078 13.8309 6.94804C13.6238 6.76531 13.3079 6.78501 13.1251 6.99205C12.8495 7.30428 12.4479 7.5 12 7.5C11.1716 7.5 10.5 6.82843 10.5 6ZM12 12C10.3431 12 9 13.3431 9 15H15C15 13.3431 13.6569 12 12 12Z" fill="#FF0025"/>
</svg>
