<svg width="12" height="13" viewBox="0 0 12 13" fill="none" xmlns="http://www.w3.org/2000/svg">
<path fill-rule="evenodd" clip-rule="evenodd" d="M1.5 5.5C1.5 5.22386 1.72386 5 2 5H2.5C2.77614 5 3 5.22386 3 5.5V10.5C3 10.7761 2.77614 11 2.5 11H2C1.72386 11 1.5 10.7761 1.5 10.5V5.5Z" fill="#14278C"/>
<path fill-rule="evenodd" clip-rule="evenodd" d="M5.25126 2L5.25307 2.00001L5.27519 2.00025C5.28916 2.00048 5.30852 2.00093 5.33258 2.00178C5.38061 2.00347 5.44785 2.0068 5.52869 2.01335C5.68885 2.02634 5.9097 2.05256 6.14368 2.10655C6.37397 2.1597 6.6406 2.24501 6.87834 2.38766C7.1174 2.53109 7.36183 2.75435 7.47434 3.09189C7.59943 3.46716 7.58122 3.91839 7.5356 4.28687C7.50425 4.5401 7.45524 4.78775 7.40578 5H9.3901C10.0211 5 10.4944 5.57732 10.3707 6.19612C10.0849 7.62487 9.74889 9.30505 9.57068 10.1961C9.47719 10.6635 9.06678 11 8.5901 11H4.5C3.94772 11 3.5 10.5523 3.5 10V5.29289L3.64645 5.14645C4.05701 4.73589 4.34041 4.08357 4.52109 3.48133C4.60889 3.18864 4.66764 2.92438 4.70431 2.7337C4.72259 2.63863 4.73525 2.56255 4.74322 2.51122C4.7472 2.48557 4.75 2.46616 4.75173 2.4537L4.75355 2.44034L4.75388 2.4378L4.80861 2L5.25126 2Z" fill="#14278C"/>
</svg>
