<svg width="28" height="29" viewBox="0 0 28 29" fill="none" xmlns="http://www.w3.org/2000/svg">
<g id="Group 2">
<circle id="Oval 2" cx="14.0869" cy="14.5" r="13.915" fill="#EFF1F4"/>
<g id="System / ico_exchange">
<g id="Union">
<path d="M21.0732 12.2285C20.7437 12.558 20.2094 12.558 19.8799 12.2285L18.3672 10.7157V20.4912C18.3672 20.9572 17.9894 21.335 17.5234 21.335C17.0574 21.335 16.6797 20.9572 16.6797 20.4912V10.7157L15.1669 12.2285C14.8374 12.558 14.3032 12.558 13.9737 12.2285C13.6442 11.899 13.6442 11.3647 13.9737 11.0352L16.9268 8.08209C17.085 7.92386 17.2997 7.83496 17.5234 7.83496C17.7472 7.83496 17.9618 7.92386 18.1201 8.08209L21.0732 11.0352C21.4027 11.3647 21.4027 11.899 21.0732 12.2285Z" fill="#181C21"/>
<path d="M8.06744 16.9415C8.39695 16.612 8.93118 16.612 9.26068 16.9415L10.7734 18.4542L10.7734 8.67871C10.7734 8.21272 11.1512 7.83496 11.6172 7.83496C12.0832 7.83496 12.4609 8.21272 12.4609 8.67871L12.4609 18.4542L13.9737 16.9415C14.3032 16.612 14.8374 16.612 15.1669 16.9415C15.4964 17.271 15.4964 17.8052 15.1669 18.1347L12.2138 21.0878C12.0556 21.2461 11.841 21.335 11.6172 21.335C11.3934 21.335 11.1788 21.2461 11.0206 21.0878L8.06744 18.1347C7.73794 17.8052 7.73794 17.271 8.06744 16.9415Z" fill="#181C21"/>
</g>
</g>
</g>
</svg>
