<svg width="24" height="24" viewBox="0 0 24 24" fill="none" xmlns="http://www.w3.org/2000/svg">
<path fill-rule="evenodd" clip-rule="evenodd" d="M17.9865 4.8C18.1459 4.79991 18.3037 4.83124 18.451 4.89219C18.5983 4.95315 18.7321 5.04253 18.8448 5.15523C18.9575 5.26793 19.0469 5.40174 19.1078 5.54901C19.1688 5.69628 19.2001 5.85411 19.2 6.0135C19.1999 6.17288 19.1684 6.33069 19.1073 6.47788C19.0462 6.62508 18.9567 6.75879 18.8438 6.87137C18.8287 6.88646 18.8143 6.90195 18.8004 6.91782L15.9609 9.58403C15.6985 9.83041 15.6082 10.2094 15.7312 10.5477L18.3524 17.7561L17.4122 18.6962L13.8157 13.4317C13.6688 13.2168 13.4361 13.0759 13.1776 13.0456C12.919 13.0152 12.66 13.0982 12.4673 13.2733L10.3376 15.2082C10.1498 15.3788 10.0428 15.6207 10.0428 15.8743V17.6144L9.21734 18.4398L8.43286 16.1264C8.34287 15.861 8.13442 15.6527 7.86898 15.5629L5.56095 14.7819L6.38564 13.9572H8.12568C8.36437 13.9572 8.59329 13.8624 8.76207 13.6936L10.8749 11.5808C11.0656 11.3901 11.1607 11.124 11.1341 10.8557C11.1076 10.5874 10.9621 10.3451 10.7377 10.1956L10.1383 9.79591C9.88862 10.1149 9.57352 10.4601 9.20852 10.7705C9.08582 10.8748 8.95407 10.9781 8.81407 11.0764L8.82583 11.0843L7.75288 12.1572H6.01285C5.77415 12.1572 5.54523 12.2521 5.37645 12.4208L3.26362 14.5337C3.04357 14.7537 2.95281 15.0718 3.02363 15.3749C3.09444 15.6779 3.31678 15.9228 3.61156 16.0226L6.87096 17.1254L7.97762 20.389C8.07752 20.6836 8.32249 20.9058 8.62544 20.9765C8.9284 21.0471 9.24637 20.9564 9.46635 20.7364L11.5792 18.6236C11.748 18.4548 11.8428 18.2259 11.8428 17.9872V16.2726L12.9126 15.3007L16.5381 20.6077C16.6892 20.8289 16.931 20.9712 17.1977 20.9961C17.4644 21.021 17.7283 20.9258 17.9177 20.7364L20.0305 18.6236C20.2778 18.3763 20.3594 18.0082 20.2399 17.6796L17.6256 10.4901L20.1556 8.11452C20.2073 8.06591 20.2521 8.01258 20.2898 7.95582C20.4889 7.71982 20.6509 7.45421 20.7697 7.16809C20.9215 6.80242 20.9998 6.41041 21 6.01449C21.0002 5.61856 20.9224 5.22647 20.771 4.86064C20.6196 4.4948 20.3975 4.1624 20.1176 3.88244C19.8376 3.60247 19.5052 3.38044 19.1394 3.22902C18.7736 3.07761 18.3815 2.99978 17.9855 3C17.5896 3.00022 17.1976 3.07847 16.8319 3.23029C16.4663 3.38211 16.1341 3.60451 15.8545 3.88478C15.8176 3.92169 15.7847 3.96103 15.7555 4.00229L13.512 6.37522L6.32042 3.7601C5.9918 3.64061 5.62371 3.72227 5.37645 3.96952L3.26362 6.08235C3.07296 6.27301 2.97783 6.53911 3.0044 6.80743C3.03097 7.07575 3.17644 7.31803 3.40079 7.46759L7.77456 10.3976C8.03144 10.2795 8.28931 10.1073 8.54038 9.89379C8.80031 9.67275 9.03016 9.42652 9.21734 9.19611L5.31269 6.57887L6.24395 5.64761L13.4523 8.26884C13.7895 8.39146 14.1674 8.30207 14.4139 8.04134L17.2055 5.08874L17.2184 5.07479C17.31 4.9997 17.4123 4.93829 17.5221 4.8927C17.6693 4.83159 17.8271 4.80009 17.9865 4.8Z" fill="#181C21"/>
</svg>
