<svg width="16" height="16" viewBox="0 0 16 16" fill="none" xmlns="http://www.w3.org/2000/svg">
<path fill-rule="evenodd" clip-rule="evenodd" d="M7 3.99967C7 3.44739 7.44772 2.99967 8 2.99967C8.1841 2.99967 8.33333 2.85044 8.33333 2.66634C8.33333 2.48225 8.1841 2.33301 8 2.33301C7.07953 2.33301 6.33333 3.0792 6.33333 3.99967C6.33333 4.80599 6.90592 5.47858 7.66667 5.633V6.6828C5.98223 6.85004 4.66667 8.27123 4.66667 9.99967H4.33333C3.78105 9.99967 3.33333 10.4474 3.33333 10.9997V11.5111C3.41636 11.564 3.50536 11.6121 3.5993 11.6559C3.93332 11.8118 4.3136 11.9036 4.66667 11.9526V11.333H11.3333V12.6663H4.66667C4.33333 12.6663 3.48845 12.3388 3.33333 12.2675V12.6663H2.66667C2.29848 12.6663 2 12.9648 2 13.333C2 13.7012 2.29848 13.9997 2.66667 13.9997H13.3333C13.7015 13.9997 14 13.7012 14 13.333C14 12.9648 13.7015 12.6663 13.3333 12.6663H12.6667V10.9997C12.6667 10.4474 12.219 9.99967 11.6667 9.99967H11.3333C11.3333 8.27123 10.0178 6.85004 8.33333 6.6828V5.63296C8.69541 5.5594 9.01492 5.36844 9.24991 5.10219C9.37174 4.96417 9.3586 4.75352 9.22058 4.6317C9.08256 4.50988 8.87191 4.52302 8.75009 4.66104C8.56636 4.8692 8.29863 4.99967 8 4.99967C7.44772 4.99967 7 4.55196 7 3.99967ZM8 7.99967C6.89543 7.99967 6 8.8951 6 9.99967H10C10 8.8951 9.10457 7.99967 8 7.99967Z" fill="white"/>
</svg>
