<svg width="15" height="12" viewBox="0 0 15 12" fill="none" xmlns="http://www.w3.org/2000/svg">
<path id="Subtract" fill-rule="evenodd" clip-rule="evenodd" d="M8.54108 1.21938C8.04706 0.484167 6.95815 0.484166 6.46413 1.21938L4.75157 4.43468L2.47963 3.68332C1.57049 3.38266 0.673152 4.16859 0.861093 5.10091L1.49944 8.93424L1.50029 8.93501L1.73766 10.0963L1.73356 10.0956L1.82796 10.5639C1.93613 11.1005 2.47442 11.4385 3.0095 11.3058C5.95951 10.574 9.0457 10.574 11.9957 11.3058C12.5308 11.4385 13.0691 11.1005 13.1772 10.5639L14.1441 5.10091C14.3321 4.16859 13.4347 3.38266 12.5256 3.68332L10.2536 4.43468L8.54108 1.21938ZM9.29197 8.26161C7.87306 7.78864 6.29551 8.06764 5.7136 8.26161C5.36431 8.37804 4.98676 8.18927 4.87033 7.83997C4.7539 7.49068 4.94267 7.11313 5.29197 6.9967C6.0434 6.74622 7.93251 6.403 9.7136 6.9967C10.0629 7.11313 10.2517 7.49068 10.1352 7.83997C10.0188 8.18927 9.64126 8.37804 9.29197 8.26161Z" fill="white"/>
</svg>
