<svg width="20" height="20" viewBox="0 0 20 20" fill="none" xmlns="http://www.w3.org/2000/svg">
<path fill-rule="evenodd" clip-rule="evenodd" d="M10.0001 1.66602C10.4604 1.66602 10.8335 2.03911 10.8335 2.49935V3.39175C13.6604 3.79607 15.8336 6.22726 15.8336 9.16602C15.8336 9.7916 15.9 10.8648 16.0342 11.8446C16.1013 12.3346 16.1825 12.7794 16.2742 13.1232C16.3201 13.2954 16.3643 13.4256 16.4034 13.5162C16.4241 13.5641 16.4384 13.5893 16.4438 13.5985C16.6652 13.8366 16.7286 14.1829 16.6034 14.4849C16.4745 14.7963 16.1706 14.9993 15.8336 14.9993H13.3297C13.291 15.8514 12.9567 16.6687 12.3759 17.2883C11.7555 17.95 10.9022 18.3327 10.0001 18.3327C9.0981 18.3327 8.24478 17.95 7.62443 17.2883C7.04357 16.6687 6.70926 15.8514 6.67059 14.9993H4.16689C3.75817 14.9993 3.40978 14.7029 3.34431 14.2995C3.28356 13.9251 3.45718 13.661 3.66678 13.3327C3.72859 13.2359 4.01158 12.8294 4.01158 12.8294C4.52303 13.1328 5.08916 13.3128 5.60746 13.3311L5.6071 13.3327H14.6087C14.5176 12.9456 14.443 12.5094 14.3829 12.0708C14.2394 11.0228 14.1669 9.87376 14.1669 9.16602C14.1669 6.86483 12.3014 4.99935 10.0002 4.99935C7.69903 4.99935 5.83355 6.86483 5.83355 9.16602C5.83355 9.28928 5.83547 9.44185 5.83765 9.61623C5.84578 10.2639 5.86383 11.4963 5.79544 12.3597C5.79525 12.3621 5.79506 12.3645 5.79488 12.3668H5.70074C5.31536 12.3668 4.75964 12.1743 4.29823 11.785C4.25285 11.7467 4.20899 11.707 4.16679 11.666C4.19083 11.0646 4.17737 10.1804 4.17137 9.68767C4.16903 9.49533 4.16689 9.31931 4.16689 9.16602C4.16689 6.22732 6.33994 3.79616 9.16681 3.39177V2.49935C9.16681 2.03911 9.53991 1.66602 10.0001 1.66602ZM11.6599 14.9993C11.6234 15.4392 11.4435 15.8459 11.16 16.1483C10.8426 16.4868 10.4242 16.666 10.0001 16.666C9.57611 16.666 9.15765 16.4868 8.84032 16.1483C8.5568 15.8459 8.37691 15.4392 8.34038 14.9993H11.6599Z" fill="#181C21"/>
<path fill-rule="evenodd" clip-rule="evenodd" d="M7.45746 2.23605C7.603 2.67267 7.36703 3.1446 6.93042 3.29014C5.26709 3.84459 4.35342 5.40856 4.12413 6.09643C3.97859 6.53305 3.50666 6.76902 3.07004 6.62348C2.63342 6.47794 2.39745 6.006 2.54299 5.56939C2.86925 4.59059 4.06669 2.4879 6.40337 1.70901C6.83999 1.56347 7.31192 1.79943 7.45746 2.23605Z" fill="#181C21"/>
<path fill-rule="evenodd" clip-rule="evenodd" d="M12.5425 2.23605C12.397 2.67267 12.633 3.1446 13.0696 3.29014C14.7329 3.84459 15.6466 5.40856 15.8759 6.09643C16.0214 6.53305 16.4933 6.76902 16.93 6.62348C17.3666 6.47794 17.6025 6.006 17.457 5.56939C17.1307 4.59059 15.9333 2.4879 13.5966 1.70901C13.16 1.56347 12.6881 1.79943 12.5425 2.23605Z" fill="#181C21"/>
</svg>
