<svg width="24" height="24" viewBox="0 0 24 24" fill="none" xmlns="http://www.w3.org/2000/svg">
<path fill-rule="evenodd" clip-rule="evenodd" d="M5.5 2C6.05228 2 6.5 2.44772 6.5 3V4.87561C6.9837 4.5017 7.50672 4.17585 8.06194 3.90529C9.25261 3.32507 10.5898 3 12 3C16.9706 3 21 7.02944 21 12C21 16.9706 16.9706 21 12 21C7.02944 21 3 16.9706 3 12C3 11.4477 3.44772 11 4 11C4.55228 11 5 11.4477 5 12C5 15.866 8.13401 19 12 19C15.866 19 19 15.866 19 12C19 8.13401 15.866 5 12 5C10.8999 5 9.86178 5.25305 8.93806 5.70318C8.48595 5.92349 8.06086 6.19123 7.66933 6.5H9.5C10.0523 6.5 10.5 6.94772 10.5 7.5C10.5 8.05228 10.0523 8.5 9.5 8.5H5.5C4.94772 8.5 4.5 8.05228 4.5 7.5V3C4.5 2.44772 4.94772 2 5.5 2Z" fill="#181C21"/>
<path fill-rule="evenodd" clip-rule="evenodd" d="M12 6.5C11.4477 6.5 11 6.94772 11 7.5V12.4142L14.2929 15.7071C14.6834 16.0976 15.3166 16.0976 15.7071 15.7071C16.0976 15.3166 16.0976 14.6834 15.7071 14.2929L13 11.5858V7.5C13 6.94772 12.5523 6.5 12 6.5Z" fill="#181C21"/>
</svg>
