<svg width="16" height="16" viewBox="0 0 16 16" fill="none" xmlns="http://www.w3.org/2000/svg">
<path d="M8.00065 14.6654C11.6825 14.6654 14.6673 11.6806 14.6673 7.9987C14.6673 4.3168 11.6825 1.33203 8.00065 1.33203C4.31875 1.33203 1.33398 4.3168 1.33398 7.9987C1.33398 9.0953 1.59875 10.1301 2.06785 11.0425C2.10139 11.0638 2.13584 11.0848 2.17119 11.1055C2.86368 11.512 3.79387 11.7487 4.66732 11.7487H4.69337C3.65534 10.8325 3.00065 9.49206 3.00065 7.9987C3.00065 5.23727 5.23923 2.9987 8.00065 2.9987C10.7621 2.9987 13.0007 5.23727 13.0007 7.9987C13.0007 10.7601 10.7621 12.9987 8.00065 12.9987H4.66732C4.27214 12.9987 3.86578 12.96 3.46485 12.8845C4.65466 13.9896 6.24874 14.6654 8.00065 14.6654Z" fill="#ED0226"/>
<path fill-rule="evenodd" clip-rule="evenodd" d="M8.00065 4.66797C8.36884 4.66797 8.66732 4.96645 8.66732 5.33464V7.72516L10.4721 9.5299C10.7324 9.79025 10.7324 10.2124 10.4721 10.4727C10.2117 10.7331 9.7896 10.7331 9.52925 10.4727L7.33398 8.27744V5.33464C7.33398 4.96645 7.63246 4.66797 8.00065 4.66797Z" fill="#ED0226"/>
</svg>
