<svg width="20" height="20" viewBox="0 0 20 20" fill="none" xmlns="http://www.w3.org/2000/svg">
<g id="System / ico_calendar">
<path id="Subtract" fill-rule="evenodd" clip-rule="evenodd" d="M6.66667 2.5C6.20643 2.5 5.83333 2.8731 5.83333 3.33333V4.16667H4.16667C3.24619 4.16667 2.5 4.91286 2.5 5.83333V7.5V13.6184C2.76382 13.7516 3.0598 13.8617 3.36436 13.9487C3.66874 14.0357 3.94931 14.0906 4.16667 14.1236V7.5H15.8333V15.8333H4.58335C4.58113 15.8333 4.57889 15.8333 4.57664 15.8333C4.01808 15.8333 3.44512 15.7052 2.90649 15.5513C2.77618 15.5141 2.63981 15.4714 2.5 15.4227V15.8333C2.5 16.7538 3.24619 17.5 4.16667 17.5H15.8333C16.7538 17.5 17.5 16.7538 17.5 15.8333V7.5V5.83333C17.5 4.91286 16.7538 4.16667 15.8333 4.16667H14.1667V3.33333C14.1667 2.8731 13.7936 2.5 13.3333 2.5C12.8731 2.5 12.5 2.8731 12.5 3.33333V4.16667H7.5V3.33333C7.5 2.8731 7.1269 2.5 6.66667 2.5Z" fill="#181C21"/>
<path id="Rectangle 4699" d="M12.5 9.58341C12.5 9.3533 12.6865 9.16675 12.9167 9.16675H13.75C13.9801 9.16675 14.1667 9.3533 14.1667 9.58341V10.4167C14.1667 10.6469 13.9801 10.8334 13.75 10.8334H12.9167C12.6865 10.8334 12.5 10.6469 12.5 10.4167V9.58341Z" fill="#181C21"/>
<path id="Rectangle 4702" d="M12.5 12.9167C12.5 12.6865 12.6865 12.5 12.9167 12.5H13.75C13.9801 12.5 14.1667 12.6865 14.1667 12.9167V13.75C14.1667 13.9801 13.9801 14.1667 13.75 14.1667H12.9167C12.6865 14.1667 12.5 13.9801 12.5 13.75V12.9167Z" fill="#181C21"/>
<path id="Rectangle 4700" d="M9.16797 9.58341C9.16797 9.3533 9.35452 9.16675 9.58464 9.16675H10.418C10.6481 9.16675 10.8346 9.3533 10.8346 9.58341V10.4167C10.8346 10.6469 10.6481 10.8334 10.418 10.8334H9.58464C9.35452 10.8334 9.16797 10.6469 9.16797 10.4167V9.58341Z" fill="#181C21"/>
<path id="Rectangle 4703" d="M9.16797 12.9167C9.16797 12.6865 9.35452 12.5 9.58464 12.5H10.418C10.6481 12.5 10.8346 12.6865 10.8346 12.9167V13.75C10.8346 13.9801 10.6481 14.1667 10.418 14.1667H9.58464C9.35452 14.1667 9.16797 13.9801 9.16797 13.75V12.9167Z" fill="#181C21"/>
<path id="Rectangle 4701" d="M5.83203 9.58341C5.83203 9.3533 6.01858 9.16675 6.2487 9.16675H7.08203C7.31215 9.16675 7.4987 9.3533 7.4987 9.58341V10.4167C7.4987 10.6469 7.31215 10.8334 7.08203 10.8334H6.2487C6.01858 10.8334 5.83203 10.6469 5.83203 10.4167V9.58341Z" fill="#181C21"/>
<path id="Rectangle 4704" d="M5.83203 12.9167C5.83203 12.6865 6.01858 12.5 6.2487 12.5H7.08203C7.31215 12.5 7.4987 12.6865 7.4987 12.9167V13.75C7.4987 13.9801 7.31215 14.1667 7.08203 14.1667H6.2487C6.01858 14.1667 5.83203 13.9801 5.83203 13.75V12.9167Z" fill="#181C21"/>
</g>
</svg>
