<svg width="12" height="13" viewBox="0 0 12 13" fill="none" xmlns="http://www.w3.org/2000/svg">
<g id="Frame">
<path id="Vector" d="M7.93335 2.3902C8.39655 2.01594 8.91535 1.99322 9.4822 2.00117C9.7754 2.00528 9.922 2.00734 10.0396 2.05294C10.2262 2.1253 10.3747 2.27382 10.4471 2.46041C10.4927 2.57801 10.4947 2.7246 10.4989 3.01779C10.5068 3.58463 10.4841 4.10343 10.1098 4.56663C9.79465 4.95669 9.25295 5.16051 8.9923 5.59105C8.7933 5.91975 8.886 6.26015 8.9715 6.61045L9.6114 9.2331C9.73895 9.75575 9.6419 10.0908 9.27645 10.4562C9.082 10.6507 8.92025 10.6408 8.76255 10.3895L6.83135 7.31245L5.90905 8.04555C5.57465 8.3114 5.40745 8.4443 5.3196 8.63135C5.1138 9.0694 5.24445 9.72735 5.2511 10.2023C5.2548 10.4648 5.02795 10.9822 4.70696 10.9997C4.50878 11.0105 4.44142 10.7734 4.37741 10.6279L3.76117 9.2272C3.6138 8.89225 3.60776 8.8862 3.27278 8.73885L1.87208 8.1226C1.72659 8.0586 1.48957 7.9912 1.50036 7.79305C1.51783 7.47205 2.03518 7.2452 2.29768 7.2489C2.77266 7.25555 3.43061 7.3862 3.86867 7.1804C4.05571 7.09255 4.18862 6.92535 4.45444 6.59095L5.18755 5.66865L2.11052 3.73745C1.85923 3.57973 1.84936 3.41799 2.04378 3.22358C2.40925 2.8581 2.74426 2.76107 3.26689 2.88859L5.88955 3.52852C6.23985 3.61399 6.58025 3.70672 6.90895 3.5077C7.3395 3.24706 7.5433 2.70537 7.93335 2.3902Z" fill="#14278C"/>
</g>
</svg>
