<svg width="24" height="24" viewBox="0 0 24 24" fill="none" xmlns="http://www.w3.org/2000/svg">
<path fill-rule="evenodd" clip-rule="evenodd" d="M4 3C3.50294 3 3 3.50294 3 4C3 4.49706 3.50294 5 4 5H6V6.6C6 7.52093 6.14488 8.21146 6.5 9C6.71298 9.09392 6.71522 9.3619 6.99401 9.434C7.57155 9.58336 8.20328 9.66532 8.74578 9.70807C8.38374 9.32912 8.21279 8.88703 8 8.4H16C15.3056 9.98931 13.8453 11.1 12 11.1C11.8956 11.1 11.792 11.0964 11.6893 11.0894V11.1H9.75C9.25579 11.1 8.33614 11.0642 7.39504 10.8994C7.79345 11.3259 8.25044 11.6971 8.75317 12C6.92362 13.1024 6 15.1083 6 17.4V19H4C3.50294 19 3 19.5029 3 20C3 20.4971 3.40294 21 3.9 21L20.1 21C20.5971 21 21 20.4971 21 20C21 19.5029 20.5971 19 20.1 19H18V17.4C18 15.1083 17.0764 13.1024 15.2468 12C17.0764 10.8976 18 9.29169 18 7V5H20C20.4971 5 21 4.49706 21 4C21 3.50294 20.4971 3 20 3H4ZM16 17.4V19H8V17.5C8 15.0147 9.51472 12.9 12 12.9C14.4853 12.9 16 14.9147 16 17.4ZM16 5V7H8V5H16Z" fill="#181C21"/>
</svg>
