<svg width="25" height="24" viewBox="0 0 25 24" fill="none" xmlns="http://www.w3.org/2000/svg">
<path fill-rule="evenodd" clip-rule="evenodd" d="M8.5 3C7.94772 3 7.5 3.44772 7.5 4V5H5.5C4.39543 5 3.5 5.89543 3.5 7V9V16.3421C3.81659 16.5019 4.17176 16.6341 4.53724 16.7385C4.90249 16.8428 5.23917 16.9088 5.5 16.9483V9H19.5V19H6.00001C5.99735 19 5.99467 19 5.99197 19C5.3217 19 4.63415 18.8462 3.98779 18.6615C3.83142 18.6169 3.66778 18.5657 3.5 18.5072V19C3.5 20.1046 4.39543 21 5.5 21H19.5C20.6046 21 21.5 20.1046 21.5 19V9V7C21.5 5.89543 20.6046 5 19.5 5H17.5V4C17.5 3.44772 17.0523 3 16.5 3C15.9477 3 15.5 3.44772 15.5 4V5H9.5V4C9.5 3.44772 9.05228 3 8.5 3Z" fill="#757F90"/>
<path d="M11.5 11.5C11.5 11.2239 11.7239 11 12 11H13C13.2761 11 13.5 11.2239 13.5 11.5V12.5C13.5 12.7761 13.2761 13 13 13H12C11.7239 13 11.5 12.7761 11.5 12.5V11.5Z" fill="#757F90"/>
<path d="M7.5 11.5C7.5 11.2239 7.72386 11 8 11H9C9.27614 11 9.5 11.2239 9.5 11.5V12.5C9.5 12.7761 9.27614 13 9 13H8C7.72386 13 7.5 12.7761 7.5 12.5V11.5Z" fill="#757F90"/>
<path fill-rule="evenodd" clip-rule="evenodd" d="M18.4 14.8L16.5541 17.2612L15.1465 15.8536L15.8536 15.1465L16.4459 15.7388L17.6 14.2L18.4 14.8Z" fill="#757F90"/>
<path fill-rule="evenodd" clip-rule="evenodd" d="M18.4 10.8L16.5541 13.2612L15.1465 11.8536L15.8536 11.1465L16.4459 11.7388L17.6 10.2L18.4 10.8Z" fill="#757F90"/>
<path fill-rule="evenodd" clip-rule="evenodd" d="M14.4 14.8L12.5541 17.2612L11.1465 15.8536L11.8536 15.1465L12.4459 15.7388L13.6 14.2L14.4 14.8Z" fill="#757F90"/>
<path fill-rule="evenodd" clip-rule="evenodd" d="M10.4 14.8L8.55413 17.2612L7.14648 15.8536L7.85359 15.1465L8.44594 15.7388L9.60004 14.2L10.4 14.8Z" fill="#757F90"/>
</svg>
