<svg width="20" height="20" viewBox="0 0 20 20" fill="none" xmlns="http://www.w3.org/2000/svg">
<g id="System / ico_info">
<path id="Ellipse 1350 (Stroke)" fill-rule="evenodd" clip-rule="evenodd" d="M9.99984 3.5186C6.42021 3.5186 3.51836 6.42046 3.51836 10.0001C3.51836 13.5797 6.42021 16.4816 9.99984 16.4816C13.5795 16.4816 16.4813 13.5797 16.4813 10.0001C16.4813 6.42046 13.5795 3.5186 9.99984 3.5186ZM1.6665 10.0001C1.6665 5.39771 5.39746 1.66675 9.99984 1.66675C14.6022 1.66675 18.3332 5.39771 18.3332 10.0001C18.3332 14.6025 14.6022 18.3334 9.99984 18.3334C5.39746 18.3334 1.6665 14.6025 1.6665 10.0001Z" fill="#181C21"/>
<path id="Ellipse 1351" d="M10.8332 6.66659C10.8332 7.12682 10.4601 7.49992 9.99984 7.49992C9.5396 7.49992 9.1665 7.12682 9.1665 6.66659C9.1665 6.20635 9.5396 5.83325 9.99984 5.83325C10.4601 5.83325 10.8332 6.20635 10.8332 6.66659Z" fill="#181C21"/>
<path id="Union" fill-rule="evenodd" clip-rule="evenodd" d="M8.3335 9.16659C8.3335 8.70635 8.70659 8.33325 9.16683 8.33325H10.0002C10.4604 8.33325 10.8335 8.70635 10.8335 9.16659L10.8335 12.4999C11.2937 12.4999 11.6668 12.873 11.6668 13.3333C11.6668 13.7935 11.2937 14.1666 10.8335 14.1666H10.0002C9.53993 14.1666 9.16683 13.7935 9.16683 13.3333V9.99992C8.70659 9.99992 8.3335 9.62682 8.3335 9.16659Z" fill="#181C21"/>
</g>
</svg>
