<svg width="71" height="79" viewBox="0 0 71 79" fill="none" xmlns="http://www.w3.org/2000/svg">
<path d="M45 109.004C65.9868 109.004 83 91.9907 83 71.0039C83 50.0171 65.9868 33.0039 45 33.0039C24.0132 33.0039 7 50.0171 7 71.0039C7 91.9907 24.0132 109.004 45 109.004Z" fill="url(#paint0_linear_4_219)"/>
<path d="M61.1387 63.0885L61.3668 60.5791C61.3668 60.5589 61.3705 60.5423 61.3742 60.5239C61.4257 60.2535 61.8562 57.7845 60.4065 56.6531C59.1701 55.6891 58.2723 55.1666 57.9706 55.001C57.897 54.9605 57.8198 54.9384 57.737 54.9311L54.0152 54.5926L51.6124 54.3736C51.1378 54.3313 50.7993 54.8262 51.0164 55.253L52.1441 57.4828C52.1828 57.5601 52.238 57.6281 52.306 57.6833L54.3058 59.2821C54.6057 59.5231 55.0509 59.4256 55.2257 59.0834L55.7096 58.1359C55.9064 57.7496 56.4344 57.6889 56.7141 58.02L58.2135 59.7899C58.3606 59.9628 58.3974 60.2056 58.311 60.4154L57.4169 62.5697C57.2605 62.9487 57.5144 63.37 57.9228 63.4068L60.48 63.6386C60.8149 63.6699 61.1092 63.4234 61.1405 63.0885H61.1387Z" fill="#CA1517"/>
<path d="M48.1926 64.5536C48.4447 64.4635 48.4888 63.5105 48.4815 62.7433C48.476 62.2484 48.0031 61.8952 47.5285 62.0313L45.295 62.6771C45.0761 62.7396 44.8388 62.6992 44.653 62.5667L41.8253 60.543L41.7811 61.0268C41.7738 61.1151 41.7498 61.1998 41.7112 61.2789L40.497 63.8343C40.4914 63.8472 40.4841 63.86 40.4767 63.8729C40.359 64.0863 39.2386 66.1303 39.1061 66.5111C38.9921 66.8386 37.7889 67.4586 37.3528 67.6738C37.248 67.7253 37.1597 67.8008 37.0898 67.8946L35.2463 70.3599C35.0918 70.5678 34.8397 70.68 34.5803 70.6561L33.5262 70.5604C33.1821 70.5291 32.8639 70.737 32.7516 71.0626L32.1096 72.9521C32.0139 73.2354 32.0967 73.55 32.3193 73.7487L34.113 75.3437C34.1406 75.3677 34.1646 75.3916 34.1866 75.4192C34.446 75.7282 36.1294 77.7078 36.3152 77.4208C36.5047 77.1265 39.3637 76.9425 39.6801 76.9222C39.7022 76.9222 39.7206 76.9186 39.7408 76.9149L43.194 76.3979C43.6319 76.3317 43.9171 75.903 43.8067 75.4744L43.6871 75.0126C43.6503 74.8672 43.6577 74.7145 43.7073 74.5747L44.9676 71.0571C44.986 71.0056 45.0099 70.9559 45.0393 70.9081L45.5655 70.0784C45.6759 69.9036 45.709 69.6902 45.6575 69.4897L45.3134 68.1816C45.2822 68.062 45.2803 67.9369 45.3097 67.8173L45.5544 66.8018C45.5912 66.6491 45.674 66.5129 45.7936 66.4099C46.4945 65.8138 47.8688 64.664 48.1853 64.5518L48.1926 64.5536Z" fill="#CA1517"/>
<path d="M11.522 60.5798L14.5373 63.4094C14.5649 63.4351 14.5944 63.4591 14.6275 63.4811L18.1138 65.8654C18.3806 66.0476 18.7356 66.0384 18.9914 65.8397L20.2295 64.8812C20.6931 64.5224 21.3683 64.8131 21.429 65.3945L21.7657 68.6839C21.7804 68.8201 21.8319 68.9507 21.9147 69.0592L24.1003 71.9293C24.2273 72.0967 24.4186 72.2015 24.6265 72.2199L25.7745 72.3248C26.3522 72.3782 26.7661 71.7802 26.5141 71.2577L23.9109 65.8654C23.8925 65.8268 23.8777 65.7882 23.8667 65.7477L23.2099 63.4738C23.0039 62.7581 23.8575 62.2154 24.4186 62.7048L26.2069 64.2704C26.3927 64.4341 26.6466 64.4948 26.8857 64.4304C27.6713 64.2225 29.5662 63.6945 31.636 62.9163C34.3533 61.8953 33.1703 61.3636 31.934 59.6379C30.6977 57.9122 33.323 57.3603 35.516 56.5011C37.709 55.6438 37.9187 55.6622 41.4473 54.9263C44.976 54.1904 45.1839 52.5162 45.8131 52.5733C46.2252 52.6101 47.4247 51.9054 48.2047 51.4142C48.5856 51.1732 48.6665 50.6544 48.3777 50.3067L45.2979 46.6051L42.9081 43.737C42.4702 43.2108 42.9118 42.4234 43.5888 42.5209C45.4414 42.7876 48.1698 43.2181 49.5809 43.61C50.6829 43.9172 51.588 44.4563 52.2264 44.9291C52.6919 45.2731 53.3523 44.9677 53.4057 44.3919L53.575 42.5356C53.6007 42.2523 53.4646 41.98 53.2217 41.8328L50.4915 40.1586C49.8164 39.7447 50.1677 38.6979 50.9533 38.7807C51.4887 38.8359 51.9854 38.9076 52.3331 38.9978C53.2438 39.2351 54.7046 36.7404 55.4184 35.3974C55.641 34.9761 55.4221 34.4536 54.9621 34.3285C52.8611 33.76 50.6847 33.3626 48.4439 33.1584C30.2874 31.5081 13.9597 42.9183 8.73845 59.6453C8.70901 59.7372 8.69797 59.8329 8.70533 59.9286L8.7642 60.7491C8.81572 61.4592 9.73743 61.7021 10.1311 61.1079L10.3942 60.7105C10.6499 60.326 11.189 60.2616 11.5275 60.578L11.522 60.5798Z" fill="#CA1517"/>
<path d="M50.3885 70.0253C51.014 69.9867 51.818 70.2516 52.1345 70.1836C52.4509 70.1155 54.2833 69.3354 54.8003 69.3446C55.0505 69.3483 55.1056 68.8313 55.0964 68.2941C55.0873 67.7992 54.5261 67.5214 54.1251 67.8158C53.9889 67.917 53.8638 68.0016 53.7792 68.0476C53.4517 68.2242 51.7904 68.2813 51.4537 68.5609C51.2017 68.7706 49.7097 68.5186 48.9793 68.3806C48.7346 68.3346 48.4881 68.4395 48.3538 68.6474L48.0281 69.1533C47.9748 69.2361 47.9435 69.3299 47.9343 69.4274L47.7614 71.3334L47.6675 72.3637C47.662 72.4299 47.6455 72.4943 47.6179 72.555L46.8765 74.2273C46.8121 74.3727 46.8065 74.5382 46.8636 74.6873L47.835 77.2813C47.8515 77.3273 47.8644 77.3751 47.8699 77.423L48.0373 78.8488C48.0705 79.1339 48.3004 79.3565 48.5856 79.3823L49.0878 79.4283C49.3987 79.4559 49.6802 79.2443 49.7391 78.9389L50.0003 77.5793C50.0169 77.4892 50.0151 77.3972 49.9911 77.3071L49.5846 75.7856C49.4503 75.2833 49.9654 74.8786 50.4382 75.0938C50.4419 75.0938 50.4437 75.0975 50.4474 75.0975C50.6479 75.1858 51.198 76.5656 51.5384 77.4634C51.6819 77.8424 52.151 77.9749 52.473 77.7284L52.9145 77.3917C53.0654 77.2758 53.1537 77.0973 53.1537 76.906L53.1463 75.3349C53.1463 75.1454 53.0562 74.9669 52.9035 74.8528L51.6212 73.887C51.3434 73.6772 51.2974 73.278 51.5218 73.0113L52.0921 72.3324C52.4307 71.9295 52.1326 71.3168 51.6064 71.3352H51.5899C51.4096 71.3426 51.2422 71.4272 51.1318 71.5689L50.4548 72.4373C50.3278 72.601 50.1273 72.6875 49.9212 72.6691L48.8137 72.5679C48.5046 72.5403 48.6555 70.8955 48.6831 70.5883C48.7107 70.2811 49.7667 70.0658 50.3904 70.0253H50.3885Z" fill="#CA1517"/>
<path d="M80.4195 77.5993L80.9254 76.2894C81.0468 75.9767 80.8904 75.6253 80.5777 75.5039L79.3874 75.0439C79.1758 74.9611 79.0268 74.768 79.0029 74.5435L78.8428 73.0625C78.8262 72.9117 78.7545 72.7718 78.6404 72.6707C77.9818 72.0948 75.7079 70.0932 75.4761 69.7179C75.2351 69.3278 70.5529 69.188 69.5153 69.1622C69.3828 69.1586 69.254 69.199 69.1473 69.2782L66.0602 71.5153C65.9406 71.6018 65.7953 71.6422 65.6481 71.6275L65.1808 71.5852C64.9196 71.5613 64.7043 71.3736 64.6436 71.1197L64.215 69.2892C64.1377 68.9562 63.801 68.7538 63.4699 68.8403L60.2779 69.6774C59.8106 69.7988 59.6671 70.3912 60.024 70.715L62.0385 72.5419C62.1176 72.6136 62.1747 72.7019 62.2078 72.8049C62.3329 73.195 62.6585 74.2087 62.7192 74.4626C62.7947 74.7808 67.8356 73.9953 68.1447 74.0229C68.3305 74.0394 68.9302 74.4313 69.381 74.7404C69.6698 74.9391 69.7324 75.342 69.5134 75.6179L67.3517 78.3591C67.0482 78.7437 67.3021 79.3121 67.7914 79.3416L70.0488 79.4777C70.0488 79.4777 74.0466 79.7371 74.5599 79.785C74.8193 79.8089 75.2424 79.1889 75.5975 78.567C75.8569 78.1145 76.5247 78.1697 76.6995 78.6609L77.1374 79.8935C77.1907 80.0462 77.3029 80.1695 77.4483 80.2375C78.2394 80.611 80.8592 81.8289 81.4332 81.8013C81.4736 81.6615 81.5086 81.518 81.5491 81.3782C81.4129 80.5448 80.6789 78.6811 80.4213 78.0427C80.3643 77.8992 80.3624 77.7428 80.4195 77.5993Z" fill="#CA1517"/>
<path d="M20.3121 76.7199C20.3434 76.7861 20.3802 76.8432 20.428 76.8984C20.9303 77.4669 23.8868 80.806 24.5012 81.3358C25.1727 81.9154 28.8798 83.2878 29.5808 82.4195C30.1345 81.7332 29.9285 80.8465 29.8199 80.5061C29.7887 80.4068 29.774 80.3037 29.7832 80.1989L29.9671 78.1715C29.9984 77.8311 29.7924 77.5128 29.4704 77.3988L27.1726 76.5966C26.9444 76.5175 26.7678 76.3317 26.7016 76.0981L26.3631 74.9243C26.2968 74.6925 26.1221 74.5085 25.8958 74.4276L21.3332 72.8123C21.2062 72.7681 21.094 72.689 21.0094 72.586L19.4456 70.7095C19.3334 70.5752 19.1788 70.485 19.0059 70.4537L13.2493 69.4069C12.8188 69.3278 12.4122 69.6369 12.3736 70.0729L12.3313 70.531C12.3 70.8714 12.5024 71.1878 12.8244 71.3019C14.2299 71.7986 17.8947 73.0901 18.3013 73.2097C18.7557 73.344 20.0564 76.1551 20.3121 76.7162V76.7199Z" fill="#CA1517"/>
<path d="M11.5906 30.1727L7.77238 32.9636C7.69737 33.0196 7.61013 33.057 7.51784 33.0727C6.90874 33.209 6.28147 32.5909 6.10874 31.709C6.00863 31.2747 6.05995 30.8193 6.2542 30.4181" fill="#07245C"/>
<path d="M14.2812 25.391L4.64487 28.7637L2.70851 30.0274H2.69942L2.73578 30.5728L11.8994 30.3001L11.8449 29.6183L12.954 29.5637L14.2812 25.391Z" fill="#AD2015"/>
<path d="M32.5726 14.9367C32.6865 14.9559 32.7989 14.9833 32.909 15.0186C33.0384 15.0541 33.1659 15.0966 33.2908 15.1458C33.4773 15.2022 33.6548 15.2849 33.818 15.3913C34.009 15.5458 32.4817 18.2367 30.9908 19.0276C30.7173 19.1919 30.3999 19.2681 30.0817 19.2458C29.4453 19.1913 29.3908 18.0276 29.609 17.8095L32.5726 14.9367Z" fill="white"/>
<path d="M27.4449 15.3365C26.2309 15.498 25.0621 15.903 24.0085 16.5274C23.8027 16.6322 23.6025 16.7475 23.4085 16.8729C21.2449 18.182 15.6994 22.591 12.1358 25.5365L16.1812 25.1092C19.7449 22.1638 25.2722 17.7547 27.454 16.4456L28.054 16.1001C29.1102 15.4815 30.2778 15.0769 31.4903 14.9092L27.4449 15.3365Z" fill="#AD2015"/>
<path d="M33.8363 15.4001C34.8272 15.9638 35.8272 17.2183 34.7454 19.8274C32.9272 23.6728 28.7 27.1001 25.4636 28.9183C21.2662 31.112 16.6472 32.3799 11.9181 32.6365L11.2636 29.5183C11.3454 29.4274 11.9636 28.9274 12.0636 28.8274L9.99995 18.8274C9.99995 18.8274 10.2545 18.6728 10.6363 18.4637L11.2909 18.1274C11.809 17.8728 14.7818 23.1456 16.1727 25.1092C19.7363 22.1638 25.2636 17.7547 27.4454 16.4456L28.0454 16.1001C30.7727 14.6001 32.3272 14.9001 32.409 14.9183H32.5727L29.6454 17.8183C29.4272 18.0365 29.4818 19.2001 30.1181 19.2547C30.4364 19.2769 30.7538 19.2008 31.0272 19.0365C32.5 18.2456 34.0272 15.5547 33.8363 15.4001Z" fill="url(#paint1_linear_4_219)"/>
<path d="M19.1531 27.6271C19.2497 27.5097 19.3152 27.37 19.3438 27.2207C19.3724 27.0714 19.3631 26.9173 19.3168 26.7726L19.0986 25.8635C19.0168 25.518 18.8168 25.3271 18.644 25.4271L17.7349 26.0271C17.6369 26.1437 17.5696 26.283 17.5395 26.4323C17.5093 26.5817 17.5171 26.7362 17.5622 26.8817L17.7895 27.7908C17.8713 28.1271 18.0713 28.318 18.244 28.2271L19.1531 27.6271Z" fill="white"/>
<path d="M24.6449 23.9547C24.7399 23.8382 24.8046 23.7001 24.8331 23.5525C24.8617 23.405 24.8532 23.2527 24.8085 23.1092L24.5812 22.2001C24.4994 21.8638 24.2994 21.6728 24.1267 21.7638L23.2176 22.3638C23.1226 22.4802 23.0579 22.6183 23.0293 22.7659C23.0008 22.9134 23.0092 23.0657 23.054 23.2092L23.2812 24.1183C23.363 24.4547 23.563 24.6456 23.7358 24.5547L24.6449 23.9456" fill="white"/>
<path d="M21.8995 25.7912C21.996 25.6738 22.0616 25.534 22.0902 25.3847C22.1187 25.2355 22.1094 25.0814 22.0631 24.9366L21.8358 24.0275C21.754 23.6912 21.554 23.5003 21.3904 23.5912L20.4813 24.1912C20.3847 24.3086 20.3192 24.4483 20.2906 24.5976C20.262 24.7469 20.2713 24.901 20.3176 25.0457L20.5449 25.9548C20.6267 26.3003 20.8267 26.4912 20.9995 26.3912L21.9086 25.7912" fill="white"/>
<path d="M27.39 22.1271C27.4865 22.0097 27.5521 21.87 27.5807 21.7207C27.6093 21.5714 27.6 21.4173 27.5536 21.2726L27.3264 20.3635C27.2445 20.018 27.0445 19.8271 26.8718 19.9271L25.9627 20.5271C25.8662 20.6445 25.8006 20.7843 25.772 20.9335C25.7434 21.0828 25.7527 21.2369 25.7991 21.3817L26.0264 22.2908C26.1082 22.6362 26.3082 22.818 26.4809 22.7271L27.39 22.1271Z" fill="white"/>
<path d="M11.2994 18.1183H11.3449L8.99941 18.4365H8.95396L8.29941 18.7728C7.91759 18.9819 7.68123 19.1274 7.66305 19.1365L9.72668 29.091C9.62668 29.191 9.0085 29.6819 8.91759 29.7819L9.39941 32.4183L11.9176 32.591L11.2721 29.4638C11.354 29.3728 11.9721 28.8728 12.0721 28.7728L9.99941 18.8183C9.99941 18.8183 10.2449 18.6638 10.6267 18.4547L11.2994 18.1183Z" fill="#AD2015"/>
<path d="M31.8173 22.082C27.3974 23.8743 23.2748 26.3264 19.59 29.3547L19.7355 30.0547L34.8264 29.6365L37.2718 27.6093L37.2264 26.882L31.8173 22.082Z" fill="#AD2015"/>
<path d="M23.7176 29.9998C23.4252 30.5583 23.3353 31.2007 23.4631 31.818C23.5011 32.1212 23.599 32.4137 23.7513 32.6786C23.9036 32.9435 24.1071 33.1754 24.35 33.3607C24.5929 33.5461 24.8703 33.6812 25.166 33.7581C25.4617 33.8351 25.7698 33.8523 26.0722 33.8089C26.4584 33.7184 26.8094 33.516 27.0813 33.2271L31.0086 29.7544L23.7176 29.9998Z" fill="#07245C"/>
<path d="M16.3627 20.5819C16.4082 20.5819 16.4445 20.6547 16.5082 20.6274C16.5718 20.6001 16.5536 20.5183 16.5082 20.4637C16.4411 20.2254 16.4369 19.9737 16.4958 19.7332C16.5548 19.4926 16.6749 19.2714 16.8445 19.091C17.9991 17.6819 19.1445 16.2637 20.2991 14.8637C20.6293 14.4843 20.8715 14.0365 21.0082 13.5524C21.145 13.0683 21.1729 12.5599 21.09 12.0637C20.9826 11.2812 20.595 10.5641 19.9991 10.0456C19.6809 9.76375 19.3445 9.50011 19.0173 9.23648L17.4536 7.96375C16.7354 7.39102 16.0264 6.8092 15.3173 6.22739C15.2718 6.22739 15.2264 6.13648 15.1627 6.22739C15.0991 6.31829 15.1627 6.32739 15.1627 6.38193C15.2311 6.61615 15.2395 6.8638 15.187 7.1021C15.1346 7.34039 15.0231 7.56167 14.8627 7.74557C14.7445 7.9092 14.6082 8.06375 14.4809 8.21829L11.7536 11.5092C11.4542 11.8357 11.1892 12.1921 10.9627 12.5728C10.7105 13.0212 10.5673 13.5226 10.5445 14.0365C10.5129 14.2748 10.5129 14.5163 10.5445 14.7547C10.6635 15.568 11.0777 16.3091 11.7082 16.8365C12.29 17.3365 12.89 17.8274 13.5264 18.3092C13.9445 18.6365 14.3536 18.9728 14.7627 19.3092L16.3627 20.5819Z" fill="#07245C"/>
<path d="M19.0906 13.3094C19.0912 12.852 18.9952 12.3997 18.8088 11.9821C18.5492 11.422 18.1348 10.9478 17.6145 10.6155C17.0943 10.2831 16.4898 10.1066 15.8724 10.1066C15.2551 10.1066 14.6506 10.2831 14.1303 10.6155C13.61 10.9478 13.1956 11.422 12.9361 11.9821C12.7186 12.4737 12.6271 13.0117 12.6696 13.5475C12.7122 14.0833 12.8875 14.6001 13.1798 15.0512C13.4721 15.5023 13.8722 15.8734 14.3439 16.1312C14.8156 16.389 15.344 16.5252 15.8815 16.5276C16.732 16.5204 17.5454 16.1788 18.146 15.5765C18.7465 14.9743 19.0859 14.1599 19.0906 13.3094ZM15.8542 16.1366C15.4895 15.7476 15.2107 15.286 15.0361 14.7821C15.3376 14.8195 15.6413 14.8377 15.9451 14.8366C16.1813 14.85 16.4181 14.85 16.6542 14.8366C16.4717 15.3206 16.1934 15.7627 15.8361 16.1366H15.8542ZM14.9451 14.3912C14.8716 14.0938 14.8349 13.7885 14.8361 13.4821C14.8218 13.249 14.8218 13.0152 14.8361 12.7821C15.1966 12.8421 15.5615 12.8725 15.927 12.873C16.2311 12.8738 16.535 12.8525 16.8361 12.8094C16.8361 13.0185 16.8361 13.2457 16.8361 13.4821C16.8366 13.807 16.7969 14.1306 16.7179 14.4457C16.1152 14.5118 15.5063 14.4934 14.9088 14.3912H14.9451ZM12.9815 13.3094C12.9834 12.9583 13.0481 12.6104 13.1724 12.2821C13.607 12.4605 14.0575 12.5975 14.5179 12.6912C14.5179 12.9366 14.5179 13.1821 14.5179 13.4548C14.5157 13.7602 14.5462 14.065 14.6088 14.3639C14.0802 14.266 13.5646 14.1074 13.0724 13.8912C13.0082 13.7027 12.9655 13.5075 12.9451 13.3094H12.9815ZM15.8724 10.5821C16.4213 11.0601 16.7662 11.7303 16.8361 12.4548C16.1973 12.5513 15.5476 12.5513 14.9088 12.4548C14.9534 11.7209 15.2868 11.0346 15.8361 10.5457L15.8724 10.5821ZM17.1815 12.7276C17.6454 12.6348 18.0969 12.4883 18.527 12.2912C18.6593 12.6175 18.7272 12.9663 18.727 13.3185C18.7277 13.5017 18.7094 13.6845 18.6724 13.8639C18.1832 14.104 17.6631 14.2753 17.127 14.373C17.1874 14.0738 17.2179 13.7692 17.2179 13.4639C17.22 13.218 17.2079 12.9721 17.1815 12.7276ZM18.3815 11.9639C17.9866 12.1477 17.5717 12.285 17.1451 12.373C17.061 11.6538 16.7414 10.9826 16.2361 10.4639C16.6856 10.5266 17.1141 10.6942 17.4868 10.9532C17.8595 11.2122 18.166 11.5553 18.3815 11.9548V11.9639ZM15.3906 10.473C14.9124 10.9849 14.6154 11.6396 14.5451 12.3366C14.1201 12.244 13.7036 12.1163 13.2997 11.9548C13.5109 11.5629 13.8092 11.2246 14.1717 10.9662C14.5342 10.7077 14.9512 10.5359 15.3906 10.4639V10.473ZM13.1179 14.3003C13.6053 14.4931 14.1108 14.6363 14.627 14.7276C14.778 15.2555 15.0347 15.7473 15.3815 16.173C14.8706 16.0899 14.3912 15.8716 13.9932 15.5407C13.5951 15.2098 13.2929 14.7783 13.1179 14.2912V14.3003ZM16.2815 16.173C16.6221 15.7534 16.8783 15.2718 17.0361 14.7548C17.556 14.6714 18.0632 14.5217 18.5451 14.3094C18.367 14.7919 18.0632 15.2182 17.6653 15.5442C17.2674 15.8702 16.7897 16.0841 16.2815 16.1639V16.173Z" fill="white"/>
<defs>
<linearGradient id="paint0_linear_4_219" x1="14.1435" y1="45.4699" x2="52.0314" y2="105.81" gradientUnits="userSpaceOnUse">
<stop stop-color="#F54F16"/>
<stop offset="0.234332" stop-color="#F05C4B"/>
<stop offset="0.44481" stop-color="#ED2638"/>
<stop offset="0.74" stop-color="#81020C"/>
</linearGradient>
<linearGradient id="paint1_linear_4_219" x1="10.4436" y1="24.6078" x2="35.5901" y2="22.7082" gradientUnits="userSpaceOnUse">
<stop stop-color="#FA7C55"/>
<stop offset="0.15" stop-color="#F75A49"/>
<stop offset="0.43" stop-color="#F22136"/>
<stop offset="0.56" stop-color="#F00B2E"/>
<stop offset="0.97" stop-color="#C3001C"/>
</linearGradient>
</defs>
</svg>
