<svg width="16" height="16" viewBox="0 0 16 16" fill="none" xmlns="http://www.w3.org/2000/svg">
<ellipse cx="7.99967" cy="12.0002" rx="0.666667" ry="0.666667" fill="#FF0025"/>
<path d="M6.66699 3.66683C6.66699 3.48273 6.81623 3.3335 7.00033 3.3335H9.00033C9.18442 3.3335 9.33366 3.48273 9.33366 3.66683C9.33366 3.85092 9.18442 4.00016 9.00033 4.00016H7.00033C6.81623 4.00016 6.66699 3.85092 6.66699 3.66683Z" fill="#FF0025"/>
<path fill-rule="evenodd" clip-rule="evenodd" d="M4.66634 1.3335C3.92996 1.3335 3.33301 1.93045 3.33301 2.66683V12.3952C3.45766 12.4743 3.61314 12.5326 3.79926 12.5753C4.06609 12.6365 4.363 12.6576 4.66634 12.6644V2.66683L11.333 2.66683V13.3335H5.31741C5.26922 13.3335 5.21939 13.3337 5.16819 13.334L5.16763 13.334C5.04848 13.3345 4.92189 13.335 4.7911 13.3335H4.66634V13.3314C4.33047 13.3239 3.97437 13.2995 3.65013 13.225C3.5434 13.2005 3.43685 13.1698 3.33301 13.1314V13.3335C3.33301 14.0699 3.92996 14.6668 4.66634 14.6668H11.333C12.0694 14.6668 12.6663 14.0699 12.6663 13.3335V2.66683C12.6663 1.93045 12.0694 1.3335 11.333 1.3335H4.66634Z" fill="#FF0025"/>
</svg>
