<svg width="20" height="20" viewBox="0 0 20 20" fill="none" xmlns="http://www.w3.org/2000/svg">
<g clip-path="url(#clip0_3215_287535)">
<path d="M9.99902 16.7852C13.7609 16.7852 16.8105 13.7355 16.8105 9.97363C16.8105 6.21173 13.7609 3.16211 9.99902 3.16211C6.23712 3.16211 3.1875 6.21173 3.1875 9.97363C3.1875 13.7355 6.23712 16.7852 9.99902 16.7852Z" fill="url(#paint0_linear_3215_287535)"/>
<path d="M17.9996 9.09932C17.6864 8.73214 17.5865 8.22921 17.7353 7.77055C17.9459 7.12211 17.6539 6.41638 17.0458 6.10616C16.6161 5.88676 16.331 5.46033 16.2932 4.97953C16.2398 4.29952 15.6995 3.75916 15.0194 3.70577C14.5387 3.66801 14.1116 3.38285 13.8928 2.95317C13.5833 2.34574 12.8775 2.0531 12.2284 2.26371C11.7698 2.4128 11.2662 2.31254 10.8997 1.99939C10.3811 1.55636 9.61711 1.55636 9.09823 1.99939C8.73104 2.31254 8.22811 2.41248 7.76945 2.26371C7.12101 2.0531 6.41528 2.34509 6.10506 2.95317C5.88566 3.38285 5.45923 3.66801 4.97843 3.70577C4.29842 3.75916 3.75806 4.29952 3.70467 4.97953C3.66691 5.46033 3.38175 5.88741 2.95207 6.10616C2.34465 6.41606 2.052 7.12179 2.26261 7.77055C2.4117 8.22921 2.31144 8.73279 1.99829 9.09932C1.55526 9.61788 1.55526 10.3819 1.99829 10.9008C2.31144 11.2679 2.41138 11.7709 2.26261 12.2295C2.052 12.878 2.34399 13.5837 2.95207 13.8939C3.38175 14.1133 3.66691 14.5398 3.70467 15.0205C3.75806 15.7006 4.29842 16.2409 4.97843 16.2943C5.45923 16.3321 5.88631 16.6172 6.10506 17.0469C6.41496 17.6543 7.12069 17.947 7.76945 17.7364C8.22811 17.5873 8.73169 17.6875 9.09823 18.0007C9.61678 18.4437 10.3808 18.4437 10.8997 18.0007C11.2668 17.6875 11.7698 17.5876 12.2284 17.7364C12.8769 17.947 13.5826 17.655 13.8928 17.0469C14.1122 16.6172 14.5387 16.3321 15.0194 16.2943C15.6995 16.2409 16.2398 15.7006 16.2932 15.0205C16.331 14.5398 16.6161 14.1127 17.0458 13.8939C17.6532 13.584 17.9459 12.8783 17.7353 12.2295C17.5862 11.7709 17.6864 11.2673 17.9996 10.9008C18.4426 10.3822 18.4426 9.6182 17.9996 9.09932ZM9.99829 16.8168C6.23364 16.8168 3.18188 13.765 3.18188 10.0004C3.18188 6.23572 6.23364 3.18331 9.99829 3.18331C13.7629 3.18331 16.8147 6.23507 16.8147 9.99971C16.8147 13.7644 13.7629 16.8161 9.99829 16.8161V16.8168Z" fill="#E10D16"/>
<path d="M6.66406 14.1489L9.16406 10.8156L9.9974 11.2322L8.33073 15.3989L7.91406 14.1489H6.66406Z" fill="url(#paint1_linear_3215_287535)"/>
<path d="M6.66406 14.1489L9.16406 10.8156L9.9974 11.2322L8.33073 15.3989L7.91406 14.1489H6.66406Z" fill="url(#paint2_linear_3215_287535)"/>
<path d="M13.3301 14.1489L10.8301 10.8156L9.99674 11.2322L11.6634 15.3989L12.0801 14.1489H13.3301Z" fill="url(#paint3_linear_3215_287535)"/>
<path d="M13.3301 14.1489L10.8301 10.8156L9.99674 11.2322L11.6634 15.3989L12.0801 14.1489H13.3301Z" fill="url(#paint4_linear_3215_287535)"/>
<path d="M10.4104 13.2713C10.3281 13.2127 10.2718 13.1782 10.221 13.1362C9.37853 12.4392 8.53283 11.7459 7.69526 11.0431C6.87723 10.3569 6.76297 9.18306 7.43778 8.33508C8.05627 7.55709 8.68712 6.78886 9.32222 6.02421C9.54943 5.7511 9.69429 5.46822 9.59989 5.10494C9.59435 5.08313 9.60444 5.05741 9.61193 4.99915C9.67703 5.04016 9.72847 5.06555 9.77209 5.10103C10.611 5.78267 11.4534 6.46041 12.2861 7.14954C13.1669 7.87838 13.2838 9.06718 12.5657 9.9565C11.9453 10.7254 11.3209 11.491 10.6894 12.2501C10.4664 12.5187 10.3291 12.7983 10.4208 13.1538C10.4264 13.1759 10.4173 13.2013 10.4101 13.2713H10.4098H10.4104ZM8.6243 8.35006C8.92313 8.35006 9.19591 8.35754 9.46772 8.34745C9.61779 8.34192 9.66011 8.39823 9.6562 8.54146C9.64513 8.93241 9.64546 9.32401 9.64318 9.71529C9.64123 10.0571 9.63765 10.3986 9.64448 10.7404C9.64871 10.9292 9.71512 11.0965 9.90067 11.1831C10.0979 11.2749 10.2913 11.254 10.4466 11.1775C10.4189 10.9441 10.3776 10.7433 10.3753 10.5418C10.3655 9.81523 10.371 9.08834 10.3665 8.36145C10.3639 7.95325 10.1025 7.65344 9.72293 7.63098C9.48758 7.61666 9.25093 7.62089 9.01493 7.62968C8.77664 7.63847 8.63114 7.79862 8.62463 8.04016C8.62202 8.13228 8.62463 8.22473 8.62463 8.35103H8.6243V8.35006ZM10.1559 7.63749C10.2545 7.77063 10.3909 7.8748 10.4108 7.99719C10.4687 8.35331 10.694 8.3787 10.9746 8.35038C11.0602 8.34159 11.1507 8.36112 11.2333 8.34257C11.2903 8.3302 11.3798 8.27909 11.3831 8.23938C11.3984 8.03983 11.3899 7.83899 11.3899 7.63684H10.1559V7.63749Z" fill="url(#paint5_linear_3215_287535)"/>
<path d="M10.4104 13.2713C10.3281 13.2127 10.2718 13.1782 10.221 13.1362C9.37853 12.4392 8.53283 11.7459 7.69526 11.0431C6.87723 10.3569 6.76297 9.18306 7.43778 8.33508C8.05627 7.55709 8.68712 6.78886 9.32222 6.02421C9.54943 5.7511 9.69429 5.46822 9.59989 5.10494C9.59435 5.08313 9.60444 5.05741 9.61193 4.99915C9.67703 5.04016 9.72847 5.06555 9.77209 5.10103C10.611 5.78267 11.4534 6.46041 12.2861 7.14954C13.1669 7.87838 13.2838 9.06718 12.5657 9.9565C11.9453 10.7254 11.3209 11.491 10.6894 12.2501C10.4664 12.5187 10.3291 12.7983 10.4208 13.1538C10.4264 13.1759 10.4173 13.2013 10.4101 13.2713H10.4098H10.4104ZM8.6243 8.35006C8.92313 8.35006 9.19591 8.35754 9.46772 8.34745C9.61779 8.34192 9.66011 8.39823 9.6562 8.54146C9.64513 8.93241 9.64546 9.32401 9.64318 9.71529C9.64123 10.0571 9.63765 10.3986 9.64448 10.7404C9.64871 10.9292 9.71512 11.0965 9.90067 11.1831C10.0979 11.2749 10.2913 11.254 10.4466 11.1775C10.4189 10.9441 10.3776 10.7433 10.3753 10.5418C10.3655 9.81523 10.371 9.08834 10.3665 8.36145C10.3639 7.95325 10.1025 7.65344 9.72293 7.63098C9.48758 7.61666 9.25093 7.62089 9.01493 7.62968C8.77664 7.63847 8.63114 7.79862 8.62463 8.04016C8.62202 8.13228 8.62463 8.22473 8.62463 8.35103H8.6243V8.35006ZM10.1559 7.63749C10.2545 7.77063 10.3909 7.8748 10.4108 7.99719C10.4687 8.35331 10.694 8.3787 10.9746 8.35038C11.0602 8.34159 11.1507 8.36112 11.2333 8.34257C11.2903 8.3302 11.3798 8.27909 11.3831 8.23938C11.3984 8.03983 11.3899 7.83899 11.3899 7.63684H10.1559V7.63749Z" fill="url(#paint6_linear_3215_287535)"/>
<path d="M8.62406 8.35001C8.62406 8.22436 8.62178 8.13159 8.62406 8.03914C8.6309 7.79793 8.7764 7.63744 9.01436 7.62866C9.25036 7.61987 9.48702 7.61563 9.72237 7.62996C10.1019 7.65307 10.363 7.95287 10.3659 8.36043C10.3711 9.08731 10.3649 9.81388 10.3747 10.5408C10.3773 10.7419 10.419 10.9434 10.446 11.1765C10.2907 11.253 10.0974 11.2738 9.9001 11.182C9.71455 11.0958 9.64815 10.9288 9.64392 10.7393C9.63643 10.3979 9.64066 10.0561 9.64261 9.71427C9.64457 9.32332 9.64457 8.93172 9.65563 8.54044C9.65987 8.39721 9.6169 8.3409 9.46716 8.34643C9.19535 8.35652 8.92256 8.34903 8.62373 8.34903H8.62406V8.35001Z" fill="white"/>
<path d="M10.1562 7.63745H11.3903C11.3903 7.83927 11.3984 8.04045 11.3835 8.23999C11.3802 8.2797 11.291 8.33081 11.2337 8.34318C11.1507 8.36108 11.0605 8.3422 10.9749 8.35099C10.695 8.37899 10.4691 8.3536 10.4111 7.9978C10.3913 7.87476 10.2549 7.77124 10.1562 7.6381V7.63745Z" fill="white"/>
</g>
<defs>
<linearGradient id="paint0_linear_3215_287535" x1="10.0859" y1="3.42643" x2="9.91016" y2="16.6738" gradientUnits="userSpaceOnUse">
<stop stop-color="white"/>
<stop offset="1" stop-color="#CED0D1"/>
</linearGradient>
<linearGradient id="paint1_linear_3215_287535" x1="7.4974" y1="14.9822" x2="9.16406" y2="12.0656" gradientUnits="userSpaceOnUse">
<stop stop-color="#98D31A"/>
<stop offset="0.15" stop-color="#0FAF34"/>
<stop offset="0.365" stop-color="#09A32D"/>
<stop offset="0.764858" stop-color="#008E53"/>
<stop offset="0.99" stop-color="#007444"/>
</linearGradient>
<linearGradient id="paint2_linear_3215_287535" x1="7.49805" y1="14.4991" x2="8.99805" y2="12.4991" gradientUnits="userSpaceOnUse">
<stop stop-color="#F77C55"/>
<stop offset="0.15" stop-color="#F45A49"/>
<stop offset="0.43" stop-color="#EF2136"/>
<stop offset="0.56" stop-color="#ED0B2E"/>
<stop offset="0.97" stop-color="#C0001C"/>
</linearGradient>
<linearGradient id="paint3_linear_3215_287535" x1="12.9134" y1="14.9822" x2="10.8301" y2="12.0656" gradientUnits="userSpaceOnUse">
<stop stop-color="#98D31A"/>
<stop offset="0.15" stop-color="#0FAF34"/>
<stop offset="0.365" stop-color="#09A32D"/>
<stop offset="0.85" stop-color="#008E53"/>
<stop offset="0.99" stop-color="#007444"/>
</linearGradient>
<linearGradient id="paint4_linear_3215_287535" x1="12.4961" y1="14.4991" x2="10.9961" y2="12.4991" gradientUnits="userSpaceOnUse">
<stop stop-color="#F77C55"/>
<stop offset="0.15" stop-color="#F45A49"/>
<stop offset="0.43" stop-color="#EF2136"/>
<stop offset="0.56" stop-color="#ED0B2E"/>
<stop offset="0.97" stop-color="#C0001C"/>
</linearGradient>
<linearGradient id="paint5_linear_3215_287535" x1="6.998" y1="9.13489" x2="13.0351" y2="9.13489" gradientUnits="userSpaceOnUse">
<stop stop-color="#98D31A"/>
<stop offset="0.15" stop-color="#0FAF34"/>
<stop offset="0.43" stop-color="#09A32D"/>
<stop offset="0.695544" stop-color="#008E21"/>
<stop offset="0.97" stop-color="#008E53"/>
</linearGradient>
<linearGradient id="paint6_linear_3215_287535" x1="6.998" y1="9.13489" x2="13.0351" y2="9.13489" gradientUnits="userSpaceOnUse">
<stop stop-color="#F77C55"/>
<stop offset="0.15" stop-color="#F45A49"/>
<stop offset="0.43" stop-color="#EF2136"/>
<stop offset="0.56" stop-color="#ED0B2E"/>
<stop offset="0.97" stop-color="#C0001C"/>
</linearGradient>
<clipPath id="clip0_3215_287535">
<rect width="16.6667" height="16.6667" fill="white" transform="translate(1.66602 1.66663)"/>
</clipPath>
</defs>
</svg>
