<svg width="17" height="16" viewBox="0 0 17 16" fill="none" xmlns="http://www.w3.org/2000/svg">
<g clip-path="url(#clip0_3173_477395)">
<path d="M8.5 13.428C11.5095 13.428 13.9492 10.9883 13.9492 7.97876C13.9492 4.96924 11.5095 2.52954 8.5 2.52954C5.49048 2.52954 3.05078 4.96924 3.05078 7.97876C3.05078 10.9883 5.49048 13.428 8.5 13.428Z" fill="url(#paint0_linear_3173_477395)"/>
<path d="M14.9008 7.27951C14.6503 6.98576 14.5704 6.58341 14.6894 6.21649C14.8579 5.69774 14.6243 5.13315 14.1378 4.88498C13.7941 4.70946 13.5659 4.36831 13.5357 3.98367C13.493 3.43966 13.0607 3.00737 12.5167 2.96466C12.1321 2.93446 11.7904 2.70633 11.6154 2.36258C11.3678 1.87664 10.8032 1.64253 10.2839 1.81102C9.91699 1.93029 9.51413 1.85008 9.2209 1.59956C8.80605 1.24513 8.19486 1.24513 7.77975 1.59956C7.486 1.85008 7.08366 1.93003 6.71673 1.81102C6.19798 1.64253 5.6334 1.87612 5.38522 2.36258C5.2097 2.70633 4.86855 2.93446 4.48392 2.96466C3.93991 3.00737 3.50762 3.43966 3.46491 3.98367C3.4347 4.36831 3.20658 4.70998 2.86283 4.88498C2.37689 5.13289 2.14277 5.69748 2.31126 6.21649C2.43053 6.58341 2.35033 6.98628 2.0998 7.27951C1.74538 7.69435 1.74538 8.30555 2.0998 8.72065C2.35033 9.0144 2.43027 9.41675 2.31126 9.78367C2.14277 10.3024 2.37637 10.867 2.86283 11.1152C3.20658 11.2907 3.4347 11.6319 3.46491 12.0165C3.50762 12.5605 3.93991 12.9928 4.48392 13.0355C4.86855 13.0657 5.21022 13.2938 5.38522 13.6376C5.63314 14.1235 6.19772 14.3576 6.71673 14.1891C7.08366 14.0699 7.48652 14.1501 7.77975 14.4006C8.1946 14.755 8.80579 14.755 9.2209 14.4006C9.51465 14.1501 9.91699 14.0701 10.2839 14.1891C10.8027 14.3576 11.3673 14.124 11.6154 13.6376C11.7909 13.2938 12.1321 13.0657 12.5167 13.0355C13.0607 12.9928 13.493 12.5605 13.5357 12.0165C13.5659 11.6319 13.7941 11.2902 14.1378 11.1152C14.6238 10.8673 14.8579 10.3027 14.6894 9.78367C14.5701 9.41675 14.6503 9.01388 14.9008 8.72065C15.2553 8.30581 15.2553 7.69461 14.9008 7.27951ZM8.4998 13.4535C5.48809 13.4535 3.04668 11.0121 3.04668 8.00034C3.04668 4.98862 5.48809 2.5467 8.4998 2.5467C11.5115 2.5467 13.9529 4.9881 13.9529 7.99982C13.9529 11.0115 11.5115 13.4529 8.4998 13.4529V13.4535Z" fill="#9CA9B9"/>
<path d="M5.83203 11.319L7.83203 8.65234L8.4987 8.98568L7.16536 12.319L6.83203 11.319H5.83203Z" fill="#9CA9B9"/>
<path d="M11.166 11.319L9.16602 8.65234L8.49935 8.98568L9.83268 12.319L10.166 11.319H11.166Z" fill="#9CA9B9"/>
<path d="M8.82952 10.617C8.76363 10.5701 8.71858 10.5425 8.67796 10.5089C8.004 9.95135 7.32743 9.39666 6.65738 8.83442C6.00296 8.28547 5.91155 7.3464 6.45139 6.66802C6.94618 6.04562 7.45087 5.43104 7.95894 4.81932C8.14072 4.60083 8.2566 4.37453 8.18108 4.0839C8.17665 4.06646 8.18473 4.04588 8.19072 3.99927C8.2428 4.03208 8.28395 4.05239 8.31884 4.08078C8.98993 4.62609 9.66389 5.16828 10.33 5.71958C11.0347 6.30265 11.1282 7.25369 10.5537 7.96515C10.0574 8.58026 9.5579 9.19276 9.0527 9.80005C8.87431 10.0149 8.76441 10.2386 8.83785 10.523C8.84228 10.5407 8.83499 10.561 8.82926 10.617H8.829H8.82952ZM7.40061 6.68C7.63967 6.68 7.8579 6.68599 8.07535 6.67791C8.1954 6.67349 8.22926 6.71854 8.22613 6.83312C8.21728 7.14588 8.21754 7.45916 8.21572 7.77218C8.21415 8.04562 8.21129 8.3188 8.21676 8.59224C8.22014 8.74328 8.27327 8.87713 8.42171 8.9464C8.57952 9.01984 8.73421 9.00317 8.85842 8.94198C8.83629 8.75526 8.80322 8.59458 8.80139 8.43338C8.79358 7.85213 8.79801 7.27062 8.79436 6.68911C8.79228 6.36255 8.58316 6.1227 8.27952 6.10474C8.09124 6.09328 7.90191 6.09666 7.71311 6.10369C7.52249 6.11073 7.40608 6.23885 7.40087 6.43208C7.39879 6.50578 7.40087 6.57974 7.40087 6.68078H7.40061V6.68ZM8.62587 6.10994C8.70478 6.21645 8.81389 6.29979 8.82978 6.3977C8.87613 6.6826 9.05634 6.70291 9.28082 6.68026C9.34931 6.67323 9.42171 6.68885 9.48785 6.67401C9.53342 6.66411 9.60504 6.62323 9.60764 6.59145C9.61988 6.43182 9.61311 6.27114 9.61311 6.10942H8.62587V6.10994Z" fill="#9CA9B9"/>
<path d="M7.4012 6.67996C7.4012 6.57944 7.39938 6.50522 7.4012 6.43126C7.40667 6.23829 7.52308 6.10991 7.71344 6.10288C7.90224 6.09584 8.09157 6.09246 8.27985 6.10392C8.58349 6.12241 8.79235 6.36225 8.79469 6.68829C8.79886 7.2698 8.79391 7.85105 8.80172 8.43256C8.8038 8.5935 8.83714 8.7547 8.85875 8.94116C8.73453 9.00236 8.57985 9.01902 8.42203 8.94558C8.2736 8.87657 8.22047 8.74298 8.21709 8.59142C8.2111 8.31824 8.21448 8.0448 8.21604 7.77137C8.21761 7.4586 8.21761 7.14532 8.22646 6.8323C8.22985 6.71772 8.19547 6.67267 8.07568 6.67709C7.85823 6.68517 7.64 6.67918 7.40094 6.67918H7.4012V6.67996Z" fill="white"/>
<path d="M8.625 6.10986H9.61224C9.61224 6.27132 9.61875 6.43226 9.60677 6.59189C9.60417 6.62367 9.53281 6.66455 9.48698 6.67445C9.42057 6.68877 9.34844 6.67367 9.27995 6.6807C9.05599 6.70309 8.87526 6.68278 8.82891 6.39814C8.81302 6.29971 8.70391 6.21689 8.625 6.11038V6.10986Z" fill="white"/>
</g>
<defs>
<linearGradient id="paint0_linear_3173_477395" x1="8.56953" y1="2.741" x2="8.42891" y2="13.3389" gradientUnits="userSpaceOnUse">
<stop stop-color="white"/>
<stop offset="1" stop-color="#CED0D1"/>
</linearGradient>
<clipPath id="clip0_3173_477395">
<rect width="13.3333" height="13.3333" fill="white" transform="translate(1.83398 1.33325)"/>
</clipPath>
</defs>
</svg>
