<svg width="32" height="32" viewBox="0 0 32 32" fill="none" xmlns="http://www.w3.org/2000/svg">
<g clip-path="url(#clip0_3084_416712)">
<path d="M16 26.8555C22.019 26.8555 26.8984 21.9761 26.8984 15.957C26.8984 9.93799 22.019 5.05859 16 5.05859C9.98096 5.05859 5.10156 9.93799 5.10156 15.957C5.10156 21.9761 9.98096 26.8555 16 26.8555Z" fill="url(#paint0_linear_3084_416712)"/>
<path d="M28.8017 14.5595C28.3006 13.972 28.1408 13.1673 28.3788 12.4335C28.7158 11.396 28.2486 10.2668 27.2756 9.77044C26.5881 9.4194 26.1319 8.73711 26.0715 7.96784C25.9861 6.87982 25.1215 6.01523 24.0335 5.92982C23.2642 5.8694 22.5809 5.41315 22.2309 4.72565C21.7355 3.75378 20.6064 3.28555 19.5678 3.62253C18.834 3.86107 18.0283 3.70065 17.4418 3.19961C16.6121 2.49076 15.3897 2.49076 14.5595 3.19961C13.972 3.70065 13.1673 3.86055 12.4335 3.62253C11.396 3.28555 10.2668 3.75273 9.77044 4.72565C9.4194 5.41315 8.73711 5.8694 7.96784 5.92982C6.87982 6.01523 6.01523 6.87982 5.92982 7.96784C5.8694 8.73711 5.41315 9.42044 4.72565 9.77044C3.75378 10.2663 3.28555 11.3954 3.62253 12.4335C3.86107 13.1673 3.70065 13.973 3.19961 14.5595C2.49076 15.3892 2.49076 16.6116 3.19961 17.4418C3.70065 18.0293 3.86055 18.834 3.62253 19.5678C3.28555 20.6053 3.75273 21.7345 4.72565 22.2309C5.41315 22.5819 5.8694 23.2642 5.92982 24.0335C6.01523 25.1215 6.87982 25.9861 7.96784 26.0715C8.73711 26.1319 9.42044 26.5881 9.77044 27.2756C10.2663 28.2475 11.3954 28.7157 12.4335 28.3788C13.1673 28.1402 13.973 28.3006 14.5595 28.8017C15.3892 29.5105 16.6116 29.5105 17.4418 28.8017C18.0293 28.3006 18.834 28.1408 19.5678 28.3788C20.6053 28.7157 21.7345 28.2486 22.2309 27.2756C22.5819 26.5881 23.2642 26.1319 24.0335 26.0715C25.1215 25.9861 25.9861 25.1215 26.0715 24.0335C26.1319 23.2642 26.5881 22.5809 27.2756 22.2309C28.2475 21.735 28.7158 20.6059 28.3788 19.5678C28.1402 18.834 28.3006 18.0283 28.8017 17.4418C29.5105 16.6121 29.5105 15.3897 28.8017 14.5595ZM15.9996 26.9074C9.97617 26.9074 5.09336 22.0246 5.09336 16.0012C5.09336 9.97773 9.97617 5.09388 15.9996 5.09388C22.023 5.09388 26.9059 9.97669 26.9059 16.0001C26.9059 22.0236 22.023 26.9064 15.9996 26.9064V26.9074Z" fill="#E10D16"/>
<path d="M10.666 22.638L14.666 17.3047L15.9993 17.9714L13.3327 24.638L12.666 22.638H10.666Z" fill="url(#paint1_linear_3084_416712)"/>
<path d="M10.666 22.638L14.666 17.3047L15.9993 17.9714L13.3327 24.638L12.666 22.638H10.666Z" fill="url(#paint2_linear_3084_416712)"/>
<path d="M21.332 22.638L17.332 17.3047L15.9987 17.9714L18.6654 24.638L19.332 22.638H21.332Z" fill="url(#paint3_linear_3084_416712)"/>
<path d="M21.332 22.638L17.332 17.3047L15.9987 17.9714L18.6654 24.638L19.332 22.638H21.332Z" fill="url(#paint4_linear_3084_416712)"/>
<path d="M16.659 21.2354C16.5273 21.1417 16.4372 21.0865 16.3559 21.0193C15.008 19.9042 13.6549 18.7948 12.3148 17.6703C11.0059 16.5724 10.8231 14.6943 11.9028 13.3375C12.8924 12.0927 13.9017 10.8635 14.9179 9.6401C15.2814 9.20312 15.5132 8.75052 15.3622 8.16927C15.3533 8.13437 15.3695 8.09323 15.3814 8C15.4856 8.06562 15.5679 8.10625 15.6377 8.16302C16.9799 9.25365 18.3278 10.338 19.6601 11.4406C21.0695 12.6068 21.2564 14.5089 20.1075 15.9318C19.1148 17.162 18.1158 18.387 17.1054 19.6016C16.7486 20.0312 16.5288 20.4786 16.6757 21.0474C16.6846 21.0828 16.67 21.1234 16.6585 21.2354H16.658H16.659ZM13.8012 13.3615C14.2793 13.3615 14.7158 13.3734 15.1507 13.3573C15.3908 13.3484 15.4585 13.4385 15.4523 13.6677C15.4346 14.2932 15.4351 14.9198 15.4314 15.5458C15.4283 16.0927 15.4226 16.6391 15.4335 17.1859C15.4403 17.488 15.5465 17.7557 15.8434 17.8943C16.159 18.0411 16.4684 18.0078 16.7168 17.8854C16.6726 17.512 16.6064 17.1906 16.6028 16.8682C16.5872 15.7057 16.596 14.5427 16.5887 13.3797C16.5846 12.7266 16.1663 12.2469 15.559 12.2109C15.1825 12.188 14.8038 12.1948 14.4262 12.2089C14.045 12.2229 13.8122 12.4792 13.8017 12.8656C13.7976 13.013 13.8017 13.1609 13.8017 13.363H13.8012V13.3615ZM16.2517 12.2214C16.4096 12.4344 16.6278 12.601 16.6596 12.7969C16.7523 13.3667 17.1127 13.4073 17.5616 13.362C17.6986 13.3479 17.8434 13.3792 17.9757 13.3495C18.0668 13.3297 18.2101 13.2479 18.2153 13.1844C18.2398 12.8651 18.2262 12.5437 18.2262 12.2203H16.2517V12.2214Z" fill="url(#paint5_linear_3084_416712)"/>
<path d="M16.659 21.2354C16.5273 21.1417 16.4372 21.0865 16.3559 21.0193C15.008 19.9042 13.6549 18.7948 12.3148 17.6703C11.0059 16.5724 10.8231 14.6943 11.9028 13.3375C12.8924 12.0927 13.9017 10.8635 14.9179 9.6401C15.2814 9.20312 15.5132 8.75052 15.3622 8.16927C15.3533 8.13437 15.3695 8.09323 15.3814 8C15.4856 8.06562 15.5679 8.10625 15.6377 8.16302C16.9799 9.25365 18.3278 10.338 19.6601 11.4406C21.0695 12.6068 21.2564 14.5089 20.1075 15.9318C19.1148 17.162 18.1158 18.387 17.1054 19.6016C16.7486 20.0312 16.5288 20.4786 16.6757 21.0474C16.6846 21.0828 16.67 21.1234 16.6585 21.2354H16.658H16.659ZM13.8012 13.3615C14.2793 13.3615 14.7158 13.3734 15.1507 13.3573C15.3908 13.3484 15.4585 13.4385 15.4523 13.6677C15.4346 14.2932 15.4351 14.9198 15.4314 15.5458C15.4283 16.0927 15.4226 16.6391 15.4335 17.1859C15.4403 17.488 15.5465 17.7557 15.8434 17.8943C16.159 18.0411 16.4684 18.0078 16.7168 17.8854C16.6726 17.512 16.6064 17.1906 16.6028 16.8682C16.5872 15.7057 16.596 14.5427 16.5887 13.3797C16.5846 12.7266 16.1663 12.2469 15.559 12.2109C15.1825 12.188 14.8038 12.1948 14.4262 12.2089C14.045 12.2229 13.8122 12.4792 13.8017 12.8656C13.7976 13.013 13.8017 13.1609 13.8017 13.363H13.8012V13.3615ZM16.2517 12.2214C16.4096 12.4344 16.6278 12.601 16.6596 12.7969C16.7523 13.3667 17.1127 13.4073 17.5616 13.362C17.6986 13.3479 17.8434 13.3792 17.9757 13.3495C18.0668 13.3297 18.2101 13.2479 18.2153 13.1844C18.2398 12.8651 18.2262 12.5437 18.2262 12.2203H16.2517V12.2214Z" fill="url(#paint6_linear_3084_416712)"/>
<path d="M13.8004 13.3624C13.8004 13.1613 13.7968 13.0129 13.8004 12.865C13.8114 12.479 14.0442 12.2223 14.4249 12.2082C14.8025 12.1941 15.1812 12.1874 15.5577 12.2103C16.165 12.2473 16.5827 12.7269 16.5874 13.379C16.5958 14.542 16.5859 15.7045 16.6015 16.8676C16.6057 17.1894 16.6723 17.5118 16.7156 17.8848C16.4671 18.0072 16.1577 18.0405 15.8421 17.8936C15.5452 17.7556 15.439 17.4884 15.4322 17.1853C15.4202 16.6389 15.427 16.092 15.4301 15.5452C15.4333 14.9197 15.4333 14.2931 15.451 13.667C15.4577 13.4379 15.389 13.3478 15.1494 13.3566C14.7145 13.3728 14.2781 13.3608 13.7999 13.3608H13.8004V13.3624Z" fill="white"/>
<path d="M16.252 12.2227H18.2264C18.2264 12.5456 18.2395 12.8674 18.2155 13.1867C18.2103 13.2503 18.0676 13.332 17.9759 13.3518C17.8431 13.3805 17.6988 13.3503 17.5618 13.3643C17.1139 13.4091 16.7525 13.3685 16.6598 12.7992C16.628 12.6023 16.4098 12.4367 16.252 12.2237V12.2227Z" fill="white"/>
</g>
<defs>
<linearGradient id="paint0_linear_3084_416712" x1="16.1391" y1="5.48151" x2="15.8578" y2="26.6773" gradientUnits="userSpaceOnUse">
<stop stop-color="white"/>
<stop offset="1" stop-color="#CED0D1"/>
</linearGradient>
<linearGradient id="paint1_linear_3084_416712" x1="11.9993" y1="23.9714" x2="14.666" y2="19.3047" gradientUnits="userSpaceOnUse">
<stop stop-color="#98D31A"/>
<stop offset="0.15" stop-color="#0FAF34"/>
<stop offset="0.365" stop-color="#09A32D"/>
<stop offset="0.764858" stop-color="#008E53"/>
<stop offset="0.99" stop-color="#007444"/>
</linearGradient>
<linearGradient id="paint2_linear_3084_416712" x1="12.0004" y1="23.1984" x2="14.4004" y2="19.9984" gradientUnits="userSpaceOnUse">
<stop stop-color="#F77C55"/>
<stop offset="0.15" stop-color="#F45A49"/>
<stop offset="0.43" stop-color="#EF2136"/>
<stop offset="0.56" stop-color="#ED0B2E"/>
<stop offset="0.97" stop-color="#C0001C"/>
</linearGradient>
<linearGradient id="paint3_linear_3084_416712" x1="20.6654" y1="23.9714" x2="17.332" y2="19.3047" gradientUnits="userSpaceOnUse">
<stop stop-color="#98D31A"/>
<stop offset="0.15" stop-color="#0FAF34"/>
<stop offset="0.365" stop-color="#09A32D"/>
<stop offset="0.85" stop-color="#008E53"/>
<stop offset="0.99" stop-color="#007444"/>
</linearGradient>
<linearGradient id="paint4_linear_3084_416712" x1="19.9977" y1="23.1984" x2="17.5977" y2="19.9984" gradientUnits="userSpaceOnUse">
<stop stop-color="#F77C55"/>
<stop offset="0.15" stop-color="#F45A49"/>
<stop offset="0.43" stop-color="#EF2136"/>
<stop offset="0.56" stop-color="#ED0B2E"/>
<stop offset="0.97" stop-color="#C0001C"/>
</linearGradient>
<linearGradient id="paint5_linear_3084_416712" x1="11.1991" y1="14.6172" x2="20.8585" y2="14.6172" gradientUnits="userSpaceOnUse">
<stop stop-color="#98D31A"/>
<stop offset="0.15" stop-color="#0FAF34"/>
<stop offset="0.43" stop-color="#09A32D"/>
<stop offset="0.695544" stop-color="#008E21"/>
<stop offset="0.97" stop-color="#008E53"/>
</linearGradient>
<linearGradient id="paint6_linear_3084_416712" x1="11.1991" y1="14.6172" x2="20.8585" y2="14.6172" gradientUnits="userSpaceOnUse">
<stop stop-color="#F77C55"/>
<stop offset="0.15" stop-color="#F45A49"/>
<stop offset="0.43" stop-color="#EF2136"/>
<stop offset="0.56" stop-color="#ED0B2E"/>
<stop offset="0.97" stop-color="#C0001C"/>
</linearGradient>
<clipPath id="clip0_3084_416712">
<rect width="26.6667" height="26.6667" fill="white" transform="translate(2.66602 2.66797)"/>
</clipPath>
</defs>
</svg>
