<svg width="105" height="114" viewBox="0 0 105 114" fill="none" xmlns="http://www.w3.org/2000/svg">
<path d="M101.398 83.2001C103.082 83.2001 104.448 81.3824 104.448 79.1401C104.448 76.8978 103.082 75.0801 101.398 75.0801C99.7132 75.0801 98.3477 76.8978 98.3477 79.1401C98.3477 81.3824 99.7132 83.2001 101.398 83.2001Z" fill="url(#paint0_linear_4222_384383)"/>
<path d="M96.6562 87.3201C96.7889 87.3201 96.916 87.2674 97.0098 87.1737C97.1036 87.0799 97.1562 86.9527 97.1562 86.8201V85.1601L101.816 84.7301C101.942 84.72 102.059 84.6629 102.144 84.5702C102.229 84.4775 102.277 84.3561 102.276 84.2301V81.3601C102.276 81.2275 102.224 81.1003 102.13 81.0066C102.036 80.9128 101.909 80.8601 101.776 80.8601C101.644 80.8601 101.516 80.9128 101.423 81.0066C101.329 81.1003 101.276 81.2275 101.276 81.3601V83.7801L96.6162 84.2001C96.4915 84.2124 96.3757 84.2701 96.2909 84.3624C96.206 84.4546 96.1581 84.5748 96.1562 84.7001V86.8201C96.1563 86.9527 96.2089 87.0799 96.3027 87.1737C96.3965 87.2674 96.5236 87.3201 96.6562 87.3201Z" fill="#606060"/>
<path d="M32.2275 97.9199C34.8775 97.9199 37.0275 101.49 37.0275 105.92C37.0275 110.35 34.8775 113.92 32.2275 113.92C29.5775 113.92 27.4375 110.35 27.4375 105.92C27.4375 101.49 29.5775 97.9199 32.2275 97.9199Z" fill="black"/>
<path d="M32.2266 97.9199H38.7466C41.3966 97.9199 43.5466 101.49 43.5466 105.92C43.5466 110.35 41.3966 113.92 38.7466 113.92H32.2266C34.8766 113.92 37.0266 110.35 37.0266 105.92C37.0266 101.49 34.8766 97.9199 32.2266 97.9199Z" fill="black"/>
<path d="M74.3078 97.9199C76.9578 97.9199 79.0978 101.49 79.0978 105.92C79.0978 110.35 76.9578 113.92 74.3078 113.92C71.6578 113.92 69.5078 110.35 69.5078 105.92C69.5078 101.49 71.6578 97.9199 74.3078 97.9199Z" fill="black"/>
<path d="M74.3086 97.9199H80.8186C83.4786 97.9199 85.6186 101.49 85.6186 105.92C85.6186 110.35 83.4786 113.92 80.8186 113.92H74.3086C76.9586 113.92 79.0986 110.35 79.0986 105.92C79.0986 101.49 76.9986 97.9199 74.3086 97.9199Z" fill="black"/>
<path d="M37.9981 48.9102C40.4381 48.9102 42.4181 51.8102 42.4181 55.3902V97.6502H4.99813C2.55813 97.6502 0.578125 94.7502 0.578125 91.1702V55.3902C0.578125 51.8102 2.57812 48.9102 4.99813 48.9102H37.9981Z" fill="url(#paint1_linear_4222_384383)"/>
<path d="M70.62 48.9102H38C40.44 48.9102 42.42 51.8102 42.42 55.3902V97.6502H75V55.3902C75 51.8102 73.06 48.9102 70.62 48.9102Z" fill="url(#paint2_linear_4222_384383)"/>
<path d="M60.0875 62C63.8575 62 66.9275 66.33 66.9275 71.66V97.66H42.4375V62H60.0875Z" fill="#07245C"/>
<path d="M92.6759 62H60.0859C63.8559 62 66.9259 66.33 66.9259 71.66V97.66H99.5159V71.66C99.5159 66.35 96.4559 62 92.6759 62Z" fill="url(#paint3_linear_4222_384383)"/>
<path d="M8.54781 97.9199C11.1978 97.9199 13.3478 101.49 13.3478 105.92C13.3478 110.35 11.1978 113.92 8.54781 113.92C5.89781 113.92 3.75781 110.35 3.75781 105.92C3.75781 101.49 5.89781 97.9199 8.54781 97.9199Z" fill="black"/>
<path d="M8.54688 97.9199H15.0669C17.7169 97.9199 19.8569 101.49 19.8569 105.92C19.8569 110.35 17.7169 113.92 15.0669 113.92H8.54688C11.1969 113.92 13.3469 110.35 13.3469 105.92C13.3469 101.49 11.1969 97.9199 8.54688 97.9199Z" fill="black"/>
<path d="M8.90781 110.84C10.5094 110.84 11.8078 108.628 11.8078 105.9C11.8078 103.172 10.5094 100.96 8.90781 100.96C7.30619 100.96 6.00781 103.172 6.00781 105.9C6.00781 108.628 7.30619 110.84 8.90781 110.84Z" fill="#606060"/>
<path d="M40.5577 97.6499L38.3177 107.45H15.0877L12.8477 97.6499H40.5577Z" fill="#606060"/>
<path d="M40.5564 97.6501H73.1464L70.9164 107.45H38.3164L40.5564 97.6501Z" fill="url(#paint4_linear_4222_384383)"/>
<path d="M44.678 71.4602H58.838C62.058 71.4602 64.668 73.4602 64.668 75.9002V86.8202H44.668L44.678 71.4602Z" fill="black"/>
<path d="M99.2397 71.46H66.9297V90.21H99.2397V71.46Z" fill="black"/>
<path d="M86.3964 90.2102H75.8164L82.2564 71.4602H92.8464L86.3964 90.2102Z" fill="url(#paint5_linear_4222_384383)"/>
<path d="M53.9073 86.8202H47.2773L51.3173 71.4602H57.9473L53.9073 86.8202Z" fill="url(#paint6_linear_4222_384383)"/>
<path d="M67.677 17.7301C67.677 27.4501 50.067 46.8701 50.067 46.8701C50.067 46.8701 32.457 27.4501 32.457 17.7301C32.457 13.0597 34.3124 8.58048 37.6149 5.27797C40.9174 1.97545 45.3966 0.120117 50.067 0.120117C54.7375 0.120117 59.2167 1.97545 62.5192 5.27797C65.8217 8.58048 67.677 13.0597 67.677 17.7301Z" fill="url(#paint7_linear_4222_384383)"/>
<path d="M50.0689 25.1202C54.7302 25.1202 58.5089 21.3415 58.5089 16.6802C58.5089 12.019 54.7302 8.24023 50.0689 8.24023C45.4076 8.24023 41.6289 12.019 41.6289 16.6802C41.6289 21.3415 45.4076 25.1202 50.0689 25.1202Z" fill="white"/>
<path d="M50.6181 97.9202C53.2781 97.9202 55.4181 101.49 55.4181 105.92C55.4181 110.35 53.2781 113.92 50.6181 113.92C47.9581 113.92 45.8281 110.35 45.8281 105.92C45.8281 101.49 47.9981 97.9202 50.6181 97.9202Z" fill="black"/>
<path d="M50.6172 97.9202H57.1372C59.7972 97.9202 61.9372 101.49 61.9372 105.92C61.9372 110.35 59.7972 113.92 57.1372 113.92H50.6172C53.2772 113.92 55.4172 110.35 55.4172 105.92C55.4172 101.49 53.2772 97.9202 50.6172 97.9202Z" fill="black"/>
<path d="M51.0289 110.84C52.6305 110.84 53.9289 108.628 53.9289 105.9C53.9289 103.172 52.6305 100.96 51.0289 100.96C49.4273 100.96 48.1289 103.172 48.1289 105.9C48.1289 108.628 49.4273 110.84 51.0289 110.84Z" fill="#606060"/>
<path d="M66.9162 97.6501V105.15C66.9162 106.42 66.2062 107.45 65.3362 107.45H57.6562L55.6562 97.6501H66.9162Z" fill="#606060"/>
<path d="M88.2598 97.6501H66.9198V105.15C66.9198 106.42 66.2098 107.45 65.3398 107.45H97.9398C98.8098 107.45 99.5098 106.45 99.5098 105.15V97.6501H88.2598Z" fill="url(#paint8_linear_4222_384383)"/>
<path d="M66.7891 97.7902H71.4391C72.036 97.7849 72.6281 97.8979 73.1811 98.1227C73.7341 98.3475 74.2371 98.6796 74.6611 99.0999C75.085 99.5201 75.4216 100.02 75.6512 100.571C75.8809 101.122 75.9991 101.713 75.9991 102.31H66.7891V97.7902Z" fill="#F9A12D"/>
<path d="M94.8677 97.6499H99.5177V102.17H90.3477C90.3477 100.971 90.8239 99.8214 91.6715 98.9738C92.5192 98.1261 93.6689 97.6499 94.8677 97.6499Z" fill="#F9A12D"/>
<path d="M59.1164 83.9C60.8009 83.9 62.1664 82.0823 62.1664 79.84C62.1664 77.5978 60.8009 75.78 59.1164 75.78C57.4319 75.78 56.0664 77.5978 56.0664 79.84C56.0664 82.0823 57.4319 83.9 59.1164 83.9Z" fill="url(#paint9_linear_4222_384383)"/>
<path d="M64.6669 87.3204C64.5343 87.3204 64.4071 87.2677 64.3133 87.1739C64.2196 87.0801 64.1669 86.953 64.1669 86.8204V85.1604L59.5069 84.7304C59.3813 84.7203 59.2642 84.6632 59.1789 84.5705C59.0936 84.4778 59.0465 84.3563 59.0469 84.2304V81.3604C59.0469 81.2277 59.0996 81.1006 59.1933 81.0068C59.2871 80.913 59.4143 80.8604 59.5469 80.8604C59.6795 80.8604 59.8067 80.913 59.9004 81.0068C59.9942 81.1006 60.0469 81.2277 60.0469 81.3604V83.7803L64.7069 84.2003C64.8316 84.2126 64.9474 84.2704 65.0323 84.3626C65.1171 84.4548 65.165 84.575 65.1669 84.7003V86.8204C65.1669 86.953 65.1142 87.0801 65.0204 87.1739C64.9267 87.2677 64.7995 87.3204 64.6669 87.3204Z" fill="#606060"/>
<path d="M9.33916 92.0001C9.33916 92.0001 9.39916 92.0601 9.44916 92.0001C9.49916 91.9401 9.44916 91.9101 9.44916 91.8701C9.39603 91.67 9.38729 91.4607 9.42356 91.2569C9.45984 91.053 9.54025 90.8596 9.65916 90.6901L12.2292 87.0001C12.7311 86.2962 12.9425 85.4258 12.8192 84.5701C12.7442 83.9158 12.4561 83.3044 11.9992 82.8301C11.7692 82.5901 11.5192 82.3601 11.2792 82.1301L10.1092 81.0001L8.52916 79.4901C8.52916 79.4901 8.46916 79.4201 8.41916 79.4901C8.36916 79.5601 8.41916 79.5801 8.41916 79.6201C8.46475 79.823 8.46876 80.0331 8.43095 80.2376C8.39314 80.4421 8.31429 80.6369 8.19916 80.8101L7.90916 81.2201L5.90916 84.0801C5.68356 84.3616 5.4891 84.6667 5.32916 84.9901C5.12951 85.3849 5.01697 85.818 4.99916 86.2601C4.97424 86.466 4.97424 86.6742 4.99916 86.8801C5.07379 87.5631 5.37682 88.2008 5.85916 88.6901C6.28916 89.1201 6.72916 89.5501 7.16916 89.9601L8.08916 90.8301L9.33916 92.0001Z" fill="#F49C2D"/>
<path d="M15.1172 83.3101H42.4172V89.6901H19.5572L15.1172 83.3101Z" fill="#F49C2D"/>
<defs>
<linearGradient id="paint0_linear_4222_384383" x1="101.398" y1="76.2401" x2="101.398" y2="82.7501" gradientUnits="userSpaceOnUse">
<stop stop-color="#606060"/>
<stop offset="0.29" stop-color="#5D5D5D"/>
<stop offset="0.51" stop-color="#545453"/>
<stop offset="0.71" stop-color="#444443"/>
<stop offset="0.89" stop-color="#2E2E2C"/>
<stop offset="1" stop-color="#1D1D1B"/>
</linearGradient>
<linearGradient id="paint1_linear_4222_384383" x1="6.72812" y1="53.9302" x2="48.1981" y2="108.14" gradientUnits="userSpaceOnUse">
<stop stop-color="#F39B2D"/>
<stop offset="0.06" stop-color="#F07A2D"/>
<stop offset="0.12" stop-color="#EC592E"/>
<stop offset="0.19" stop-color="#E93F2E"/>
<stop offset="0.26" stop-color="#E82D2E"/>
<stop offset="0.34" stop-color="#E6222E"/>
<stop offset="0.42" stop-color="#E61E2E"/>
<stop offset="0.43" stop-color="#E31E2E"/>
<stop offset="0.54" stop-color="#CD1F2B"/>
<stop offset="0.66" stop-color="#BE2029"/>
<stop offset="0.8" stop-color="#B52027"/>
<stop offset="1" stop-color="#B22027"/>
</linearGradient>
<linearGradient id="paint2_linear_4222_384383" x1="56.38" y1="25.8702" x2="56.9" y2="119.97" gradientUnits="userSpaceOnUse">
<stop stop-color="#F39B2D"/>
<stop offset="0.04" stop-color="#F07A2D"/>
<stop offset="0.08" stop-color="#EC592E"/>
<stop offset="0.13" stop-color="#E93F2E"/>
<stop offset="0.18" stop-color="#E82D2E"/>
<stop offset="0.23" stop-color="#E6222E"/>
<stop offset="0.29" stop-color="#E31E2E"/>
<stop offset="0.31" stop-color="#CD1F2B"/>
<stop offset="0.33" stop-color="#BE2029"/>
<stop offset="0.35" stop-color="#B52027"/>
<stop offset="0.37" stop-color="#B22027"/>
</linearGradient>
<linearGradient id="paint3_linear_4222_384383" x1="79.7659" y1="64.41" x2="80.1559" y2="95.06" gradientUnits="userSpaceOnUse">
<stop stop-color="#375A91"/>
<stop offset="0.07" stop-color="#284981"/>
<stop offset="0.18" stop-color="#193870"/>
<stop offset="0.31" stop-color="#0F2D65"/>
<stop offset="0.49" stop-color="#09265E"/>
<stop offset="1" stop-color="#07245C"/>
</linearGradient>
<linearGradient id="paint4_linear_4222_384383" x1="55.7764" y1="98.2201" x2="55.6664" y2="108.55" gradientUnits="userSpaceOnUse">
<stop stop-color="#606060"/>
<stop offset="0.02" stop-color="#5E5E5E"/>
<stop offset="0.27" stop-color="#424241"/>
<stop offset="0.52" stop-color="#2D2D2C"/>
<stop offset="0.77" stop-color="#21211F"/>
<stop offset="1" stop-color="#1D1D1B"/>
</linearGradient>
<linearGradient id="paint5_linear_4222_384383" x1="82.5564" y1="72.8802" x2="86.6464" y2="91.2502" gradientUnits="userSpaceOnUse">
<stop stop-color="#375A91"/>
<stop offset="0.17" stop-color="#375A91" stop-opacity="0.77"/>
<stop offset="0.44" stop-color="#375A91" stop-opacity="0.44"/>
<stop offset="0.68" stop-color="#375A91" stop-opacity="0.2"/>
<stop offset="0.87" stop-color="#375A91" stop-opacity="0.05"/>
<stop offset="1" stop-color="#375A91" stop-opacity="0"/>
</linearGradient>
<linearGradient id="paint6_linear_4222_384383" x1="51.1773" y1="72.6902" x2="54.4973" y2="87.5902" gradientUnits="userSpaceOnUse">
<stop stop-color="#375A91"/>
<stop offset="0.17" stop-color="#375A91" stop-opacity="0.77"/>
<stop offset="0.44" stop-color="#375A91" stop-opacity="0.44"/>
<stop offset="0.68" stop-color="#375A91" stop-opacity="0.2"/>
<stop offset="0.87" stop-color="#375A91" stop-opacity="0.05"/>
<stop offset="1" stop-color="#375A91" stop-opacity="0"/>
</linearGradient>
<linearGradient id="paint7_linear_4222_384383" x1="32.457" y1="23.4901" x2="67.677" y2="23.4901" gradientUnits="userSpaceOnUse">
<stop stop-color="#F39B2D"/>
<stop offset="0.01" stop-color="#F3972D"/>
<stop offset="0.08" stop-color="#EF722D"/>
<stop offset="0.16" stop-color="#EC542E"/>
<stop offset="0.24" stop-color="#E93C2E"/>
<stop offset="0.33" stop-color="#E72B2E"/>
<stop offset="0.43" stop-color="#E6212E"/>
<stop offset="0.55" stop-color="#E61E2E"/>
<stop offset="0.81" stop-color="#B22027"/>
</linearGradient>
<linearGradient id="paint8_linear_4222_384383" x1="82.4298" y1="97.1501" x2="82.4298" y2="107.67" gradientUnits="userSpaceOnUse">
<stop stop-color="#606060"/>
<stop offset="0.41" stop-color="#5E5E5E"/>
<stop offset="0.6" stop-color="#575756"/>
<stop offset="0.75" stop-color="#4A4A49"/>
<stop offset="0.87" stop-color="#383837"/>
<stop offset="0.98" stop-color="#212120"/>
<stop offset="1" stop-color="#1D1D1B"/>
</linearGradient>
<linearGradient id="paint9_linear_4222_384383" x1="59.1164" y1="76.94" x2="59.1164" y2="83.45" gradientUnits="userSpaceOnUse">
<stop stop-color="#606060"/>
<stop offset="0.29" stop-color="#5D5D5D"/>
<stop offset="0.51" stop-color="#545453"/>
<stop offset="0.71" stop-color="#444443"/>
<stop offset="0.89" stop-color="#2E2E2C"/>
<stop offset="1" stop-color="#1D1D1B"/>
</linearGradient>
</defs>
</svg>
