<svg width="48" height="49" viewBox="0 0 48 49" fill="none" xmlns="http://www.w3.org/2000/svg">
<rect y="0.5" width="48" height="48" rx="16" fill="#EFF1F4"/>
<mask id="mask0_12830_85523" style="mask-type:luminance" maskUnits="userSpaceOnUse" x="0" y="0" width="48" height="49">
<rect y="0.5" width="48" height="48" rx="16" fill="white"/>
</mask>
<g mask="url(#mask0_12830_85523)">
<mask id="mask1_12830_85523" style="mask-type:luminance" maskUnits="userSpaceOnUse" x="1" y="1" width="47" height="47">
<path fill-rule="evenodd" clip-rule="evenodd" d="M1.41797 24.8113C1.41797 37.4539 11.6678 47.7039 24.3095 47.7039C36.9545 47.7039 47.203 37.4538 47.203 24.8113C47.203 12.1688 36.9545 1.91895 24.3095 1.91895C11.6676 1.9191 1.41797 12.1688 1.41797 24.8113Z" fill="white"/>
</mask>
<g mask="url(#mask1_12830_85523)">
<path d="M47.203 24.8113C47.203 37.4539 36.9545 47.7039 24.3095 47.7039C11.6678 47.7039 1.41797 37.4538 1.41797 24.8113C1.41797 12.1688 11.6678 1.91895 24.3095 1.91895C36.9544 1.9191 47.203 12.1688 47.203 24.8113Z" fill="#EFF1F4"/>
</g>
</g>
<path d="M31.9137 12.7729L36.9137 14.5911C36.5474 14.4688 36.155 14.4468 35.7773 14.5274L30.7773 12.7092C31.155 12.6287 31.5474 12.6506 31.9137 12.7729Z" fill="#AD2015"/>
<path d="M23.8398 37.3455L18.8398 35.5636L18.8853 15.1909L23.8853 16.9727L23.8398 37.3455Z" fill="#91120C"/>
<path d="M23.8789 16.973L18.8789 15.1912L30.7789 12.6821L35.7789 14.4639L23.8789 16.973Z" fill="#AD2015"/>
<path d="M15.2259 24.5909V22.0455C15.1971 21.204 15.4433 20.3761 15.9272 19.6872C16.4111 18.9982 17.1064 18.4857 17.9077 18.2273L22.3349 17.3182L17.3349 15.5L12.944 16.4091C12.1475 16.6683 11.4565 17.1787 10.9746 17.8638C10.4927 18.5489 10.2459 19.3718 10.2713 20.2091V23.2091L12.7531 24.1182" fill="#AD2015"/>
<path d="M15.209 32.9273V35.9182C15.1613 36.4602 15.2837 37.0035 15.559 37.4727C15.8343 37.9419 16.249 38.3137 16.7454 38.5364L11.7454 36.7182C11.2491 36.4928 10.8349 36.1192 10.5598 35.6487C10.2846 35.1782 10.1621 34.634 10.209 34.091V31.1455" fill="#AD2015"/>
<path d="M38.4473 20.1367C36.6291 20.5185 35.2018 22.5912 35.1928 24.7639C35.1837 26.9367 36.6382 28.4003 38.4382 28.0367V31.0185C38.461 31.865 38.2071 32.6958 37.7149 33.3849C37.2227 34.074 36.5191 34.5837 35.7109 34.8367L23.8382 37.3185L23.8837 16.9458L35.7837 14.4639C37.2655 14.1548 38.4564 15.373 38.4564 17.1912L38.4473 20.1367ZM15.2291 25.0367C17.0473 24.6548 18.4746 26.1185 18.4746 28.2912C18.4746 30.4639 17.0109 32.5548 15.2109 32.9276V35.9185C15.2109 37.7367 16.4018 38.9185 17.8746 38.6003L22.2655 37.6912L22.3382 17.3185L17.9473 18.2276C17.1492 18.4872 16.4571 18.999 15.9751 19.686C15.493 20.3729 15.2472 21.1979 15.2746 22.0367L15.2291 25.0367Z" fill="url(#paint0_linear_12830_85523)"/>
<path d="M15.2252 24.5913L12.707 24.1367C13.225 24.8172 13.4945 25.6545 13.4707 26.5094C13.4707 28.6913 12.007 30.764 10.207 31.1458L15.207 32.964C17.0252 32.5913 18.4616 30.5094 18.4707 28.3276C18.5268 27.6686 18.3767 27.0084 18.0412 26.4384C17.7057 25.8683 17.2014 25.4167 16.5979 25.1458L15.2252 24.5913Z" fill="#91120C"/>
<defs>
<linearGradient id="paint0_linear_12830_85523" x1="15.2109" y1="26.5367" x2="38.4564" y2="26.5367" gradientUnits="userSpaceOnUse">
<stop stop-color="#FA7C55"/>
<stop offset="0.11" stop-color="#F75A49"/>
<stop offset="0.31" stop-color="#F22136"/>
<stop offset="0.4" stop-color="#F00B2E"/>
<stop offset="0.97" stop-color="#C3001C"/>
</linearGradient>
</defs>
</svg>
