<svg width="45" height="45" viewBox="0 0 45 45" fill="none" xmlns="http://www.w3.org/2000/svg">
<rect x="2.74414" y="0.322266" width="41.7391" height="41.7391" rx="20.8696" transform="rotate(3 2.74414 0.322266)" fill="#008E53"/>
<g clip-path="url(#clip0_4012_25323)">
<path d="M13.5029 16.2342L22.6317 19.6187L32.0644 17.2069L22.9355 13.8223L13.5029 16.2342ZM22.6497 11.8767C22.9061 11.8126 23.1789 11.8269 23.4272 11.9175L33.677 15.72C34.2096 15.9153 34.5536 16.4394 34.5237 17.0093L34.4444 18.5235L22.7279 21.5218C22.5996 21.5558 22.4653 21.5488 22.3412 21.5015L10.9983 17.2947L11.0776 15.7805C11.1075 15.2106 11.5044 14.7253 12.0586 14.587L22.6497 11.8767ZM23.0534 22.7878L34.3727 19.8912L34.2735 21.784L32.0891 22.343C31.7416 22.4309 31.5311 22.7872 31.619 23.1347C31.7069 23.4821 32.0632 23.6927 32.4107 23.6047L34.202 23.1476L33.9093 28.7323C33.8795 29.3022 33.4826 29.7875 32.9284 29.9258L22.3373 32.6361C22.0809 32.7002 21.8081 32.6859 21.5598 32.5954L11.31 28.7928C10.7774 28.5976 10.4334 28.0734 10.4633 27.5036L10.7559 21.9188L12.4856 22.5605C12.822 22.6843 13.1983 22.5121 13.3221 22.1758C13.4459 21.8394 13.2737 21.463 12.9374 21.3393L10.8276 20.5511L10.9268 18.6584L21.8854 22.7225C22.2578 22.8604 22.6648 22.8817 23.0495 22.7835L23.0534 22.7878ZM15.5082 22.2863C15.1718 22.1625 14.7954 22.3346 14.6717 22.671C14.5479 23.0074 14.72 23.3837 15.0564 23.5075L17.6189 24.4581C17.9552 24.5819 18.3316 24.4098 18.4554 24.0734C18.5791 23.737 18.407 23.3606 18.0706 23.2369L15.5082 22.2863ZM29.7713 24.2787C30.1187 24.1908 30.3293 23.8344 30.2413 23.487C30.1534 23.1395 29.7971 22.929 29.4496 23.0169L26.8019 23.6945C26.4544 23.7824 26.2439 24.1387 26.3318 24.4862C26.4197 24.8336 26.776 25.0442 27.1235 24.9562L29.7713 24.2787ZM20.6331 24.1875C20.2967 24.0638 19.9203 24.2359 19.7966 24.5723C19.6728 24.9086 19.8449 25.285 20.1813 25.4087L21.7229 25.9793C22.0952 26.1172 22.5023 26.1386 22.887 26.0404L24.4798 25.634C24.8272 25.5461 25.0378 25.1898 24.9498 24.8423C24.8619 24.4949 24.5056 24.2843 24.1581 24.3723L22.5654 24.7786C22.4371 24.8127 22.3028 24.8056 22.1787 24.7583L20.6372 24.1877L20.6331 24.1875Z" fill="white"/>
</g>
<defs>
<clipPath id="clip0_4012_25323">
<rect width="23.4783" height="20.8696" fill="white" transform="translate(11.3164 11.2207) rotate(3)"/>
</clipPath>
</defs>
</svg>
