<svg width="auto" height="auto" viewBox="0 0 311 56" fill="none" xmlns="http://www.w3.org/2000/svg">
    <path d="M8 0L8.00001 136" stroke="#EDECF0" stroke-width="2" stroke-linecap="round" />
    <path fill-rule="evenodd" clip-rule="evenodd"
        d="M8 16C12.4183 16 16 12.4183 16 8C16 3.58172 12.4183 0 8 0C3.58172 0 0 3.58172 0 8C0 12.4183 3.58172 16 8 16ZM11.0973 6.26759C11.2451 6.10339 11.2318 5.85047 11.0676 5.70269C10.9034 5.5549 10.6505 5.56821 10.5027 5.73242L7.18472 9.41904L5.48284 7.71716C5.32663 7.56095 5.07337 7.56095 4.91716 7.71716C4.76095 7.87337 4.76095 8.12664 4.91716 8.28285L6.91716 10.2828C6.99475 10.3604 7.10082 10.4028 7.21052 10.3999C7.32021 10.397 7.42391 10.3492 7.49732 10.2676L11.0973 6.26759Z"
        fill="#008E53" />
    <path fill-rule="evenodd" clip-rule="evenodd"
        d="M8 56C12.4183 56 16 52.4183 16 48C16 43.5817 12.4183 40 8 40C3.58172 40 0 43.5817 0 48C0 52.4183 3.58172 56 8 56ZM11.0973 46.2676C11.2451 46.1034 11.2318 45.8505 11.0676 45.7027C10.9034 45.5549 10.6505 45.5682 10.5027 45.7324L7.18472 49.419L5.48284 47.7172C5.32663 47.561 5.07337 47.561 4.91716 47.7172C4.76095 47.8734 4.76095 48.1266 4.91716 48.2828L6.91716 50.2828C6.99475 50.3604 7.10082 50.4028 7.21052 50.3999C7.32021 50.397 7.42391 50.3492 7.49732 50.2676L11.0973 46.2676Z"
        fill="#008E53" />
</svg>