<svg width="101" height="100" viewBox="0 0 101 100" fill="none" xmlns="http://www.w3.org/2000/svg">
<path d="M21.8 16.1992C21.8 16.1992 4.89996 23.1742 12.65 40.7492C20.4 58.3492 45 86.7492 51.625 88.4992C58.25 90.2492 68.975 83.7742 68.975 83.7742L56.325 61.4242C56.325 61.4242 48.85 68.7242 40.925 58.6242C40.925 58.6242 29 43.5992 33.5 39.0492L21.8 16.1992Z" fill="url(#paint0_linear_5142_30542)"/>
<path d="M21.8 16C21.8 16 4.89996 22.975 12.65 40.55C20.4 58.15 45 86.55 51.625 88.3C58.25 90.05 68.975 83.575 68.975 83.575L56.325 61.225C56.325 61.225 48.85 68.525 40.925 58.425C40.925 58.425 29 43.4 33.5 38.85L21.8 16Z" fill="url(#paint1_radial_5142_30542)" fill-opacity="0.3"/>
<path d="M61.75 70.9L56.35 61.425C56.35 61.425 48.875 68.725 40.95 58.625C40.95 58.625 29.025 43.6 33.525 39.05L32.875 31.25L25.4 34.725C25.4 34.725 20.975 38.65 26.175 46.075C31.8 54.025 42.675 69.475 46.675 72.35C50.675 75.225 61.775 70.9 61.775 70.9H61.75Z" fill="url(#paint2_linear_5142_30542)"/>
<path d="M61.75 70.9L56.35 61.425C56.35 61.425 48.875 68.725 40.95 58.625C40.95 58.625 29.025 43.6 33.525 39.05L32.875 31.25L25.4 34.725C25.4 34.725 20.975 38.65 26.175 46.075C31.8 54.025 42.675 69.475 46.675 72.35C50.675 75.225 61.775 70.9 61.775 70.9H61.75Z" fill="url(#paint3_radial_5142_30542)" fill-opacity="0.45"/>
<path d="M33.475 39.0236C37.95 36.4736 38.75 29.4236 35.275 23.2736C31.775 17.1236 25.325 14.1986 20.85 16.7236C16.375 19.2736 15.575 26.3236 19.05 32.4736C22.55 38.6236 29 41.5486 33.475 39.0236Z" fill="url(#paint4_linear_5142_30542)"/>
<path d="M31.45 35.4268C34.475 33.7018 35.025 28.9268 32.65 24.7518C30.275 20.5768 25.9 18.6018 22.875 20.3268C19.85 22.0518 19.3 26.8268 21.675 31.0018C24.05 35.1768 28.425 37.1518 31.45 35.4268Z" fill="white"/>
<path d="M69.0251 83.6994C73.5001 81.1494 74.3001 74.0994 70.8251 67.9494C67.3251 61.7994 60.8751 58.8744 56.4001 61.3994C51.9251 63.9494 51.1251 70.9994 54.6001 77.1494C58.1001 83.2994 64.5501 86.2244 69.0251 83.6994Z" fill="url(#paint5_linear_5142_30542)"/>
<path d="M67.075 80.3002C70.175 78.5252 70.75 73.6502 68.325 69.3752C65.9 65.1002 61.425 63.0752 58.3 64.8502C55.2 66.6252 54.625 71.5002 57.05 75.7752C59.475 80.0502 63.95 82.0752 67.075 80.3002Z" fill="white"/>
<path d="M60.8749 47.1247C60.8749 47.1247 61.0499 47.2747 61.1499 47.1247C61.2499 46.9747 61.2249 46.9247 61.1499 46.8246C61.0249 46.3747 60.9999 45.8997 61.0999 45.4497C61.1999 44.9997 61.3999 44.5747 61.6999 44.2247C63.9249 41.4997 66.1249 38.7747 68.3499 36.0747C68.9749 35.3497 69.4499 34.4747 69.7249 33.5497C69.9999 32.6247 70.0499 31.6497 69.8749 30.6747C69.6499 29.1497 68.8999 27.7497 67.7249 26.7247C67.0999 26.1997 66.4749 25.6997 65.8249 25.1747L62.8249 22.7247C61.4999 21.5997 60.0999 20.4747 58.7749 19.3747C58.6749 19.3747 58.5999 19.1997 58.4749 19.3747C58.3499 19.5497 58.4749 19.5747 58.4749 19.6747C58.5999 20.1247 58.6249 20.5997 58.5249 21.0497C58.4249 21.4997 58.2249 21.9247 57.9249 22.2997C57.6749 22.6247 57.4249 22.9247 57.1749 23.1997L51.9999 29.5247C51.4249 30.1497 50.9249 30.8247 50.4749 31.5497C49.9749 32.3747 49.6749 33.3247 49.6249 34.2997C49.5749 34.7497 49.5749 35.2247 49.6249 35.6747C49.8499 37.2497 50.6499 38.6747 51.8749 39.6747C52.9999 40.6497 54.1499 41.5747 55.3749 42.4997L57.7499 44.3997L60.8749 47.0497V47.1247Z" fill="#F39B2D"/>
<path d="M73.4499 60.5016C73.4499 60.5016 73.5749 60.6017 73.6499 60.5016C73.7249 60.4016 73.7249 60.3516 73.6499 60.2766C73.5499 59.9516 73.5499 59.6266 73.6249 59.3016C73.6999 58.9766 73.8499 58.6766 74.0499 58.4266C75.6499 56.4767 77.2249 54.5266 78.8249 52.6017C79.2749 52.0766 79.6249 51.4516 79.7999 50.8016C79.9999 50.1266 80.0249 49.4266 79.9249 48.7516C79.7749 47.6516 79.2249 46.6517 78.3749 45.9267C77.9249 45.5517 77.4749 45.1766 77.0249 44.8266L74.8749 43.0766C73.9249 42.2766 72.9249 41.4766 71.9749 40.6766C71.8999 40.6766 71.8499 40.5516 71.7499 40.6766C71.6499 40.8016 71.7499 40.8266 71.7499 40.9016C71.8499 41.2266 71.8499 41.5766 71.7749 41.9016C71.6999 42.2266 71.5499 42.5267 71.3499 42.8017C71.1749 43.0267 70.9749 43.2516 70.7999 43.4516L67.0999 48.0017C66.6999 48.4517 66.3249 48.9267 65.9999 49.4516C65.6499 50.0517 65.4249 50.7266 65.3749 51.4266C65.3249 51.7516 65.3249 52.0766 65.3749 52.4266C65.5499 53.5516 66.0999 54.5766 66.9749 55.3017C67.7749 56.0016 68.5999 56.6766 69.4749 57.3266L71.1749 58.7016L73.4249 60.6016L73.4499 60.5016Z" fill="#F39B2D"/>
<defs>
<linearGradient id="paint0_linear_5142_30542" x1="8.74996" y1="52.4742" x2="77.15" y2="52.4742" gradientUnits="userSpaceOnUse">
<stop stop-color="#FA7C55"/>
<stop offset="0.12" stop-color="#FA7853"/>
<stop offset="0.26" stop-color="#F86B4F"/>
<stop offset="0.39" stop-color="#F75547"/>
<stop offset="0.53" stop-color="#F4363D"/>
<stop offset="0.68" stop-color="#F01030"/>
<stop offset="0.69" stop-color="#F00B2E"/>
<stop offset="0.97" stop-color="#C3001C"/>
</linearGradient>
<radialGradient id="paint1_radial_5142_30542" cx="0" cy="0" r="1" gradientUnits="userSpaceOnUse" gradientTransform="translate(7.61371 44.1665) scale(29.9942 29.9943)">
<stop stop-color="white"/>
<stop offset="0.11" stop-color="white" stop-opacity="0.86"/>
<stop offset="0.36" stop-color="white" stop-opacity="0.56"/>
<stop offset="0.58" stop-color="white" stop-opacity="0.32"/>
<stop offset="0.76" stop-color="white" stop-opacity="0.15"/>
<stop offset="0.9" stop-color="white" stop-opacity="0.04"/>
<stop offset="0.98" stop-color="white" stop-opacity="0"/>
</radialGradient>
<linearGradient id="paint2_linear_5142_30542" x1="22.225" y1="52.45" x2="59.75" y2="52.125" gradientUnits="userSpaceOnUse">
<stop stop-color="#FA7C55"/>
<stop offset="0.12" stop-color="#FA7853"/>
<stop offset="0.26" stop-color="#F86B4F"/>
<stop offset="0.39" stop-color="#F75547"/>
<stop offset="0.53" stop-color="#F4363D"/>
<stop offset="0.68" stop-color="#F01030"/>
<stop offset="0.69" stop-color="#F00B2E"/>
<stop offset="0.97" stop-color="#C3001C"/>
</linearGradient>
<radialGradient id="paint3_radial_5142_30542" cx="0" cy="0" r="1" gradientUnits="userSpaceOnUse" gradientTransform="translate(28.4477 54.2723) scale(25.7757 25.7758)">
<stop stop-color="white"/>
<stop offset="0.04" stop-color="white" stop-opacity="0.95"/>
<stop offset="0.25" stop-color="white" stop-opacity="0.67"/>
<stop offset="0.44" stop-color="white" stop-opacity="0.43"/>
<stop offset="0.62" stop-color="white" stop-opacity="0.24"/>
<stop offset="0.77" stop-color="white" stop-opacity="0.11"/>
<stop offset="0.9" stop-color="white" stop-opacity="0.03"/>
<stop offset="0.98" stop-color="white" stop-opacity="0"/>
</radialGradient>
<linearGradient id="paint4_linear_5142_30542" x1="14.675" y1="27.8236" x2="42.325" y2="27.9236" gradientUnits="userSpaceOnUse">
<stop stop-color="#FA7C55"/>
<stop offset="0.12" stop-color="#FA7853"/>
<stop offset="0.26" stop-color="#F86B4F"/>
<stop offset="0.39" stop-color="#F75547"/>
<stop offset="0.53" stop-color="#F4363D"/>
<stop offset="0.68" stop-color="#F01030"/>
<stop offset="0.69" stop-color="#F00B2E"/>
<stop offset="0.97" stop-color="#C3001C"/>
</linearGradient>
<linearGradient id="paint5_linear_5142_30542" x1="52.4001" y1="72.5494" x2="72.9751" y2="72.5494" gradientUnits="userSpaceOnUse">
<stop stop-color="#FA7C55"/>
<stop offset="0.12" stop-color="#FA7853"/>
<stop offset="0.26" stop-color="#F86B4F"/>
<stop offset="0.39" stop-color="#F75547"/>
<stop offset="0.53" stop-color="#F4363D"/>
<stop offset="0.68" stop-color="#F01030"/>
<stop offset="0.69" stop-color="#F00B2E"/>
<stop offset="0.97" stop-color="#C3001C"/>
</linearGradient>
</defs>
</svg>
