<svg width="16" height="16" viewBox="0 0 16 16" fill="none" xmlns="http://www.w3.org/2000/svg">
<path d="M9.87788 11.2452C11.1547 10.4125 11.9987 8.97156 11.9987 7.3335C11.9987 4.75617 9.90936 2.66683 7.33203 2.66683C4.7547 2.66683 2.66536 4.75617 2.66536 7.3335C2.66536 9.91083 4.7547 12.0002 7.33203 12.0002C7.45937 12.0002 7.58552 11.9951 7.71028 11.9851C7.56932 12.0707 7.42371 12.1542 7.27357 12.2337C6.59059 12.5958 5.84185 12.8614 5.05485 12.8863C2.87039 11.9895 1.33203 9.84114 1.33203 7.3335C1.33203 4.01979 4.01832 1.3335 7.33203 1.3335C10.6457 1.3335 13.332 4.01979 13.332 7.3335C13.332 8.75017 12.841 10.0522 12.02 11.0786L14.4701 13.5288C14.7305 13.7891 14.7305 14.2112 14.4701 14.4716C14.2098 14.7319 13.7876 14.7319 13.5273 14.4716L11.0772 12.0214C10.0507 12.8425 8.74871 13.3335 7.33203 13.3335C7.06085 13.3335 6.79387 13.3155 6.53222 13.2807C6.90379 13.156 7.25636 12.9974 7.58579 12.8228C8.39283 12.395 9.0952 11.8506 9.60738 11.4535C9.70456 11.3782 9.79498 11.3081 9.87788 11.2452Z" fill="black"/>
</svg>
