<svg width="17" height="16" viewBox="0 0 17 16" fill="none" xmlns="http://www.w3.org/2000/svg">
<g id="ph:map-pin-fill">
<path id="Vector" d="M8.5 1C7.04182 1.00165 5.64383 1.58165 4.61274 2.61274C3.58165 3.64383 3.00165 5.04182 3 6.5C3 11.2063 8 14.7606 8.21313 14.9094C8.2972 14.9683 8.39735 14.9999 8.5 14.9999C8.60265 14.9999 8.7028 14.9683 8.78687 14.9094C9 14.7606 14 11.2063 14 6.5C13.9983 5.04182 13.4184 3.64383 12.3873 2.61274C11.3562 1.58165 9.95818 1.00165 8.5 1ZM8.5 4.5C8.89556 4.5 9.28224 4.6173 9.61114 4.83706C9.94004 5.05682 10.1964 5.36918 10.3478 5.73463C10.4991 6.10009 10.5387 6.50222 10.4616 6.89018C10.3844 7.27814 10.1939 7.63451 9.91421 7.91421C9.63451 8.19392 9.27814 8.3844 8.89018 8.46157C8.50222 8.53874 8.10009 8.49913 7.73463 8.34776C7.36918 8.19638 7.05682 7.94004 6.83706 7.61114C6.6173 7.28224 6.5 6.89556 6.5 6.5C6.5 5.96957 6.71071 5.46086 7.08579 5.08579C7.46086 4.71071 7.96957 4.5 8.5 4.5Z" fill="white"/>
</g>
</svg>
