<svg width="20" height="20" viewBox="0 0 20 20" fill="none" xmlns="http://www.w3.org/2000/svg">
<g id="System / ico_monetary">
<path id="Subtract" fill-rule="evenodd" clip-rule="evenodd" d="M3.33341 10.0013C3.33341 6.3194 6.31818 3.33464 10.0001 3.33464C13.682 3.33464 16.6667 6.3194 16.6667 10.0013C16.6667 13.6832 13.682 16.668 10.0001 16.668C9.95041 16.668 9.58341 16.6489 9.58341 16.668C8.29313 16.668 6.98955 16.6945 5.70979 16.5025C5.30939 16.4424 4.91182 16.3613 4.49035 16.2534C5.95907 17.5487 7.8878 18.3346 10.0001 18.3346C14.6025 18.3346 18.3334 14.6037 18.3334 10.0013C18.3334 5.39893 14.6025 1.66797 10.0001 1.66797C5.39771 1.66797 1.66675 5.39893 1.66675 10.0013C1.66675 11.4099 2.01621 12.7368 2.63317 13.9001C3.77561 14.3224 4.58422 14.577 5.30491 14.7341C4.08739 13.5263 3.33341 11.8518 3.33341 10.0013Z" fill="#181C21"/>
<g id="Rp">
<path d="M6.12956 12.6044H6.69814C6.90102 12.6044 7.00245 12.4985 7.00245 12.2867V10.4807H7.60307L8.65215 12.387C8.72689 12.532 8.84701 12.6044 9.01252 12.6044H9.63716C9.75461 12.6044 9.83203 12.5682 9.8694 12.4957C9.91211 12.4233 9.9041 12.3341 9.84537 12.2282L8.76426 10.2967C9.07925 10.1518 9.32484 9.93163 9.50102 9.6362C9.68254 9.34077 9.7733 8.9896 9.7733 8.58268C9.7733 8.19807 9.69589 7.86362 9.54106 7.57934C9.38624 7.28948 9.16734 7.06652 8.88439 6.91044C8.60143 6.74879 8.27042 6.66797 7.89137 6.66797H6.12956C5.93202 6.66797 5.83325 6.77109 5.83325 6.97733V12.2867C5.83325 12.4985 5.93202 12.6044 6.12956 12.6044ZM7.00245 9.39372V7.75493H7.81929C8.05954 7.75493 8.25174 7.83018 8.39588 7.98068C8.54003 8.13118 8.61211 8.32906 8.61211 8.57432C8.61211 8.81959 8.53736 9.01747 8.38788 9.16797C8.24373 9.31847 8.0542 9.39372 7.81929 9.39372H7.00245Z" fill="#181C21"/>
<path d="M10.8356 14.168H11.3642C11.5671 14.168 11.6685 14.0648 11.6685 13.8586V12.2616C11.8073 12.401 11.9808 12.5125 12.189 12.5961C12.4026 12.6741 12.6348 12.7131 12.8857 12.7131C13.2968 12.7131 13.6599 12.6128 13.9749 12.4121C14.2952 12.2114 14.5461 11.9383 14.7276 11.5927C14.9092 11.2415 14.9999 10.8458 14.9999 10.4054C14.9999 9.9595 14.9065 9.56373 14.7196 9.21814C14.5381 8.87254 14.2899 8.59941 13.9749 8.39874C13.6599 8.19807 13.2995 8.09773 12.8938 8.09773C12.6161 8.09773 12.3652 8.1479 12.141 8.24824C11.9221 8.343 11.7432 8.47956 11.6044 8.65794V8.52416C11.6044 8.31234 11.5057 8.20643 11.3081 8.20643H10.8356C10.6381 8.20643 10.5393 8.31234 10.5393 8.52416V13.8586C10.5393 14.0648 10.6381 14.168 10.8356 14.168ZM12.7656 11.6011C12.4506 11.6011 12.189 11.4896 11.9808 11.2666C11.7726 11.0381 11.6685 10.751 11.6685 10.4054C11.6685 10.0598 11.7726 9.77555 11.9808 9.55258C12.189 9.32405 12.4506 9.20977 12.7656 9.20977C13.0806 9.20977 13.3422 9.32405 13.5504 9.55258C13.7586 9.77555 13.8628 10.0598 13.8628 10.4054C13.8628 10.7566 13.7586 11.0437 13.5504 11.2666C13.3422 11.4896 13.0806 11.6011 12.7656 11.6011Z" fill="#181C21"/>
</g>
</g>
</svg>
