<svg width="21" height="20" viewBox="0 0 21 20" fill="none" xmlns="http://www.w3.org/2000/svg">
<path d="M9.64304 3.33337L9.95001 3.72805C10.1423 3.57852 10.1988 3.3122 10.0839 3.09745C9.96895 2.8827 9.716 2.78201 9.48493 2.85903L9.64304 3.33337ZM17.638 11.828L18.0465 12.1164C18.1825 11.9237 18.1654 11.6621 18.0054 11.4888C17.8453 11.3155 17.586 11.2777 17.3831 11.3979L17.638 11.828ZM5.64436 13.8268L5.26258 14.1497L5.26961 14.158L5.27699 14.166L5.64436 13.8268ZM9.33608 2.93869C6.8018 4.90975 7.01649 8.47535 8.73801 10.8521C9.61245 12.0593 10.9001 13.0117 12.488 13.3559C14.0816 13.7014 15.9273 13.4234 17.893 12.2582L17.3831 11.3979C15.6006 12.4545 14.0107 12.6628 12.6998 12.3786C11.3831 12.0932 10.2973 11.3001 9.54788 10.2655C8.02165 8.15836 7.98699 5.25481 9.95001 3.72805L9.33608 2.93869ZM17.638 11.828C17.2295 11.5397 17.2296 11.5396 17.2297 11.5395C17.2297 11.5395 17.2297 11.5394 17.2297 11.5394C17.2297 11.5395 17.2296 11.5396 17.2294 11.5399C17.229 11.5405 17.2282 11.5416 17.2271 11.5431C17.2248 11.5463 17.2211 11.5514 17.2161 11.5584C17.2059 11.5724 17.1901 11.5939 17.1689 11.6222C17.1265 11.6789 17.0625 11.7627 16.9782 11.868C16.8096 12.0788 16.5609 12.3747 16.2438 12.7106C15.6069 13.3854 14.707 14.2081 13.6383 14.8315C12.5695 15.4549 11.3608 15.8626 10.0901 15.7567C8.83069 15.6517 7.44205 15.0368 6.01172 13.4876L5.27699 14.166C6.84543 15.8647 8.45537 16.6239 10.0071 16.7532C11.5474 16.8816 12.9623 16.3835 14.1422 15.6953C15.3222 15.007 16.2962 14.112 16.971 13.397C17.3098 13.0381 17.5764 12.7211 17.7591 12.4927C17.8505 12.3784 17.9212 12.2861 17.9695 12.2215C17.9937 12.1892 18.0123 12.1638 18.0252 12.146C18.0317 12.1371 18.0367 12.1302 18.0402 12.1252C18.042 12.1227 18.0434 12.1207 18.0445 12.1193C18.045 12.1185 18.0454 12.1179 18.0458 12.1174C18.0459 12.1172 18.0461 12.1169 18.0462 12.1168C18.0464 12.1166 18.0465 12.1164 17.638 11.828ZM6.02613 13.5039C4.97439 12.2603 4.50474 10.3073 5.00592 8.42688C5.50046 6.57128 6.95097 4.75779 9.80116 3.80771L9.48493 2.85903C6.33897 3.9077 4.62698 5.96559 4.03965 8.16935C3.45894 10.3482 3.98802 12.6426 5.26258 14.1497L6.02613 13.5039Z" fill="#757F90"/>
<path d="M12.6416 7.33097L13.1413 5.83191L13.641 7.33097L15.1401 7.83065L13.641 8.83003L13.1413 9.8294L12.6416 8.83003L11.1426 7.83065L12.6416 7.33097Z" stroke="#757F90" stroke-linejoin="round"/>
</svg>
