<svg width="128" height="128" viewBox="0 0 128 128" fill="none" xmlns="http://www.w3.org/2000/svg">
<path d="M64.0017 119.24C94.5099 119.24 119.242 94.508 119.242 63.9998C119.242 33.4916 94.5099 8.75977 64.0017 8.75977C33.4935 8.75977 8.76172 33.4916 8.76172 63.9998C8.76172 94.508 33.4935 119.24 64.0017 119.24Z" fill="#E0E0E0"/>
<path d="M5.24183 86.2594L122.432 85.1494C124.982 85.1494 123.202 81.7394 121.202 79.2794L103.242 57.9994C103.052 57.7361 102.805 57.5192 102.519 57.3651C102.233 57.2109 101.916 57.1235 101.592 57.1094H23.0018C22.6905 57.1217 22.3858 57.2024 22.1092 57.3459C21.8327 57.4893 21.5912 57.692 21.4018 57.9394L3.65183 78.6894C1.58183 81.1094 2.67183 86.2594 5.24183 86.2594Z" fill="white"/>
<path d="M2.58987 82.5996V96.4896C2.58855 96.7308 2.63491 96.9698 2.72629 97.193C2.81767 97.4162 2.95225 97.6191 3.12232 97.7901C3.29238 97.9611 3.49456 98.0968 3.71724 98.1894C3.93992 98.282 4.17871 98.3296 4.41987 98.3296H120.85C121.193 98.3296 121.534 98.2618 121.851 98.13C122.168 97.9982 122.456 97.8051 122.699 97.5616C122.941 97.3182 123.133 97.0293 123.264 96.7115C123.395 96.3937 123.461 96.0532 123.46 95.7096V86.1596C123.457 85.4751 123.187 84.8187 122.707 84.3309C122.226 83.8431 121.574 83.5627 120.89 83.5496L2.69987 83.3696" fill="white"/>
<path d="M20.173 60.4305C19.9986 60.4292 19.828 60.3788 19.6808 60.2851C19.5335 60.1914 19.4156 60.0583 19.3405 59.9008C19.2654 59.7433 19.2362 59.5678 19.2561 59.3945C19.276 59.2211 19.3442 59.0568 19.453 58.9205L21.453 56.5305C21.6158 56.3627 21.8357 56.2624 22.0691 56.2495C22.3025 56.2365 22.5322 56.312 22.7124 56.4607C22.8927 56.6095 23.0104 56.8207 23.042 57.0523C23.0736 57.2838 23.0168 57.5188 22.883 57.7105L20.883 60.0905C20.7992 60.1984 20.6914 60.2853 20.5682 60.3443C20.4449 60.4033 20.3097 60.4328 20.173 60.4305Z" fill="#0A1C40"/>
<path d="M120.652 99.2493H116.652C116.522 99.2628 116.391 99.2489 116.267 99.2086C116.144 99.1682 116.03 99.1023 115.933 99.0151C115.836 98.9279 115.759 98.8214 115.706 98.7023C115.653 98.5833 115.625 98.4545 115.625 98.3243C115.625 98.194 115.653 98.0652 115.706 97.9462C115.759 97.8272 115.836 97.7207 115.933 97.6335C116.03 97.5463 116.144 97.4804 116.267 97.44C116.391 97.3997 116.522 97.3858 116.652 97.3993H120.652C120.884 97.3667 121.106 97.2824 121.302 97.1526C121.497 97.0228 121.661 96.8508 121.782 96.6493C121.846 96.5376 121.933 96.4406 122.037 96.3643C122.141 96.2879 122.259 96.234 122.385 96.206C122.511 96.1779 122.641 96.1763 122.767 96.2012C122.894 96.2262 123.014 96.2771 123.119 96.3508C123.225 96.4246 123.314 96.5194 123.381 96.6295C123.449 96.7395 123.492 96.8623 123.509 96.99C123.526 97.1177 123.517 97.2476 123.481 97.3714C123.445 97.4953 123.384 97.6103 123.302 97.7093C123.021 98.1641 122.632 98.5427 122.17 98.8113C121.707 99.0799 121.186 99.2304 120.652 99.2493ZM110.342 99.2493H104.002C103.773 99.2255 103.561 99.1178 103.407 98.9469C103.253 98.7761 103.168 98.5543 103.168 98.3243C103.168 98.0943 103.253 97.8725 103.407 97.7017C103.561 97.5308 103.773 97.4231 104.002 97.3993H110.312C110.441 97.3858 110.572 97.3997 110.696 97.44C110.82 97.4804 110.934 97.5463 111.031 97.6335C111.127 97.7207 111.205 97.8272 111.258 97.9462C111.311 98.0652 111.338 98.194 111.338 98.3243C111.338 98.4545 111.311 98.5833 111.258 98.7023C111.205 98.8214 111.127 98.9279 111.031 99.0151C110.934 99.1023 110.82 99.1682 110.696 99.2086C110.572 99.2489 110.441 99.2628 110.312 99.2493H110.342ZM97.7317 99.2493H91.4217C91.193 99.2255 90.9812 99.1178 90.8272 98.9469C90.6732 98.7761 90.588 98.5543 90.588 98.3243C90.588 98.0943 90.6732 97.8725 90.8272 97.7017C90.9812 97.5308 91.193 97.4231 91.4217 97.3993H97.7317C97.9605 97.4231 98.1723 97.5308 98.3262 97.7017C98.4802 97.8725 98.5654 98.0943 98.5654 98.3243C98.5654 98.5543 98.4802 98.7761 98.3262 98.9469C98.1723 99.1178 97.9605 99.2255 97.7317 99.2493ZM85.1117 99.2493H78.8117C78.6822 99.2628 78.5512 99.2489 78.4274 99.2086C78.3035 99.1682 78.1895 99.1023 78.0928 99.0151C77.996 98.9279 77.9187 98.8214 77.8657 98.7023C77.8128 98.5833 77.7854 98.4545 77.7854 98.3243C77.7854 98.194 77.8128 98.0652 77.8657 97.9462C77.9187 97.8272 77.996 97.7207 78.0928 97.6335C78.1895 97.5463 78.3035 97.4804 78.4274 97.44C78.5512 97.3997 78.6822 97.3858 78.8117 97.3993H85.1117C85.2413 97.3858 85.3722 97.3997 85.4961 97.44C85.6199 97.4804 85.7339 97.5463 85.8307 97.6335C85.9274 97.7207 86.0048 97.8272 86.0577 97.9462C86.1107 98.0652 86.138 98.194 86.138 98.3243C86.138 98.4545 86.1107 98.5833 86.0577 98.7023C86.0048 98.8214 85.9274 98.9279 85.8307 99.0151C85.7339 99.1023 85.6199 99.1682 85.4961 99.2086C85.3722 99.2489 85.2413 99.2628 85.1117 99.2493ZM72.5017 99.2493H66.2017C66.0722 99.2628 65.9412 99.2489 65.8174 99.2086C65.6935 99.1682 65.5795 99.1023 65.4828 99.0151C65.386 98.9279 65.3087 98.8214 65.2557 98.7023C65.2028 98.5833 65.1754 98.4545 65.1754 98.3243C65.1754 98.194 65.2028 98.0652 65.2557 97.9462C65.3087 97.8272 65.386 97.7207 65.4828 97.6335C65.5795 97.5463 65.6935 97.4804 65.8174 97.44C65.9412 97.3997 66.0722 97.3858 66.2017 97.3993H72.5017C72.6313 97.3858 72.7622 97.3997 72.8861 97.44C73.0099 97.4804 73.1239 97.5463 73.2206 97.6335C73.3174 97.7207 73.3948 97.8272 73.4477 97.9462C73.5007 98.0652 73.528 98.194 73.528 98.3243C73.528 98.4545 73.5007 98.5833 73.4477 98.7023C73.3948 98.8214 73.3174 98.9279 73.2206 99.0151C73.1239 99.1023 73.0099 99.1682 72.8861 99.2086C72.7622 99.2489 72.6313 99.2628 72.5017 99.2493ZM59.8917 99.2493H53.5817C53.353 99.2255 53.1412 99.1178 52.9872 98.9469C52.8332 98.7761 52.748 98.5543 52.748 98.3243C52.748 98.0943 52.8332 97.8725 52.9872 97.7017C53.1412 97.5308 53.353 97.4231 53.5817 97.3993H59.8917C60.1205 97.4231 60.3323 97.5308 60.4862 97.7017C60.6402 97.8725 60.7254 98.0943 60.7254 98.3243C60.7254 98.5543 60.6402 98.7761 60.4862 98.9469C60.3323 99.1178 60.1205 99.2255 59.8917 99.2493ZM47.2817 99.2493H41.0017C40.8722 99.2628 40.7412 99.2489 40.6174 99.2086C40.4935 99.1682 40.3795 99.1023 40.2828 99.0151C40.186 98.9279 40.1087 98.8214 40.0557 98.7023C40.0028 98.5833 39.9754 98.4545 39.9754 98.3243C39.9754 98.194 40.0028 98.0652 40.0557 97.9462C40.1087 97.8272 40.186 97.7207 40.2828 97.6335C40.3795 97.5463 40.4935 97.4804 40.6174 97.44C40.7412 97.3997 40.8722 97.3858 41.0017 97.3993H47.3117C47.5405 97.4231 47.7523 97.5308 47.9062 97.7017C48.0602 97.8725 48.1454 98.0943 48.1454 98.3243C48.1454 98.5543 48.0602 98.7761 47.9062 98.9469C47.7523 99.1178 47.5405 99.2255 47.3117 99.2493H47.2817ZM34.6617 99.2493H28.3617C28.2322 99.2628 28.1012 99.2489 27.9774 99.2086C27.8535 99.1682 27.7395 99.1023 27.6428 99.0151C27.546 98.9279 27.4687 98.8214 27.4157 98.7023C27.3628 98.5833 27.3354 98.4545 27.3354 98.3243C27.3354 98.194 27.3628 98.0652 27.4157 97.9462C27.4687 97.8272 27.546 97.7207 27.6428 97.6335C27.7395 97.5463 27.8535 97.4804 27.9774 97.44C28.1012 97.3997 28.2322 97.3858 28.3617 97.3993H34.6617C34.7913 97.3858 34.9222 97.3997 35.0461 97.44C35.1699 97.4804 35.2839 97.5463 35.3807 97.6335C35.4774 97.7207 35.5548 97.8272 35.6077 97.9462C35.6607 98.0652 35.688 98.194 35.688 98.3243C35.688 98.4545 35.6607 98.5833 35.6077 98.7023C35.5548 98.8214 35.4774 98.9279 35.3807 99.0151C35.2839 99.1023 35.1699 99.1682 35.0461 99.2086C34.9222 99.2489 34.7913 99.2628 34.6617 99.2493ZM22.0517 99.2493H15.7417C15.513 99.2255 15.3012 99.1178 15.1472 98.9469C14.9932 98.7761 14.908 98.5543 14.908 98.3243C14.908 98.0943 14.9932 97.8725 15.1472 97.7017C15.3012 97.5308 15.513 97.4231 15.7417 97.3993H22.0517C22.1813 97.3858 22.3122 97.3997 22.4361 97.44C22.5599 97.4804 22.6739 97.5463 22.7707 97.6335C22.8674 97.7207 22.9448 97.8272 22.9977 97.9462C23.0507 98.0652 23.078 98.194 23.078 98.3243C23.078 98.4545 23.0507 98.5833 22.9977 98.7023C22.9448 98.8214 22.8674 98.9279 22.7707 99.0151C22.6739 99.1023 22.5599 99.1682 22.4361 99.2086C22.3122 99.2489 22.1813 99.2628 22.0517 99.2493ZM9.44172 99.2493H5.38172C4.8594 99.2321 4.34904 99.0885 3.89444 98.8307C3.43984 98.573 3.05458 98.2087 2.77172 97.7693C2.68835 97.6718 2.62605 97.558 2.58876 97.4353C2.55147 97.3125 2.53999 97.1833 2.55504 97.0559C2.57008 96.9285 2.61134 96.8056 2.6762 96.6949C2.74106 96.5842 2.82812 96.4881 2.93192 96.4126C3.03572 96.3372 3.154 96.2841 3.27932 96.2566C3.40465 96.2291 3.53431 96.2278 3.66015 96.2529C3.78599 96.2779 3.90529 96.3287 4.01054 96.4021C4.11579 96.4755 4.20471 96.5699 4.27172 96.6793C4.39107 96.8747 4.55276 97.0409 4.74487 97.1655C4.93698 97.2901 5.15461 97.37 5.38172 97.3993H9.44172C9.67046 97.4231 9.88226 97.5308 10.0362 97.7017C10.1902 97.8725 10.2754 98.0943 10.2754 98.3243C10.2754 98.5543 10.1902 98.7761 10.0362 98.9469C9.88226 99.1178 9.67046 99.2255 9.44172 99.2493ZM2.56172 91.9993C2.4409 91.9993 2.32127 91.9755 2.20965 91.9293C2.09803 91.883 1.99661 91.8153 1.91118 91.7298C1.82575 91.6444 1.75798 91.543 1.71175 91.4314C1.66552 91.3197 1.64172 91.2001 1.64172 91.0793V84.7993C1.62823 84.6697 1.64211 84.5388 1.68245 84.4149C1.72279 84.2911 1.7887 84.1771 1.8759 84.0804C1.9631 83.9836 2.06966 83.9062 2.18866 83.8533C2.30767 83.8003 2.43647 83.773 2.56672 83.773C2.69697 83.773 2.82577 83.8003 2.94478 83.8533C3.06378 83.9062 3.17034 83.9836 3.25754 84.0804C3.34474 84.1771 3.41065 84.2911 3.45099 84.4149C3.49133 84.5388 3.50521 84.6697 3.49172 84.7993V91.1093C3.48389 91.3498 3.38214 91.5777 3.20829 91.744C3.03444 91.9104 2.80233 92.002 2.56172 91.9993ZM123.462 91.9993C123.217 91.9967 122.983 91.8975 122.811 91.7234C122.638 91.5493 122.542 91.3142 122.542 91.0693V84.7393C122.566 84.5105 122.673 84.2987 122.844 84.1448C123.015 83.9908 123.237 83.9056 123.467 83.9056C123.697 83.9056 123.919 83.9908 124.089 84.1448C124.26 84.2987 124.368 84.5105 124.392 84.7393V91.0493C124.394 91.1731 124.372 91.2962 124.327 91.4113C124.281 91.5265 124.213 91.6314 124.127 91.7199C124.04 91.8084 123.936 91.8787 123.822 91.9266C123.708 91.9746 123.586 91.9993 123.462 91.9993ZM121.462 79.9993C121.325 79.9949 121.19 79.9625 121.066 79.904C120.943 79.8456 120.832 79.7623 120.742 79.6593L116.742 74.7893C116.664 74.6954 116.605 74.587 116.568 74.4704C116.532 74.3537 116.519 74.2311 116.53 74.1094C116.541 73.9878 116.576 73.8695 116.633 73.7614C116.69 73.6533 116.768 73.5574 116.862 73.4793C117.054 73.3251 117.298 73.2524 117.543 73.2767C117.788 73.301 118.014 73.4204 118.172 73.6093L122.172 78.4793C122.25 78.5724 122.308 78.6799 122.344 78.7957C122.381 78.9116 122.393 79.0334 122.382 79.1543C122.371 79.2751 122.336 79.3925 122.279 79.4998C122.223 79.6071 122.145 79.7021 122.052 79.7793C121.865 79.9082 121.636 79.9618 121.412 79.9293L121.462 79.9993ZM4.19172 79.9993C4.01546 79.9995 3.84276 79.9496 3.69376 79.8554C3.54476 79.7613 3.42559 79.6267 3.35013 79.4674C3.27467 79.3081 3.24604 79.1307 3.26757 78.9557C3.2891 78.7808 3.3599 78.6155 3.47172 78.4793L7.47172 73.6093C7.63463 73.5009 7.8276 73.4466 8.02315 73.4542C8.21869 73.4618 8.40686 73.5309 8.56085 73.6517C8.71484 73.7724 8.82682 73.9387 8.88084 74.1268C8.93486 74.3149 8.92817 74.5152 8.86172 74.6993L4.86172 79.5693C4.77436 79.6757 4.66446 79.7614 4.53995 79.8202C4.41543 79.879 4.27942 79.9095 4.14172 79.9093L4.19172 79.9993ZM113.442 70.2793C113.306 70.278 113.172 70.2469 113.049 70.1881C112.926 70.1294 112.818 70.0444 112.732 69.9393L108.732 65.0693C108.598 64.8777 108.541 64.6427 108.573 64.4111C108.604 64.1795 108.722 63.9683 108.902 63.8196C109.083 63.6708 109.312 63.5954 109.546 63.6083C109.779 63.6212 109.999 63.7215 110.162 63.8893L114.162 68.7593C114.274 68.8955 114.344 69.0608 114.366 69.2357C114.387 69.4107 114.359 69.5881 114.283 69.7474C114.208 69.9067 114.089 70.0413 113.94 70.1354C113.791 70.2296 113.618 70.2795 113.442 70.2793ZM12.2017 70.2793C11.9876 70.2743 11.7808 70.2007 11.6117 70.0693C11.5178 69.9912 11.4402 69.8953 11.3833 69.7872C11.3265 69.6791 11.2915 69.5608 11.2803 69.4391C11.2692 69.3175 11.2821 69.1948 11.3184 69.0782C11.3547 68.9615 11.4136 68.8532 11.4917 68.7593L15.4917 63.8993C15.5674 63.8038 15.6615 63.7245 15.7685 63.6661C15.8754 63.6077 15.993 63.5713 16.1142 63.5592C16.2355 63.5471 16.3579 63.5594 16.4743 63.5955C16.5907 63.6316 16.6986 63.6907 16.7917 63.7693C16.886 63.8458 16.9643 63.9403 17.0219 64.0472C17.0796 64.1541 17.1155 64.2713 17.1275 64.3922C17.1396 64.5131 17.1277 64.6351 17.0923 64.7513C17.057 64.8675 16.999 64.9756 16.9217 65.0693L12.9217 69.9393C12.8187 70.0328 12.6961 70.1019 12.5628 70.1418C12.4296 70.1816 12.2891 70.191 12.1517 70.1693L12.2017 70.2793Z" fill="#0A1C40"/>
<path d="M105.362 60.4298C105.225 60.4306 105.091 60.4004 104.968 60.3415C104.845 60.2826 104.737 60.1965 104.652 60.0898L102.652 57.7098C102.498 57.5195 102.426 57.2764 102.45 57.0331C102.474 56.7898 102.593 56.5658 102.782 56.4098C102.875 56.3319 102.982 56.2732 103.098 56.237C103.214 56.2009 103.336 56.1881 103.457 56.1992C103.577 56.2104 103.695 56.2453 103.802 56.302C103.909 56.3588 104.004 56.4362 104.082 56.5298L106.082 58.9197C106.19 59.0561 106.259 59.2204 106.279 59.3937C106.299 59.5671 106.269 59.7425 106.194 59.9C106.119 60.0575 106.001 60.1907 105.854 60.2844C105.707 60.3781 105.536 60.4284 105.362 60.4298Z" fill="#0A1C40"/>
<path d="M29.2231 58.0495H26.1331C25.8865 58.0495 25.6499 57.9515 25.4755 57.7771C25.3011 57.6027 25.2031 57.3661 25.2031 57.1195C25.2031 56.8728 25.3011 56.6363 25.4755 56.4618C25.6499 56.2874 25.8865 56.1895 26.1331 56.1895H29.2231C29.4698 56.1895 29.7063 56.2874 29.8807 56.4618C30.0551 56.6363 30.1531 56.8728 30.1531 57.1195C30.1531 57.3661 30.0551 57.6027 29.8807 57.7771C29.7063 57.9515 29.4698 58.0495 29.2231 58.0495Z" fill="#0A1C40"/>
<path d="M90.7831 58.0495H84.6331C84.3865 58.0495 84.1499 57.9515 83.9755 57.7771C83.8011 57.6027 83.7031 57.3661 83.7031 57.1195C83.7031 56.8728 83.8011 56.6363 83.9755 56.4618C84.1499 56.2874 84.3865 56.1895 84.6331 56.1895H90.7831C91.0298 56.1895 91.2663 56.2874 91.4407 56.4618C91.6151 56.6363 91.7131 56.8728 91.7131 57.1195C91.7131 57.3661 91.6151 57.6027 91.4407 57.7771C91.2663 57.9515 91.0298 58.0495 90.7831 58.0495ZM78.4731 58.0495H72.3231C72.0765 58.0495 71.8399 57.9515 71.6655 57.7771C71.4911 57.6027 71.3931 57.3661 71.3931 57.1195C71.3931 56.8728 71.4911 56.6363 71.6655 56.4618C71.8399 56.2874 72.0765 56.1895 72.3231 56.1895H78.4731C78.7198 56.1895 78.9563 56.2874 79.1307 56.4618C79.3051 56.6363 79.4031 56.8728 79.4031 57.1195C79.4031 57.3661 79.3051 57.6027 79.1307 57.7771C78.9563 57.9515 78.7198 58.0495 78.4731 58.0495ZM66.1631 58.0495H60.0031C59.7565 58.0495 59.5199 57.9515 59.3455 57.7771C59.1711 57.6027 59.0731 57.3661 59.0731 57.1195C59.0731 56.8728 59.1711 56.6363 59.3455 56.4618C59.5199 56.2874 59.7565 56.1895 60.0031 56.1895H66.1631C66.4098 56.1895 66.6463 56.2874 66.8207 56.4618C66.9951 56.6363 67.0931 56.8728 67.0931 57.1195C67.0931 57.3661 66.9951 57.6027 66.8207 57.7771C66.6463 57.9515 66.4098 58.0495 66.1631 58.0495ZM53.8531 58.0495H47.6931C47.4465 58.0495 47.2099 57.9515 47.0355 57.7771C46.8611 57.6027 46.7631 57.3661 46.7631 57.1195C46.7631 56.8728 46.8611 56.6363 47.0355 56.4618C47.2099 56.2874 47.4465 56.1895 47.6931 56.1895H53.8531C54.0998 56.1895 54.3363 56.2874 54.5107 56.4618C54.6851 56.6363 54.7831 56.8728 54.7831 57.1195C54.7831 57.3661 54.6851 57.6027 54.5107 57.7771C54.3363 57.9515 54.0998 58.0495 53.8531 58.0495ZM41.5331 58.0495H35.3831C35.1365 58.0495 34.8999 57.9515 34.7255 57.7771C34.5511 57.6027 34.4531 57.3661 34.4531 57.1195C34.4531 56.8728 34.5511 56.6363 34.7255 56.4618C34.8999 56.2874 35.1365 56.1895 35.3831 56.1895H41.5331C41.7798 56.1895 42.0163 56.2874 42.1907 56.4618C42.3651 56.6363 42.4631 56.8728 42.4631 57.1195C42.4631 57.3661 42.3651 57.6027 42.1907 57.7771C42.0163 57.9515 41.7798 58.0495 41.5331 58.0495Z" fill="#0A1C40"/>
<path d="M100.002 58.0495H96.9417C96.6951 58.0495 96.4585 57.9515 96.2841 57.7771C96.1097 57.6027 96.0117 57.3661 96.0117 57.1195C96.0117 56.8728 96.1097 56.6363 96.2841 56.4618C96.4585 56.2874 96.6951 56.1895 96.9417 56.1895H100.002C100.248 56.1895 100.485 56.2874 100.659 56.4618C100.834 56.6363 100.932 56.8728 100.932 57.1195C100.932 57.3661 100.834 57.6027 100.659 57.7771C100.485 57.9515 100.248 58.0495 100.002 58.0495Z" fill="#0A1C40"/>
<path d="M51.0705 44.8799C50.4705 44.8799 49.8605 44.8799 49.2505 44.8299C43.6505 44.4899 38.8905 42.5099 36.5405 39.5299C35.7979 38.6065 35.3146 37.502 35.1405 36.3299H34.6905C26.0843 35.8235 17.9918 32.0668 12.0505 25.8199C11.9548 25.7338 11.878 25.6289 11.8249 25.5116C11.7719 25.3944 11.7437 25.2674 11.7422 25.1388C11.7408 25.0101 11.766 24.8825 11.8164 24.7641C11.8668 24.6457 11.9412 24.539 12.035 24.4508C12.1287 24.3627 12.2397 24.2949 12.361 24.2518C12.4822 24.2088 12.6111 24.1913 12.7395 24.2006C12.8678 24.21 12.9928 24.2458 13.1066 24.3059C13.2204 24.366 13.3205 24.4491 13.4005 24.5499C19.0125 30.4451 26.6549 33.9875 34.7805 34.4599H35.1005C35.4305 30.6399 38.2705 26.6699 40.8905 24.2999C42.6605 22.6899 47.2405 20.2199 50.3305 21.4499C51.4105 21.8799 52.7305 22.9399 52.9305 25.5699C53.2405 29.6999 48.4605 32.7799 46.9905 33.6299C43.9272 35.3305 40.4936 36.2542 36.9905 36.3199C37.1543 37.0736 37.4973 37.7768 37.9905 38.3699C39.9905 40.9499 44.2805 42.6699 49.3605 42.9699C53.8303 43.1719 58.2923 42.4253 62.4529 40.7793C66.6136 39.1333 70.3786 36.6252 73.5005 33.4199C73.6787 33.2709 73.9063 33.194 74.1384 33.2043C74.3705 33.2147 74.5903 33.3115 74.7546 33.4758C74.9188 33.6401 75.0157 33.8599 75.026 34.092C75.0364 34.3241 74.9595 34.5516 74.8105 34.7299C68.5464 41.1131 60.0131 44.7615 51.0705 44.8799ZM48.4505 22.9999C46.1128 23.2146 43.9018 24.1592 42.1305 25.6999C39.9105 27.6999 37.3105 31.2499 36.9605 34.4999C40.1517 34.4173 43.275 33.5593 46.0605 31.9999C48.6105 30.5299 51.2605 28.0999 51.0605 25.6699C50.9605 24.3099 50.4905 23.4899 49.6205 23.1399C49.2425 23.0212 48.8458 22.9737 48.4505 22.9999Z" fill="#0B1C3F"/>
<path d="M78.0025 34.6699C78.0025 34.6699 76.1425 30.8199 82.2925 23.8499C88.4425 16.8799 100.652 14.3199 114.772 21.2899C112.734 24.7905 109.884 27.7498 106.462 29.9183C103.041 32.0867 99.1483 33.4009 95.1125 33.7499C95.1125 33.7499 94.1125 29.0999 90.3825 30.0899C89.7236 30.1916 89.0954 30.4382 88.5432 30.8118C87.9909 31.1854 87.5284 31.6768 87.1889 32.2506C86.8494 32.8244 86.6414 33.4664 86.5797 34.1303C86.5181 34.7941 86.6044 35.4634 86.8325 36.0899C86.8325 36.0899 83.2325 38.8899 78.0025 34.6699Z" fill="#8CC63F"/>
<path d="M85.4236 37.8993C81.6736 37.8993 78.1836 35.2893 78.0136 35.1593L77.4336 34.7193L77.7236 34.0593C77.7836 33.9293 83.3936 21.4693 99.7236 21.9993C99.9685 22.0071 100.2 22.1113 100.369 22.2892C100.537 22.4671 100.629 22.7043 100.624 22.9493C100.599 23.1968 100.482 23.4262 100.298 23.5926C100.113 23.759 99.8724 23.8505 99.6236 23.8493C86.6236 23.4093 81.1136 31.6293 79.7536 34.1093C81.5558 35.3198 83.6727 35.9767 85.8436 35.9993C85.3445 34.6206 85.3766 33.1056 85.9336 31.7493C86.3381 31.0211 86.9136 30.4022 87.6104 29.9458C88.3072 29.4894 89.1045 29.2092 89.9336 29.1293C90.5947 28.9668 91.2841 28.9571 91.9494 29.1009C92.6148 29.2447 93.2386 29.5383 93.7736 29.9593C94.8417 30.9739 95.515 32.3347 95.6736 33.7993C98.7336 33.1293 108.324 30.3693 113.174 21.6793C113.232 21.5721 113.311 21.4778 113.407 21.4018C113.502 21.3259 113.612 21.27 113.729 21.2373C113.847 21.2046 113.97 21.196 114.091 21.2118C114.212 21.2276 114.328 21.2675 114.434 21.3293C114.541 21.3877 114.635 21.4669 114.711 21.5621C114.787 21.6573 114.844 21.7667 114.877 21.884C114.911 22.0012 114.921 22.1239 114.906 22.245C114.892 22.3661 114.854 22.4831 114.794 22.5893C108.544 33.7693 95.5236 35.7493 94.9736 35.8193L93.8836 35.9993V34.9993C93.8989 33.7022 93.428 32.4464 92.5636 31.4793C92.2425 31.2249 91.8665 31.0491 91.4654 30.9657C91.0644 30.8824 90.6494 30.8939 90.2536 30.9993C89.7162 31.0348 89.1951 31.1986 88.734 31.477C88.2729 31.7554 87.8853 32.1402 87.6036 32.5993C86.8536 34.1293 87.9236 36.3093 87.9436 36.3293L88.4636 37.3293L87.3636 37.6393C86.732 37.8147 86.0791 37.9022 85.4236 37.8993Z" fill="#0B1C3F"/>
<path d="M119.872 84.2993H117.052C116.922 84.3128 116.791 84.2989 116.667 84.2586C116.544 84.2183 116.43 84.1524 116.333 84.0652C116.236 83.978 116.159 83.8714 116.106 83.7524C116.053 83.6334 116.025 83.5046 116.025 83.3743C116.025 83.2441 116.053 83.1153 116.106 82.9963C116.159 82.8773 116.236 82.7707 116.333 82.6835C116.43 82.5963 116.544 82.5304 116.667 82.4901C116.791 82.4497 116.922 82.4358 117.052 82.4493H119.872C120.101 82.4732 120.312 82.5809 120.466 82.7517C120.62 82.9225 120.705 83.1444 120.705 83.3743C120.705 83.6043 120.62 83.8261 120.466 83.997C120.312 84.1678 120.101 84.2755 119.872 84.2993ZM110.872 84.2993H104.692C104.463 84.2755 104.251 84.1678 104.097 83.997C103.943 83.8261 103.858 83.6043 103.858 83.3743C103.858 83.1444 103.943 82.9225 104.097 82.7517C104.251 82.5809 104.463 82.4732 104.692 82.4493H110.872C111.001 82.4358 111.132 82.4497 111.256 82.4901C111.38 82.5304 111.494 82.5963 111.591 82.6835C111.687 82.7707 111.765 82.8773 111.818 82.9963C111.871 83.1153 111.898 83.2441 111.898 83.3743C111.898 83.5046 111.871 83.6334 111.818 83.7524C111.765 83.8714 111.687 83.978 111.591 84.0652C111.494 84.1524 111.38 84.2183 111.256 84.2586C111.132 84.2989 111.001 84.3128 110.872 84.2993ZM98.5218 84.2993H92.3418C92.113 84.2755 91.9012 84.1678 91.7473 83.997C91.5933 83.8261 91.5081 83.6043 91.5081 83.3743C91.5081 83.1444 91.5933 82.9225 91.7473 82.7517C91.9012 82.5809 92.113 82.4732 92.3418 82.4493H98.5218C98.7505 82.4732 98.9623 82.5809 99.1163 82.7517C99.2703 82.9225 99.3555 83.1444 99.3555 83.3743C99.3555 83.6043 99.2703 83.8261 99.1163 83.997C98.9623 84.1678 98.7505 84.2755 98.5218 84.2993ZM86.1718 84.2993H80.0018C79.8722 84.3128 79.7413 84.2989 79.6174 84.2586C79.4936 84.2183 79.3796 84.1524 79.2828 84.0652C79.1861 83.978 79.1087 83.8714 79.0558 83.7524C79.0028 83.6334 78.9755 83.5046 78.9755 83.3743C78.9755 83.2441 79.0028 83.1153 79.0558 82.9963C79.1087 82.8773 79.1861 82.7707 79.2828 82.6835C79.3796 82.5963 79.4936 82.5304 79.6174 82.4901C79.7413 82.4497 79.8722 82.4358 80.0018 82.4493H86.1818C86.4105 82.4732 86.6223 82.5809 86.7763 82.7517C86.9303 82.9225 87.0155 83.1444 87.0155 83.3743C87.0155 83.6043 86.9303 83.8261 86.7763 83.997C86.6223 84.1678 86.4105 84.2755 86.1818 84.2993H86.1718ZM73.8118 84.2993H67.6418C67.5122 84.3128 67.3813 84.2989 67.2574 84.2586C67.1336 84.2183 67.0196 84.1524 66.9228 84.0652C66.8261 83.978 66.7487 83.8714 66.6958 83.7524C66.6428 83.6334 66.6155 83.5046 66.6155 83.3743C66.6155 83.2441 66.6428 83.1153 66.6958 82.9963C66.7487 82.8773 66.8261 82.7707 66.9228 82.6835C67.0196 82.5963 67.1336 82.5304 67.2574 82.4901C67.3813 82.4497 67.5122 82.4358 67.6418 82.4493H73.8118C73.9413 82.4358 74.0723 82.4497 74.1961 82.4901C74.32 82.5304 74.434 82.5963 74.5307 82.6835C74.6275 82.7707 74.7048 82.8773 74.7578 82.9963C74.8107 83.1153 74.8381 83.2441 74.8381 83.3743C74.8381 83.5046 74.8107 83.6334 74.7578 83.7524C74.7048 83.8714 74.6275 83.978 74.5307 84.0652C74.434 84.1524 74.32 84.2183 74.1961 84.2586C74.0723 84.2989 73.9413 84.3128 73.8118 84.2993ZM61.4618 84.2993H55.2918C55.1622 84.3128 55.0313 84.2989 54.9074 84.2586C54.7836 84.2183 54.6696 84.1524 54.5728 84.0652C54.4761 83.978 54.3987 83.8714 54.3458 83.7524C54.2928 83.6334 54.2655 83.5046 54.2655 83.3743C54.2655 83.2441 54.2928 83.1153 54.3458 82.9963C54.3987 82.8773 54.4761 82.7707 54.5728 82.6835C54.6696 82.5963 54.7836 82.5304 54.9074 82.4901C55.0313 82.4497 55.1622 82.4358 55.2918 82.4493H61.4618C61.5913 82.4358 61.7223 82.4497 61.8461 82.4901C61.97 82.5304 62.084 82.5963 62.1807 82.6835C62.2775 82.7707 62.3548 82.8773 62.4078 82.9963C62.4607 83.1153 62.4881 83.2441 62.4881 83.3743C62.4881 83.5046 62.4607 83.6334 62.4078 83.7524C62.3548 83.8714 62.2775 83.978 62.1807 84.0652C62.084 84.1524 61.97 84.2183 61.8461 84.2586C61.7223 84.2989 61.5913 84.3128 61.4618 84.2993ZM49.1118 84.2993H42.9418C42.8122 84.3128 42.6813 84.2989 42.5574 84.2586C42.4336 84.2183 42.3196 84.1524 42.2228 84.0652C42.1261 83.978 42.0487 83.8714 41.9958 83.7524C41.9428 83.6334 41.9155 83.5046 41.9155 83.3743C41.9155 83.2441 41.9428 83.1153 41.9958 82.9963C42.0487 82.8773 42.1261 82.7707 42.2228 82.6835C42.3196 82.5963 42.4336 82.5304 42.5574 82.4901C42.6813 82.4497 42.8122 82.4358 42.9418 82.4493H49.1118C49.2413 82.4358 49.3723 82.4497 49.4961 82.4901C49.62 82.5304 49.734 82.5963 49.8307 82.6835C49.9275 82.7707 50.0048 82.8773 50.0578 82.9963C50.1107 83.1153 50.1381 83.2441 50.1381 83.3743C50.1381 83.5046 50.1107 83.6334 50.0578 83.7524C50.0048 83.8714 49.9275 83.978 49.8307 84.0652C49.734 84.1524 49.62 84.2183 49.4961 84.2586C49.3723 84.2989 49.2413 84.3128 49.1118 84.2993ZM36.7618 84.2993H30.5818C30.353 84.2755 30.1412 84.1678 29.9873 83.997C29.8333 83.8261 29.7481 83.6043 29.7481 83.3743C29.7481 83.1444 29.8333 82.9225 29.9873 82.7517C30.1412 82.5809 30.353 82.4732 30.5818 82.4493H36.7618C36.8913 82.4358 37.0223 82.4497 37.1461 82.4901C37.27 82.5304 37.384 82.5963 37.4807 82.6835C37.5775 82.7707 37.6548 82.8773 37.7078 82.9963C37.7607 83.1153 37.7881 83.2441 37.7881 83.3743C37.7881 83.5046 37.7607 83.6334 37.7078 83.7524C37.6548 83.8714 37.5775 83.978 37.4807 84.0652C37.384 84.1524 37.27 84.2183 37.1461 84.2586C37.0223 84.2989 36.8913 84.3128 36.7618 84.2993ZM24.4118 84.2993H18.2318C18.003 84.2755 17.7912 84.1678 17.6373 83.997C17.4833 83.8261 17.3981 83.6043 17.3981 83.3743C17.3981 83.1444 17.4833 82.9225 17.6373 82.7517C17.7912 82.5809 18.003 82.4732 18.2318 82.4493H24.4118C24.6405 82.4732 24.8523 82.5809 25.0063 82.7517C25.1603 82.9225 25.2455 83.1444 25.2455 83.3743C25.2455 83.6043 25.1603 83.8261 25.0063 83.997C24.8523 84.1678 24.6405 84.2755 24.4118 84.2993ZM12.0618 84.2993H5.88178C5.75222 84.3128 5.62128 84.2989 5.49743 84.2586C5.37359 84.2183 5.25959 84.1524 5.16284 84.0652C5.06609 83.978 4.98873 83.8714 4.93578 83.7524C4.88283 83.6334 4.85547 83.5046 4.85547 83.3743C4.85547 83.2441 4.88283 83.1153 4.93578 82.9963C4.98873 82.8773 5.06609 82.7707 5.16284 82.6835C5.25959 82.5963 5.37359 82.5304 5.49743 82.4901C5.62128 82.4497 5.75222 82.4358 5.88178 82.4493H12.0618C12.2905 82.4732 12.5023 82.5809 12.6563 82.7517C12.8103 82.9225 12.8955 83.1444 12.8955 83.3743C12.8955 83.6043 12.8103 83.8261 12.6563 83.997C12.5023 84.1678 12.2905 84.2755 12.0618 84.2993Z" fill="#0A1C40"/>
</svg>
