<svg width="32" height="32" viewBox="0 0 32 32" fill="none" xmlns="http://www.w3.org/2000/svg">
<g clip-path="url(#clip0_13_148080)">
<path d="M21.5708 17.7938L23.6863 18.9754C24.1798 19.2509 24.5175 19.743 24.5986 20.3053L24.604 20.3431C24.6446 20.6248 24.4033 20.865 24.1243 20.821L17.6314 19.797L21.5714 17.7942L21.5708 17.7938Z" fill="url(#paint0_linear_13_148080)"/>
<path d="M21.4919 18.3634C21.4919 18.3634 20.9299 19.0093 21.1786 19.3012C21.4273 19.5932 21.9838 19.5441 22.4613 19.191C22.9388 18.8378 23.2142 18.4945 22.8498 18.0057C22.4853 17.517 21.7874 17.9153 21.4925 18.3633L21.4919 18.3634Z" fill="url(#paint1_linear_13_148080)"/>
<path d="M22.5873 18.8582C22.8069 18.8004 22.9304 18.5449 22.8631 18.2876C22.7957 18.0303 22.5631 17.8687 22.3435 17.9265C22.1239 17.9844 22.0004 18.2398 22.0677 18.4971C22.135 18.7544 22.3677 18.9161 22.5873 18.8582Z" fill="white"/>
<path d="M2.98137 20.0699L3.9884 19.4291C4.07426 19.3744 4.17981 19.3603 4.27741 19.3907L7.08598 20.2628C7.18186 20.2924 7.28601 20.2795 7.37157 20.2264L20.8705 11.8444C20.8705 11.8444 23.7989 9.82595 26.9431 10.1996C26.9735 10.2032 27.0037 10.2026 27.034 10.1983C27.2725 10.1639 28.441 10.0416 29.1426 10.8515C29.9265 11.7567 29.0239 13.0884 26.7875 14.579C24.551 16.0697 17.0214 20.5188 13.9199 21.8197C10.8856 23.0928 5.80929 25.0093 2.87791 20.5607C2.7695 20.3961 2.81636 20.1742 2.98129 20.0694L2.98137 20.0699Z" fill="#ED0226"/>
<path d="M14.2187 14.3371L14.2562 14.3396C14.2675 14.3406 14.2581 14.3133 14.2586 14.3018C14.2389 14.2427 14.234 14.1801 14.2438 14.1185C14.2542 14.0574 14.2789 13.9993 14.3168 13.9501L15.1455 12.8319C15.2269 12.7305 15.2846 12.6118 15.3142 12.4851C15.3438 12.358 15.3448 12.2263 15.3166 12.0986C15.2801 11.8974 15.1706 11.7176 15.0099 11.5929C14.9285 11.5229 14.8387 11.4638 14.7529 11.3972L14.342 11.0922L13.7817 10.6749C13.7817 10.6749 13.7605 10.6545 13.7442 10.6724C13.7279 10.6903 13.7422 10.6987 13.7417 10.7101C13.7614 10.7693 13.7664 10.8319 13.7565 10.8935C13.7462 10.9546 13.7215 11.0127 13.6835 11.0619L13.5923 11.188C13.3772 11.4757 13.1765 11.7678 12.9496 12.0584C12.878 12.1448 12.8149 12.2377 12.7611 12.3366C12.7029 12.4518 12.6724 12.5795 12.6714 12.7087C12.6679 12.7703 12.6738 12.8319 12.6886 12.8915C12.7266 13.0977 12.8396 13.2825 13.0058 13.4091C13.1592 13.5294 13.316 13.6466 13.4734 13.7633L13.7984 14.0018L14.2182 14.3376L14.2187 14.3371Z" fill="url(#paint2_linear_13_148080)"/>
<path d="M16.505 16.2343L5.81514 15.0828C5.05176 15.0007 4.28292 15.1802 3.63442 15.5923L2.9586 16.0217C2.79419 16.1264 2.83315 16.3783 3.02191 16.4278L12.5274 18.9195C12.5839 18.9344 12.6435 18.9264 12.6936 18.8972L16.5922 16.6515C16.7791 16.5435 16.7193 16.2576 16.505 16.2343Z" fill="url(#paint3_linear_13_148080)"/>
<path d="M17.1481 15.6454C17.3901 15.6105 17.5579 15.3846 17.5228 15.1408C17.4876 14.897 17.2629 14.7276 17.0208 14.7625C16.7788 14.7974 16.611 15.0233 16.6461 15.2671C16.6813 15.5109 16.906 15.6803 17.1481 15.6454Z" fill="white"/>
<path d="M18.3751 14.851C18.6172 14.8161 18.7849 14.5902 18.7498 14.3464C18.7147 14.1026 18.49 13.9332 18.2479 13.9681C18.0058 14.003 17.8381 14.2289 17.8732 14.4727C17.9083 14.7165 18.133 14.8859 18.3751 14.851Z" fill="white"/>
<path d="M19.5231 14.2118C19.7651 14.177 19.9329 13.951 19.8978 13.7072C19.8626 13.4634 19.6379 13.294 19.3958 13.3289C19.1538 13.3638 18.986 13.5897 19.0211 13.8335C19.0563 14.0774 19.281 14.2467 19.5231 14.2118Z" fill="white"/>
<path d="M20.7501 13.4135C20.9922 13.3786 21.1599 13.1527 21.1248 12.9089C21.0897 12.6651 20.865 12.4957 20.6229 12.5306C20.3808 12.5655 20.2131 12.7914 20.2482 13.0352C20.2833 13.279 20.508 13.4484 20.7501 13.4135Z" fill="white"/>
<path d="M21.9972 12.7861C22.2393 12.7512 22.407 12.5253 22.3719 12.2814C22.3368 12.0376 22.112 11.8683 21.87 11.9031C21.6279 11.938 21.4601 12.164 21.4953 12.4078C21.5304 12.6516 21.7551 12.8209 21.9972 12.7861Z" fill="white"/>
<path d="M3.41283 21.939L4.79515 21.2265C4.82792 21.2099 4.8634 21.2011 4.90016 21.2011L7.75611 21.2118C7.92769 21.2123 7.98353 21.4446 7.83092 21.524L5.52622 22.7181C5.47468 22.7449 5.41482 22.7508 5.35923 22.7347L3.43716 22.1855C3.32158 22.1523 3.30572 21.9942 3.41283 21.939Z" fill="#0B3377"/>
<path d="M25.466 10.1827C25.466 10.1827 25.455 10.5759 24.6038 10.9228C24.1339 11.1364 24.4523 11.561 25.145 11.3152C25.8377 11.0695 26.9175 10.5196 27.0422 10.1948C27.0422 10.1948 25.9047 10.0524 25.4665 10.1826L25.466 10.1827Z" fill="white"/>
<path d="M8.59603 15.4652C8.59603 15.4652 7.81205 16.1827 8.07779 16.5779C8.34352 16.973 9.03756 16.9916 9.67639 16.6232C10.3152 16.2549 10.703 15.8707 10.3216 15.216C9.94012 14.5612 9.02299 14.9535 8.59596 15.4646L8.59603 15.4652Z" fill="url(#paint4_linear_13_148080)"/>
<path d="M11.8714 16.0883C11.8714 16.0883 11.1434 16.7544 11.3902 17.1217C11.637 17.489 12.2817 17.5055 12.8744 17.1642C13.4675 16.8223 13.8278 16.4657 13.4738 15.8574C13.1199 15.2496 12.268 15.6138 11.8714 16.0883Z" fill="url(#paint5_linear_13_148080)"/>
<path d="M9.88332 16.2226C10.1623 16.1824 10.3502 15.8847 10.3031 15.5576C10.2559 15.2304 9.99159 14.9979 9.71263 15.0381C9.43366 15.0783 9.24573 15.376 9.29287 15.7031C9.34 16.0302 9.60436 16.2628 9.88332 16.2226Z" fill="white"/>
<path d="M13.065 16.796C13.3241 16.7587 13.4987 16.4823 13.4549 16.1787C13.4112 15.8751 13.1657 15.6592 12.9066 15.6966C12.6475 15.7339 12.473 16.0103 12.5167 16.3139C12.5605 16.6175 12.8059 16.8333 13.065 16.796Z" fill="white"/>
<path opacity="0.45" d="M29.145 10.8504C29.028 10.7149 28.8974 10.6065 28.7606 10.5184C29.5422 12.0538 18.2016 18.3663 16.0133 19.5073C13.8251 20.6487 12.4317 22.4116 12.4317 22.4116C12.9653 22.2151 13.4668 22.0098 13.9223 21.8186C17.0239 20.5177 24.5535 16.0686 26.7899 14.5779C29.0264 13.0873 29.929 11.7556 29.145 10.8504Z" fill="url(#paint6_radial_13_148080)"/>
</g>
<path d="M11.8304 11.6861L11.8533 11.6896C11.8601 11.6904 11.856 11.6733 11.8569 11.6665C11.8479 11.6294 11.848 11.5902 11.8574 11.5528C11.8669 11.5153 11.8856 11.4808 11.9118 11.4523L12.484 10.8029C12.5397 10.7444 12.5815 10.6741 12.6064 10.5971C12.6314 10.5202 12.6389 10.4387 12.6283 10.359C12.6163 10.2331 12.5581 10.1167 12.4648 10.0316C12.4179 9.98428 12.3653 9.94351 12.3161 9.89795L12.078 9.68935L11.7527 9.40404C11.7527 9.40404 11.7405 9.39028 11.7297 9.40059C11.7189 9.4109 11.727 9.41682 11.7261 9.42366C11.7352 9.46075 11.7351 9.49993 11.7256 9.53739C11.7162 9.57485 11.6974 9.60941 11.6717 9.6381L11.6087 9.71145C11.4605 9.8785 11.3209 10.0486 11.1653 10.2169C11.1165 10.2666 11.0724 10.3209 11.0339 10.379C10.992 10.4474 10.9664 10.5245 10.9588 10.6041C10.9533 10.6421 10.9537 10.6803 10.9601 10.7177C10.9726 10.8469 11.0332 10.9665 11.1292 11.0533C11.2178 11.135 11.309 11.2153 11.4001 11.2948L11.589 11.4579L11.8311 11.6859L11.8304 11.6861Z" fill="#07245C"/>
<defs>
<linearGradient id="paint0_linear_13_148080" x1="17.6692" y1="20.063" x2="24.4234" y2="19.0897" gradientUnits="userSpaceOnUse">
<stop stop-color="#FA7C55"/>
<stop offset="0.2" stop-color="#F75C4A"/>
<stop offset="0.65" stop-color="#F00B2E"/>
<stop offset="0.69" stop-color="#E5082A"/>
<stop offset="0.78" stop-color="#D20422"/>
<stop offset="0.87" stop-color="#C7011E"/>
<stop offset="0.97" stop-color="#C3001C"/>
</linearGradient>
<linearGradient id="paint1_linear_13_148080" x1="21.0627" y1="18.7777" x2="23.0304" y2="18.4942" gradientUnits="userSpaceOnUse">
<stop stop-color="#07245C"/>
<stop offset="1" stop-color="#185EC4"/>
</linearGradient>
<linearGradient id="paint2_linear_13_148080" x1="12.691" y1="12.4087" x2="15.3187" y2="12.5907" gradientUnits="userSpaceOnUse">
<stop stop-color="#FA7C55"/>
<stop offset="0.2" stop-color="#F75C4A"/>
<stop offset="0.65" stop-color="#F00B2E"/>
<stop offset="0.69" stop-color="#E5082A"/>
<stop offset="0.78" stop-color="#D20422"/>
<stop offset="0.87" stop-color="#C7011E"/>
<stop offset="0.97" stop-color="#C3001C"/>
</linearGradient>
<linearGradient id="paint3_linear_13_148080" x1="3.08653" y1="17.8337" x2="16.6237" y2="15.883" gradientUnits="userSpaceOnUse">
<stop stop-color="#FA7C55"/>
<stop offset="0.2" stop-color="#F75C4A"/>
<stop offset="0.65" stop-color="#F00B2E"/>
<stop offset="0.69" stop-color="#E5082A"/>
<stop offset="0.78" stop-color="#D20422"/>
<stop offset="0.87" stop-color="#C7011E"/>
<stop offset="0.97" stop-color="#C3001C"/>
</linearGradient>
<linearGradient id="paint4_linear_13_148080" x1="7.97264" y1="16.0662" x2="10.481" y2="15.7048" gradientUnits="userSpaceOnUse">
<stop stop-color="#07245C"/>
<stop offset="1" stop-color="#185EC4"/>
</linearGradient>
<linearGradient id="paint5_linear_13_148080" x1="11.2924" y1="16.6465" x2="13.6217" y2="16.3109" gradientUnits="userSpaceOnUse">
<stop stop-color="#07245C"/>
<stop offset="1" stop-color="#185EC4"/>
</linearGradient>
<radialGradient id="paint6_radial_13_148080" cx="0" cy="0" r="1" gradientUnits="userSpaceOnUse" gradientTransform="translate(18.6631 18.667) rotate(-39.8056) scale(15.6205 15.7323)">
<stop stop-color="white"/>
<stop offset="0.32" stop-color="white" stop-opacity="0.95"/>
<stop offset="0.44" stop-color="white" stop-opacity="0.89"/>
<stop offset="0.54" stop-color="white" stop-opacity="0.8"/>
<stop offset="0.64" stop-color="white" stop-opacity="0.69"/>
<stop offset="0.73" stop-color="white" stop-opacity="0.55"/>
<stop offset="0.82" stop-color="white" stop-opacity="0.39"/>
<stop offset="0.9" stop-color="white" stop-opacity="0.21"/>
<stop offset="0.98" stop-color="white" stop-opacity="0"/>
</radialGradient>
<clipPath id="clip0_13_148080">
<rect width="27.5981" height="12.1756" fill="white" transform="translate(1.62207 12.0527) rotate(-8.19968)"/>
</clipPath>
</defs>
</svg>
