<svg width="24" height="25" viewBox="0 0 24 25" fill="none" xmlns="http://www.w3.org/2000/svg">
<path fill-rule="evenodd" clip-rule="evenodd" d="M8.49902 9.26987V15.8244C8.49902 16.5924 9.32852 17.0739 9.99502 16.6929L15.9805 13.4154C16.652 13.0319 16.652 12.0629 15.9805 11.6794L9.99502 8.40187C9.32852 8.02087 8.49902 8.50187 8.49902 9.26987M11.999 2.54688C6.47651 2.54688 1.99951 7.02388 1.99951 12.5464C1.99951 18.0689 6.47651 22.5459 11.999 22.5459C17.5215 22.5459 21.9985 18.0689 21.9985 12.5464C21.9985 7.02388 17.5215 2.54688 11.999 2.54688M11.9991 4.54785C16.4101 4.54785 19.9986 8.13635 19.9986 12.5474C19.9986 16.9584 16.4101 20.5469 11.9991 20.5469C7.58807 20.5469 3.99957 16.9584 3.99957 12.5474C3.99957 8.13635 7.58807 4.54785 11.9991 4.54785" fill="white"/>
</svg>
