<svg width="24" height="24" viewBox="0 0 24 24" fill="none" xmlns="http://www.w3.org/2000/svg">
<rect x="0.5" y="0.5" width="23" height="23" rx="11.5" fill="white"/>
<rect x="0.5" y="0.5" width="23" height="23" rx="11.5" stroke="#FF0025"/>
<path d="M12.5625 8.0625C12.5625 7.75184 12.3107 7.5 12 7.5C11.6893 7.5 11.4375 7.75184 11.4375 8.0625L11.4375 11.4375H8.0625C7.75184 11.4375 7.5 11.6893 7.5 12C7.5 12.3107 7.75184 12.5625 8.0625 12.5625H11.4375L11.4375 15.9375C11.4375 16.2482 11.6893 16.5 12 16.5C12.3107 16.5 12.5625 16.2482 12.5625 15.9375V12.5625H15.9375C16.2482 12.5625 16.5 12.3107 16.5 12C16.5 11.6893 16.2482 11.4375 15.9375 11.4375H12.5625V8.0625Z" fill="#ED0226"/>
</svg>
