<svg width="101" height="100" viewBox="0 0 101 100" fill="none" xmlns="http://www.w3.org/2000/svg">
<path d="M29.9219 57.4063L61.6406 51.6172L81.5547 59.0469L50.4999 65.2344L29.9219 57.4063Z" fill="#AB2424"/>
<path d="M72.4505 62.6078L71.0103 61.1011L68.7317 62.3531L70.3316 64.0313L72.4505 62.6078Z" fill="#AB2424"/>
<path d="M49.6586 68.3034L48.2253 66.7987L48.9466 63.3751L47.3299 64.2045L45.8965 62.6997L47.2041 60.7276L51.7159 62.886L50.9685 67.0603L49.6586 68.3034Z" fill="#AB2424"/>
<path d="M50.2621 53.5581L48.8306 52.0465L51.7062 51.2603L50.2621 53.5581Z" fill="#C16F16"/>
<path d="M73.9734 37.7891L75.4136 39.2958L72.6499 42.5292L73.9734 37.7891Z" fill="#AB2424"/>
<path d="M77.7419 43.3934L76.3085 41.8886L73.4845 46.2571L77.7419 43.3934Z" fill="#AB2424"/>
<path d="M48.8309 52.0455L53.371 35.5702C55.1441 36.0559 56.9842 35.0146 57.47 33.2415L73.9797 37.7913C73.4939 39.5644 74.5353 41.4045 76.3084 41.8903L71.743 58.455L48.8309 52.0455Z" fill="#AB2424"/>
<path d="M50.2629 53.5572L54.803 37.0819C56.5761 37.5677 58.4162 36.5263 58.902 34.7532L75.4117 39.3031C74.9259 41.0762 75.9673 42.9162 77.7404 43.402L73.175 59.9668L50.2629 53.5572Z" fill="url(#paint0_linear_2742_168557)"/>
<path d="M64.7375 71.3437L48.2278 66.7938C48.7136 65.0207 47.6722 63.1806 45.8991 62.6949L48.1055 54.6957L71.0176 61.1053L68.8364 69.0149C67.0633 68.5292 65.2233 69.5706 64.7375 71.3437Z" fill="#AB2424"/>
<path d="M66.1682 72.8554L49.6585 68.3055C50.1442 66.5324 49.1028 64.6923 47.3297 64.2066L49.5362 56.2074L72.4483 62.617L70.2671 70.5267C68.494 70.0409 66.6539 71.0823 66.1682 72.8554Z" fill="url(#paint1_linear_2742_168557)"/>
<path d="M61.9546 53.1639C58.5935 52.3264 56.5322 48.9125 57.3717 45.5445C58.2091 42.1835 61.623 40.1222 64.9929 40.9547C68.354 41.7922 70.4153 45.2061 69.5828 48.576C68.7453 51.9371 65.3314 53.9984 61.9634 53.1589L61.9546 53.1639ZM62.1681 52.3025C65.0571 53.0215 67.9954 51.2496 68.7145 48.3606C69.4335 45.4715 67.6616 42.5332 64.7726 41.8142C61.8835 41.0951 58.9453 42.867 58.2262 45.7561C57.5071 48.6451 59.279 51.5834 62.1681 52.3025Z" fill="white"/>
<path d="M69.5762 48.5721C69.6112 48.4482 69.5823 48.3137 69.5023 48.2019C69.3573 48.0049 69.0791 47.9635 68.884 48.1017C68.8644 48.1184 66.5712 49.738 63.2858 48.9219C60.5551 48.2476 58.9894 47.1588 58.3397 45.5111C58.2476 45.2844 57.9977 45.1693 57.7641 45.2594C57.5374 45.3515 57.4223 45.6014 57.5124 45.835C58.2731 47.7742 60.0368 49.0303 63.0655 49.7814C66.7678 50.7003 69.2922 48.8933 69.3971 48.8115C69.4824 48.7463 69.544 48.6597 69.5644 48.5614L69.5762 48.5721Z" fill="white"/>
<path d="M69.5772 48.5675C69.6044 48.4711 69.5903 48.363 69.5428 48.2679C69.4874 48.1482 68.1012 45.3708 64.3989 44.4519C61.3702 43.7008 59.2232 43.9866 57.6426 45.3465C57.4573 45.5023 57.4366 45.7863 57.5924 45.9716C57.7483 46.1568 58.0323 46.1775 58.2175 46.0217C59.563 44.863 61.4547 44.6389 64.1835 45.3202C67.4688 46.1363 68.7314 48.6408 68.7462 48.6673C68.856 48.8841 69.1206 48.9737 69.3354 48.8709C69.4571 48.8086 69.5383 48.7051 69.5733 48.5812L69.5772 48.5675Z" fill="white"/>
<path d="M62.6724 47.0396C63.4371 43.9627 62.8748 41.3734 62.838 41.2143C62.7861 40.9767 62.5459 40.8271 62.3083 40.879C62.0707 40.9308 61.9211 41.171 61.9729 41.4086C61.9869 41.4646 63.1863 47.036 59.4994 51.3541C59.3428 51.5403 59.3672 51.8223 59.5465 51.9769C59.7327 52.1336 60.0147 52.1091 60.1693 51.9298C61.5243 50.3426 62.2686 48.6277 62.6655 47.0376L62.6724 47.0396Z" fill="white"/>
<path d="M66.3521 47.9595C67.1565 44.7154 66.5634 41.9985 66.5235 41.8237C66.4717 41.5861 66.2315 41.4365 65.9939 41.4883C65.7562 41.5402 65.6086 41.7735 65.6585 42.018C65.6724 42.074 66.9436 47.9704 63.0482 52.527C62.8915 52.7132 62.916 52.9951 63.0953 53.1498C63.2815 53.3064 63.5634 53.2819 63.7181 53.1026C65.1416 51.4307 65.9269 49.6233 66.3471 47.9506L66.3521 47.9595Z" fill="white"/>
<path d="M60.6379 57.8076L58.6945 57.4568L57.6483 59.695L59.8168 60.0854L60.6379 57.8076Z" fill="#AB2424"/>
<path d="M46.3518 74.9523L44.402 74.6038L43.0399 71.564L42.2669 73.1132L40.3172 72.7648L40.2209 70.5162L44.8927 69.6424L46.6533 73.2665L46.3518 74.9523Z" fill="#AB2424"/>
<path d="M38.5464 63.2989L36.5942 62.9441L38.3595 60.7286L38.5464 63.2989Z" fill="#AB2424"/>
<path d="M47.8964 37.9102L49.8398 38.261L49.5324 42.2913L47.8964 37.9102Z" fill="#AB2424"/>
<path d="M53.9239 40.0978L51.9805 39.747L52.2633 44.682L53.9239 40.0978Z" fill="#AB2424"/>
<path d="M36.5939 62.9452L30.8397 47.7595C32.4724 47.138 33.3002 45.3074 32.6787 43.6747L47.8962 37.9086C48.5177 39.5413 50.3484 40.3691 51.9811 39.7476L57.7661 55.0161L36.5939 62.9452Z" fill="#AB2424"/>
<path d="M38.5459 63.3006L32.7917 48.115C34.4244 47.4935 35.2522 45.6628 34.6307 44.0301L49.8482 38.264C50.4697 39.8967 52.3004 40.7246 53.9331 40.1031L59.7181 55.3716L38.5459 63.3006Z" fill="url(#paint2_linear_2742_168557)"/>
<path d="M59.617 68.8302L44.3994 74.5963C43.778 72.9636 41.9473 72.1357 40.3146 72.7572L37.5224 65.383L58.6946 57.4539L61.456 64.7453C59.8233 65.3668 58.9955 67.1974 59.617 68.8302Z" fill="#AB2424"/>
<path d="M61.569 69.1856L46.3515 74.9517C45.73 73.319 43.8993 72.4912 42.2666 73.1127L39.4744 65.7385L60.6466 57.8094L63.408 65.1008C61.7753 65.7222 60.9475 67.5529 61.569 69.1856Z" fill="url(#paint3_linear_2742_168557)"/>
<path d="M47.2949 56.4433C44.2467 57.6853 40.7511 56.2218 39.5067 53.1673C38.2647 50.119 39.7282 46.6235 42.7804 45.3727C45.8286 44.1307 49.3242 45.5942 50.5749 48.6464C51.8169 51.6946 50.3535 55.1902 47.2989 56.4346L47.2949 56.4433ZM46.9757 55.6627C49.5954 54.5945 50.8562 51.5876 49.788 48.968C48.7198 46.3483 45.7129 45.0875 43.0932 46.1557C40.4735 47.2238 39.2127 50.2307 40.2809 52.8504C41.3491 55.4701 44.356 56.7309 46.9757 55.6627Z" fill="white"/>
<path d="M50.5621 48.6528C50.5195 48.5381 50.4219 48.4511 50.2979 48.4102C50.0761 48.3404 49.8395 48.4646 49.7673 48.68C49.7616 48.7038 48.9104 51.2322 45.9322 52.4481C43.4591 53.4618 41.6474 53.5044 40.2251 52.6045C40.0273 52.4822 39.771 52.534 39.6424 52.7341C39.5201 52.9319 39.5719 53.1882 39.772 53.3169C41.4429 54.3781 43.5003 54.353 46.2451 53.231C49.6007 51.8602 50.5244 49.0584 50.559 48.9368C50.5879 48.839 50.5866 48.738 50.547 48.6512L50.5621 48.6528Z" fill="white"/>
<path d="M50.5604 48.6456C50.5273 48.5564 50.4559 48.4814 50.3661 48.435C50.2565 48.3742 47.6357 47.0206 44.28 48.3914C41.5353 49.5134 40.0483 50.9364 39.5981 52.866C39.5433 53.0894 39.6867 53.3189 39.9101 53.3737C40.1335 53.4284 40.363 53.2851 40.4178 53.0617C40.8003 51.4183 42.1261 50.1857 44.6016 49.1784C47.5797 47.9624 49.9527 49.1761 49.9789 49.1881C50.1847 49.2929 50.4379 49.2133 50.5451 49.0139C50.6035 48.8979 50.6078 48.773 50.5652 48.6583L50.5604 48.6456Z" fill="white"/>
<path d="M44.4064 51.344C43.2679 48.5547 41.3847 46.8834 41.2673 46.782C41.0943 46.6288 40.8261 46.6487 40.6728 46.8217C40.5196 46.9947 40.5395 47.2629 40.7125 47.4161C40.7546 47.4512 44.7986 51.0532 44.3911 56.4333C44.3754 56.664 44.5522 56.8666 44.7765 56.8847C45.0072 56.9005 45.2098 56.7236 45.2279 56.4993C45.3775 54.522 44.987 52.7889 44.4 51.3464L44.4064 51.344Z" fill="white"/>
<path d="M47.7511 49.9879C46.5494 47.048 44.571 45.2961 44.4424 45.1844C44.2694 45.0311 44.0013 45.051 43.848 45.224C43.6948 45.397 43.7123 45.6588 43.8877 45.8185C43.9298 45.8536 48.2111 49.6646 47.7773 55.3446C47.7615 55.5753 47.9384 55.7779 48.1627 55.796C48.3933 55.8118 48.5959 55.635 48.614 55.4107C48.7687 53.3299 48.3578 51.5028 47.7424 49.9839L47.7511 49.9879Z" fill="white"/>
<path d="M50.5256 88.2973L51.03 65.396L29.9219 57.4141V80.6953C29.9219 84.0938 32.125 85.6094 35.4375 86.8359L53.7253 94.1015C53.2409 89.5546 50.9163 91.4223 50.5256 88.2973Z" fill="url(#paint4_linear_2742_168557)"/>
<path d="M81.5546 59.0469V82.3281C81.5546 85.7266 79.1249 87.4219 76.039 88.4687L55.2515 94.3598C52.1969 94.3598 50.4995 91.8672 50.4995 88.4687L50.962 65.3737L81.5546 59.0469Z" fill="url(#paint5_linear_2742_168557)"/>
<path d="M70.9688 89.9139L61.9375 92.492V62.8904L70.9688 61.1367V89.9139Z" fill="#F39B2F"/>
<path d="M36.2188 87.1562V59.7656L42.3828 62.1094V89.6953L36.2188 87.1562Z" fill="#F39B2F"/>
<path d="M66.9976 30.1432C67.0366 30.1745 67.0757 30.2214 67.1382 30.1823C67.2007 30.1432 67.1773 30.0885 67.1616 30.0339C67.0366 29.5573 67.1304 29.1198 67.4429 28.737C68.5366 27.3932 69.6304 26.0495 70.7319 24.7057C71.3726 23.9245 71.6382 23.0417 71.4897 22.0417C71.3726 21.2604 71.0132 20.612 70.4273 20.0964C70.1226 19.8307 69.8022 19.5807 69.4897 19.3307C68.9897 18.9245 68.4898 18.526 67.9976 18.1198C67.3179 17.5651 66.646 17.0104 65.9663 16.4635C65.9272 16.4323 65.8804 16.3776 65.8179 16.4245C65.7632 16.4635 65.7866 16.5182 65.8022 16.5651C65.9272 17.0495 65.8257 17.4792 65.521 17.8698C65.4038 18.0182 65.2788 18.1667 65.1538 18.3151C64.3023 19.362 63.4429 20.4089 62.5913 21.4557C62.3257 21.7839 62.0366 22.0885 61.8413 22.4635C61.6069 22.901 61.4585 23.362 61.4507 23.862C61.4272 24.0885 61.4351 24.3229 61.4741 24.5495C61.6069 25.3464 61.9663 26.0182 62.5757 26.5417C63.1382 27.0182 63.7085 27.4792 64.2788 27.9401C64.6694 28.2526 65.0679 28.5729 65.4585 28.8932L67.0132 30.151L66.9976 30.1432Z" fill="#F39B2F"/>
<path d="M22.7929 67.3073C22.7929 67.3073 22.8397 67.3541 22.8761 67.3333C22.9125 67.3125 22.9021 67.2761 22.8917 67.2449C22.8137 66.9589 22.8709 66.6989 23.058 66.4701C23.7132 65.6641 24.3684 64.8634 25.0236 64.0626C25.4083 63.5946 25.5643 63.0695 25.4759 62.4715C25.4083 62.0087 25.1899 61.6187 24.8364 61.3068C24.6544 61.1456 24.462 61 24.2748 60.8492C23.9784 60.61 23.6768 60.3708 23.3804 60.1264C22.9749 59.7988 22.5693 59.466 22.1689 59.1333C22.1429 59.1125 22.1169 59.0865 22.0805 59.1125C22.0493 59.1333 22.0597 59.1697 22.0701 59.1957C22.1481 59.4868 22.0857 59.7416 21.8985 59.9756C21.8257 60.064 21.7529 60.1524 21.6801 60.2408C21.1705 60.8648 20.6558 61.4939 20.1462 62.1179C19.9902 62.3103 19.8186 62.4975 19.699 62.7211C19.5586 62.9811 19.4702 63.2567 19.465 63.5582C19.4494 63.6934 19.4598 63.8338 19.4806 63.969C19.5586 64.4422 19.7718 64.8478 20.141 65.1598C20.4738 65.4458 20.817 65.7213 21.1601 65.9969C21.3941 66.1841 21.6281 66.3765 21.8621 66.5637L22.7877 67.3177L22.7929 67.3073Z" fill="#F39B2F"/>
<path d="M85.5907 39.1366C85.5907 39.1366 85.6446 39.1904 85.6865 39.1665C85.7284 39.1425 85.7165 39.1006 85.7045 39.0647C85.6147 38.7354 85.6805 38.436 85.8961 38.1725C86.6505 37.2445 87.405 36.3224 88.1594 35.4003C88.6025 34.8614 88.7821 34.2566 88.6803 33.5681C88.6025 33.0352 88.351 32.5861 87.9439 32.2268C87.7343 32.0412 87.5128 31.8736 87.2972 31.6999C86.9559 31.4245 86.6086 31.1491 86.2673 30.8676C85.8003 30.4904 85.3333 30.1072 84.8722 29.724C84.8423 29.7001 84.8123 29.6701 84.7704 29.7001C84.7345 29.724 84.7465 29.7659 84.7584 29.7959C84.8483 30.1312 84.7764 30.4246 84.5609 30.694C84.477 30.7958 84.3932 30.8976 84.3094 30.9994C83.7226 31.7179 83.1298 32.4424 82.543 33.1609C82.3634 33.3824 82.1658 33.598 82.0281 33.8555C81.8664 34.1549 81.7646 34.4722 81.7586 34.8195C81.7407 34.9752 81.7527 35.1368 81.7766 35.2925C81.8664 35.8374 82.1119 36.3044 82.537 36.6637C82.9202 36.993 83.3154 37.3103 83.7106 37.6277C83.9801 37.8432 84.2495 38.0648 84.5189 38.2803L85.5847 39.1485L85.5907 39.1366Z" fill="#F39B2F"/>
<path d="M83.016 44.5312C81.4356 44.7972 79.8091 45.0836 78.4639 45.948C77.1187 46.8124 76.1111 48.4185 76.4435 49.9836C76.73 51.3339 78.0598 52.3773 79.4408 52.3415C79.5891 52.3415 79.7375 52.3211 79.8602 52.2392C79.9574 52.1779 80.029 52.0807 80.0853 51.9835C80.4382 51.3493 80.2029 50.5002 79.671 50.0041C79.139 49.5079 78.3769 49.334 77.6506 49.3494C75.7837 49.3954 74.0805 50.6639 73.2059 52.316C72.3312 53.968 72.2136 55.9372 72.5461 57.7734" stroke="#F39B2F" stroke-width="1.5" stroke-linecap="round" stroke-linejoin="round"/>
<path d="M45.1234 18.4633L31.2328 24.8461C31.3265 24.7133 31.4203 24.5805 31.514 24.4477C32.8422 22.5492 34.2172 20.5883 34.9281 18.4477C35.8422 15.6821 36.639 13.2914 34.6703 11.0805C33.3343 9.5805 31.0765 8.98675 29.1703 9.63518C27.6781 10.1508 26.3734 11.3227 25.3968 13.0571C23.4515 16.5024 23.4437 20.9399 25.1547 24.7133C21.2406 23.4321 16.8656 23.9477 13.7015 26.2914C12.1078 27.4633 11.0922 28.9086 10.764 30.4633C10.3422 32.4399 11.1859 34.643 12.8187 35.8071C15.225 37.5258 17.4906 36.4555 20.1078 35.2211C22.139 34.268 23.9125 32.6586 25.6312 31.1117C25.7562 31.0024 25.8734 30.893 25.9984 30.7836L21.3031 45.4321L23.4437 46.2524L29.1859 28.3383L46.1781 20.5336L45.1234 18.4867V18.4633ZM24.0609 29.3852C22.4515 30.8383 20.7875 32.3383 19.0375 33.1664C16.3422 34.4399 15.2093 34.8383 14.0375 33.9946C13.1859 33.3852 12.7328 32.1586 12.9672 31.0649C13.1312 30.3149 13.5375 29.6586 14.0062 29.1274C14.3656 28.7211 14.764 28.3774 15.1234 28.1117C18.139 25.8774 22.6625 25.6977 26.225 27.5024C25.5218 28.0649 24.8031 28.7133 24.0687 29.3774L24.0609 29.3852ZM27.3734 14.2524C27.5922 13.8617 27.8812 13.4242 28.2406 13.018C28.7093 12.4867 29.3031 12.0024 30.0297 11.7524C31.0765 11.393 32.3343 11.7055 33.0375 12.4867C33.9984 13.5727 33.7328 14.7446 32.7875 17.5883C32.1781 19.4399 30.889 21.2758 29.639 23.0571C29.0687 23.8696 28.514 24.6586 28.0375 25.4321C25.8422 22.0727 25.514 17.5258 27.3656 14.2446L27.3734 14.2524Z" fill="#F39B2F"/>
<path d="M24.1937 39.6836C22.1468 37.4727 22.0999 34.0195 24.0999 31.957L13.0531 43.3086C11.0531 45.3633 11.0999 48.8242 13.1468 51.0352L17.9984 56.2617L29.0453 44.9102L24.1937 39.6836Z" fill="url(#paint6_linear_2742_168557)"/>
<path d="M30.3265 43.5965L29.0453 44.9169L24.1937 39.6903C22.1468 37.4794 22.0999 34.0184 24.0999 31.9637L42.3734 13.1903C44.3734 11.1356 47.6624 11.2684 49.7093 13.4715L54.5609 18.6981L53.2796 20.0184" fill="url(#paint7_linear_2742_168557)"/>
<path d="M45.6469 27.8555L38.7562 34.9336L30.1937 25.707L37.0844 18.6211L45.6469 27.8555Z" fill="#F39B2F"/>
<path d="M26.6156 47.4023L21.9125 52.2305L17.0609 47.0039C15.0844 45.0586 14.1312 43.2852 14.5765 41.7383L19.2797 36.9102C18.9203 38.3242 19.5844 40.0352 21.764 42.1758L26.6156 47.4023Z" fill="#F39B2F"/>
<defs>
<linearGradient id="paint0_linear_2742_168557" x1="52.9527" y1="43.6356" x2="75.9525" y2="50.1294" gradientUnits="userSpaceOnUse">
<stop stop-color="#FA7C55"/>
<stop offset="0.15" stop-color="#F75A49"/>
<stop offset="0.43" stop-color="#F12135"/>
<stop offset="0.56" stop-color="#F00B2E"/>
<stop offset="0.97" stop-color="#C3001C"/>
</linearGradient>
<linearGradient id="paint1_linear_2742_168557" x1="47.9677" y1="61.7629" x2="70.9124" y2="68.2411" gradientUnits="userSpaceOnUse">
<stop stop-color="#FA7C55"/>
<stop offset="0.15" stop-color="#F75A49"/>
<stop offset="0.43" stop-color="#F12135"/>
<stop offset="0.56" stop-color="#F00B2E"/>
<stop offset="0.97" stop-color="#C3001C"/>
</linearGradient>
<linearGradient id="paint2_linear_2742_168557" x1="35.0403" y1="54.1829" x2="56.3334" y2="46.2669" gradientUnits="userSpaceOnUse">
<stop stop-color="#FA7C55"/>
<stop offset="0.15" stop-color="#F75A49"/>
<stop offset="0.43" stop-color="#F12135"/>
<stop offset="0.56" stop-color="#F00B2E"/>
<stop offset="0.97" stop-color="#C3001C"/>
</linearGradient>
<linearGradient id="paint3_linear_2742_168557" x1="41.3795" y1="70.8825" x2="62.6216" y2="62.9855" gradientUnits="userSpaceOnUse">
<stop stop-color="#FA7C55"/>
<stop offset="0.15" stop-color="#F75A49"/>
<stop offset="0.43" stop-color="#F12135"/>
<stop offset="0.56" stop-color="#F00B2E"/>
<stop offset="0.97" stop-color="#C3001C"/>
</linearGradient>
<linearGradient id="paint4_linear_2742_168557" x1="40.7422" y1="94.2344" x2="41.2109" y2="60.7344" gradientUnits="userSpaceOnUse">
<stop stop-color="#FA7C55"/>
<stop offset="0.15" stop-color="#F75A49"/>
<stop offset="0.43" stop-color="#F12135"/>
<stop offset="0.56" stop-color="#F00B2E"/>
<stop offset="0.97" stop-color="#C3001C"/>
</linearGradient>
<linearGradient id="paint5_linear_2742_168557" x1="65.1166" y1="58.7578" x2="65.1166" y2="93.6875" gradientUnits="userSpaceOnUse">
<stop stop-color="#FA7C55"/>
<stop offset="0.15" stop-color="#F75A49"/>
<stop offset="0.43" stop-color="#F12135"/>
<stop offset="0.56" stop-color="#F00B2E"/>
<stop offset="0.97" stop-color="#C3001C"/>
</linearGradient>
<linearGradient id="paint6_linear_2742_168557" x1="12.3441" y1="42.4481" x2="28.9049" y2="45.6073" gradientUnits="userSpaceOnUse">
<stop stop-color="#FA7C55"/>
<stop offset="0.15" stop-color="#F75A49"/>
<stop offset="0.43" stop-color="#F12135"/>
<stop offset="0.56" stop-color="#F00B2E"/>
<stop offset="0.97" stop-color="#C3001C"/>
</linearGradient>
<linearGradient id="paint7_linear_2742_168557" x1="46.7212" y1="9.07887" x2="30.5967" y2="43.7417" gradientUnits="userSpaceOnUse">
<stop stop-color="#FA7C55"/>
<stop offset="0.15" stop-color="#F75A49"/>
<stop offset="0.43" stop-color="#F12135"/>
<stop offset="0.56" stop-color="#F00B2E"/>
<stop offset="0.97" stop-color="#C3001C"/>
</linearGradient>
</defs>
</svg>
