<svg width="26" height="30" viewBox="0 0 26 30" fill="none" xmlns="http://www.w3.org/2000/svg">
<g filter="url(#filter0_d_2106_50489)">
<path d="M25 12C25 17.9797 20.73 21.7167 14.9338 26.4299C13.8136 27.3408 12.1996 27.3247 11.0909 26.3998C5.45838 21.7008 1 17.9669 1 12C1 5.37258 6.37258 0 13 0C19.6274 0 25 5.37258 25 12Z" fill="white"/>
</g>
<circle cx="13" cy="12" r="10" fill="#ED0226"/>
<path fill-rule="evenodd" clip-rule="evenodd" d="M12 6.99992C12 6.44763 12.4477 5.99992 13 5.99992C13.1841 5.99992 13.3333 5.85068 13.3333 5.66659C13.3333 5.48249 13.1841 5.33325 13 5.33325C12.0795 5.33325 11.3333 6.07944 11.3333 6.99992C11.3333 7.80624 11.9059 8.47882 12.6667 8.63325V9.68304C10.9822 9.85029 9.66667 11.2715 9.66667 12.9999H9.33333C8.78105 12.9999 8.33333 13.4476 8.33333 13.9999V14.5114C8.41636 14.5643 8.50536 14.6124 8.5993 14.6562C8.93332 14.8121 9.3136 14.9039 9.66667 14.9528V14.3333H16.3333V15.6666H9.66667C9.33333 15.6666 8.48845 15.3391 8.33333 15.2677V15.6666H7.66667C7.29848 15.6666 7 15.9651 7 16.3333C7 16.7014 7.29848 16.9999 7.66667 16.9999H18.3333C18.7015 16.9999 19 16.7014 19 16.3333C19 15.9651 18.7015 15.6666 18.3333 15.6666H17.6667V13.9999C17.6667 13.4476 17.219 12.9999 16.6667 12.9999H16.3333C16.3333 11.2715 15.0178 9.85029 13.3333 9.68304V8.6332C13.6954 8.55964 14.0149 8.36869 14.2499 8.10244C14.3717 7.96441 14.3586 7.75377 14.2206 7.63195C14.0826 7.51013 13.8719 7.52326 13.7501 7.66128C13.5664 7.86944 13.2986 7.99992 13 7.99992C12.4477 7.99992 12 7.5522 12 6.99992ZM13 10.9999C11.8954 10.9999 11 11.8953 11 12.9999H15C15 11.8953 14.1046 10.9999 13 10.9999Z" fill="white"/>
<defs>
<filter id="filter0_d_2106_50489" x="0" y="0" width="26" height="29.1035" filterUnits="userSpaceOnUse" color-interpolation-filters="sRGB">
<feFlood flood-opacity="0" result="BackgroundImageFix"/>
<feColorMatrix in="SourceAlpha" type="matrix" values="0 0 0 0 0 0 0 0 0 0 0 0 0 0 0 0 0 0 127 0" result="hardAlpha"/>
<feOffset dy="1"/>
<feGaussianBlur stdDeviation="0.5"/>
<feComposite in2="hardAlpha" operator="out"/>
<feColorMatrix type="matrix" values="0 0 0 0 0 0 0 0 0 0 0 0 0 0 0 0 0 0 0.25 0"/>
<feBlend mode="normal" in2="BackgroundImageFix" result="effect1_dropShadow_2106_50489"/>
<feBlend mode="normal" in="SourceGraphic" in2="effect1_dropShadow_2106_50489" result="shape"/>
</filter>
</defs>
</svg>
