<svg width="36" height="41" viewBox="0 0 36 41" fill="none" xmlns="http://www.w3.org/2000/svg">
<g filter="url(#filter0_d_2182_80426)">
<path d="M35 17C35 25.7458 28.5523 31.1052 19.9344 38.0962C18.8131 39.0058 17.2001 38.99 16.0919 38.0644C7.74044 31.089 1 25.7325 1 17C1 7.61116 8.61116 0 18 0C27.3888 0 35 7.61116 35 17Z" fill="#008E53"/>
</g>
<circle cx="17.9997" cy="16.9999" r="14.1667" fill="#008E53"/>
<path fill-rule="evenodd" clip-rule="evenodd" d="M16.5833 9.91677C16.5833 9.13437 17.2176 8.50011 18 8.50011C18.2608 8.50011 18.4722 8.28869 18.4722 8.02789C18.4722 7.76709 18.2608 7.55566 18 7.55566C16.696 7.55566 15.6389 8.61277 15.6389 9.91677C15.6389 11.0591 16.4501 12.0119 17.5278 12.2307V13.7179C15.1415 13.9548 13.2778 15.9681 13.2778 18.4168H12.8056C12.0232 18.4168 11.3889 19.051 11.3889 19.8334V20.558C11.5065 20.6329 11.6326 20.7011 11.7657 20.7632C12.2389 20.984 12.7776 21.114 13.2778 21.1834V20.3057H22.7222V22.1946H13.2778C12.8056 22.1946 11.6086 21.7306 11.3889 21.6295V22.1946H10.4444C9.92284 22.1946 9.5 22.6174 9.5 23.139C9.5 23.6606 9.92284 24.0834 10.4444 24.0834H25.5556C26.0772 24.0834 26.5 23.6606 26.5 23.139C26.5 22.6174 26.0772 22.1946 25.5556 22.1946H24.6111V19.8334C24.6111 19.051 23.9768 18.4168 23.1944 18.4168H22.7222C22.7222 15.9681 20.8585 13.9548 18.4722 13.7179V12.2306C18.9852 12.1264 19.4378 11.8559 19.7707 11.4787C19.9433 11.2831 19.9247 10.9847 19.7292 10.8121C19.5336 10.6396 19.2352 10.6582 19.0626 10.8537C18.8023 11.1486 18.4231 11.3334 18 11.3334C17.2176 11.3334 16.5833 10.6992 16.5833 9.91677ZM18 15.5834C16.4352 15.5834 15.1667 16.852 15.1667 18.4168H20.8333C20.8333 16.852 19.5648 15.5834 18 15.5834Z" fill="white"/>
<defs>
<filter id="filter0_d_2182_80426" x="0" y="0" width="36" height="40.7686" filterUnits="userSpaceOnUse" color-interpolation-filters="sRGB">
<feFlood flood-opacity="0" result="BackgroundImageFix"/>
<feColorMatrix in="SourceAlpha" type="matrix" values="0 0 0 0 0 0 0 0 0 0 0 0 0 0 0 0 0 0 127 0" result="hardAlpha"/>
<feOffset dy="1"/>
<feGaussianBlur stdDeviation="0.5"/>
<feComposite in2="hardAlpha" operator="out"/>
<feColorMatrix type="matrix" values="0 0 0 0 0 0 0 0 0 0 0 0 0 0 0 0 0 0 0.25 0"/>
<feBlend mode="normal" in2="BackgroundImageFix" result="effect1_dropShadow_2182_80426"/>
<feBlend mode="normal" in="SourceGraphic" in2="effect1_dropShadow_2182_80426" result="shape"/>
</filter>
</defs>
</svg>
