<svg width="24" height="24" viewBox="0 0 24 24" fill="none" xmlns="http://www.w3.org/2000/svg">
<rect width="24" height="24" rx="12" fill="white" fill-opacity="0.5"/>
<g clip-path="url(#clip0_3173_480974)">
<path d="M11.999 18.7852C15.7609 18.7852 18.8105 15.7355 18.8105 11.9736C18.8105 8.21173 15.7609 5.16211 11.999 5.16211C8.23712 5.16211 5.1875 8.21173 5.1875 11.9736C5.1875 15.7355 8.23712 18.7852 11.999 18.7852Z" fill="url(#paint0_linear_3173_480974)"/>
<path d="M19.9996 11.0994C19.6864 10.7323 19.5865 10.2293 19.7353 9.77067C19.9459 9.12223 19.6539 8.4165 19.0458 8.10628C18.6161 7.88688 18.331 7.46045 18.2932 6.97965C18.2398 6.29964 17.6995 5.75928 17.0194 5.70589C16.5387 5.66813 16.1116 5.38298 15.8928 4.95329C15.5833 4.34587 14.8775 4.05322 14.2284 4.26383C13.7698 4.41292 13.2662 4.31266 12.8997 3.99951C12.3811 3.55648 11.6171 3.55648 11.0982 3.99951C10.731 4.31266 10.2281 4.4126 9.76945 4.26383C9.12101 4.05322 8.41528 4.34521 8.10506 4.95329C7.88566 5.38298 7.45923 5.66813 6.97843 5.70589C6.29842 5.75928 5.75806 6.29964 5.70467 6.97965C5.66691 7.46045 5.38175 7.88753 4.95207 8.10628C4.34465 8.41618 4.052 9.12191 4.26261 9.77067C4.4117 10.2293 4.31144 10.7329 3.99829 11.0994C3.55526 11.618 3.55526 12.382 3.99829 12.9009C4.31144 13.2681 4.41138 13.771 4.26261 14.2297C4.052 14.8781 4.34399 15.5838 4.95207 15.894C5.38175 16.1134 5.66691 16.5399 5.70467 17.0207C5.75806 17.7007 6.29842 18.241 6.97843 18.2944C7.45923 18.3322 7.88631 18.6173 8.10506 19.047C8.41496 19.6545 9.12069 19.9471 9.76945 19.7365C10.2281 19.5874 10.7317 19.6877 11.0982 20.0008C11.6168 20.4438 12.3808 20.4438 12.8997 20.0008C13.2668 19.6877 13.7698 19.5877 14.2284 19.7365C14.8769 19.9471 15.5826 19.6551 15.8928 19.047C16.1122 18.6173 16.5387 18.3322 17.0194 18.2944C17.6995 18.241 18.2398 17.7007 18.2932 17.0207C18.331 16.5399 18.6161 16.1128 19.0458 15.894C19.6532 15.5841 19.9459 14.8784 19.7353 14.2297C19.5862 13.771 19.6864 13.2674 19.9996 12.9009C20.4426 12.3823 20.4426 11.6183 19.9996 11.0994ZM11.9983 18.8169C8.23364 18.8169 5.18188 15.7651 5.18188 12.0005C5.18188 8.23584 8.23364 5.18343 11.9983 5.18343C15.7629 5.18343 18.8147 8.23519 18.8147 11.9998C18.8147 15.7645 15.7629 18.8162 11.9983 18.8162V18.8169Z" fill="#E10D16"/>
<path d="M8.66406 16.149L11.1641 12.8157L11.9974 13.2323L10.3307 17.399L9.91406 16.149H8.66406Z" fill="url(#paint1_linear_3173_480974)"/>
<path d="M8.66406 16.149L11.1641 12.8157L11.9974 13.2323L10.3307 17.399L9.91406 16.149H8.66406Z" fill="url(#paint2_linear_3173_480974)"/>
<path d="M15.3301 16.149L12.8301 12.8157L11.9967 13.2323L13.6634 17.399L14.0801 16.149H15.3301Z" fill="url(#paint3_linear_3173_480974)"/>
<path d="M15.3301 16.149L12.8301 12.8157L11.9967 13.2323L13.6634 17.399L14.0801 16.149H15.3301Z" fill="url(#paint4_linear_3173_480974)"/>
<path d="M12.4104 15.2714C12.3281 15.2128 12.2718 15.1783 12.221 15.1363C11.3785 14.4394 10.5328 13.746 9.69526 13.0432C8.87723 12.357 8.76297 11.1832 9.43778 10.3352C10.0563 9.55721 10.6871 8.78898 11.3222 8.02433C11.5494 7.75122 11.6943 7.46834 11.5999 7.10506C11.5944 7.08325 11.6044 7.05754 11.6119 6.99927C11.677 7.04028 11.7285 7.06567 11.7721 7.10116C12.611 7.7828 13.4534 8.46053 14.2861 9.14966C15.1669 9.8785 15.2838 11.0673 14.5657 11.9566C13.9453 12.7255 13.3209 13.4911 12.6894 14.2502C12.4664 14.5188 12.3291 14.7984 12.4208 15.1539C12.4264 15.176 12.4173 15.2014 12.4101 15.2714H12.4098H12.4104ZM10.6243 10.3502C10.9231 10.3502 11.1959 10.3577 11.4677 10.3476C11.6178 10.342 11.6601 10.3984 11.6562 10.5416C11.6451 10.9325 11.6455 11.3241 11.6432 11.7154C11.6412 12.0572 11.6376 12.3987 11.6445 12.7405C11.6487 12.9293 11.7151 13.0966 11.9007 13.1832C12.0979 13.275 12.2913 13.2541 12.4466 13.1777C12.4189 12.9443 12.3776 12.7434 12.3753 12.5419C12.3655 11.8153 12.371 11.0885 12.3665 10.3616C12.3639 9.95337 12.1025 9.65356 11.7229 9.6311C11.4876 9.61678 11.2509 9.62101 11.0149 9.6298C10.7766 9.63859 10.6311 9.79875 10.6246 10.0403C10.622 10.1324 10.6246 10.2249 10.6246 10.3512H10.6243V10.3502ZM12.1559 9.63761C12.2545 9.77075 12.3909 9.87492 12.4108 9.99731C12.4687 10.3534 12.694 10.3788 12.9746 10.3505C13.0602 10.3417 13.1507 10.3612 13.2333 10.3427C13.2903 10.3303 13.3798 10.2792 13.3831 10.2395C13.3984 10.04 13.3899 9.83911 13.3899 9.63696H12.1559V9.63761Z" fill="url(#paint5_linear_3173_480974)"/>
<path d="M12.4104 15.2714C12.3281 15.2128 12.2718 15.1783 12.221 15.1363C11.3785 14.4394 10.5328 13.746 9.69526 13.0432C8.87723 12.357 8.76297 11.1832 9.43778 10.3352C10.0563 9.55721 10.6871 8.78898 11.3222 8.02433C11.5494 7.75122 11.6943 7.46834 11.5999 7.10506C11.5944 7.08325 11.6044 7.05754 11.6119 6.99927C11.677 7.04028 11.7285 7.06567 11.7721 7.10116C12.611 7.7828 13.4534 8.46053 14.2861 9.14966C15.1669 9.8785 15.2838 11.0673 14.5657 11.9566C13.9453 12.7255 13.3209 13.4911 12.6894 14.2502C12.4664 14.5188 12.3291 14.7984 12.4208 15.1539C12.4264 15.176 12.4173 15.2014 12.4101 15.2714H12.4098H12.4104ZM10.6243 10.3502C10.9231 10.3502 11.1959 10.3577 11.4677 10.3476C11.6178 10.342 11.6601 10.3984 11.6562 10.5416C11.6451 10.9325 11.6455 11.3241 11.6432 11.7154C11.6412 12.0572 11.6376 12.3987 11.6445 12.7405C11.6487 12.9293 11.7151 13.0966 11.9007 13.1832C12.0979 13.275 12.2913 13.2541 12.4466 13.1777C12.4189 12.9443 12.3776 12.7434 12.3753 12.5419C12.3655 11.8153 12.371 11.0885 12.3665 10.3616C12.3639 9.95337 12.1025 9.65356 11.7229 9.6311C11.4876 9.61678 11.2509 9.62101 11.0149 9.6298C10.7766 9.63859 10.6311 9.79875 10.6246 10.0403C10.622 10.1324 10.6246 10.2249 10.6246 10.3512H10.6243V10.3502ZM12.1559 9.63761C12.2545 9.77075 12.3909 9.87492 12.4108 9.99731C12.4687 10.3534 12.694 10.3788 12.9746 10.3505C13.0602 10.3417 13.1507 10.3612 13.2333 10.3427C13.2903 10.3303 13.3798 10.2792 13.3831 10.2395C13.3984 10.04 13.3899 9.83911 13.3899 9.63696H12.1559V9.63761Z" fill="url(#paint6_linear_3173_480974)"/>
<path d="M10.6241 10.3503C10.6241 10.2246 10.6218 10.1318 10.6241 10.0394C10.6309 9.79817 10.7764 9.63769 11.0144 9.6289C11.2504 9.62011 11.487 9.61588 11.7224 9.6302C12.1019 9.65331 12.363 9.95312 12.3659 10.3607C12.3711 11.0876 12.3649 11.8141 12.3747 12.541C12.3773 12.7422 12.419 12.9437 12.446 13.1768C12.2907 13.2532 12.0974 13.2741 11.9001 13.1823C11.7146 13.096 11.6481 12.929 11.6439 12.7396C11.6364 12.3981 11.6407 12.0563 11.6426 11.7145C11.6446 11.3236 11.6446 10.932 11.6556 10.5407C11.6599 10.3975 11.6169 10.3411 11.4672 10.3467C11.1953 10.3568 10.9226 10.3493 10.6237 10.3493H10.6241V10.3503Z" fill="white"/>
<path d="M12.1562 9.6377H13.3903C13.3903 9.83952 13.3984 10.0407 13.3835 10.2402C13.3802 10.2799 13.291 10.3311 13.2337 10.3434C13.1507 10.3613 13.0605 10.3424 12.9749 10.3512C12.695 10.3792 12.4691 10.3538 12.4111 9.99805C12.3913 9.875 12.2549 9.77148 12.1562 9.63835V9.6377Z" fill="white"/>
</g>
<defs>
<linearGradient id="paint0_linear_3173_480974" x1="12.0859" y1="5.42643" x2="11.9102" y2="18.6738" gradientUnits="userSpaceOnUse">
<stop stop-color="white"/>
<stop offset="1" stop-color="#CED0D1"/>
</linearGradient>
<linearGradient id="paint1_linear_3173_480974" x1="9.4974" y1="16.9823" x2="11.1641" y2="14.0657" gradientUnits="userSpaceOnUse">
<stop stop-color="#98D31A"/>
<stop offset="0.15" stop-color="#0FAF34"/>
<stop offset="0.365" stop-color="#09A32D"/>
<stop offset="0.764858" stop-color="#008E53"/>
<stop offset="0.99" stop-color="#007444"/>
</linearGradient>
<linearGradient id="paint2_linear_3173_480974" x1="9.49805" y1="16.4993" x2="10.998" y2="14.4993" gradientUnits="userSpaceOnUse">
<stop stop-color="#F77C55"/>
<stop offset="0.15" stop-color="#F45A49"/>
<stop offset="0.43" stop-color="#EF2136"/>
<stop offset="0.56" stop-color="#ED0B2E"/>
<stop offset="0.97" stop-color="#C0001C"/>
</linearGradient>
<linearGradient id="paint3_linear_3173_480974" x1="14.9134" y1="16.9823" x2="12.8301" y2="14.0657" gradientUnits="userSpaceOnUse">
<stop stop-color="#98D31A"/>
<stop offset="0.15" stop-color="#0FAF34"/>
<stop offset="0.365" stop-color="#09A32D"/>
<stop offset="0.85" stop-color="#008E53"/>
<stop offset="0.99" stop-color="#007444"/>
</linearGradient>
<linearGradient id="paint4_linear_3173_480974" x1="14.4961" y1="16.4993" x2="12.9961" y2="14.4993" gradientUnits="userSpaceOnUse">
<stop stop-color="#F77C55"/>
<stop offset="0.15" stop-color="#F45A49"/>
<stop offset="0.43" stop-color="#EF2136"/>
<stop offset="0.56" stop-color="#ED0B2E"/>
<stop offset="0.97" stop-color="#C0001C"/>
</linearGradient>
<linearGradient id="paint5_linear_3173_480974" x1="8.998" y1="11.135" x2="15.0351" y2="11.135" gradientUnits="userSpaceOnUse">
<stop stop-color="#98D31A"/>
<stop offset="0.15" stop-color="#0FAF34"/>
<stop offset="0.43" stop-color="#09A32D"/>
<stop offset="0.695544" stop-color="#008E21"/>
<stop offset="0.97" stop-color="#008E53"/>
</linearGradient>
<linearGradient id="paint6_linear_3173_480974" x1="8.998" y1="11.135" x2="15.0351" y2="11.135" gradientUnits="userSpaceOnUse">
<stop stop-color="#F77C55"/>
<stop offset="0.15" stop-color="#F45A49"/>
<stop offset="0.43" stop-color="#EF2136"/>
<stop offset="0.56" stop-color="#ED0B2E"/>
<stop offset="0.97" stop-color="#C0001C"/>
</linearGradient>
<clipPath id="clip0_3173_480974">
<rect width="16.6667" height="16.6667" fill="white" transform="translate(3.66602 3.66675)"/>
</clipPath>
</defs>
</svg>
