<svg width="101" height="100" viewBox="0 0 101 100" fill="none" xmlns="http://www.w3.org/2000/svg">
<circle cx="50" cy="50.5" r="40.5" fill="#E0E0E0"/>
<path d="M11.4979 26.6159C11.1584 24.7809 13.2946 23.5219 14.7355 24.7078L33.1622 39.8738C34.0507 40.605 35.3715 40.4376 36.0493 39.5077L49.3837 21.2164C50.1825 20.1206 51.8172 20.1206 52.616 21.2164L65.9504 39.5077C66.6283 40.4376 67.949 40.605 68.8375 39.8738L87.2642 24.7078C88.7051 23.5219 90.8413 24.7809 90.5018 26.6159L83.7026 63.3633C83.5272 64.3114 82.7002 64.9994 81.736 64.9994H20.2638C19.2995 64.9994 18.4726 64.3114 18.2971 63.3633L11.4979 26.6159Z" fill="white"/>
<path d="M11.4979 26.6159C11.1584 24.7809 13.2946 23.5219 14.7355 24.7078L33.1622 39.8738C34.0507 40.605 35.3715 40.4376 36.0493 39.5077L49.3837 21.2164C50.1825 20.1206 51.8172 20.1206 52.616 21.2164L65.9504 39.5077C66.6283 40.4376 67.949 40.605 68.8375 39.8738L87.2642 24.7078C88.7051 23.5219 90.8413 24.7809 90.5018 26.6159L83.7026 63.3633C83.5272 64.3114 82.7002 64.9994 81.736 64.9994H20.2638C19.2995 64.9994 18.4726 64.3114 18.2971 63.3633L11.4979 26.6159Z" fill="url(#paint0_linear_2742_98607)"/>
<path d="M18.5 71H83.5V81H18.5V71Z" fill="white"/>
<path d="M18.5 71H83.5V81H18.5V71Z" fill="url(#paint1_linear_2742_98607)"/>
<path d="M26.2302 34.168L29.1591 36.5785L26.5 44.999L30.5 50.499L25 60.499L28 51.999L23.5 45.999L26.2302 34.168Z" fill="#9F5D12"/>
<path d="M62.6033 34.918L64.6101 37.6708L61 48.5011L56 51.5011L58.5 62.0011L53.5 51.5011L59.5 46.0011L62.6033 34.918Z" fill="#9F5D12"/>
<defs>
<linearGradient id="paint0_linear_2742_98607" x1="87.9019" y1="22.6473" x2="25.8678" y2="81.7892" gradientUnits="userSpaceOnUse">
<stop stop-color="#FDA22B"/>
<stop offset="1" stop-color="#FFD700"/>
</linearGradient>
<linearGradient id="paint1_linear_2742_98607" x1="81.3333" y1="71.505" x2="73.9697" y2="97.2451" gradientUnits="userSpaceOnUse">
<stop stop-color="#FDA22B"/>
<stop offset="1" stop-color="#FFD700"/>
</linearGradient>
</defs>
</svg>
