<svg width="128" height="128" viewBox="0 0 128 128" fill="none" xmlns="http://www.w3.org/2000/svg">
<path d="M100.88 81.25C100.88 81.25 70.6103 78.65 77.9403 37.31C79.5403 28.31 85.1303 23.62 78.5103 19.63C71.8903 15.64 63.9003 31.72 62.6503 33.89C61.4003 36.06 54.2003 49.75 54.2003 49.75C54.2003 49.75 47.5503 43.75 39.9403 42.75C18.0003 39.94 32.4703 56.46 32.4703 56.46C32.4703 56.46 19.6203 56.02 21.4703 65.9C22.5303 71.67 31.4703 75.19 31.4703 75.19C31.4703 75.19 21.4703 72.52 19.9403 79.77C19.9403 79.77 19.7203 86.16 28.6203 89.01C28.6203 89.01 20.1703 86.73 19.9403 94.43C19.7103 102.13 33.7503 102.88 33.7503 102.88C33.7503 102.88 39.9703 108.75 64.5903 108.88C89.2103 109.01 93.3203 117.32 93.3203 117.32L100.88 81.25Z" fill="#F9B08E"/>
<path d="M46.8362 58.2603L50.6062 52.4903C50.6778 52.299 50.7969 52.1291 50.9524 51.9967C51.1079 51.8643 51.2947 51.7738 51.4949 51.7338C51.6952 51.6937 51.9024 51.7054 52.0968 51.7678C52.2913 51.8302 52.4666 51.9412 52.6062 52.0903C54.0362 53.2303 58.2562 56.4303 55.6062 60.0203C52.9562 63.6103 47.9562 60.9403 47.9562 60.9403C47.9562 60.9403 45.9262 59.6503 46.8362 58.2603Z" fill="#FDD3C0"/>
<path d="M43.4195 66.5303C43.4195 66.5303 41.1295 72.8603 41.0795 73.8303C41.0499 74.0933 41.0919 74.3594 41.2011 74.6005C41.3102 74.8417 41.4824 75.0489 41.6995 75.2003C41.6995 75.2003 48.1495 77.2603 50.5495 73.5503C52.9495 69.8403 47.1795 66.5503 47.1795 66.5503C47.1795 66.5503 44.8995 64.1303 43.4195 66.5303Z" fill="#FDD3C0"/>
<path d="M40.6496 82.3401L39.3396 88.0001C39.3396 88.0001 39.1096 89.4302 39.9896 89.6602C40.8696 89.8902 45.7096 91.1001 47.4296 89.2801C49.1496 87.4601 49.0396 86.0201 47.0996 84.8201C45.1596 83.6201 42.0996 81.9001 42.0996 81.9001C41.8403 81.8548 41.574 81.871 41.3222 81.9474C41.0703 82.0238 40.8399 82.1583 40.6496 82.3401Z" fill="#FDD3C0"/>
<path d="M37.0822 93.9999L36.7422 100.11C36.7554 100.273 36.8021 100.432 36.8794 100.576C36.9567 100.721 37.063 100.847 37.1916 100.949C37.3202 101.05 37.4683 101.124 37.6267 101.165C37.7851 101.207 37.9504 101.215 38.1122 101.19C39.3722 101.08 44.5022 101.25 43.9322 96.9099C43.3622 92.5699 37.9322 93.5499 37.9322 93.5499C37.9322 93.5499 37.6522 93.3499 37.0822 93.9999Z" fill="#FDD3C0"/>
<path d="M73.8307 29.14C73.8307 29.14 71.1707 35.22 73.8307 35.83C76.4907 36.44 76.8307 35.83 77.2507 35.15C77.6707 34.47 79.5307 28.33 80.0907 27.15C81.4207 24.4 80.8307 19.53 77.2507 23.26C77.2507 23.28 74.2907 27.92 73.8307 29.14Z" fill="#FDD3C0"/>
<path d="M42.5572 43.48C42.5572 43.48 63.8972 51.69 59.6772 60.71C55.4572 69.73 37.4472 58.83 31.1472 55.8C31.1472 55.8 54.1972 66 53.9972 72.12C53.7972 78.24 41.7572 80.34 29.0872 74.4C29.0872 74.4 52.7172 81.59 51.9172 88.78C51.1172 95.97 36.8472 89.92 26.2372 88C26.2372 88 56.8272 91.88 44.9572 101.81C41.8772 103.41 30.8072 103.75 24.8672 100.81" stroke="#D57D53" stroke-linecap="round" stroke-linejoin="round"/>
<path d="M58.1985 68.3604C58.1985 68.3604 54.1985 92.7804 76.1985 95.8604" stroke="#D57D53" stroke-linecap="round" stroke-linejoin="round"/>
<path d="M33.7656 53.1801C33.7656 53.1801 34.8756 48.5401 38.3356 46.3301" stroke="#D57D53" stroke-linecap="round" stroke-linejoin="round"/>
<path d="M31.2188 50.9C31.3863 49.528 31.9258 48.228 32.7789 47.1405C33.6319 46.053 34.7661 45.2194 36.0588 44.73" stroke="#D57D53" stroke-linecap="round" stroke-linejoin="round"/>
<path d="M24.8703 68.6999C24.7159 67.249 24.9206 65.7824 25.4664 64.4292C26.0123 63.076 26.8824 61.8777 28.0003 60.9399" stroke="#D57D53" stroke-linecap="round" stroke-linejoin="round"/>
<path d="M27.9993 70.4102C27.9993 70.4102 26.9993 67.3302 30.8593 61.4102" stroke="#D57D53" stroke-linecap="round" stroke-linejoin="round"/>
<path d="M23.8359 83.4204C23.905 81.3091 24.4959 79.2477 25.5559 77.4204" stroke="#D57D53" stroke-linecap="round" stroke-linejoin="round"/>
<path d="M26.4062 84.0003C26.4062 84.0003 26.9963 79.6503 27.9963 78.5103" stroke="#D57D53" stroke-linecap="round" stroke-linejoin="round"/>
<path d="M23.8357 97.8003C23.8357 97.8003 21.4457 94.1503 23.8357 91.0703" stroke="#D57D53" stroke-linecap="round" stroke-linejoin="round"/>
<path d="M27.1788 98.6001C27.1788 98.6001 25.3288 95.2901 26.4088 92.6001" stroke="#D57D53" stroke-linecap="round" stroke-linejoin="round"/>
<path d="M70.0625 46.3301C72.2622 46.082 74.4828 46.082 76.6825 46.3301" stroke="#D57D53" stroke-linecap="round" stroke-linejoin="round"/>
<path d="M69.1484 42.79C69.1484 42.79 75.5384 42.22 77.2484 42.79" stroke="#D57D53" stroke-linecap="round" stroke-linejoin="round"/>
<path d="M100.461 78.8203C100.461 78.8203 100.081 74.3203 106.461 75.8203C110.138 76.6248 113.77 77.6262 117.341 78.8203C117.341 78.8203 122.441 79.1203 120.761 88.8203C119.081 98.5203 113.381 118.49 107.681 125.11C107.681 125.11 105.321 129.67 99.4607 125.11C99.4607 125.11 94.0607 122.68 90.2507 121.46C86.4407 120.24 85.8407 117.05 90.2507 112.71C94.6607 108.37 101.371 81.9403 100.461 78.8203Z" fill="url(#paint0_linear_12836_53910)"/>
<path d="M113.766 81.25C113.766 81.25 120.156 83 116.996 94.43" stroke="white" stroke-linecap="round" stroke-linejoin="round"/>
<path d="M112.259 80.6586C112.409 79.979 111.633 79.2309 110.528 78.9878C109.422 78.7447 108.404 79.0985 108.255 79.7782C108.106 80.4578 108.881 81.2059 109.987 81.449C111.092 81.6921 112.11 81.3382 112.259 80.6586Z" fill="white"/>
<path d="M98.1592 37.2301C98.2192 37.2801 98.2792 37.3501 98.3692 37.3001C98.4592 37.2501 98.4292 37.1501 98.3692 37.0701C98.264 36.7285 98.2474 36.3657 98.3209 36.0159C98.3944 35.666 98.5555 35.3406 98.7892 35.0701C100.443 33.0701 102.109 31.0435 103.789 28.9901C104.26 28.4474 104.607 27.808 104.804 27.1168C105.001 26.4256 105.043 25.6997 104.929 24.9901C104.777 23.827 104.204 22.7598 103.319 21.9901C102.859 21.5901 102.379 21.2201 101.909 20.8301L99.6492 19.0101L96.5792 16.5001C96.5192 16.4501 96.4492 16.3801 96.3592 16.4401C96.2692 16.5001 96.3092 16.5801 96.3592 16.6601C96.4624 17.002 96.4781 17.3643 96.4047 17.7138C96.3313 18.0633 96.1712 18.3887 95.9392 18.6601C95.7592 18.8901 95.5692 19.1101 95.3892 19.3301C94.0559 20.9101 92.7658 22.4935 91.5192 24.0801C91.089 24.5471 90.707 25.0564 90.3792 25.6001C90.0194 26.2473 89.8173 26.9702 89.7892 27.7101C89.7474 28.0421 89.7474 28.3781 89.7892 28.7101C89.9587 29.8812 90.5531 30.949 91.4592 31.7101C92.3092 32.4301 93.1692 33.1301 94.0292 33.8301C94.6292 34.3001 95.2192 34.8301 95.8092 35.2601L98.1592 37.2301Z" fill="#FAA22E"/>
<path d="M89.4218 18.5902C89.4818 18.6402 89.5318 18.6902 89.6018 18.6502C89.6718 18.6102 89.6618 18.5202 89.6018 18.4502C89.5213 18.1607 89.5157 17.8556 89.5857 17.5634C89.6557 17.2713 89.7989 17.0017 90.0018 16.7802L94.2518 11.5602C94.6624 11.0964 94.9651 10.5473 95.138 9.95243C95.3109 9.3576 95.3498 8.73183 95.2518 8.12017C95.1146 7.13536 94.6155 6.23697 93.8518 5.60017C93.4618 5.25017 93.0518 4.93017 92.6418 4.60017L90.7118 3.00017L88.0818 0.890172C88.0218 0.890172 87.9718 0.790172 87.8918 0.840172C87.8118 0.890172 87.8918 0.960172 87.8918 1.03017C87.9725 1.31908 87.981 1.6234 87.9165 1.91636C87.852 2.20931 87.7164 2.48192 87.5218 2.71017C87.3718 2.91017 87.2018 3.10017 87.0518 3.29017L83.7118 7.36017C83.3363 7.75939 83.0013 8.19485 82.7118 8.66017C82.4028 9.21542 82.2282 9.8353 82.2018 10.4702C82.1619 10.7621 82.1619 11.0582 82.2018 11.3502C82.3517 12.3545 82.8596 13.2708 83.6318 13.9302C84.3618 14.5402 85.0918 15.1402 85.8318 15.7302L87.4218 17.0002L89.4218 18.5902Z" fill="#FAA22E"/>
<path d="M14.0989 115.57C14.1489 115.57 14.2089 115.67 14.2789 115.62C14.3489 115.57 14.3289 115.5 14.2789 115.43C14.1968 115.142 14.1867 114.838 14.2495 114.545C14.3122 114.252 14.4459 113.979 14.6389 113.75L18.8989 108.54C19.3071 108.075 19.6082 107.526 19.781 106.931C19.9538 106.337 19.994 105.712 19.8989 105.1C19.7605 104.12 19.2699 103.224 18.5189 102.58C18.1289 102.23 17.7089 101.91 17.3089 101.58L15.3789 100L12.7589 97.8501C12.6989 97.8501 12.6489 97.7501 12.5689 97.8001C12.4889 97.8501 12.5689 97.9201 12.5689 97.9901C12.651 98.2782 12.6611 98.5821 12.5983 98.875C12.5355 99.1679 12.4018 99.441 12.2089 99.6701L11.7289 100.25L8.41887 104.31C8.04331 104.713 7.70835 105.152 7.41887 105.62C7.11107 106.172 6.93643 106.789 6.90887 107.42C6.86371 107.715 6.86371 108.015 6.90887 108.31C7.05222 109.314 7.56152 110.229 8.33887 110.88C9.05887 111.5 9.79887 112.1 10.5389 112.69L12.0589 113.92L14.0989 115.57Z" fill="#FAA22E"/>
<defs>
<linearGradient id="paint0_linear_12836_53910" x1="92.0007" y1="122.69" x2="117.461" y2="78.5903" gradientUnits="userSpaceOnUse">
<stop stop-color="#FAA22E"/>
<stop offset="0.02" stop-color="#F9982E"/>
<stop offset="0.09" stop-color="#F5732E"/>
<stop offset="0.17" stop-color="#F2552E"/>
<stop offset="0.25" stop-color="#F03D2E"/>
<stop offset="0.34" stop-color="#EE2C2E"/>
<stop offset="0.43" stop-color="#ED222E"/>
<stop offset="0.55" stop-color="#ED1F2E"/>
<stop offset="0.81" stop-color="#B92028"/>
</linearGradient>
</defs>
</svg>
