<svg width="79" height="88" viewBox="0 0 79 88" fill="none" xmlns="http://www.w3.org/2000/svg">
<g id="Layer 4">
<path id="Vector" d="M64.8552 55.8598C64.8552 55.8598 44.0446 54.0723 49.084 25.651C50.1839 19.4635 54.0271 16.2391 49.4758 13.496C44.9246 10.7529 39.4314 21.8079 38.5721 23.2998C37.7127 24.7916 32.7627 34.2035 32.7627 34.2035C32.7627 34.2035 28.1908 30.0785 22.959 29.391C7.8752 27.4591 17.8233 38.8166 17.8233 38.8166C17.8233 38.8166 8.98895 38.5141 10.2608 45.3066C10.9896 49.2735 17.1358 51.6935 17.1358 51.6935C17.1358 51.6935 10.2608 49.8579 9.20895 54.8423C9.20895 54.8423 9.0577 59.2354 15.1765 61.1948C15.1765 61.1948 9.36708 59.6273 9.20895 64.921C9.05083 70.2148 18.7033 70.7304 18.7033 70.7304C18.7033 70.7304 22.9796 74.766 39.9058 74.8554C56.8321 74.9448 59.6577 80.6579 59.6577 80.6579L64.8552 55.8598Z" fill="#F9B08E"/>
<path id="Vector_2" d="M27.7004 40.0538L30.2923 36.0869C30.3414 35.9554 30.4234 35.8386 30.5303 35.7476C30.6372 35.6566 30.7656 35.5943 30.9033 35.5668C31.0409 35.5393 31.1834 35.5473 31.3171 35.5902C31.4508 35.6331 31.5713 35.7094 31.6673 35.8119C32.6504 36.5957 35.5517 38.7957 33.7298 41.2638C31.9079 43.7319 28.4704 41.8963 28.4704 41.8963C28.4704 41.8963 27.0748 41.0094 27.7004 40.0538Z" fill="#FDD3C0"/>
<path id="Vector_3" d="M25.3494 45.7396C25.3494 45.7396 23.7751 50.0914 23.7407 50.7583C23.7204 50.9391 23.7492 51.1221 23.8243 51.2879C23.8993 51.4536 24.0177 51.5961 24.1669 51.7002C24.1669 51.7002 28.6013 53.1164 30.2513 50.5658C31.9013 48.0152 27.9344 45.7533 27.9344 45.7533C27.9344 45.7533 26.3669 44.0896 25.3494 45.7396Z" fill="#FDD3C0"/>
<path id="Vector_4" d="M23.4466 56.6088L22.546 60.5001C22.546 60.5001 22.3879 61.4832 22.9929 61.6414C23.5979 61.7995 26.9254 62.6314 28.1079 61.3801C29.2904 60.1289 29.2147 59.1389 27.881 58.3139C26.5472 57.4889 24.4435 56.3064 24.4435 56.3064C24.2652 56.2752 24.0822 56.2863 23.909 56.3388C23.7358 56.3914 23.5775 56.4839 23.4466 56.6088Z" fill="#FDD3C0"/>
<path id="Vector_5" d="M20.9916 64.6256L20.7578 68.8262C20.7669 68.9384 20.799 69.0475 20.8521 69.1468C20.9053 69.246 20.9784 69.3332 21.0668 69.4029C21.1552 69.4726 21.257 69.5233 21.3659 69.5518C21.4748 69.5803 21.5885 69.5861 21.6997 69.5687C22.5659 69.4931 26.0928 69.6099 25.7009 66.6262C25.3091 63.6424 21.5759 64.3162 21.5759 64.3162C21.5759 64.3162 21.3834 64.1787 20.9916 64.6256Z" fill="#FDD3C0"/>
<path id="Vector_6" d="M46.2581 20.0338C46.2581 20.0338 44.4293 24.2138 46.2581 24.6331C48.0868 25.0525 48.3206 24.6331 48.6093 24.1656C48.8981 23.6981 50.1768 19.4769 50.5618 18.6656C51.4762 16.775 51.0706 13.4269 48.6093 15.9913C48.6093 16.005 46.5743 19.195 46.2581 20.0338Z" fill="#FDD3C0"/>
<path id="Vector_7" d="M24.7595 29.8926C24.7595 29.8926 39.4308 35.537 36.5295 41.7382C33.6283 47.9395 21.2464 40.4457 16.9152 38.3626C16.9152 38.3626 32.762 45.3751 32.6245 49.5826C32.487 53.7901 24.2095 55.2338 15.4989 51.1501C15.4989 51.1501 31.7445 56.0932 31.1945 61.0363C30.6445 65.9795 20.8339 61.8201 13.5395 60.5001C13.5395 60.5001 34.5702 63.1676 26.4095 69.9945C24.292 71.0945 16.6814 71.3282 12.5977 69.307" stroke="#D57D53" stroke-linecap="round" stroke-linejoin="round"/>
<path id="Vector_8" d="M35.512 46.998C35.512 46.998 32.762 63.7868 47.887 65.9043" stroke="#D57D53" stroke-linecap="round" stroke-linejoin="round"/>
<path id="Vector_9" d="M18.7148 36.5619C18.7148 36.5619 19.478 33.3719 21.8567 31.8525" stroke="#D57D53" stroke-linecap="round" stroke-linejoin="round"/>
<path id="Vector_10" d="M16.9648 34.9938C17.08 34.0506 17.4509 33.1568 18.0374 32.4092C18.6239 31.6615 19.4037 31.0884 20.2923 30.752" stroke="#D57D53" stroke-linecap="round" stroke-linejoin="round"/>
<path id="Vector_11" d="M12.5968 47.2315C12.4907 46.234 12.6315 45.2257 13.0067 44.2953C13.382 43.365 13.9802 42.5412 14.7487 41.8965" stroke="#D57D53" stroke-linecap="round" stroke-linejoin="round"/>
<path id="Vector_12" d="M14.7481 48.4072C14.7481 48.4072 14.0606 46.2897 16.7143 42.2197" stroke="#D57D53" stroke-linecap="round" stroke-linejoin="round"/>
<path id="Vector_13" d="M11.8906 57.3516C11.9381 55.9 12.3444 54.4828 13.0731 53.2266" stroke="#D57D53" stroke-linecap="round" stroke-linejoin="round"/>
<path id="Vector_14" d="M13.6562 57.7509C13.6562 57.7509 14.0619 54.7603 14.7494 53.9766" stroke="#D57D53" stroke-linecap="round" stroke-linejoin="round"/>
<path id="Vector_15" d="M11.8904 67.2382C11.8904 67.2382 10.2473 64.7288 11.8904 62.6113" stroke="#D57D53" stroke-linecap="round" stroke-linejoin="round"/>
<path id="Vector_16" d="M14.1839 67.7881C14.1839 67.7881 12.9121 65.5125 13.6546 63.6631" stroke="#D57D53" stroke-linecap="round" stroke-linejoin="round"/>
<path id="Vector_17" d="M43.6641 31.8526C45.1764 31.682 46.703 31.682 48.2153 31.8526" stroke="#D57D53" stroke-linecap="round" stroke-linejoin="round"/>
<path id="Vector_18" d="M43.0391 29.4183C43.0391 29.4183 47.4322 29.0264 48.6078 29.4183" stroke="#D57D53" stroke-linecap="round" stroke-linejoin="round"/>
<path id="Vector_19" d="M64.5672 54.189C64.5672 54.189 64.3059 51.0952 68.6922 52.1265C71.2206 52.6796 73.7176 53.3681 76.1722 54.189C76.1722 54.189 79.6784 54.3952 78.5234 61.064C77.3684 67.7327 73.4497 81.4621 69.5309 86.0134C69.5309 86.0134 67.9084 89.1483 63.8797 86.0134C63.8797 86.0134 60.1672 84.3427 57.5478 83.504C54.9284 82.6652 54.5159 80.4721 57.5478 77.4883C60.5797 74.5046 65.1928 56.334 64.5672 54.189Z" fill="url(#paint0_linear_15601_19901)"/>
<path id="Vector_20" d="M73.7148 55.8594C73.7148 55.8594 78.108 57.0625 75.9355 64.9206" stroke="white" stroke-linecap="round" stroke-linejoin="round"/>
<path id="Vector_21" d="M72.6773 55.4536C72.78 54.9863 72.247 54.472 71.4868 54.3049C70.7266 54.1378 70.027 54.381 69.9243 54.8483C69.8216 55.3156 70.3546 55.8298 71.1148 55.997C71.875 56.1641 72.5745 55.9208 72.6773 55.4536Z" fill="white"/>
<path id="Vector_22" d="M62.983 25.5961C63.0242 25.6305 63.0655 25.6786 63.1274 25.6443C63.1892 25.6099 63.1686 25.5411 63.1274 25.4861C63.0551 25.2512 63.0436 25.0019 63.0941 24.7613C63.1447 24.5208 63.2554 24.2971 63.4161 24.1111C64.5528 22.7361 65.6986 21.3428 66.8536 19.9311C67.1775 19.558 67.4156 19.1184 67.551 18.6432C67.6865 18.168 67.7159 17.6689 67.6373 17.1811C67.5328 16.3815 67.1391 15.6478 66.5305 15.1186C66.2142 14.8436 65.8842 14.5893 65.5611 14.3211L64.0073 13.0699L61.8967 11.3443C61.8555 11.3099 61.8073 11.2618 61.7455 11.303C61.6836 11.3443 61.7111 11.3993 61.7455 11.4543C61.8165 11.6893 61.8272 11.9384 61.7768 12.1786C61.7263 12.4189 61.6163 12.6426 61.4567 12.8293C61.333 12.9874 61.2023 13.1386 61.0786 13.2899C60.1619 14.3761 59.2751 15.4647 58.418 16.5555C58.1222 16.8766 57.8596 17.2267 57.6342 17.6005C57.3869 18.0454 57.2479 18.5424 57.2286 19.0511C57.1998 19.2794 57.1998 19.5104 57.2286 19.7386C57.3452 20.5438 57.7538 21.2779 58.3767 21.8011C58.9611 22.2961 59.5523 22.7774 60.1436 23.2586C60.5561 23.5818 60.9617 23.9461 61.3673 24.2418L62.983 25.5961Z" fill="#FAA22E"/>
<path id="Vector_23" d="M56.9765 12.7811C57.0178 12.8155 57.0521 12.8499 57.1003 12.8224C57.1484 12.7949 57.1415 12.733 57.1003 12.6849C57.0449 12.4859 57.0411 12.2761 57.0892 12.0752C57.1373 11.8744 57.2358 11.689 57.3753 11.5367L60.2971 7.94798C60.5794 7.62911 60.7875 7.25161 60.9064 6.84266C61.0253 6.43372 61.052 6.0035 60.9846 5.58298C60.8903 4.90593 60.5472 4.28828 60.0221 3.85048C59.754 3.60986 59.4721 3.38986 59.1903 3.16298L57.8634 2.06298L56.0553 0.612359C56.014 0.612359 55.9796 0.543609 55.9246 0.577984C55.8696 0.612359 55.9246 0.660484 55.9246 0.708609C55.9801 0.907232 55.986 1.11646 55.9416 1.31786C55.8973 1.51927 55.8041 1.70668 55.6703 1.86361C55.5671 2.00111 55.4503 2.13173 55.3471 2.26236L53.0509 5.06048C52.7927 5.33494 52.5624 5.63433 52.3634 5.95423C52.151 6.33597 52.0309 6.76213 52.0128 7.19861C51.9853 7.39934 51.9853 7.60288 52.0128 7.80361C52.1158 8.49408 52.465 9.12402 52.9959 9.57736C53.4978 9.99673 53.9996 10.4092 54.5084 10.8149L55.6015 11.688L56.9765 12.7811Z" fill="#FAA22E"/>
<path id="Vector_24" d="M5.19298 79.455C5.22735 79.455 5.2686 79.5238 5.31672 79.4894C5.36485 79.455 5.3511 79.4069 5.31672 79.3588C5.26029 79.1607 5.25335 78.9518 5.2965 78.7504C5.33965 78.549 5.43159 78.3613 5.56423 78.2038L8.49297 74.6219C8.77363 74.302 8.98066 73.9244 9.09945 73.5158C9.21824 73.1071 9.2459 72.6774 9.18047 72.2569C9.08535 71.5833 8.74807 70.9674 8.23172 70.5244C7.9636 70.2838 7.67485 70.0638 7.39985 69.8369L6.07297 68.7506L4.27173 67.2725C4.23047 67.2725 4.1961 67.2038 4.1411 67.2381C4.0861 67.2725 4.1411 67.3206 4.1411 67.3688C4.19753 67.5668 4.20448 67.7757 4.16132 67.9771C4.11817 68.1785 4.02624 68.3662 3.8936 68.5238L3.5636 68.9225L1.28798 71.7138C1.02977 71.9907 0.799493 72.2923 0.600475 72.6144C0.388858 72.994 0.268795 73.4177 0.24985 73.8519C0.2188 74.0547 0.2188 74.261 0.24985 74.4638C0.348402 75.1538 0.698547 75.7831 1.23298 76.2306C1.72798 76.6569 2.23673 77.0694 2.74548 77.475L3.79048 78.3206L5.19298 79.455Z" fill="#FAA22E"/>
</g>
<defs>
<linearGradient id="paint0_linear_15601_19901" x1="58.7509" y1="84.3496" x2="76.2547" y2="54.0308" gradientUnits="userSpaceOnUse">
<stop stop-color="#FAA22E"/>
<stop offset="0.02" stop-color="#F9982E"/>
<stop offset="0.09" stop-color="#F5732E"/>
<stop offset="0.17" stop-color="#F2552E"/>
<stop offset="0.25" stop-color="#F03D2E"/>
<stop offset="0.34" stop-color="#EE2C2E"/>
<stop offset="0.43" stop-color="#ED222E"/>
<stop offset="0.55" stop-color="#ED1F2E"/>
<stop offset="0.81" stop-color="#B92028"/>
</linearGradient>
</defs>
</svg>
