<svg width="24" height="24" viewBox="0 0 24 24" fill="none" xmlns="http://www.w3.org/2000/svg">
<path d="M16.6584 4.36363L19.6584 5.45454C19.4386 5.38119 19.2032 5.36801 18.9766 5.41636L15.9766 4.32545C16.2032 4.2771 16.4386 4.29029 16.6584 4.36363Z" fill="#AD2015"/>
<path d="M11.8086 19.1072L8.80859 18.0381L8.83587 5.81445L11.8359 6.88354L11.8086 19.1072Z" fill="#91120C"/>
<path d="M11.8369 6.88363L8.83691 5.81454L15.9769 4.30908L18.9769 5.37817L11.8369 6.88363Z" fill="#AD2015"/>
<path d="M6.64372 11.4545V9.92727C6.62645 9.42241 6.77418 8.92567 7.06453 8.51229C7.35488 8.09891 7.77203 7.79141 8.25281 7.63636L10.9092 7.09091L7.90917 6L5.27462 6.54545C4.79671 6.70095 4.38209 7.00721 4.09296 7.41829C3.80382 7.82937 3.65577 8.32311 3.67099 8.82545V10.6255L5.16008 11.1709" fill="#AD2015"/>
<path d="M6.63282 16.4563V18.2508C6.60422 18.576 6.67762 18.902 6.84282 19.1835C7.00803 19.4651 7.25682 19.6881 7.55464 19.8218L4.55464 18.7308C4.25689 18.5956 4.00837 18.3714 3.84329 18.0891C3.67821 17.8068 3.60468 17.4803 3.63282 17.1545V15.3872" fill="#AD2015"/>
<path d="M20.5746 8.782C19.4837 9.01109 18.6274 10.2547 18.6219 11.5584C18.6164 12.862 19.4892 13.7402 20.5692 13.522V15.3111C20.5829 15.819 20.4305 16.3175 20.1352 16.731C19.8399 17.1444 19.4177 17.4502 18.9328 17.602L11.8092 19.0911L11.8364 6.86745L18.9764 5.37836C19.8655 5.19291 20.5801 5.92382 20.5801 7.01473L20.5746 8.782ZM6.64372 11.722C7.73463 11.4929 8.59099 12.3711 8.59099 13.6747C8.59099 14.9784 7.71281 16.2329 6.63281 16.4565V18.2511C6.63281 19.342 7.34736 20.0511 8.23099 19.8602L10.8655 19.3147L10.9092 7.09109L8.27463 7.63655C7.79579 7.7923 7.38051 8.09939 7.09129 8.51157C6.80207 8.92376 6.65457 9.41874 6.67099 9.922L6.64372 11.722Z" fill="url(#paint0_linear_292_61190)"/>
<path d="M6.64372 11.4544L5.13281 11.1816C5.4436 11.59 5.60528 12.0923 5.59099 12.6053C5.59099 13.9144 4.71281 15.158 3.63281 15.3871L6.63281 16.478C7.72372 16.2544 8.58554 15.0053 8.59099 13.6962C8.62466 13.3008 8.53462 12.9046 8.33332 12.5626C8.13202 12.2206 7.82941 11.9496 7.46736 11.7871L6.64372 11.4544Z" fill="#91120C"/>
<path d="M15.4807 15.2729C15.4807 15.2729 15.5189 15.3056 15.5462 15.2729C15.5734 15.2402 15.5462 15.2293 15.5462 15.202C15.5149 15.0965 15.5104 14.9848 15.5333 14.8772C15.5562 14.7695 15.6056 14.6693 15.6771 14.5856L17.2425 12.6656C17.3871 12.5018 17.4954 12.3092 17.5603 12.1005C17.6252 11.8918 17.6451 11.6717 17.6189 11.4547C17.5704 11.0935 17.3896 10.7631 17.1116 10.5275C16.9698 10.3966 16.8171 10.282 16.6643 10.1566L15.9553 9.6111L14.9898 8.82019C14.9898 8.82019 14.9462 8.78201 14.9189 8.82019C14.8916 8.85837 14.9189 8.86383 14.9189 8.88565C14.9489 8.99253 14.9522 9.10516 14.9284 9.2136C14.9047 9.32205 14.8545 9.42297 14.7825 9.50747L14.608 9.72019L13.3916 11.2147C13.2579 11.364 13.1374 11.5246 13.0316 11.6947C12.9191 11.8992 12.8556 12.127 12.8462 12.3602C12.8325 12.4689 12.8325 12.5788 12.8462 12.6875C12.9064 13.0597 13.1004 13.3971 13.3916 13.6366L14.1825 14.2366L14.728 14.6893L15.4807 15.2729Z" fill="#07245C"/>
<defs>
<linearGradient id="paint0_linear_292_61190" x1="6.63281" y1="12.622" x2="20.5801" y2="12.622" gradientUnits="userSpaceOnUse">
<stop stop-color="#FA7C55"/>
<stop offset="0.11" stop-color="#F75A49"/>
<stop offset="0.31" stop-color="#F22136"/>
<stop offset="0.4" stop-color="#F00B2E"/>
<stop offset="0.97" stop-color="#C3001C"/>
</linearGradient>
</defs>
</svg>
