<svg width="25" height="24" viewBox="0 0 25 24" fill="none" xmlns="http://www.w3.org/2000/svg">
<path d="M18.8459 12.3071C18.8457 10.4415 18.1838 8.63254 16.971 7.18301C15.7582 5.73349 14.068 4.73138 12.1834 4.3444L12.3486 4.22591C11.2837 4.17548 10.2164 4.19924 9.15499 4.29701C7.2323 4.58493 5.47244 5.51023 4.17589 6.91493C2.87933 8.31963 2.12649 10.1166 2.0459 11.999C2.0459 12.0938 2.0459 12.1886 2.0459 12.2834C2.04705 14.378 2.88309 16.3913 4.37967 17.9035C5.87626 19.4157 7.91788 20.3101 10.0788 20.4002H12.1895V20.2936C14.0771 19.9046 15.769 18.8984 16.9811 17.4442C18.1932 15.9899 18.8516 14.176 18.8459 12.3071Z" fill="#AD2015"/>
<path d="M12.5463 20.4002C17.0198 20.4002 20.6463 16.7737 20.6463 12.3002C20.6463 7.82669 17.0198 4.2002 12.5463 4.2002C8.07278 4.2002 4.44629 7.82669 4.44629 12.3002C4.44629 16.7737 8.07278 20.4002 12.5463 20.4002Z" fill="url(#paint0_linear_292_58437)"/>
<g clip-path="url(#clip0_292_58437)">
<path d="M4.44629 12.3065C4.44629 12.6577 4.4716 12.9995 4.51588 13.338C4.90815 12.5407 5.43645 11.7908 6.09761 11.1263C6.8853 10.3416 7.79954 9.73098 8.79603 9.31648C8.59673 10.0664 8.48917 10.8447 8.48917 11.6421C8.48917 13.8126 9.26105 15.8661 10.6688 17.4893C10.6466 17.7614 10.634 18.0335 10.634 18.3088C10.634 18.9542 10.6973 19.5902 10.8143 20.2104C11.0104 20.2547 11.2097 20.2895 11.4122 20.3179C11.2698 19.6661 11.1939 18.9922 11.1939 18.3088C11.1939 18.2233 11.1971 18.1379 11.2002 18.0556C12.1841 19.0112 13.3482 19.7104 14.6136 20.1313C14.9426 20.0458 15.2589 19.9382 15.569 19.8117C14.041 19.4668 12.6364 18.7011 11.5008 17.5652C11.4154 17.4798 11.3299 17.3912 11.2477 17.2994C11.4723 15.1795 12.4087 13.2146 13.9366 11.6864C14.6642 10.9586 15.493 10.367 16.3883 9.92082C16.9356 10.2594 17.448 10.6612 17.9131 11.1295C19.0519 12.2686 19.7922 13.6576 20.1338 15.1225C20.254 14.7998 20.3521 14.4676 20.4312 14.129C20.0041 12.8887 19.3018 11.7212 18.3117 10.734C17.9036 10.3258 17.4639 9.96512 16.9957 9.64555C17.9194 9.26586 18.9064 9.03805 19.9219 8.96844C19.8396 8.78492 19.751 8.60141 19.653 8.42422C18.5205 8.52547 17.4291 8.81656 16.4136 9.28168C15.085 8.52231 13.5728 8.11414 12.0006 8.11414C11.2066 8.11414 10.4315 8.21855 9.68495 8.41789C10.0994 7.42121 10.7099 6.50363 11.4976 5.71578C12.0892 5.1241 12.7503 4.63367 13.4684 4.25082C13.1711 4.21918 12.8611 4.2002 12.5447 4.2002C12.5194 4.2002 12.4941 4.20336 12.4688 4.20336C11.9848 4.52926 11.5292 4.90262 11.1053 5.32344C10.1531 6.27582 9.44453 7.40223 9.00481 8.63305C7.77423 9.07285 6.64805 9.7816 5.69901 10.7308C5.21184 11.2181 4.79743 11.7465 4.44629 12.3065ZM9.45086 9.07918C10.267 8.81973 11.1243 8.68051 12.0069 8.68051C13.3514 8.68051 14.6421 8.99691 15.8062 9.59176C14.9837 10.0411 14.2213 10.6106 13.5412 11.2909C12.048 12.7843 11.0895 14.6701 10.7605 16.7172C9.65332 15.2649 9.0491 13.5025 9.0491 11.6452C9.05226 10.7593 9.19146 9.89867 9.45086 9.07918Z" fill="white"/>
<path d="M16.4108 10.5881C16.9559 10.5881 17.3978 10.1462 17.3978 9.60096C17.3978 9.05575 16.9559 8.61377 16.4108 8.61377C15.8657 8.61377 15.4238 9.05575 15.4238 9.60096C15.4238 10.1462 15.8657 10.5881 16.4108 10.5881Z" fill="#0F3E92"/>
<path d="M11.9437 17.3973C11.9437 17.9416 11.5008 18.3845 10.9567 18.3845C10.4126 18.3845 9.96973 17.9416 9.96973 17.3973C9.96973 16.8531 10.4094 16.4102 10.9567 16.4102C11.504 16.4133 11.9437 16.8531 11.9437 17.3973Z" fill="#0F3E92"/>
<path d="M10.2162 8.8573C10.2162 9.40152 9.77329 9.84449 9.22918 9.84449C8.68507 9.84449 8.24219 9.40152 8.24219 8.8573C8.24219 8.31309 8.68507 7.87012 9.22918 7.87012C9.77329 7.87012 10.2162 8.30992 10.2162 8.8573Z" fill="#0F3E92"/>
</g>
<path d="M9.97109 11.2166C10.4657 11.755 10.9183 12.3089 11.4265 12.8473C11.497 12.9241 11.6244 12.986 11.7517 13.0014C12.0912 13.0782 12.2606 13.1091 12.6 13.1555C13.052 13.2477 13.5609 13.2019 14.0135 12.9711C16.9955 11.479 19.9918 9.98619 22.9738 8.49405C23.0585 8.44764 23.1432 8.40183 23.228 8.35542C23.5532 8.171 23.68 7.8634 23.6379 7.44754C23.5532 7.09355 23.3411 6.81691 22.9738 6.72469C22.2245 6.54026 21.433 6.54026 20.7264 6.86331C20.0197 7.18636 19.313 7.54035 18.6064 7.90922C18.4369 8.00144 18.2391 8.04785 18.0691 8.00144C16.924 7.73966 15.7796 7.47848 14.5924 7.23217C14.4513 7.20124 14.2961 7.18577 14.1403 7.20124C14.0841 7.20124 14.013 7.2167 13.9567 7.23217C13.6599 7.32439 13.4194 7.50882 13.1369 7.66291C12.8685 7.84734 12.7974 7.83188 12.8401 8.00144C12.8827 8.09366 13.0095 8.27809 13.1369 8.3245C13.8293 8.67789 14.5787 9.04736 15.2853 9.35494C15.37 9.40134 15.4548 9.44715 15.5821 9.49356C15.37 9.63218 13.9993 10.3092 13.3772 10.6168C12.5858 11.0166 12.5432 10.9399 11.9638 10.709C11.1018 10.3086 10.0557 10.6781 10.0557 10.6781C9.81575 10.8471 9.77324 10.9857 9.97109 11.2166Z" fill="#0F3E92"/>
<path d="M20.396 8.3086C20.5767 8.30584 20.721 8.15601 20.7182 7.97395C20.7155 7.7919 20.5667 7.64654 20.3859 7.6493C20.2051 7.65206 20.0608 7.80188 20.0636 7.98394C20.0664 8.166 20.2152 8.31135 20.396 8.3086Z" fill="white"/>
<path d="M21.3725 7.96338C21.5533 7.96062 21.6976 7.8108 21.6948 7.62874C21.692 7.44668 21.5432 7.30133 21.3625 7.30409C21.1817 7.30685 21.0374 7.45667 21.0402 7.63873C21.043 7.82079 21.1918 7.96614 21.3725 7.96338Z" fill="white"/>
<defs>
<linearGradient id="paint0_linear_292_58437" x1="16.7463" y1="9.6002" x2="-1.25371" y2="22.2002" gradientUnits="userSpaceOnUse">
<stop stop-color="#FA7C55"/>
<stop offset="0.15" stop-color="#F75A49"/>
<stop offset="0.43" stop-color="#F22136"/>
<stop offset="0.56" stop-color="#F00B2E"/>
<stop offset="0.97" stop-color="#C3001C"/>
</linearGradient>
<clipPath id="clip0_292_58437">
<rect width="16.2" height="16.2" fill="white" transform="translate(4.44629 4.2002)"/>
</clipPath>
</defs>
</svg>
