<svg width="24" height="24" viewBox="0 0 24 24" fill="none" xmlns="http://www.w3.org/2000/svg">
<rect x="0.5" y="0.5" width="23" height="23" rx="11.5" fill="white"/>
<rect x="0.5" y="0.5" width="23" height="23" rx="11.5" stroke="#FF0025"/>
<path fill-rule="evenodd" clip-rule="evenodd" d="M9.5 8C9.5 7.72386 9.72386 7.5 10 7.5H14C14.2761 7.5 14.5 7.72386 14.5 8C14.5 8.27614 14.2761 8.5 14 8.5H10C9.72386 8.5 9.5 8.27614 9.5 8ZM11 11C10.7239 11 10.5 11.2239 10.5 11.5V14C10.5 14.2761 10.7239 14.5 11 14.5C11.2761 14.5 11.5 14.2761 11.5 14V11.5C11.5 11.2239 11.2761 11 11 11ZM13 11C12.7239 11 12.5 11.2239 12.5 11.5V14C12.5 14.2761 12.7239 14.5 13 14.5C13.2761 14.5 13.5 14.2761 13.5 14V11.5C13.5 11.2239 13.2761 11 13 11ZM8 9C7.72386 9 7.5 9.22386 7.5 9.5C7.5 9.77614 7.72386 10 8 10H8.5V14C8.5 14.1271 8.53791 14.1983 8.58665 14.2512C8.64516 14.3148 8.7468 14.3795 8.90454 14.4307C9.08567 14.4896 9.2975 14.5169 9.5 14.5231V10H14.5V15C14.5 15.2761 14.2761 15.5 14 15.5H10.0298C9.65391 15.5432 9.09194 15.5431 8.59546 15.3818C8.57857 15.3763 8.56161 15.3706 8.54462 15.3646C8.70749 16.0168 9.29732 16.5 10 16.5H14C14.8284 16.5 15.5 15.8284 15.5 15V10H16C16.2761 10 16.5 9.77614 16.5 9.5C16.5 9.22386 16.2761 9 16 9H15.5H8.5H8Z" fill="#ED0226"/>
</svg>
