<svg width="98" height="80" viewBox="0 0 98 80" fill="none" xmlns="http://www.w3.org/2000/svg">
<g id="Group 35858">
<g id="Group">
<path id="Vector" d="M83.4172 63.6484L79.8782 50.4531L51.2688 40.3906L37.886 66.6016L70.511 73.5859L87.011 79.6797C88.7297 80.3125 90.6672 79.8359 91.8625 78.4453C95.0032 74.7813 99.886 66.6328 95.425 54.5313C94.9719 53.3047 93.9797 52.3594 92.7454 51.9297C88.1047 50.2969 76.425 45.5469 75.9485 38.9219C75.511 32.8672 73.9485 26.7266 70.7844 21.5859C67.5266 16.2969 61.7376 11.7969 56.2141 9.14062C56.2141 9.14062 52.011 9.55468 53.5032 14.9453C54.9954 20.3281 59.5891 21.125 59.9875 25.7188C60.386 30.3047 55.4016 41 62.5813 51.8125C69.761 62.625 75.9485 56.9609 75.9485 56.9609" fill="#F9B08E"/>
<g id="Group_2">
<path id="Vector_2" d="M32.7767 54.9832C30.5188 54.0066 19.8235 49.8192 17.2923 50.741C14.3313 51.8192 14.261 55.577 17.0032 57.1629C24.5267 61.5067 41.9173 67.4676 41.9173 67.4676" fill="#F9B08E"/>
<path id="Vector_3" d="M68.4801 29.5532C68.4801 29.5532 51.8707 23.4907 45.4098 18.6626C39.4801 14.2329 30.0582 16.7563 22.7301 16.5922C17.9098 16.4829 12.8863 15.6235 8.12852 16.811C6.16758 17.3032 3.68321 18.2016 3.05821 20.3813C2.08164 23.8188 6.19883 25.4282 8.73789 26.4438C14.316 28.6704 31.652 33.8657 31.652 33.8657C27.5738 32.6704 23.441 31.6001 19.3004 30.6626C15.566 29.8188 11.3707 29.1001 7.31602 28.7251C2.72227 28.3032 -1.30117 31.5297 0.503518 35.6157C1.94102 38.8735 8.64414 40.7407 11.6285 41.3422C16.6129 42.3579 26.4957 45.3344 31.5582 45.8501C32.6207 47.4829 17.527 42.1469 11.6285 41.3422C4.53477 40.3735 1.63633 44.5766 5.66758 48.0844C7.60508 49.7719 10.8395 50.5844 13.2066 51.3891C17.2848 52.7797 21.4566 53.9126 25.6441 54.8969L65.1676 64.4047" fill="#F9B08E"/>
<path id="Vector_4" d="M13.9098 32.3516C13.9098 32.3516 13.5504 35.6484 12.8004 37.3984" stroke="#D47C53" stroke-miterlimit="10" stroke-linecap="round" stroke-linejoin="round"/>
</g>
<path id="Vector_5" d="M15.1754 54.4847C15.1754 54.4847 14.2301 50.5784 19.566 50.6175C24.902 50.6565 29.0348 53.2425 29.0348 53.2425" stroke="#D47C53" stroke-miterlimit="10" stroke-linecap="round" stroke-linejoin="round"/>
<path id="Vector_6" d="M55.5739 8.69531C55.5739 8.69531 53.9645 9.90626 56.441 12.3047C58.9176 14.7031 59.0739 13.6953 59.3785 13.4688C59.691 13.2344 60.6285 11.7969 60.6285 11.7969C60.6285 11.7969 57.1129 9.03125 55.5739 8.69531Z" fill="#FCD2BE"/>
<path id="Vector_7" d="M59.9801 26.9922C59.9801 26.9922 54.4801 47.0547 65.7926 55.6953" stroke="#D47C53" stroke-miterlimit="10" stroke-linecap="round" stroke-linejoin="round"/>
<path id="Vector_8" d="M59.8395 27.5391C59.8395 27.5391 61.5582 24.25 57.0114 20.4688" stroke="#D47C53" stroke-miterlimit="10" stroke-linecap="round" stroke-linejoin="round"/>
</g>
<g id="Group_3">
<path id="Vector_9" d="M3.51127 21.5304L30.6128 10.4914C31.855 10.1867 33.1597 10.5851 34.0191 11.5226L74.3394 55.2023C76.0191 57.0305 75.3238 59.9758 73.0035 60.8508L42.9019 72.4914C41.4488 73.0383 37.3003 73.3039 35.0503 70.132L1.55814 27.0617C0.0190773 25.0539 1.05814 22.132 3.51127 21.5304Z" fill="black"/>
<path id="Vector_10" d="M75.269 53.5469V58.0078L0.831543 24.1953L0.909668 18.4531" fill="black"/>
<path id="Vector_11" d="M3.51127 14.3195L30.6128 6.30388C31.855 5.9992 33.1597 6.39764 34.0191 7.33514L74.3394 51.0148C76.0191 52.843 75.3238 55.7883 73.0035 56.6633L43.4878 67.8351C41.0425 68.7648 38.2769 67.9679 36.691 65.8898L1.55814 19.8508C0.0190773 17.843 1.05814 14.9133 3.51127 14.3195Z" fill="#0A1B3F"/>
<path id="Vector_12" d="M9.04243 16.6636L29.9721 10.4761C30.9331 10.2417 31.9409 10.5464 32.6049 11.273L68.7221 50.7495C70.019 52.1636 69.4799 54.4371 67.6909 55.1167L44.894 63.7495C43.0034 64.4683 40.8706 63.8511 39.644 62.2495L7.52681 20.9371C6.33931 19.3824 7.144 17.1246 9.04243 16.6636Z" fill="#8BC53F"/>
<path id="Vector_13" d="M39.6595 26.4766L45.7845 44.6641C46.2845 46.4063 44.1674 47.875 42.183 47.1563L32.7377 43.9297" stroke="white" stroke-width="5" stroke-miterlimit="10" stroke-linecap="round"/>
</g>
<g id="Group_4">
<path id="Vector_14" d="M38.2534 19.8984C37.8315 19.8984 37.2612 19.8125 36.9174 19.4141L30.5112 11.8516C30.4643 11.8359 30.3627 11.8125 30.2065 11.8125C30.0034 11.8125 29.7846 11.8438 29.5815 11.9062L25.4487 13.1563C25.1127 13.2578 24.7534 13.3125 24.4174 13.3125C23.7534 13.3125 23.2534 13.1016 23.0034 12.7266C22.8237 12.4531 22.8002 12.1172 22.9331 11.8047L27.2065 1.96876C27.5581 1.16407 28.8237 0.859375 29.5346 0.859375C29.7456 0.859375 29.9487 0.882814 30.1284 0.921876L45.9331 4.69532C46.8159 4.90625 46.9018 5.52344 46.9018 5.71094C46.9174 6.31251 46.4018 6.82813 45.519 7.09376L41.3862 8.34375C41.3159 8.36719 41.2534 8.39064 41.1987 8.41407L47.3471 15.6797C47.5659 15.9375 47.6362 16.2656 47.5424 16.5781C47.4018 17.0547 46.9252 17.4297 46.1987 17.6484L39.2768 19.7344C38.9487 19.8438 38.5893 19.8984 38.2534 19.8984Z" fill="url(#paint0_linear_7001_9577)"/>
<path id="Vector_15" d="M29.5428 1.5625C29.6991 1.5625 29.8397 1.57813 29.9725 1.60938L37.8709 3.5L45.7694 5.39062C46.5116 5.57031 46.2616 6.14062 45.3162 6.42969L41.1834 7.67969C40.5116 7.88282 40.1444 8.26563 40.3631 8.53125L46.8084 16.1406C47.035 16.4063 46.6678 16.7813 45.9881 16.9922L39.0662 19.0781C38.785 19.1641 38.4959 19.2031 38.2381 19.2031C37.8709 19.2031 37.5741 19.125 37.4412 18.9688L30.9959 11.3594C30.8631 11.2031 30.5584 11.125 30.1991 11.125C29.9412 11.125 29.6522 11.1641 29.3709 11.25L25.2381 12.5C24.9491 12.5859 24.6678 12.625 24.41 12.625C23.8319 12.625 23.4334 12.4219 23.5662 12.1016L25.6991 7.17969L27.8319 2.25781C28.0194 1.86719 28.8397 1.5625 29.5428 1.5625ZM29.5428 0.15625C28.4334 0.15625 27.0272 0.632818 26.5662 1.68751L24.4334 6.60937L22.3006 11.5312C22.0741 12.0547 22.1209 12.6484 22.4256 13.125C22.8084 13.7031 23.5194 14.0234 24.4256 14.0234C24.8319 14.0234 25.2537 13.9609 25.66 13.8359L29.7928 12.5859C29.91 12.5469 30.0428 12.5234 30.1678 12.5234L36.3944 19.875C36.8006 20.3516 37.4491 20.6094 38.2694 20.6094C38.6756 20.6094 39.1053 20.5469 39.5037 20.4219L46.4256 18.3359C47.3866 18.0469 48.0272 17.5 48.2381 16.7891C48.3944 16.25 48.2772 15.6641 47.91 15.2344L42.4412 8.78124L45.7459 7.78125C46.9491 7.41406 47.6522 6.64063 47.6287 5.70313C47.6131 5.0625 47.2069 4.28906 46.1209 4.02344L38.2225 2.13281L30.3241 0.242188C30.0662 0.1875 29.8084 0.15625 29.5428 0.15625Z" fill="white"/>
</g>
</g>
<defs>
<linearGradient id="paint0_linear_7001_9577" x1="22.8524" y1="10.3789" x2="47.5903" y2="10.3789" gradientUnits="userSpaceOnUse">
<stop stop-color="#F9A12D"/>
<stop offset="0.0175" stop-color="#F8972D"/>
<stop offset="0.0917" stop-color="#F4722D"/>
<stop offset="0.1695" stop-color="#F1542E"/>
<stop offset="0.2508" stop-color="#EF3C2E"/>
<stop offset="0.337" stop-color="#ED2B2E"/>
<stop offset="0.4316" stop-color="#EC212E"/>
<stop offset="0.5503" stop-color="#EC1E2E"/>
<stop offset="0.8147" stop-color="#B82027"/>
</linearGradient>
</defs>
</svg>
