<svg width="25" height="24" viewBox="0 0 25 24" fill="none" xmlns="http://www.w3.org/2000/svg">
<path d="M17.4123 4.36363L20.4123 5.45454C20.1925 5.38119 19.9571 5.36801 19.7305 5.41636L16.7305 4.32545C16.9571 4.2771 17.1925 4.29029 17.4123 4.36363Z" fill="#AD2015"/>
<path d="M12.5625 19.1072L9.5625 18.0381L9.58977 5.81445L12.5898 6.88354L12.5625 19.1072Z" fill="#91120C"/>
<path d="M12.5908 6.88363L9.59082 5.81454L16.7308 4.30908L19.7308 5.37817L12.5908 6.88363Z" fill="#AD2015"/>
<path d="M7.39762 11.4545V9.92718C7.38035 9.42232 7.52808 8.92558 7.81843 8.5122C8.10878 8.09882 8.52594 7.79132 9.00671 7.63627L11.6631 7.09082L8.66308 5.99991L6.02853 6.54536C5.55061 6.70086 5.136 7.00712 4.84686 7.4182C4.55773 7.82928 4.40967 8.32302 4.42489 8.82536V10.6254L5.91399 11.1708" fill="#AD2015"/>
<path d="M7.38673 16.4564V18.2509C7.35813 18.5761 7.43153 18.9021 7.59673 19.1836C7.76193 19.4651 8.01073 19.6882 8.30855 19.8218L5.30855 18.7309C5.0108 18.5957 4.76228 18.3715 4.5972 18.0892C4.43211 17.8069 4.35859 17.4804 4.38673 17.1545V15.3873" fill="#AD2015"/>
<path d="M21.3285 8.78182C20.2376 9.01091 19.3813 10.2545 19.3758 11.5582C19.3704 12.8618 20.2431 13.74 21.3231 13.5218V15.3109C21.3368 15.8188 21.1844 16.3173 20.8891 16.7308C20.5938 17.1442 20.1716 17.45 19.6867 17.6018L12.5631 19.0909L12.5904 6.86727L19.7304 5.37818C20.6194 5.19273 21.334 5.92364 21.334 7.01454L21.3285 8.78182ZM7.39763 11.7218C8.48854 11.4927 9.3449 12.3709 9.3449 13.6745C9.3449 14.9782 8.46672 16.2327 7.38672 16.4564V18.2509C7.38672 19.3418 8.10126 20.0509 8.9849 19.86L11.6194 19.3145L11.6631 7.09091L9.02854 7.63636C8.5497 7.79212 8.13442 8.0992 7.8452 8.51139C7.55598 8.92357 7.40848 9.41855 7.4249 9.92182L7.39763 11.7218Z" fill="url(#paint0_linear_306_31348)"/>
<path d="M7.39763 11.4546L5.88672 11.1818C6.1975 11.5901 6.35919 12.0925 6.3449 12.6055C6.3449 13.9146 5.46672 15.1582 4.38672 15.3873L7.38672 16.4782C8.47763 16.2546 9.33945 15.0055 9.3449 13.6964C9.37857 13.3009 9.28853 12.9048 9.08723 12.5628C8.88593 12.2208 8.58332 11.9498 8.22126 11.7873L7.39763 11.4546Z" fill="#91120C"/>
<path d="M16.2346 15.2727C16.2346 15.2727 16.2728 15.3055 16.3001 15.2727C16.3273 15.24 16.3001 15.2291 16.3001 15.2018C16.2688 15.0963 16.2644 14.9847 16.2872 14.877C16.3101 14.7694 16.3595 14.6691 16.431 14.5855L17.9964 12.6655C18.141 12.5016 18.2493 12.309 18.3142 12.1003C18.3791 11.8916 18.399 11.6715 18.3728 11.4546C18.3243 11.0933 18.1435 10.763 17.8655 10.5273C17.7237 10.3964 17.571 10.2818 17.4183 10.1564L16.7092 9.61092L15.7437 8.82001C15.7437 8.82001 15.7001 8.78183 15.6728 8.82001C15.6455 8.85819 15.6728 8.86365 15.6728 8.88546C15.7028 8.99234 15.7061 9.10497 15.6823 9.21342C15.6586 9.32186 15.6085 9.42279 15.5364 9.50728L15.3619 9.72001L14.1455 11.2146C14.0118 11.3638 13.8913 11.5244 13.7855 11.6946C13.673 11.899 13.6095 12.1268 13.6001 12.36C13.5864 12.4687 13.5864 12.5786 13.6001 12.6873C13.6603 13.0595 13.8543 13.3969 14.1455 13.6364L14.9364 14.2364L15.4819 14.6891L16.2346 15.2727Z" fill="#07245C"/>
<defs>
<linearGradient id="paint0_linear_306_31348" x1="7.38672" y1="12.6218" x2="21.334" y2="12.6218" gradientUnits="userSpaceOnUse">
<stop stop-color="#FA7C55"/>
<stop offset="0.11" stop-color="#F75A49"/>
<stop offset="0.31" stop-color="#F22136"/>
<stop offset="0.4" stop-color="#F00B2E"/>
<stop offset="0.97" stop-color="#C3001C"/>
</linearGradient>
</defs>
</svg>
