<svg width="89" height="88" viewBox="0 0 89 88" fill="none" xmlns="http://www.w3.org/2000/svg">
    <path
        d="M42.1633 61.531C39.6883 61.0497 36.732 60.7747 33.5695 60.8435C30.407 60.9122 27.4508 61.256 24.9758 61.806L18.2383 61.8747L18.307 65.8622C18.3758 68.5435 25.2508 70.606 33.6383 70.4685C42.0945 70.331 48.9008 68.0622 48.832 65.4497L48.7633 61.4622L42.1633 61.531Z"
        fill="url(#paint0_linear_12912_126781)" />
    <path
        d="M48.8341 61.4621C48.9029 64.1434 42.0279 66.4121 33.6404 66.4809C25.1841 66.6184 18.3091 64.5559 18.3091 61.8746C18.2404 59.1934 25.1154 56.9246 33.5029 56.8559C41.8904 56.7184 48.7654 58.7809 48.8341 61.4621Z"
        fill="url(#paint1_linear_12912_126781)" />
    <path
        d="M33.8435 14.0935L21.3998 13.4748C21.3998 13.4748 20.2998 25.7123 23.7373 29.8373C25.5248 32.0373 29.1685 34.0998 29.2373 37.331C29.2373 40.7685 25.456 43.3123 23.4623 45.6498C21.606 47.8498 21.331 51.2873 21.1248 54.0373C20.9185 56.9935 19.8873 61.7373 22.9123 63.456C26.006 65.1748 30.1998 65.3123 33.6373 65.2435C36.3185 65.1748 39.0685 64.9685 41.681 64.1435C43.1248 63.731 45.4623 63.1123 45.9435 61.4623C46.356 60.156 46.081 58.231 46.081 56.856C46.0123 53.281 46.0123 48.5373 43.606 45.6498C41.6123 43.2435 37.831 41.0435 38.2435 37.3998C38.5873 34.2373 42.0248 32.0373 43.881 29.7685C47.2498 25.6435 46.2185 13.406 46.2185 13.406L33.8435 14.0935Z"
        fill="#0A1C40" />
    <path
        d="M42.1633 9.48726C39.6883 9.00601 36.732 8.73101 33.5008 8.79976C30.3383 8.86851 27.382 9.21226 24.907 9.76226L18.2383 9.83101L18.307 13.8185C18.3758 16.4998 25.2508 18.5623 33.6383 18.4248C42.0945 18.2873 48.9008 16.0185 48.832 13.406L48.7633 9.41851L42.1633 9.48726Z"
        fill="url(#paint2_linear_12912_126781)" />
    <path
        d="M48.8341 9.41841C48.9029 12.0997 42.0279 14.3684 33.6404 14.4372C25.1841 14.5747 18.3091 12.5122 18.3091 9.83091C18.2404 7.21841 25.0466 4.94966 33.5029 4.81216C41.9591 4.67466 48.7654 6.73716 48.8341 9.41841Z"
        fill="url(#paint3_linear_12912_126781)" />
    <path
        d="M23.3263 53.762L23.1888 55.137C23.12 56.1683 23.0513 57.1995 23.1888 58.162L23.2575 59.3308C23.2575 59.812 23.5325 60.2933 23.945 60.5683C25.7325 61.5995 31.2325 63.7995 42.37 61.187C42.92 61.0495 43.3325 60.637 43.4013 60.087C43.745 58.2308 44.295 53.762 43.4013 50.8745"
        fill="#FAA22E" />
    <path
        d="M43.4021 50.8059C43.6083 52.1809 39.1396 53.8997 33.7771 54.7247C28.4146 55.5497 23.5333 55.1372 23.3271 53.7622C23.1208 52.3872 27.6583 50.5997 33.0208 49.8434C38.3833 49.0872 43.1958 49.4997 43.4021 50.8059Z"
        fill="#FAA22E" />
    <path
        d="M23.8747 19.2498L23.8059 20.556C23.7372 21.7935 23.8747 23.031 24.2872 24.2685L24.4934 24.956"
        fill="#0A1C40" />
    <path
        d="M24.4952 25.506C24.2202 25.506 24.014 25.2998 23.8765 25.0935L23.6702 24.406C23.3265 23.1685 23.1202 21.8623 23.189 20.4873L23.2577 19.181C23.2577 18.8373 23.5327 18.5623 23.8765 18.5623C24.2202 18.5623 24.4952 18.8373 24.4952 19.181L24.4265 20.4873C24.3577 21.656 24.4952 22.8248 24.839 23.9935L25.0452 24.681C25.114 25.0248 24.9765 25.3685 24.6327 25.4373C24.564 25.506 24.4952 25.506 24.4952 25.506Z"
        fill="white" />
    <path
        d="M25.5273 27.156L25.5961 27.3623C25.8711 27.9123 26.2836 28.4623 26.7648 28.9435L27.6586 29.7685"
        fill="#0A1C40" />
    <path
        d="M27.6578 30.3872C27.5203 30.3872 27.3828 30.3184 27.2453 30.1809L26.3516 29.3559C25.8016 28.8747 25.3891 28.2559 25.0453 27.6372L24.9766 27.4309C24.8391 27.1559 24.9078 26.7434 25.2516 26.6059C25.5266 26.4684 25.9391 26.5372 26.0766 26.8809L26.1453 27.0872C26.4203 27.6372 26.7641 28.0497 27.1766 28.4622L28.0703 29.2872C28.3453 29.4934 28.3453 29.9059 28.0703 30.1809C27.9328 30.3184 27.7953 30.3872 27.6578 30.3872Z"
        fill="white" />
    <path
        d="M82.9991 67.9938C82.9304 65.5188 81.0741 63.4563 78.6679 63.1813C74.7491 62.6313 66.9116 61.7376 64.3679 60.7063C60.3116 58.9188 59.0741 49.7063 50.3429 48.4001C41.6116 47.0938 30.6804 42.4188 28.4116 46.3376C26.1429 50.2563 32.7429 53.2126 36.6616 55.7563C40.5804 58.3001 44.4304 61.0501 43.6741 62.4251C42.8491 63.8001 29.0991 66.4813 26.7616 66.4126C24.4241 66.3438 14.3179 60.7063 11.2241 60.7063C8.13036 60.7063 5.86161 62.4251 9.23036 65.5876C12.5304 68.7501 18.5804 73.8376 22.2241 74.7313C25.8679 75.6251 33.8429 74.6626 36.7304 74.7313C53.8491 75.2813 72.0679 85.1126 76.6054 84.9751C82.5866 84.6313 83.1366 74.1126 82.9991 67.9938Z"
        fill="#F9B08E" />
    <path
        d="M49.5178 76.1751C49.5178 76.1751 43.7428 76.7938 26.2803 80.6438C19.4053 82.1563 6.41153 69.4376 5.51778 67.1688C4.62403 64.9001 6.06778 62.7688 11.0865 65.7938C16.0365 68.7501 26.2115 73.7688 26.2115 73.7688L46.2178 69.0251L49.5178 76.1751Z"
        fill="#F9B08E" />
    <path
        d="M35.1491 47.0249L33.6366 50.8062C33.6366 50.8062 33.4304 51.7687 32.4679 51.2874C31.5054 50.8062 28.4116 49.9124 29.5804 47.5062C30.6804 45.0999 33.0866 45.7874 33.0866 45.7874C33.0866 45.7874 35.5616 46.0624 35.1491 47.0249Z"
        fill="#FDD3C0" />
    <path
        d="M7.78906 63.8C7.78906 63.8 8.68281 61.6687 11.9828 63.7312C15.2828 65.7937 14.2516 66.2062 14.1141 66.6187C13.9766 67.0312 12.6703 68.475 12.6703 68.475C12.6703 68.475 8.61406 65.3812 7.78906 63.8Z"
        fill="#FDD3C0" />
    <path
        d="M5.65625 67.4437C5.65625 67.4437 6.275 65.5874 8.8875 67.5124C11.5687 69.3687 10.8125 69.7812 10.675 70.1249C10.5375 70.4687 9.575 71.7062 9.575 71.7062C9.575 71.7062 6.34375 68.8874 5.65625 67.4437Z"
        fill="#FDD3C0" />
    <path
        d="M26.6242 75.4186C25.593 75.4186 24.0805 75.2812 22.018 74.8687C17.343 73.9062 9.16172 65.9999 8.81797 65.6562C8.68047 65.5187 8.68047 65.3124 8.81797 65.1749C8.95547 65.0374 9.16172 65.0374 9.29922 65.1749C9.43672 65.2437 17.6867 73.2874 22.1555 74.1812C26.6242 75.0749 28.343 74.5249 28.343 74.5249C28.5492 74.4562 28.6867 74.5936 28.7555 74.7311C28.8242 74.9374 28.7555 75.0749 28.5492 75.1437C28.5492 75.2124 27.9305 75.4186 26.6242 75.4186Z"
        fill="#D57D53" />
    <path
        d="M43.608 62.6313C43.5393 62.6313 43.4018 62.5625 43.333 62.4938C43.1955 62.3563 43.1955 62.15 43.333 62.0125C43.333 62.0125 43.4018 61.9438 43.333 61.7375C43.2643 61.2563 42.6455 59.95 38.4518 57.2688C37.4205 56.5813 36.3205 55.9625 35.358 55.3438C30.2705 52.25 26.2143 49.775 27.7268 46.6813C29.4455 43.1063 32.4018 43.7938 37.008 44.8938L37.2143 44.9625C41.7518 46.0625 44.3643 46.75 44.3643 46.75C44.5705 46.8188 44.6393 46.9563 44.6393 47.1625C44.5705 47.3688 44.433 47.4375 44.2268 47.4375C44.2268 47.4375 41.5455 46.75 37.008 45.7188L36.8018 45.65C32.4018 44.6188 29.7893 44 28.3455 47.0938C27.1768 49.6375 30.958 51.9063 35.7018 54.8625C36.733 55.4813 37.7643 56.1 38.8643 56.7875C42.233 58.9188 43.9518 60.6375 44.0205 61.8063C44.0205 62.2875 43.8143 62.4938 43.7455 62.5625C43.7455 62.6313 43.6768 62.6313 43.608 62.6313Z"
        fill="#D57D53" />
    <path
        d="M31.8523 75.8309C31.5773 75.8309 31.371 75.8309 31.371 75.8309C31.1648 75.8309 31.0273 75.6246 31.096 75.4184C31.096 75.2121 31.3023 75.0747 31.5085 75.1434C31.5085 75.1434 33.9148 75.4184 36.871 73.4934C37.0085 73.4247 37.2148 73.4247 37.3523 73.5622C37.4898 73.6997 37.421 73.9059 37.2835 74.0434C34.8085 75.6246 32.746 75.8309 31.8523 75.8309Z"
        fill="#D57D53" />
    <path
        d="M25.593 81.0562C24.1492 81.0562 22.3617 80.7812 20.4367 80.0249C15.2117 77.8937 7.09922 69.7812 6.75547 69.4374C6.61797 69.2999 6.61797 69.0937 6.75547 68.9562C6.89297 68.8187 7.09922 68.8187 7.23672 68.9562C7.30547 69.0249 15.6242 77.3437 20.7117 79.4062C25.7305 81.4687 29.6492 79.6124 29.718 79.6124C29.8555 79.5437 30.0617 79.6124 30.1992 79.7499C30.268 79.8874 30.1992 80.0936 30.0617 80.2311C29.9242 80.2311 28.2055 81.0562 25.593 81.0562Z"
        fill="#D57D53" />
    <path
        d="M67.5312 41.8689C67.6 41.8689 67.6 41.9377 67.6687 41.9377C67.7375 41.8689 67.7375 41.8689 67.6687 41.8002C67.5312 41.3189 67.6687 40.8377 67.9437 40.4252C69.1125 39.0502 70.2125 37.6064 71.3812 36.2314C72.0687 35.4064 72.3437 34.5127 72.1375 33.4814C72 32.6564 71.6562 31.9689 71.0375 31.4877C70.6937 31.2127 70.4187 30.9377 70.075 30.6627C69.525 30.2502 69.0437 29.8377 68.4938 29.4252C67.8063 28.8752 67.1188 28.2564 66.3625 27.7064C66.2938 27.6377 66.2937 27.6377 66.225 27.6377C66.1562 27.7064 66.225 27.7064 66.225 27.7752C66.3625 28.2564 66.225 28.7377 65.95 29.1502C65.8125 29.2877 65.675 29.4252 65.5375 29.6314C64.6437 30.7314 63.75 31.8314 62.8562 32.8627C62.5812 33.2064 62.3062 33.5502 62.1 33.8939C61.825 34.3752 61.6875 34.8564 61.6875 35.3377C61.6875 35.5439 61.6875 35.8189 61.6875 36.0252C61.825 36.8502 62.1687 37.5377 62.8562 38.0877C63.4062 38.5689 64.025 39.0502 64.6438 39.5314C65.0563 39.8752 65.4687 40.2189 65.8812 40.4939L67.5312 41.8689Z"
        fill="#FAA22E" />
    <path
        d="M61.4828 29.0813C61.5516 29.0813 61.5516 29.1501 61.6203 29.1501C61.6891 29.1501 61.6891 29.0813 61.6203 29.0126C61.4828 28.6001 61.6203 28.1876 61.8953 27.8438C62.8578 26.6751 63.8203 25.4376 64.8516 24.2688C65.4016 23.5813 65.6766 22.7563 65.5391 21.9313C65.4016 21.2438 65.1266 20.6251 64.5766 20.2126C64.3016 20.0063 64.0266 19.7313 63.7516 19.5251C63.3391 19.1813 62.8578 18.8376 62.4453 18.4251C61.8266 17.9438 61.2078 17.4626 60.6578 16.9813C60.5891 16.9813 60.5891 16.9126 60.5203 16.9126C60.4516 16.9126 60.5203 16.9813 60.5203 17.0501C60.6578 17.4626 60.5203 17.8751 60.2453 18.2188C60.1078 18.3563 60.0391 18.4938 59.9016 18.6313C59.1453 19.5938 58.3891 20.4876 57.6328 21.4501C57.4266 21.7251 57.1516 22.0001 56.9453 22.3438C56.7391 22.7563 56.6016 23.1688 56.6016 23.5813C56.6016 23.7876 56.6016 23.9938 56.6016 24.2001C56.7391 24.8876 57.0141 25.5063 57.5641 25.9876C58.0453 26.4001 58.5953 26.8126 59.0766 27.2251C59.4203 27.5001 59.7641 27.7751 60.1078 28.0501L61.4828 29.0813Z"
        fill="#FAA22E" />
    <defs>
        <linearGradient id="paint0_linear_12912_126781" x1="18.529" y1="67.4621" x2="49.0556"
            y2="62.9821" gradientUnits="userSpaceOnUse">
            <stop stop-color="#FAA22E" />
            <stop offset="0.0398717" stop-color="#F7912F" />
            <stop offset="0.111" stop-color="#F47730" />
            <stop offset="0.1855" stop-color="#F15E2F" />
            <stop offset="0.2634" stop-color="#EF482F" />
            <stop offset="0.346" stop-color="#EE342F" />
            <stop offset="0.4366" stop-color="#EE252F" />
            <stop offset="0.5503" stop-color="#ED1F2E" />
            <stop offset="0.8147" stop-color="#B92028" />
        </linearGradient>
        <linearGradient id="paint1_linear_12912_126781" x1="18.5314" y1="63.8586" x2="48.5534"
            y2="59.4527" gradientUnits="userSpaceOnUse">
            <stop stop-color="#FAA22E" />
            <stop offset="0.0398717" stop-color="#F7912F" />
            <stop offset="0.111" stop-color="#F47730" />
            <stop offset="0.1855" stop-color="#F15E2F" />
            <stop offset="0.2634" stop-color="#EF482F" />
            <stop offset="0.346" stop-color="#EE342F" />
            <stop offset="0.4366" stop-color="#EE252F" />
            <stop offset="0.5503" stop-color="#ED1F2E" />
            <stop offset="0.8147" stop-color="#B92028" />
        </linearGradient>
        <linearGradient id="paint2_linear_12912_126781" x1="18.5256" y1="15.445" x2="49.0522"
            y2="10.9651" gradientUnits="userSpaceOnUse">
            <stop stop-color="#FAA22E" />
            <stop offset="0.0398717" stop-color="#F7912F" />
            <stop offset="0.111" stop-color="#F47730" />
            <stop offset="0.1855" stop-color="#F15E2F" />
            <stop offset="0.2634" stop-color="#EF482F" />
            <stop offset="0.346" stop-color="#EE342F" />
            <stop offset="0.4366" stop-color="#EE252F" />
            <stop offset="0.5503" stop-color="#ED1F2E" />
            <stop offset="0.8147" stop-color="#B92028" />
        </linearGradient>
        <linearGradient id="paint3_linear_12912_126781" x1="18.5279" y1="11.8415" x2="48.5499"
            y2="7.43565" gradientUnits="userSpaceOnUse">
            <stop stop-color="#FAA22E" />
            <stop offset="0.0398717" stop-color="#F7912F" />
            <stop offset="0.111" stop-color="#F47730" />
            <stop offset="0.1855" stop-color="#F15E2F" />
            <stop offset="0.2634" stop-color="#EF482F" />
            <stop offset="0.346" stop-color="#EE342F" />
            <stop offset="0.4366" stop-color="#EE252F" />
            <stop offset="0.5503" stop-color="#ED1F2E" />
            <stop offset="0.8147" stop-color="#B92028" />
        </linearGradient>
    </defs>
</svg>
    